<svg xmlns="http://www.w3.org/2000/svg" height="480" viewBox="0 0 512 512" width="640" version="1"><defs><clipPath id="a"><path fill-opacity=".7" d="M-85.3 0h682.6v512H-85.3z"/></clipPath></defs><g fill-rule="evenodd" clip-path="url(#a)"><path fill="#009" d="M-85.3 0h682.6v512H-85.3z"/><path d="M-85.3 0l682.6 512V0H-85.3z" fill="#fc0"/><path fill="#fff" d="M-21.5 75l-24.4-17.6L-70.3 75l9.4-28.7-24.4-17.7h30.1L-45.9 0l9.4 28.7h30.1l-24.4 17.7M30.1 112L5.7 129.7 15 101-9.4 83.3h30.2L30 54.6l9.3 28.7h30.2L45.2 101l9.3 28.7m27.1 54.6l9.4-28.7L66.6 138h30.1l9.3-28.7 9.4 28.7h30.1l-24.4 17.7 9.3 28.7-24.4-17.7m61 43.7l-24.5-17.8h30.2l9.3-28.7 9.3 28.7h30.2L197 210.3l9.3 28.6-24.4-17.7-24.4 17.7m60.9 8.2h30.1l9.3-28.6 9.4 28.6h30.1L273 265l9.3 28.6-24.4-17.7-24.4 17.7L243 265m81.7 36.8l9.3-28.6 9.3 28.6h30.2L349 319.5l9.3 28.7-24.4-17.8-24.4 17.8 9.3-28.7-24.4-17.8m115.4 26l9.3 28.7h30.2L424.9 374l9.3 28.7-24.4-17.8-24.4 17.8 9.3-28.7-24.4-17.7h30.2m85.3 25.9L495 411h30.1l-24.4 17.7 9.4 28.7-24.4-17.7-24.4 17.7 9.3-28.7-24.4-17.7h30.2m94.5 54.6h30.2l-24.4 17.7 9.3 28.7-24.4-17.7-24.4 17.7 9.3-28.7-24.4-17.7h30.2l9.3-28.7"/></g></svg>