<svg xmlns="http://www.w3.org/2000/svg" height="480" width="640" version="1"><path fill="#c00" d="M0 0h640v480H0z"/><g stroke-width="1pt"><path fill="#006" d="M0 0h512v256H0z"/><path fill="#fff" d="M0 0v28.6L454.8 256H512v-28.6L57.2 0H0zm512 0v28.6L57.2 256H0v-28.6L454.8 0H512z"/><path fill="#fff" d="M213.3 0v256h85.4V0h-85.4zM0 85.3v85.4h512V85.3H0z"/><path fill="#c00" d="M0 102.4v51.2h512v-51.2H0zM230.4 0v256h51.2V0h-51.2zM0 256l170.7-85.3h38.1L38.2 256H0zM0 0l170.7 85.3h-38.2L0 19.1V0zm303.2 85.3L473.8 0H512L341.3 85.3h-38.1zM512 256l-170.7-85.3h38.2L512 236.9V256z"/></g><path d="M481.7 463.2c3.4.4 128.2-32 128-82.8V132.2h-256v248.2c-.2 50.7 128 82.8 128 82.8z" fill-rule="evenodd" fill="#fff"/><path d="M-903.5 822c1.2 325.7-655.5 534.5-673.3 531.5 0 0-674.4-205.8-673.2-531.5 7.2-10.5 10-14.5 10.4-27.8 2.3-6.9 1.7-15.1 1.7-23v-23c-1.8-5.2-1.7-13.8-1.7-21.4-.2-5.8-1.6-15.5-1.6-16.5 1.3 9.5 3 14.1 6.6 1.7 2.5-6.3 3.9-11.5 6.5-19.7.3-8.1 1.7-14.6 1.7-23 0-8 .4-15.6 1.6-21.4 2.6-2.1 4.8-5.8 8.3-3.3-.4 8.3-2.3 12.8-3.3 21.3v46c.1 5.5.9 10 3.3 13.2.2-8 1.6-14.5 1.6-23 1.9-5.7 3-13.1 6.6-18 2-7.5 5.2-13.6 8.2-21.4 2.5-7.8 5-13.2 6.6-19.8 3.6-4 7.6-11 11.5-14.8 8.4-5.4 6 2.8 3.3 9.9v23c5.8 1.7 2-2.3 6.5-6.6a102 102 0 0 1 8.3-19.7c2.9-4.7 6.7-9.2 9.8-14.8 3.4-2 12.6-8 13.2-8.2-3.7 3.8-6.8 9.3-9.9 14.8-1.2 5.8-1.6 13.4-1.6 21.4.6 15.8 3.8 3 6.6-3.3 3.3-2.8 1.8-4.6 8.2-5 9.7-6.5 6.6.7 5 8.3-1.4 7.3-1.7 14.8-1.7 23 0 9 1.5 12.7 1.6 21.4 0 7.5 0 16.1 1.7 21.3 1.1 9 3.5 12.6 6.5 19.8 2.5 7.2 5.4 11.8 8.2 18 6.5 8 3.3.8 3.3-8.2v-46c3-5.2 4-11.5 8.3-16.5 1.6-6 4.6-10.6 8.2-14.8 2.4-3.9 6.1-8.8 8.2-13.1v23c0 8.2.3 15.7 1.6 23 2.3 7.7 4 12.3 5 19.8 4.3 2.7 5.9 6.9 9.8 9.8 2-7.6 3.3-14.4 3.3-23v-23c1.4-7.7 3-14 5-19.7 2.2-7 3.6 1.8 5 4.9 2.7 6 5.7 9.2 9.8 16.4 4.8 3.5 6 8.8 9.8 13.2 1 4 1.3 13.1 3.3 16.4 1.8-8 4.8-12.8 6.6-21.3 5-4.9 7.8-8.3 13.2-11.6 8.3-1.6 12.2-3.9 19.7-4.9 10.4 0 8.5 1 1.6 6.6-2.6 4.2-6.3 10.9-9.8 14.8-1 7.5-3 11.2-3.3 19.7.6 8.5 3 15.1 5 21.4 4-4.6 8.6-14.5 11.4-19.7 4.4-5 6.5-12.5 9.9-16.5 3.5-4.3 8.1-7 14.8-8.2 4-3 8.9-3.3 16.4-3.3 15.1 4.8 32 3.4 47.7 5 12.2 0 20-2.3 31.3-5 12.3-2.5 25.3-2.8 37.8-5 12.5 0 26.4-1 37.8 1.7h32.9c11.9 0 23.5-.2 34.5-1.6 13.3 0 26.8.6 39.5-1.7 14.6 0 28.3-1.1 42.7-1.6 19.8 0 38-2.4 57.6-3.3 14.9-.6 26.9-5.4 41-8.2 9.6-2.2 20.8-1.7 31.3-1.7 12.5 0 22.5 2.3 34.6 3.3 10.2 0 19.6.9 29.6 1.7h102c12 0 23 .7 34.4 1.6 10.3 0 19.7.8 29.6 1.7h26.3c7.3.8 16.3 1 23 3.2 9.6 0 17.3 1.4 26.4 1.7 8.5.5 15.7 1.6 24.6 1.6 8.3.3 15.3 2 23 3.3 7 1 12.6 2.8 18.1 5 4.7 2.2 12.3 5.2 16.5 8.2 9.1 0 13-1.7 19.7-3.3 4.6-3.5 9.7-3.7 9.9-6.6-5 4.5-9.5 5.6-11.5 13.2-1 2.5-4.4 12 0 9.8 6-3.5 10.3-7.5 13.1-13.1 4.7-6.6 6.9-10.7 11.5-16.5 3.5-6.6 9.3-10.7 13.2-14.8 4.6-6.7 7.3-10.1 3.3 1.7-1.4 7.9-2.7 14-3.3 21.4-1 7-2.7 12.5-5 18 0 5.1-.4 10.4 1.7 13.2 7.6-2.2 15-6.2 19.7-9.9 6.5-1.7 12-5.2 18.1-9.8 8.1-2 13.4-2.3 14.8-5a89 89 0 0 1-13.1 11.5c-2.2 4.7-6 7.4-5 11.6 5.1-1.2 15-1.7 19.8-3.3 7.7-2.7 11.1-4.3 19.7-6.6 14.8.2 2.5 2.2-5 6.6-4.4 3-9 7.5-14.7 11.5-3.7 6.8-6.2 12.1-9.9 16.4-2 7.2-4.6 12.3-8.2 16.5-1.5 6.2-3.6 11.6-5 18-1.4 10.6-5.3 13.2 6.6 8.3 5.1-5.6 10-10.2 13.2-14.8 3-4.8 7.2-10.6 11.5-14.8 2.3-6.4 5.8-9 9.9-16.5 3.6-3.8 8.8-9.6 13.1-14.8a51 51 0 0 1 14.8-9.8c9-3 7.9-8.8 5 1.6a33.2 33.2 0 0 0-6.6 16.5c-3.6 14.8.3 9.1 6.5 4.9 5.4-4.4 3.4-7.5 11.6-9.9 1.8-1.5 10.5-6.3 8.2-1.6-1.1 7.4-4 10.8-6.6 16.4a80.2 80.2 0 0 0-8.2 18.1c-3 3.9-5 8.3 0 6.6 8.5-1.9 11-5 16.4-8.2 3.2-7.3 6.4-9.7 9.9-14.8-2 8-5 13.5-6.6 19.7a46.8 46.8 0 0 0-8.2 16.4c-3.6 7-4.8 10.4-5 19.8-2.2 7.5-5 12.9-1.6 19.7 5.2-5.4 9.9-8.8 13.2-16.4a41.5 41.5 0 0 0 6.5-16.5c1.6-6.6 4-10.7 5-18 2.3-7 1.6-15.2 1.6-23v-23.1c0-7.9-2.6-14.4 0-19.7 5 5 6.3 9.7 9.9 16.4 2.1 8.4 5.8 13.2 6.6 21.4 3.3 4.9 3.8 11 6.5 18 .6 8.1 2.1 15.2 0 21.4-.5 5.3-3 9.1 0 13.2 5.4-4.4 5.6-11 6.6 3.3 0 7.2.3 14 .9 21.3z" fill-rule="evenodd" transform="matrix(.19 0 0 .1557 781.4 252.5)" stroke="#002b00" stroke-width="11.1" fill="#007a0f"/><path d="M-2178.7 685.7c-.6 4.2-1.6 17-1.6 26.3 0 8.4.7 14.8 1.6 21.4.6 5.9 1.9 6.8 0 11.5m24.6-72.4c.6 4.3 1.6 17 1.6 26.3 0 8.8-1 14-1.6 21.4-.3 8-1.6 12.4-1.6 21.4v6.6m-16.5 11.5c1.6 0 1 4.2 1.6 9.8 1 7 2.5 13 5 18.1.3 9.4 2.1 11.4 8.2 14.8 5.9 5.8 8 9.7 11.5 14.8 4.2.8 5 1.9 6.6 5m-90.4-13.2h1.6c8.5 1.4 20.2 1.2 26.3 3.3 6.4 1.5 14 4.5 18.1 8.2 6.7 7.4 9.3 12.7 18.1 16.5 7.4 4.3 14.9 5.8 23 8.2 7.6 3.2 12.7 5.6 18.1 8.2 7.8 4 14 8.5 23 9.9h23c7.8 0 12.7.2 16.5-3.3l-16.4 3.3c7.7 0 12.6.2 16.4-3.3m-138.1 67.4h52.6c3.4 7 6.5 9.3 13.2 11.5 5.3 3.9 12.3 6 19.7 6.6h3.3m-74 9.8c4.5-.9 17.3-4.2 26.3-4.9 9.6 0 14.8 2 19.7 6.6 5 3.4 8 6.6 14.8 9.9a68.6 68.6 0 0 0 23 3.3c.8 2.3.5 1.6 3.3 1.6m-65.7 16.4h29.6c5.9 2.8 10.8 3.2 13.2 9.9 6.8 5.7 9.8 9.5 19.7 9.9 3.8 2 11.8 1.6 18 1.6m-1.6 36.2h29.6c9.7 1 16.5.3 21.4 6.6 5.4 7.8 10 6 16.4 9.8 5.7 0 9.5 1.2 14.8 1.7m-11.5 27.9c4.3.6 17 1.6 26.3 1.6 9 1.3 9.8 3.4 14.8 10 2.8 9.5 7.5 8.8 18.1 9.8 7.2 0 13-.6 18-1.7M-2149 763l1.6 1.6c-3.7-3.7-1.9-2.4 1.7 6.6.6 8 2 12.8 5 19.7 3.8 5.6 7.1 11 9.8 16.5 3 6.6 6.8 11.8 11.5 16.4.7 2 1.2 2.6 3.3 3.3m1.6-57.6c.8 0 5.2 5.1 8.2 10 5.7 4 10.2 9.1 14.8 14.7 5.1 3.4 11.1 7.6 18.1 11.5 8 2.8 10.8 5 18 8.2 4 3.4 11 5.8 16.5 8.3 2.5 0 1.3-.4 3.3 1.6m-41.1-70.7c-1.8 0 0 4.2 0 9.9 2.8 6 7 12 11.5 18a70 70 0 0 1 14.8 16.5c2.7 4.2 5.7 7.3 11.5 9.9m1.7-67.5c0 6 1.6 17 3.3 26.3 2.9 6.9 5 11.3 6.6 18.1 1 6.9 3.6 12.9 8.2 18.1a37.3 37.3 0 0 0 16.4 11.5c6.4 2.8 10.8 4.9 19.8 5 6.5-1 13-1.7 21.3-1.7h13.2" transform="matrix(.19 0 0 .1557 781.4 252.5)" stroke="#002b00" stroke-width="11.1" fill="none"/><path d="M-1999.5 753.1c.1 5.3-1.4 10.8 5 14.8a95.2 95.2 0 0 0 11.4 21.4 25 25 0 0 0 18.1 9.8c5.8 1.4 14.5 2.7 21.4 5 6.2 4 12.8 10.9 21.4 13.1l-21.4-13.1c6.2 4 12.8 10.9 21.4 13.1m-62.5-64.1c4.3 5.5 16.1 17.8 24.7 26.3a81 81 0 0 0 18 11.5c7.6 1.2 15.9 4.5 21.4 6.6 3.6 1.5 4.6 3 9.9 3.3m-51-67.4l1.6 1.6c-4.6-4.7-2.2-2.1 8.3 6.6 6.1 5 8.6 6.3 9.8 14.8 3 2.8 4 7.9 8.2 5-.5-9.8-5-13.2 3.3-8.3a37 37 0 0 0 11.5 14.8c3 3.2 6.6 4.7 13.2 5m115.1 182.4c4.1.6 21.4.6 29.6 3.3 7.3 1.3 14.8 1.7 23 1.7 8.3-.3 13-2.8 21.4 0 9.6.7 10.7 3 18 9.8 6.2 4.2 8.8 8.9 13.2 16.5 2 1.2 14.3 8.8 5 3.3m-118.4-74c5.5 2.9 18.2 10.3 24.7 14.8 8.6 1.9 11 4.6 19.7 6.6 8.8-.1 14.3-2.4 21.4-3.3a37.2 37.2 0 0 1 21.3 0 98.5 98.5 0 0 1 18.1 8.2c3.3 4 13.6 11.5 3.3 3.3-2.7-3.9-3.8-4.4-8.2-6.6m-65.8-26.3c6 .2 21 2.2 31.2 3.3 7 2.3 15.6 2.7 23 3.3 8.7 1.5 15.1 2 21.4 6.6 4.5 3 10.6 8.7 14.8 13.1 9.3 4 3.7 3-3.3-3.3m-62.4-37.8c6.5 0 16.6 1.4 26.3 3.3 3.8 4.6 10 5.9 18.1 8.2 5.7 1.4 10 4.7 16.4 8.2m62.5 103.6l1.6-1.6c-3.6 3.6-2.4 1.7 6.6 0 10-2.7 19.3-3.8 29.6-1.7 8 0 16 .1 23-1.6 3.3-2.5 7.5-1.3 9.9-5 4.7-.8 4.6-4.6 5 0m-70.7 36.2c8.7-.4 26.4-1.6 36.2-8.2 6.3-2 12.6-5.6 19.7-6.6 8.4 0 15.2-1 23-1.6 9.5-.6 18-1.7 28-1.7h24.6c8.3 0 15.5.7 23 1.7 6.5 1 14.3 4.9 18.2 8.2a35.2 35.2 0 0 0 18 0m-21.4 154.6l1.6-1.6c-3.3 3.3-2.3 2 5-1.7 9.8 0 19-.5 28-1.6 8.5.2 17.4 1.2 23 4.9 7.6 2.5 15 3.4 21.3 6.6 8 3 13 5 21.4 6.6 4.5 2.2 15.1 1.7 21.4 3.2 8 0 15.9.2 23-1.6 8.6-1.8 13.4-4.8 21.4-6.6a40 40 0 0 1 19.7-9.8c3.2-3.9 7.7-8.4 11.5-11.6l-11.5 11.6c3.2-3.9 7.7-8.4 11.5-11.6m24.7-393c6.1-.4 18.6-2.7 26.3-6.5 6.5-1.9 14.2-5 18.1-8.3 6.5-1.7 10.7-4 18-6.5 7-5 14.8-9 18.2-13.2 9.1-4.2 11.3-6.8 14.8-14.8 1.8-2.5 1-4.2 3.3-5m37.8 0c-.8 0-5.2 5.1-8.2 10-5.7 5.2-11 12.8-14.8 19.7-4.4 3-9 8-14.8 11.5-7.5 6.3-13 10.3-21.4 14.8a53.8 53.8 0 0 1-19.7 8.2c-7.7 2.7-11.2 4.3-19.8 6.6m133.2-65.8l-1.6 1.6c4-4 2-2.2-5 6.6a112.8 112.8 0 0 0-14.8 16.5c-4.6 3-12.7 11.3-18 14.8-7.4 6-14.2 8-19.8 13.1-8 3.1-13.2 6.6-21.4 9.9-4.7 2.2-11.8 3.9-16.4 6.6h-5m92.1-10l-1.6 1.7c3.9-3.9 2-2.3-3.3 6.6-6 4.1-8.6 8-14.8 11.5 0 2.2.5 1.7-1.7 1.7m92.2-49.4c0 .5-3 4.8-5 10-4.5 4.5-6.8 11.1-11.5 16.3-3.6 7.6-6.5 9.2-13.1 16.5-4.4 2.8-11.5 7.3-14.8 11.5-6.8 3-11 6.4-18.1 8.2m6.5 13.2c6-2.2 16.4-7.8 23-11.5 5.6-3 12.1-7.2 16.5-9.9 2.2-6.2 7.1-9.4 14.8-13.2 3.3-4.8 8-7.8 13.1-13.1 5-2.8 6.7-6.4 9.9-9.9m-80.5 65.8c7 0 20-.1 28-5 8.6-2.6 11.6-6 19.7-8.2 4.5-3.1 11.6-6.2 16.4-9.8l-16.4 9.8c4.5-3.1 11.6-6.2 16.4-9.8m64.1-18.1c-3.6 6-11.3 19.2-19.7 24.7-3.2 3.8-11.5 7.5-16.5 11.5-5.1 2.4-12.7 5.7-19.7 9.8a95.2 95.2 0 0 0-19.7 6.6m-55.9 32.9c5.7-2.4 16-8.2 24.7-11.5 4-2 8.2-1.7 13.1-1.7m0 23c.6 0 5-4 9.9-6.5 6.4-4 13.7-8.2 19.7-11.5 6.8-1.8 14.3-6.9 23-8.3 4.5 2.3 14.7 2.9 21.4 3.3h9.9m-62.5 36.2c7-.2 17.9-.3 24.6-5 5.5-.8 10.3-2.4 13.2-4.8m-154.6 87.1a63 63 0 0 1 13.2 3.3c5.7 2.9 8.5 6.1 14.8 9.9 5.4 4.7 12.5 6.2 21.3 6.5h23c9.7-.5 14.1-3 23-3.3 7.8 0 13.1-1 18.2-3.2m-131.6 6.5a36 36 0 0 1 18 5c8.2 7 13.7 11.1 23.1 13 7.4.7 12.6 1.7 21.4 1.7 8 0 15.9-.1 23 1.7 6.4.2 8 1.6 14.8 1.6" transform="matrix(.19 0 0 .1557 781.4 252.5)" stroke="#002b00" stroke-width="11.1" fill="none"/><path d="M75 83c-1 0-2.3 0-3-.3-1-.3-1.9-.7-2.5-1.5-1.1-.7-1.5-1.4-2.4-2.3-.2-1-.8-1.9-1.4-2.6 0-1.7.3-2.3.9-3.2 1.3-.5 1.9-.9 3.5-1.2.7-.5 2-1 2.9-1.4-.5-.8-1-1.2 0-2a5 5 0 0 1 2.9-1.5c1.4.1 1.8.7 2.6 1.4 1.4 0 2.8 0 4 .3 1.2.3 2 .7 3.2 1.5 1.2.4 1.8.8 2.4 2 1 1 .3 1.5.3 3-.2 1.8-.8 1.7-1.8 2.5a8 8 0 0 0 3.8.9h8.1c1.4-.4 1.6-.8 2-2 .4-1 1-2.2 1.2-3.2.7-.8 1-1.7 1.8-2.4.5-1 1.2-2 2-2.6a6.8 6.8 0 0 1 2.6-2.3c1-1 1.7-1.4 0-1.5-1.4.3-2 1-3.5 1.2-.2-.7-.2-1.7.3-2.3.4-1.5 1.2-2.3 1.5-3.5.7-.8.9-1.8 1.4-3.2 0-1.3-.3-2.4-.5-3.5-.4-1-.6-1.9-.6-3.5.3-1.2.5-2 1.4-2.6.6-1 1.2-1.5 2.4-2 .5-.8 1.4-1.3 2.3-1.8.6-.8 1.4-1.2 2-2.3.4-1 .7-2 .9-3.2.4-.8.5-2.5.6-3.8 0-1.5-.2-2.4-.9-3.2-.4-.9-.6-2.1-1.2-2.9 0-1.6.2-2.5.6-3.5.3-1.5.3-2 .3-1.1V23c1.7 1 2.1 1.4 4 1.4.9 0 1.4 0 2.1-.3 1.7.2 2.3.2 2.3-1.7.3-1 .5.4.6.9.7 1.3.7.4 1.5-.3.4-1.5 1-.6 2-.3.1-.4.5-.5.9-.9.2 1.1.5 2 1.4 2.3 1.5-.2 1.6-.8 1.8-2.3 1-.2 1.1-.5 1.1.9.8.1 1.4.5 2 0l1-1.8c.3 1.7.5 2 2.3 2 .6-.5.8-.8.8-2 .7.8 1.5 1.4 3 1.5 1.1.1 1 .5 2.3.6.3.7.5 2 1.1 2.6 1 .6 2.4.9 3 .6 0-.8-.2-1.7.2-2 1.2-.4 2.2-.1 3.2.2 1.5.4 1.5.8 1.5 2.6-.1 1.5-.3 2.8-.9 3.5-.2 1.1-.3 2.6-.9 3.8-.5 1.6.5 1.7.6 3.5.3 1-.2 2.3-.3 3.8 0 1.6 0 2.4 1.2 2.9.7 1 1.5 1.5 2.3 2.3 1 1.1 1.5 1.6 2 2.6 1.1 1.2 1.3 1.7 2 3 .6 1 1 1.6 1.5 2.8a7 7 0 0 1 0 3.5c-.9.8-1.4 1.6-1.4 3.2-.4.9-.5 2.4-.6 3.5.3 1.2.9 2 1.5 3 .6.7 1.6 1.5 2.3 2 .6.7 1 1.6 1.7 2.3.4 1.2.9 1.8 1 3.5l.5 3.5c.7.6.6.8 2 .8 1 .6 2 .6 3.5.6 1.3.1 2.2.3 3.8.3 1.2 0 2.4 0 3.2-.3.6-1 1-2.6 1.4-3.5.1-1.2.4-2.3.6-3.5.7-.7 1.2-1.4 2-2a7 7 0 0 1 3.5-.9c1.5.4 2.4.8 3.2-.3 1.2-.3 1.9-.5 3.5-.5 1.8-.5 2.2-.2 3 .8.2 1.1.4 2.4.8 3.2a26 26 0 0 1 2.3 1.8c.4.8.6 1.4.6 2.9.5.9.1 1.9 0 2.9l-2 2.3c-.4.4-.8.8-1.5.9l.6.6L186 96l-106-.8L75 83z" fill-rule="evenodd" transform="matrix(1.4523 0 0 1.399 292.5 115.2)" stroke="#2b2b2b" stroke-width="1pt" fill="#d40f0f"/><path d="M130 29.5l.2.3.9 1.1v4c0 1.7.3 2.5.6 3.6.4.3.4.8.8 1.1m6.2-9.8v.3c0-.9 0-.4-1 1.1a4.8 4.8 0 0 0-.2 3.5c.3 1 .3 2.4.3 3.8-.2.4-.2.1-.3.6m7.3-1.8h-.3c.8 0 .3 0-1.2.9-1.3.8-1.8 1.2-3.2 1.4-1 1-1.5 1.2-3.2 1.2-.1.4 0 .3-.6.3m1.5 1.4v.3a15 15 0 0 1 2.3-.5c.7-.6 2-.9 2.6-1.5 1.1-.1.8-.5 2-.6l-2 .6c1.1-.1.8-.5 2-.6m-2.6 3.5c.5 0 2.6.1 3.5.3h1.5m-38.7 6.4h.3c-.8 0-.4 0 1.2-.3 1.3 0 2.4-.3 3.8-.6 1.5-.4 2.1-.4 3.2-1.4 1.1-.8 1.5-1.5 1.7-3 .2-.9.3-2 .9-2.5m1.7 3.7v1.5c0 1.5 0 2.6.6 3.5.6 1.2 1 1.8 2 2.3l3 1.2h.8m.9-1.5h1.4c2.2 0 4 .2 6.1.3h4.1c1.4 0 2.6-.3 4-.3h3m-25.3-9.9h1.4c1.2-.4 2.9-.3 4.1-.6l1.5 1m-5.8-4.4h.3c-.8 0-.4 0 1.1.2.7.7 1.4 1 2.6 1.2m-3.2-4.4h.3c-.8 0-.4 0 1.2.3.7.8 2 1.5 2.6 2.4.6.3 1 .8 1.7 1.1m-14 13.7v.3c0-.9 0-.4 1 1.1 0 1.4.2 3 .8 3.8.2 1.4.3 1.8-.3 3-.4 1-1 2.2-1.7 2.8-.6.9-1.4 1.2-2 2-.8.6-1.6 1.6-2 2.4-1.2 1.2-1.4 2-2.4 2.6-.4 1.1-1 1.7-1.4 3-1 1-1.6 2-2 3.1-.5 1-.5 2.6-1 3.8v.9m7.9-2.7v-1.4c0-1.5.1-2.7.3-4 .4-1.1.9-2.3 1.1-3.6.6-.8.9-1.7 1.5-2.9.3-1.1.9-2 1.7-2.6.4-1 .9-1.7 1.5-2.9.5-1 1.4-2 1.7-3.5.5-.5.6-1.4 1-2.3m2.5 1.4v.3c0-.8 0-.3-.6 1.2l-1.4 3.5c-.6 1.3-1 2.7-1.5 4a23 23 0 0 0-.2 4.1v4.1c0 1.5-.3 2.6-.3 4-.4.8-.5 1.6-.3 1.8m7.5-21.8c-.2 0-.1.8-.3 1.8 0 1.3-.3 2.4-.3 4-.2 1.4-.7 2.6-.8 3.8-.4 1.4-.8 2.1-.9 3.8.6.9 1.4 1.5 1.7 2.9l1.5 3.2c0 1.6.3 2.2.3 3.8 0 .7 0 1.1.3 1.7m4.3-23v.3c0-.8 0-.3-.5 1.2-1 1.2-1.5 2.3-2 3.2-.5 1.4-1 2.7-.7 4 .1 1.4.4 3 1 3.8l.2 3.8c.1 1.3.3 2.3.3 3.8 0 1.2 0 2.4-.3 3.2-.5.2-.4.5-1.2.6m-.5-30.8c-.4 0 .1.7.2 1.7.5.7.3 2.1.3 3.2m4.7-4h.3c-1 0-.4-.1 1.1 1.1.3 1 .5 2.1.6 3.2m4.1-5.2v1.4c.3 1.4.6 2.5.6 4l-.6-4c.3 1.4.6 2.5.6 4m2.9-5.1h.3c-.9 0-.4 0 1.1.8v.9m-3.2 5.2h-.3c1 0 .4 0-.8 1.5l-1.5 2.6a6 6 0 0 0-.8 2.6m-1.5-6c-.2 0-.5.8-1.2 1.4-.2 1.2-.5 2-.5 3.5 0 1.8.3 2.2 1.1 3.4.7.8 1 1.6 1.2 3v8c-.2 1.4-.6 2-1.5 2.7-1 .7-1.2.2-2-.9-.3-.9-.7-1.3-.9-2.3m11.4-19.5v.3c0-.8 0-.4-.3 1.2l-1.8 3.5c-.4 1-.6 1.9-.6 3.5.3 1.3.6 2.6.6 4 0 1.6-.4 2.6-.6 3.8-.5 1-1 2.5-1.7 3.2l-.3.6m8.1-23.3v.3c0-.8 0-.4-.5 1.2-.1 1.4-.5 2.6-.6 3.8-.4.9-1 2.6-1.5 3.5-.6 1-.8 1.4-.8 3.2.6 1 1.5 1.9 2.6 2.3l1.1 3.2c.1 1.4.4 2.6.6 4v1.2m2.3-20.3l-.3.3c.7-.7.4-.5 0 1.1l-.2 4c-.6 1.1-1 2.3-1.2 3.6.2 1.4.9 1.7 2 2.3.7.6 1.7 1.2 2.6 1.7a9 9 0 0 1 2.7 2.4c.8 1 1.4 1.3 2 2.6.2 1.2.6 2.4.3 3.5 0 .4 0 .3-.3.3m-5.5-28.5h.3c-1 0-.4-.1.8 1.4.4 1.3.3 2.7.3 4.1.6.8.8 2 1 3.2.2 1 .2 2.4.2 3.8-.1 1.1-.5 1.8 0 2.9 1.3.7 2.1 1.6 2.9 2.3a6 6 0 0 1 2.3 2c.6 1 1.2 2 1.8 2.7.2 1.3.3 2.6.3 4 0 1.7 0 2.6-1 3.5-.4 0-.8.1-.2.3m-12.8-42.1v1.4c.2 1.4.9 2.3 1.8 3.2a7.7 7.7 0 0 0 2 2c1.1.4 1.5.6 2.9.6m-3.2 1.5h.3c-.8 0-.4 0 1.2.3 1 .5 1.4 1.1 2.3 1.7.2 1 .6 2.4 1.1 3.2.2 1.2.4 2.3 1 3m-30.9-15v1.5c.8.8 1.6 1 3.2 1l3.8.2h4c1.6 0 2 0 2.4-1.4.6-.9-.2-1.1-.6-1.8l.6 1.8c.6-.9-.2-1.1-.6-1.8m25.9 41h.3c-1 0-.4 0 1.1 1.2.2.8.6 1.3.9 2" transform="matrix(1.4523 0 0 1.399 292.5 115.2)" stroke="#2b2b2b" stroke-width="1pt" fill="none"/><path d="M83.4 73h-.3c.9 0 .4 0-1.1 1-.9.5-1.5 1.4-1.8 2.6-1 .6-.4 1 .9 1.1 1.7 0 2.2-.2 3.2-1.1.7-.6 1.1-1.4.6-2.4l-.6 2.4c.7-.6 1.1-1.4-.9-3.5z" fill-rule="evenodd" transform="matrix(1.4523 0 0 1.399 292.5 115.2)" stroke="#000" stroke-width="1pt"/><path d="M171.2 85.6v.3c0-.8 0-.4.3 1.1.2.4.3.7.6.9m2-2.6v1.4l1.5 2m1.4-2.5v.2c0-.8 0-.3.9 1.2.1.4.2.5.6.6M86.9 85v1.4c-.2 1.1-.9 1.9-1.4 2.4l1.4-2.4c-.2 1.1-.9 1.9-1.4 2.4m4.6-3v1.5c-.4.6-.6 1-1.2 1.2m3.8-3.2v1.4c0 .7-.4 1.1-.6 1.8m4.4-3.8h.3v2c-.3.6-.8.7-1.2 1.2" transform="matrix(1.4523 0 0 1.399 292.5 115.2)" stroke="#2b2b2b" stroke-width="1pt" fill="none"/><path d="M461.8 151.5h-.5c.2.4.6 2.3.9 2.9 1.2.8 1.8 2 2.5 3.2 1-1.2 1.3-2.2 1.3-4.5-.6-1.5-2.3-1.4-4.2-1.6zm49.4 1.6c-.2 0-1.3.8-2.6 1.3-.3 2.2-.1 2.4.9 4 2-.1 2-.6 2.5-2.4 1-1.2.3-1-.8-2.9z" fill-rule="evenodd" fill="#2b2b2b"/><path d="M144.2 31.5H143c-1.5-.3-2.4-.4-3.5.6-.3 1.2-.5 2.2.3 2.9 1 .2 1.6.6 2.6.9l1.8-2.7c.6-.2.2-.7 0-1.7v1.7c.6-.2.2-.7 0-1.7m-14.8 0l-.3-.3c.6.7.4.4-1.2-.3-1.3 0-2.9 0-3.8.3-.3.7.5 1.3 1.2 1.8a7.7 7.7 0 0 1 2 2c.8.6 1 1.4 2 1.7.5-1 1-1.7 1.2-3.2l-1.1-2z" transform="matrix(1.4523 0 0 1.399 292.5 115.2)" stroke="#2b2b2b" stroke-width="1pt" fill="none"/><path d="M78.2 71.6c-.3 0-2.4 0-3.2.3-.8 1.3-.6 2 .3 2.6.2 1.6.8 1.7 2.6 1.8.8.5 1.5.3 1.7-.6a2 2 0 0 0-.2-2.3c0-1 0-.3-1.2-1.8zM72 77.1h-.3c.8 0 .3 0-.3 1.5 0 .9 0 1.8.3 2.3 1 0 2.3.1 2.9-.3.5-1.3.6-2.2-.6-2.6-.4-.6-1-.6-2-.9zm11 3.5h-1.4c-.6.6-1.4 1.2-1.8 2 1.3.4 1.6 1 2.4 1.8 1.9 0 2.1-.1 2.3-2 0-1.2 0-.5-1.5-1.8zm99.1 1.5h-1.4c-1.4.4-1.6.9-1.7 2.6.8.5 1.9 1.1 3.2 1.5.9.5 2 .7 3.4.2.6-.9 1-1.1 1.2-2.6-1-.3-2.5-.9-3.2-1.4l3.2 1.4-4.6-1.7zm3-7h-.3c.9 0 .3 0-.9 1.5-.3 1.4 0 2 .6 3.2 1.3.6 1.4 1.6 2.6 2 .6.6.3-.8.3-1.5.2-1.5.7-2 .9-3.5-.3-1-.7-1.6-1.8-2l1.8 2c-.3-1-.7-1.6-3.2-1.7zm6.7.9h-.3c.9 0 .3-.1-1 1.4-.5 1-.5 2.4-.5 3.8.5 1.3 1.2.5 1.8-.3 1-.7 1.3-1 1.4-2.6 0-1.4 0-.8-1.5-2.3zm4 4h-.3c.8 0 .4 0-1.1.3-1 1.1-1.7 1.7-2 3.2 1.3.3 2.2.1 3.7-.3.6-1.3.7-1-.3-3.2z" fill-rule="evenodd" transform="matrix(1.4523 0 0 1.399 292.5 115.2)" stroke="#000" stroke-width="1pt"/><path d="M477.7 160h-1c-.4.5-.1 1 .2 1.5.2.7.1 1 .8 1.2a3 3 0 0 0 2 .9c1.3-.1.8-.5.6-1.3-.5-.5-.5-1-1.2-1.3-.2-.3-.8-.6-1.4-1zm20.6.1l-1.4.7c-.7 1-1 1.2-.7 2.1a9 9 0 0 0 2.6.7c1-.2 1-.8 1-1.9-.2-.5-.7-.9-1.4-1.6zm-22.8 22.3v2.3c.6 2.3.6 3 3.3 3.3h19.7c2-.2 1.8-.7 1.8-2.8.3-.5-.2-2-1-2.8-1.8.7-2.2 2.3-4.6 2.8-2.7 0-4 0-5.1-1.4-1.4-.9-1.5-2.6-2.8-1-1.6 1-3 1.5-5.7 1.5-2.8 0-2.9-.4-5.6-1.9z" fill-rule="evenodd"/><path d="M42.7-676h.3c-.9 0-.3 0 1.2 1.2.1.6.3.8.3 1.7" transform="matrix(1.6097 0 0 1.6034 413 1254.8)" stroke="#2b2b2b" stroke-width="1.1" fill="none"/><path d="M481.1 174h-1.2c.3.5.6 2.8 1.2 3.7 6 0 3.2-.5 0-3.7zm9.1 1.1h-.3c.8 0 .4 0-1.2.7-.5 1-1.3 1.5-.2 2.6 1.2 0 1.8.3 3.2.3v-2.5 2.5c0-.8 0-1.7-1.5-3.6z" fill-rule="evenodd"/><path d="M48.8-675.7h-.3c.8 0 .4 0-1.1.3a7 7 0 0 1-1.2 1.4" transform="matrix(1.6097 0 0 1.6034 412.9 1254.8)" stroke="#2b2b2b" stroke-width="1.1" fill="none"/><g stroke="#2b2b2b" stroke-width="1pt"><path d="M82 123c-.7 0-3 .1-4.4-.2-1.6 0-2 .5-3.2.9-1.4-.1-2.2-.3-3.8-.3-1.1-.7-1.9-1.1-3.5-1.2-1.1-.2-2.3-.3-3.7-.3-1.7 0-2.3.5-3.5 1.2l-2 2.3c-.7 1-1.3 1.3-2.4 2.3-.6 1-1.2 1.4-1.7 3 0 1.3 0 2.8.3 3.7.2 1.4.5 2.1.5 3.8 0 1.5 0 2.8-.5 4-.4 1.5-1 2.4-1.5 3.8-.3 1-.5 2.5-.6 3.8.2 1.2.8 2.4 1.2 3.8.3 1.4.6 2.6 1.2 3.5.3 1.1.8 1 .8 2.6s.3 2.3.3 3.8c.5.8.7 2.3.9 3.5.7.8.9 1.7 2 2.3.3-1.4.5-2.5.6-3.8.2-1 .2-2.6.6-3.2.3 1.2.8 1.8 1.1 3 .6.6 1 1.9 1.5 2.8.6.2.6 0 .6-1.1l.9-3.5v-1.2c.7.8 1.2 2 1.7 3 .5.7 1.1 1.5 2 2.2 1.4.4 1.2 0 1.2-1.4v-4c0 1.6.5 1.9.9 3.1.7.7 1 1.3 2.3 1.5.6-1 1.2-1.5 1.7-2.6 0-1.6.2-2.6.6-3.5.9-1.1 1.3-1.5 2.3-2.4 1.2-1 2.3-2 3.5-2.6.7-1 1.6-1.7 2.7-2.6a14 14 0 0 0 2.9-3.8 9 9 0 0 0 2-3.7c.8-1.3 1-2.7 1.2-4.4.6-1.4 1.1-2.8 1.4-4.4 0-1.5-.1-2.8-.3-4-.7-1.2-1.2-2.7-1.7-3.5-.4-1.1-1.2-2.4-1.5-3.5-.7-1.4-.7-1.9-2.6-2-1 0-.8-.2-2-.6z" fill-rule="evenodd" transform="matrix(1.3937 0 0 1.436 301.2 111.6)" fill="#d40f0f"/><path d="M55.5 129.5v.3c0-.8 0-.4.3 1.1.2 1.2.3 2.3.3 3.8s.1 2.6.3 3.8c.1 1.2.4 1.8 1.4 2.6m.6-4.7c.2 0 .3 1 .9 1.5.3 1 .8 2.2 1.5 3.5.2 1.5.6 2.2 1.1 3.2.3.7.4 1.5.9 2v-8.1l-.9-3.8V133m2 4.3a15.9 15.9 0 0 0 2.4 6.4c.1.7.4 1 .8 1.7 1-.8 1.8-1.4 2-2.9.5-1 .9-2.1 1-3.4 0-1.5.4-2.6.5-3.8 0-1.5 0-2.7-.5-3.5l.5 3.5c0-1.5 0-2.7-.5-3.5m1.4 7.6v.2c0-.7 0-.3.3 1.2.2 1 .3 2.2.3 3.5-.3.2-.4.8-.6 1.2m2.6-10.5v1.4c0 1.3.1 3-.3 3.8 0 1.5-.1 2.6-.3 3.8.4 2 .7-.1 1-.9.3-.9.6-2.4 1-3.2.3-1.5.6-2.3.7-3.7.3-1.2.2-2.5.2-3.8m1.8-3.5l1.7 1.1c.2 1.4.7 1.9 1 3.2v1.5m-3-7.8c.4.1 1.7 1 2.3 1.4.8 0 1.1.1 1.2.9m-3.8-4.1h1.5c.7 0 .6.3 1.4.3" transform="matrix(1.3937 0 0 1.436 301.2 111.6)" fill="none"/></g><g fill-rule="evenodd" stroke="#2b2b2b" stroke-width="1pt" fill="#d30f0f"><path d="M186.3 126.3H185c-1.3.2-1.8.8-2.4 1.7l2.4-1.7c-1.3.2-1.8.8-2.4 1.7m4.4-3.5l-.3-.3c.7.7.4.3-1.2 0-1-.2-1-.2-2 0" transform="matrix(1.3937 0 0 1.436 301 112.6)"/><path d="M184.3 122.5h1.4c1.8.1 3.2.5 5 .6a33 33 0 0 0 4-.3c.9-.4 2.6-.3 3.8-.3 1.7 0 2.4.2 3.8.6 1 .2 2.6.7 3.5 1.1 1 .5 1.9.8 3 1.5 1 .7 1.3 1.2 1.4 2.9a91.5 91.5 0 0 1-.6 3.8c0 1.4.4 2.6.6 4 .3 1.3.3 2.7.3 4.1-.3 1-.7 1-1.2 2a10 10 0 0 1 2.3 2.4c.3 1.3.5 2.6.6 4 0 1.7 0 2.6-.6 3.8-.4 1.4-.8 2-1.1 3.5-.3 1.2-.8 2.3-1.2 3.2-.5.7-.8 2.3-1.2 3.2a8.6 8.6 0 0 1-1.1 3.5c-.3 1-.5 1.9-1.5 2.3-.9-.2-.6-.8-.6-1.7.2-1.2.4-2 0-3-1-.2-1 .5-1.4 1.8-.6.7-.7 1.5-1.5 2-1 1.2-1.3.8-2-.8 0-1.6-.2-2.5-.3-3.8-.2-1.9-.3 1-.6 1.4-.3 1.5-.8 2-1.1 3.2-1.2.5-1.7.5-1.8-1.1.2-1.3.3-2.6.3-4-.7-1-.8-.3-1.2.5 0 1.7-.5 2-1.1 2.9-1 .6-.8.6-1.2-.9-.5-1-.8-1.5-1.7-2-.9-.7-1.6-.9-3.2-.9-1.5 0-2.3-.5-3.5-.8-1.2-.4-2.3-.6-3-1.2l-2-3.2a7.4 7.4 0 0 1-1.1-3.8c-.3-1.4-.4-3-.6-4.3l-1.2-6.2c-.5-1.5-1-2.9-1.1-4.6a18 18 0 0 1-1.2-4c0-1.4 0-3 .3-3.9l1.7-2.6c.9-1 1.4-1.7 2.7-2.6.6-.8 1.9-1.3 2.9-1.7.6-.3 1-.4 2.3-.6z" transform="matrix(1.3937 0 0 1.436 301 112.6)"/><path d="M187.2 129.5v.3c0-1 0-.4-1.5.5-.7.8-1.5 1-2.3 2-.2.5-.5.9 0 1.2m3.5-.8v.3c0-.8 0-.4.3 1.1 0 1.4.3 2 .3 3.5-.6.9-.2 2.1.3 3.2.4 1.3 1 2.2 1.4 3.2.6.2.3-.2.3-1.2a9.3 9.3 0 0 1 0-4v-3.5m5.2-3.2h-.2c.8 0 .3-.1-.3 1.4v4.1c-.3 1-.3 2.4-.3 3.8-.3 1.4-.5 1.8 1.1 2.3.5.7 1 1 1.5 1.8.5-1.4 1.1-2.6 1.4-4.1.5-.9.7-2.6 1-3.8l1.4-2.3m2-3v.4c0-.8 0-.4.3 1.1 0 1.3.3 2.2.3 3.5-.6.9-.7 2-1.2 3.2a11 11 0 0 0-.8 4c0 1-.3 2.1.5 1.5a22.9 22.9 0 0 0 1.5-4l1.4-3.2c.2-1.3.2-2.9.6-4.1l-.6 4c.2-1.2.2-2.8.6-4m4.4-4.4l-.3.3c.6-.5.3-.4 0 .9 0 1.3.2 3.2-.3 4a5.3 5.3 0 0 1-1.4 3.6 4 4 0 0 1-1 1.4m-13.6-.3v.3c0-.8 0-.4-.3 1.2-.5.6-1.4 1.8-1.7 2.9-.3 0-.8.3-.3.3m1.5-1.5h.2c-.8 0-.3 0 .3 1.5.3.9.7.8.9 1.7" transform="matrix(1.3937 0 0 1.436 301 112.6)"/></g><path d="M77.3 201.3c-.3 0-.1.7-.3 1.7v4c.2 1.5.7 2.9 1.5 3.6l2 1.7c0-1.5.2-2.5.3-3.8.5-.8.6-2.1 1.2-2.9.1-1.6.7-1.7 1.1-3.2.5-.7-.5-.8-1.4-.8-1.1-.3-2.1-.7-3-1.2l3 1.2c-1.1-.3-2.1-.7-4.4-.3zm15.1-.6h-.3c.9 0 .4-.1-.5 1.4 0 1.4 0 2.8.3 3.8.6.7.8 2 1.1 3 .5.2.9-.5 1.2-1.2.6-1.5 1.2-2.2 1.4-3.5.4-1.2.9-1.7 1.2-3-.6-1.2-1-1.8-2.6-2-.8.8-.2.2-1.8 1.5zm76.2-.3h.3a11 11 0 0 0-.3 2.6c-.2 1.2-.5 2.3 0 3.5.8.4 1.4.6 1.7 1.4.7.6.9 1 1-.5.5-1.4.8-1.8 1.6-3 .6-1 .8-1.6.6-3.1-.7-1.6-1.1-1.7-2.9-2-1.8 0-1.8 1.3-2.3 2.5m14.5.3h-.3c.3.6.6 1.9.6 3 .3 1.2.3 2.6.3 4-.2 1.2-.4 1.2.9 1.2.5-1.3 1-2.3 1.7-3 .4-1.2.9-1.9 1-3.4 0-1.2 0-2.8-.4-3.5-2 0-2 .3-3.8 1.7zm12.8-6.4h-.3c.8 0 .4 0-1.1.6-.7 1-1.8 1.4-1.5 3 1.5.4 2.3.8 3 1.7.9.5 1.5.9 2 1.7.5.4.8 1 1.1 1.5-.1-1.5-.5-2.5-.6-3.8 0-1.7-.3-2.2-.8-3.2-.1-1-.5-.8-1.8-1.5zm2-5.8h-.2c.8 0 .3 0-1.2.9a3.6 3.6 0 0 0-.3 3.2c1.4.2 2 .8 2.6 1.7.9.9 1.5 1.5 2.4 2-.7-1-1.2-2-1.5-3.1a10.8 10.8 0 0 0-.6-3.2l.6 3.2c0-1.3-.3-2.3-1.7-4.7zm-128.1 5.8c-.1 0-1 .6-1.5 1.2-1.4.8-2.2 1.2-2.3 3 0 1.3-.3 2-.3 3.4.4.4 0 1.7.6 1.2.9-1 1.3-1.9 2.3-2.7.7-.6 1.9-1.2 3-1.7 1.5-.5 1.4-.3.5-1.7-.5-1-1.2-1.4-2.3-2.7zm-2-5.5H67c.9 0 .4 0-1.1.9-.7.9-1.6 1.2-2 2.3-.7.8-1 1.7-1 3.2.1 1 .3 1.8.7 2.3.3-1 .8-1.7 2-2.3.7-.5 1-1 1.7-1.4.6-.3 1.3-.1 1.5-1-.2-1.7-.7-2.2-1.5-4z" fill-rule="evenodd" transform="matrix(1.3937 0 0 1.436 301 110)" stroke="#000" stroke-width="1pt" fill="#000f0f"/><path d="M89.8 181.2v.3c0-.9 0-.4-.9 1.2-1 .4-1.9.5-3.4.5-1 .7-1.5.5-2 1.8-.9.8-1.2 1.2-2.4 1.7-1.3 0-2.9 0-3.8-.3-1-.5-2.4-.9-3.5-1.1-1.5 0-2.3.4-3.5.8-1.2.3-2 .7-2.6 1.5-.8.3-.8.8-.8 1.7.4.7 0 1.1.8 1.2.5.6.6.6.6 1.7.3 1.3.3 2.9.6 4.1.7 1.6 1.2 1.7 2.3 2.6 1 .5 1.7 1 3 1.5 1 .5 2.3.6 3.4.9 1 1 1.5 1.5 3 2 1.3-.2 1.6-.8 2.8-1.2.5-.5 1.3 0 1.8-.8.4-.9.6-2.7 1.1-3.5.7-1.3 1.5-2 3-2.4.7-.5 1.6-.6 2.6-.2-.1 1.7-.7 1.7-1 3.2-.4.9-.7 1.7-.2 2.6 1.2.4 2.7.3 4 .3 2-.4 2-.8 2-2.7-.2-1.1-.6-1.9-.8-3.2 0-.9 0-1.8.3-2.3l2.6.6c.5 1 1 1.2 2 .9.4-.6 1-1 1.2-1.5.3.8.9 1.5 1.5 1.2.6-1.3 1-1.7 2.3-2 1.2-.3 2-.7 3-1.2.8-.6 1.3-1.3 2.2-1.8.7-1 1.3-1.6 1.5-3.2 0-1.7-.4-2.8-.6-4.3-.6-1-1-2.1-2-3-.9-.4-2 0-3.2 0l-3.8-.2c-1.5 0-2.6.2-4 .3h-4.1a7 7 0 0 0-3.8.8c-.9 0-.3 0-1.2 1.5zm67.8 10.5c.5 0 1.8.7 2.9.8 1 .1.8.4.8 1.5.4.2.8 1 1.5 1.2.2-.5.7-1.1 1.1-1.5.3.6.6 1.3 1.5 1.7.7-1.4.7-1.7 2.6-1.7 1.2 1.2.9 2.2 0 3.2-.4 1.2-.6 2.3-.9 3.8.6.7 1.4.6 2.7.6.8-.6 2-.3 2.6.3 1.7-.1 1.7-.4 1.7-2v-4.2c.7-.6 1.4-.8 2-.2.8.6 1.1 2 1.8 2.9.1 1.2.3 2.4.9 3.2.6 1.3.8 1.6 2.6 1.7 1.5 0 2.3-.2 3.8-.6 1.3-.2 1.7-.8 2.3-1.7 1.4-.4 1.8-.8 3.5-.9 1.5-.3 2-.9 2.9-1.4.6-.8.9-1.9 1.4-2.7.5-1 1-1.5 1.2-2.9.1-1.5.7-1.9 1.2-3.2.2-1-.3-1.6-1.2-2.3-.7-.6-1.8-.8-3-1.2h-8l-4.1-.2c-1.2-.7-1.7-1.2-2.6-2-1.3-.3-2.5-1-3.5-1.5-.8-1-1.7-1.2-2.3-2-1.2-.6-1.8-1.2-3.2-1.8-1.2-.7-2-1-3.5-1.2-1.4 0-2.6-.3-4.1-.3-1.7 0-2.6.5-3.8 1-1 1-1.7 1-2 2.5-.4.8-.3 2.5-.3 3.8.3 1.4.9 2.7 1.2 3.8l.2 3.5z" fill-rule="evenodd" transform="matrix(1.3937 0 0 1.436 301 110)" stroke="#2b2b2b" stroke-width="1pt" fill="#d40f0f"/><path d="M82.8 190c-.6-.2-2.8-.4-4.3-.4-1.2.3-2 .6-3.5.6-1 .3-2.2.6-3 1.2-.9 0-1.2.4-2.2.6m13.3.5h-.3c.9 0 .4 0-1.1 1-1.2 1-2 1.4-2.6 2.8-.8.7-1 1.3-2 1.5l-1.8 1.7m105.8-6h.3c-.8 0-.4-.1 1.1.5 1.3 1 1.3 1.6 3 1.7 1.5.6 1.6 1 2.3 2.4.2.5.3.9.3 1.7m-6.4-10.2c.4.2 2 1 3.2 1.2 1.1.2 2.3.3 3.7.3 1.4.2 2.1.6 3.5 1.1h2.4" transform="matrix(1.3937 0 0 1.436 301 110)" stroke="#2b2b2b" stroke-width="1pt" fill="none"/><path d="M480.3 243c-.3 4.7-1.6 7.5-6 7.5-3 0-6.2-2.2-6.1-5 0-2.7 3.8-2.9 6.4-2.7 1-2.2-3.4-4.7-15.5-4.7-11.9-.1-21.2 10.2-36.9 10-15.6-.4-22.6-16-19.6-19.9-1.2 3.5-3.8 5.6-5 9-1.1 3.5 4.2 8.3 3 11.7-1.1 3.5-8.8 5.6-10 9s-.9 8.2-2 11.7c0-2.5 5.3-8.4 12.5-8.4 6 0 26-3.8 27.1 37.1 0 32.2-24 33.5-31.6 31.2 0 3.9 2.7 16 15 28.3a49.7 49.7 0 0 0 31.2 14c-1.4-3.5-7.2-7.5-1.7-7.5 3.6 0 4.7 6.4 4.7 6.4s6-3.6 7.9-1.8c1.9 2.9-6 5.3-6 5.3s4 7.8 9 12.4a29 29 0 0 0 18.2 8.8c1.6 0 4.7 1.1 4.6 3.6-.2 5-.2 7.3-3.1 7.4H498c-3 0-3-2.5-3.2-7.4-.1-2.5 3-3.6 4.6-3.6a29 29 0 0 0 18.1-8.8c5.1-4.6 9.1-12.4 9.1-12.4s-7.9-2.4-6-5.3c2-1.8 7.9 1.8 7.9 1.8s1.1-6.4 4.7-6.4c5.5 0-.3 4-1.7 7.5 3 .1 18.2-1.6 31.3-14 12.2-12.3 14.9-24.4 14.9-28.3-7.7 2.3-31.6 1-31.6-31.2 1.2-40.9 21.1-37 27.1-37 7.2 0 12.5 5.8 12.5 8.3 0 .6.7-3.6-.6-7.3-1.3-3.8-7.9-6.5-9.6-11.8-1.8-5.3 1.3-13.3 0-17.3-1.3-4.1-3.8-5-3.8-5 3 3.9-4 19.5-19.6 19.8-15.7.3-25-10-37-9.9-12 0-16.4 2.5-15.4 4.7 2.6-.2 6.4 0 6.4 2.7 0 2.8-3 5-6 5-4.5 0-5.8-2.8-6-7.4h-14z" fill-rule="evenodd" fill="#0068bd"/><g stroke="#000"><path d="M215.2 278.7c0 230.5-140.6 239.6-185.6 223.3 0 27.8 15.6 114.2 87.5 202.6 77.1 88.6 166.2 101 183.7 99.7-8.2-24.7-42-53.2-10-53.5 21.1.3 27.9 46 27.9 46s34.5-26.2 46-13c11.1 20.5-35 38.2-35 38.2s23.4 55.8 53.1 88.6c35.4 46.8 86.8 62.4 106.3 63 9.5.3 27.9 7.8 27.2 25.6-1.3 35.4-1.3 52.4-18.4 53.1h127.5c-17.2-.7-17.1-17.7-18.4-53.1-.7-17.8 17.7-25.3 27.2-25.6 19.5-.6 70.8-16.2 106.3-63 29.7-32.8 53.1-88.6 53.1-88.6s-46.1-17.7-35-38.3c11.5-13 46 13.2 46 13.2s6.7-45.8 28-46c31.9.2-2 28.7-10.1 53.4 17.5 1.2 106.6-11.1 183.7-99.7 71.8-88.4 87.5-174.8 87.4-202.6-45 16.3-176.2 16.5-176.2-214-2-9.1-2.7-27.3-4.2-35.8-1.5-8.5-35.5 26.8-38.9 26.6-11.4-.4-46.7-32.7-71.9-37-11.8-2-50.6 33.2-60.1 34-12.5.6-28.5-36-55.2-32.3-19.6 3.1-35.6 36.5-40.4 31.8a78.4 78.4 0 0 0-41.7-23c-23.6-2-37 16.4-49.6 31.6-.4-12.4-17.2-24.8-36.2-23.2-13.7-140-123-283-131.8-287.4-6.6-2.7-4 13.6-6.1 20.4L331.4-20c-3.2 8-1.7 16.2-9.5 24.2-19.9-15-30.4-43.8-45.7-44.8-5.4 17.8-1.5 54.2-2.3 81.3l-37.7-25-3 26.5c-1.2 10.6-51.2-28.6-61-28.9-9.9-.2-21.5 27.5-30.3 27.3-8.9-.1 57 43 73.3 238.1z" fill-rule="evenodd" stroke-width="1.3" fill="#e8e1cb" transform="matrix(.1702 0 0 .1397 391.6 259.4)"/><path d="M200 175.7s23.2-32.6 51.2-28c27.9 4.7 58 107 58 107M279.2 40.8c0 4.7 18.6 79 34.8 102.3 16.3 23.3 53.5 41.9 72.1 69.8 18.6 27.9 28 104.6 28 104.6M321 6s6.9 37.2 18.5 65.1 39.5 37.2 53.5 60.5c14 23.2 23.3 69.8 23.3 69.8M211.6 336s32.6-4.6 60.5 32.6 32.5 86 32.5 86M814 285s21-2.4 34.9 14c14 16.2 11.6 27.8 9.3 27.8m-46.5-18.6s18.6 0 25.6 4.7c7 4.6 9.3 27.9 9.3 27.9" stroke-width="1pt" fill="none" transform="matrix(.1702 0 0 .1397 391.6 259.4)"/><path d="M800 331.5c2.3 0 16.2-14 25.5-9.3 9.3 4.6 11.7 30.2 11.7 30.2m-48.9-9.3s16.3-2.3 25.6 4.7 7 18.6 7 18.6m-79-23.3c2.2 0 30.1 9.3 41.8 21 11.6 11.6 9.3 37.1 9.3 37.1m81.4-44.1s7-4.7 23.2 9.3a54 54 0 0 1 18.6 30.2m-44.2-14s18.6 2.4 28 9.3c9.2 7 23.2 23.3 23.2 23.3m-58.1-2.3s23.2-9.3 32.5-4.7c9.3 4.7 25.6 18.6 25.6 18.6" stroke-width="1pt" fill="none" transform="matrix(.1702 0 0 .1397 391.6 259.4)"/></g><g stroke-width="1pt"><path d="M-301.2-134.7v443h17.7v-443l-8.8-35.4-8.9 35.4z" fill-rule="evenodd" transform="matrix(.0928 -.0335 .0396 .074 487 299.9)" stroke="#000" fill="#b03f00"/><path d="M-301.2-134.7v407.5h17.7v-407.4l-8.8-35.5-8.9 35.5z" fill-rule="evenodd" transform="matrix(.0928 -.0335 .0396 .074 513.4 290.4)" stroke="#000" fill="#b03f00"/><g stroke="#000" fill="none"><path d="M-283.5-99.2l17.8 336.6" transform="matrix(.0928 -.0335 .0472 .088 514.1 291.8)"/><path d="M-318.9-99.2l53.1 336.6" transform="matrix(.0928 -.0335 .0472 .088 517.4 290.6)"/><path d="M-354.3-99.2l88.6 336.6" transform="matrix(.0928 -.0335 .0472 .088 520.7 289.4)"/><path d="M-389.8-99.2l124 336.6" transform="matrix(.0928 -.0335 .0472 .088 524 288.2)"/><path d="M-283.5-99.2l17.8 336.6" transform="matrix(-.0928 .0335 .0472 .088 459.9 311.4)"/><path d="M-318.9-99.2l53.1 336.6" transform="matrix(-.0928 .0335 .0472 .088 456.6 312.6)"/><path d="M-354.3-99.2l88.6 336.6" transform="matrix(-.0928 .0335 .0472 .088 453.3 313.7)"/><path d="M-389.8-99.2l124 336.6" transform="matrix(-.0928 .0335 .0472 .088 450 315)"/><path d="M-407.5-99.2L-230.3 255" transform="matrix(-.0928 .0335 .0472 .088 448.4 315.5)"/><path d="M-407.5-99.2L-230.3 255" transform="matrix(.0928 -.0335 .0472 .088 525.6 287.6)"/><path d="M-407.5 184.3h301.2m-17.7-35.5h-265.8m17.8-35.4h230.3M-159.4 78h-195m17.8-35.5c0 .6 159.4 0 159.4 0m-17.7-35.4h-124m17.7-35.4h88.6m-70.9-35.5h53.2" transform="matrix(.0928 -.0335 .0472 .088 510.8 293)"/><path d="M-283.5-99.2l17.8 336.6" transform="matrix(.0928 -.0335 .0472 .088 488.6 302.8)"/><path d="M-318.9-99.2l53.1 336.6" transform="matrix(.0928 -.0335 .0472 .088 492 301.7)"/><path d="M-354.3-99.2l88.6 336.6" transform="matrix(.0928 -.0335 .0472 .088 495.2 300.5)"/><path d="M-389.8-99.2l124 336.6" transform="matrix(.0928 -.0335 .0472 .088 498.5 299.3)"/><path d="M-283.5-99.2l17.8 336.6" transform="matrix(-.0928 .0335 .0472 .088 434.4 322.4)"/><path d="M-318.9-99.2l53.1 336.6" transform="matrix(-.0928 .0335 .0472 .088 431.1 323.6)"/><path d="M-354.3-99.2l88.6 336.6" transform="matrix(-.0928 .0335 .0472 .088 427.9 324.8)"/><path d="M-389.8-99.2l124 336.6" transform="matrix(-.0928 .0335 .0472 .088 424.6 326)"/><path d="M-407.5-99.2L-230.3 255" transform="matrix(-.0928 .0335 .0472 .088 423 326.6)"/><path d="M-407.5-99.2L-230.3 255" transform="matrix(.0928 -.0335 .0472 .088 500.2 298.7)"/><path d="M-407.5 184.3h301.2m-17.7-35.5h-265.8m17.8-35.4h230.3M-159.4 78h-195m17.8-35.5c0 .6 159.4 0 159.4 0m-17.7-35.4h-124m17.7-35.4h88.6m-70.9-35.5h53.2" transform="matrix(.0928 -.0335 .0472 .088 485.4 304)"/></g><g fill-rule="evenodd" stroke="#000" fill="#b03f00"><path d="M-407.5 237.4h372v53.1l17.8 17.8h-17.7v35.4h17.7l-17.7 17.7 53.1 70.9-106.3 212.6h-567V361.4h88.7v-70.8h53.1l106.3-53.2zm-159.4 124h531.5" transform="matrix(.0928 -.0335 .0396 .074 510 291.6)"/><path d="M-567 361.4h531.6" transform="matrix(.0928 -.0335 .0396 .074 509.4 290.3)"/><path d="M-567 361.4h531.6" transform="matrix(.0928 -.0335 .0396 .074 508 287.7)"/><path d="M-567 361.4h531.6" transform="matrix(.0835 -.03 .0396 .074 507 286.5)"/><path d="M-35.4 361.4L-177.2 645m-230.3-372h230.3M-442.9 255c34.3 1.6 407.5 0 407.5 0m-17.8 0l-17.7 35.5m0 17.7l-17.7 35.4m-141.7-35.4l-17.7 35.4m35.4-35.4l-17.7 35.4m177.2 53.2h-88.6l17.7-35.5" transform="matrix(.0928 -.0335 .0396 .074 510 291.6)"/><path d="M-70.9 432.3h-88.5l18.7-36.9-1 1.4m53.1 71h-88.6l17.8-35.5" transform="matrix(.0928 -.0335 .0396 .074 510 291.6)"/><path d="M-106.3 503.1h-88.6l17.7-35.4M-124 538.6h-88.6l17.7-35.5" transform="matrix(.0928 -.0335 .0396 .074 510 291.6)"/><path d="M-124 538.6h-88.6l17.7-35.5" transform="matrix(.0928 -.0335 .0396 .074 509.8 294.8)"/><path d="M-53.1 396.9l70.8 35.4m-106.3 35.4l70.9 35.5m-142.8-69.4l-495.3-1.2m480.2 36c-1.1 1.2-480.2-2.2-480.2-2.2m443.2 72.2c-35.4 0-443 0-442 1" transform="matrix(.0928 -.0335 .0396 .074 510 291.6)"/><path d="M-212.6 539.6s-443-1-442 0" transform="matrix(.0892 -.0322 .0396 .074 509 295)"/><path d="M-124 538.6h-88.6l17.7-35.5" transform="matrix(.0928 -.0335 .0396 .074 509.6 298)"/><path d="M-124 538.6h-88.6l17.7-35.5" transform="matrix(.0928 -.0335 .0396 .074 509.4 301.2)"/><path d="M-443 379.1l-17.6 17.7v35.5h70.8l17.8-17.7" transform="matrix(.0928 -.0335 .0264 .0493 510.1 302.7)"/><path d="M-443 379.1l-17.6 17.7v35.5h70.8l17.8-17.7" transform="matrix(.0928 -.0335 .0264 .0493 521.7 298.6)"/><path d="M-443 379.1l-17.6 17.7v35.5h70.8l17.8-17.7" transform="matrix(.0928 -.0335 .0264 .0493 514.4 310.6)"/><path d="M-443 379.1l-17.6 17.7v35.5h70.8l17.8-17.7" transform="matrix(.0928 -.0335 .0264 .0493 525.9 306.4)"/></g><path fill-rule="evenodd" d="M479 336.3l6.6-2.4 1 1.7-6.6 2.4zm11.6-4.2l6.5-2.4 1 1.8-6.6 2.3zm-7.3 12l6.5-2.4 1 1.8-6.6 2.4zm11.5-4.1l6.5-2.4 1 1.7-6.6 2.4z"/><path fill-rule="evenodd" stroke="#000" fill="#b03f00" d="M-301.2-99.2h88.6v17.7h-88.6zm-283.5 0h88.6v17.7h-88.6z" transform="matrix(.0928 -.0335 .0396 .074 510 291.6)"/><g stroke="#000" fill="none"><path d="M-407.5 237.4v-17.7h372v17.7m-354.3-17.7v17.7" transform="matrix(.0928 -.0335 .0396 .074 510 291.6)"/><path d="M-389.8 219.7v17.7" transform="matrix(.0928 -.0335 .0396 .074 511.7 291)"/><path d="M-389.8 219.7v17.7" transform="matrix(.0928 -.0335 .0396 .074 513.4 290.4)"/><path d="M-389.8 219.7v17.7" transform="matrix(.0928 -.0335 .0396 .074 515 289.8)"/><path d="M-389.8 219.7v17.7" transform="matrix(.0928 -.0335 .0396 .074 516.6 289.2)"/><path d="M-389.8 219.7v17.7" transform="matrix(.0928 -.0335 .0396 .074 518.3 288.6)"/><path d="M-389.8 219.7v17.7" transform="matrix(.0928 -.0335 .0396 .074 520 288)"/><path d="M-389.8 219.7v17.7" transform="matrix(.0928 -.0335 .0396 .074 521.6 287.4)"/><path d="M-389.8 219.7v17.7" transform="matrix(.0928 -.0335 .0396 .074 523.2 286.8)"/><path d="M-389.8 219.7v17.7" transform="matrix(.0928 -.0335 .0396 .074 524.9 286.2)"/><path d="M-389.8 219.7v17.7" transform="matrix(.0928 -.0335 .0396 .074 526.5 285.6)"/><path d="M-389.8 219.7v17.7" transform="matrix(.0928 -.0335 .0396 .074 528.1 285)"/><path d="M-389.8 219.7v17.7" transform="matrix(.0928 -.0335 .0396 .074 529.8 284.5)"/><path d="M-389.8 219.7v17.7" transform="matrix(.0928 -.0335 .0396 .074 531.4 283.9)"/><path d="M-389.8 219.7v17.7" transform="matrix(.0928 -.0335 .0396 .074 533 283.3)"/><path d="M-389.8 219.7v17.7" transform="matrix(.0928 -.0335 .0396 .074 534.7 282.7)"/><path d="M-389.8 219.7v17.7" transform="matrix(.0928 -.0335 .0396 .074 536.4 282)"/><path d="M-389.8 219.7v17.7" transform="matrix(.0928 -.0335 .0396 .074 538 281.5)"/><path d="M-389.8 219.7v17.7" transform="matrix(.0928 -.0335 .0396 .074 539.6 280.9)"/><path d="M-389.8 219.7v17.7" transform="matrix(.0928 -.0335 .0396 .074 541.3 280.3)"/></g></g><g stroke="#000"><path d="M33 551.3c-.2 27.8 12.2 64.9 84 153.3 77.2 88.5 166.3 101 183.8 99.7-8.2-24.7-42-53.2-10-53.5 21.1.3 27.9 46 27.9 46s34.5-26.2 46-13c11.1 20.5-35 38.2-35 38.2s23.4 55.8 53.1 88.6c35.4 46.8 86.7 62.4 106.3 63 9.5.3 27.9 7.8 27.2 25.6-1.3 35.4-1.3 52.4-18.4 53.1h127.5c-17.2-.7-17.1-17.7-18.5-53.1-.6-17.8 17.8-25.3 27.3-25.6 19.5-.6 70.8-16.2 106.3-63 29.7-32.8 53.1-88.6 53.1-88.6s-46.2-17.7-35-38.3c11.5-13 46 13.2 46 13.2s6.7-45.8 28-46c31.9.2-2 28.7-10.1 53.4 17.5 1.2 106.6-11.1 183.7-99.7 71.8-88.4 87.5-151.8 87.4-179.6-2.8 1-59.8-13.8-69.5-4.3a111 111 0 0 0-57.6-21c-22.8-.3-43.2 9.3-50.3 25.8-13.6-19.7-53.2-29.6-61.6-28.3-27.3 4.7-44.4 41.3-35.4 87.3-20.7-19.7-28-21.7-51.1-21.7-50.5-.2-55.4 89.8-129.2 89.2-58.4-.4-83-31.4-100.3-53.8 22.3-19 20.9-26.5 6.2-45.7-16.7-18-42.8-16.5-60.7 1.8-17.9-17.7-18-28-35.8-53.2-17.3-24.5-29.6-27-61-26.8-31.4.1-55.4 1.8-67.6 34.7-15.4 8.6-37.2 26.6-54 23-10.3-28-43.3-60.6-71-61s-72.8 56.4-82.8 83c-17.7-37.1-36.3-42.2-51.8-43-15.5-.7-21 25-27.1 40.3z" fill-rule="evenodd" stroke-width="1.3" fill="#00c8ff" transform="matrix(.1702 0 0 .1397 391.6 259.4)"/><path d="M167.7 490s16.5 9.9 36.2 39.5 3.3 42.7 3.3 42.7" stroke-width="1pt" fill="none" transform="matrix(.1702 0 0 .1397 391.6 259.4)"/><path d="M184.2 506.4s32.8 3.3 46 26.4c13.2 23 6.6 49.3 6.6 49.3m-16.5 49.3s23-55.9 65.8-32.9 39.5 59.2 36.2 59.2H319v3.3m-56 26.3s23.1-9.8 49.4 0 9.9 33 9.9 33" stroke-width="1pt" fill="none" transform="matrix(.1702 0 0 .1397 391.6 259.4)"/><path d="M259.8 700.5s26.3-6.6 42.8 3.3 3.2 26.3 3.2 26.3m-105.2-19.8s3.3 26.4 19.7 42.8c16.5 16.4 46 23 46 23m95.4-52.6c33 16.4 39.5 46 39.5 46M375 710.3c49.3 0 46 29.6 46 29.6M302.6 552.5s29.6-23 69 0c39.5 23 16.5 52.6 16.5 52.6m-65.8-92s39.5-26.4 72.3 0c33 26.2 23 46 23 46m19.8-29.6l19.7 32.9c9.9 16.4 26.3 13.1 26.3 13.1m42.8 72.4s23 32.8 75.6 39.4a211.9 211.9 0 0 0 98.7-13.1m-174.3 16.4s29.6 29.6 69 29.6c39.5 0 95.4-16.4 95.4-16.4m-164.4 16.4s16.4 26.3 75.6 26.3c59.2 0 85.5-13.1 85.5-13.1M523 759.7s6.6 13.1 36.2 19.7 59.2-9.9 59.2-9.9m0 16.5s19.7 26.3 46 26.3 0-39.5 19.7-46c19.8-6.6 49.4 0 49.4 0" stroke-width="1pt" fill="none" transform="matrix(.1702 0 0 .1397 391.6 259.4)"/><path d="M605.1 825.5s19.7 26.3 49.3 19.7c29.6-6.6 65.8-56 65.8-56l23-16.4M388.1 888s3.2-16.4 39.4-9.8c36.2 6.5 0 55.9 39.5 55.9s75.6-23 98.6-26.3c23-3.3 65.8 23 88.8 29.6 23 6.5 65.8-26.3 65.8-26.3M569 957c3.3 0 13.2-6.6 36.2-3.3 23 3.3 49.3 3.3 49.3 3.3m-95.3 32.9s16.4-6.6 29.6-6.6c13.1 0 9.8 19.7 9.8 19.7m-115-378.2c-3.4 0 16.4 0 26.2 3.3 10 3.3 13.2 26.3 13.2 26.3M480 648s13.2-6.6 26.4 0 6.5 29.6 6.5 29.6m-42.7-3.3c0-3.3 19.7-9.9 26.3-6.6s6.6 32.9 6.6 32.9m-39.5 9.8s16.4-13.1 26.3-13.1 6.6 23 6.6 23M460.4 740l23-13.1 9.9 19.7m253.2-157.8s13.2-3.3 33 0c19.6 3.2 26.2 26.3 26.2 26.3m-52.6 0c0-3.3 19.7-3.3 26.3 0 6.6 3.3 16.5 19.7 16.5 19.7m-6.6 49.3c-3.3 0 3.3 13.2 6.5 29.6 3.3 16.5-13.1 33-13.1 33m72.3-75.7c-3.2 0 19.8 23 23 42.7 3.4 19.8-16.4 39.5-16.4 39.5" stroke-width="1pt" fill="none" transform="matrix(.1702 0 0 .1397 391.6 259.4)"/><path d="M871.5 661s23 32.9 23 49.3c0 16.5-16.4 42.8-16.4 42.8M894.5 638s9.9 13.1 13.2 29.6c3.3 16.4-6.6 42.7-6.6 42.7m23-32.8s16.5 19.7 9.9 36.1a101 101 0 0 1-19.8 29.6m36.2-55.9c-3.3 3.3 6.6 23 3.3 33-3.3 9.8-19.7 26.2-19.7 26.2m23-111.8c0 3.3 23 23 23 46s-13.1 46-13.1 46" stroke-width="1pt" fill="none" transform="matrix(.1702 0 0 .1397 391.6 259.4)"/><path d="M920.8 598.5s16.5 3.3 19.8 19.8c3.2 16.4-10 32.8-10 32.8m-3.2-82.2s26.3 29.6 32.9 39.5c6.6 9.9-3.3 32.9-3.3 32.9" transform="matrix(.1702 0 0 .1397 382.2 254)" stroke-width="1pt" fill="none"/><path d="M920.8 565.6c3.3 3.3 33 3.3 46 19.8s6.6 46 6.6 46" transform="matrix(.1702 0 0 .1397 382.2 254)" stroke-width="1pt" fill="none"/></g><path d="M503.4 7c5.9-4.6 24.5-15 59.3-13.9A123.7 123.7 0 0 1 622 10.6l-2.3-45.4s-23.2-11.6-54.6-11.6-58.2 7-58.2 7L503.5 7z" fill-rule="evenodd" stroke="#000" stroke-width="1pt" fill="#ffd400" transform="matrix(.1702 0 0 .1507 391.6 247.8)"/><g fill-rule="evenodd" stroke="#000" stroke-width="1.3" fill="#ffd400"><path d="M148.7 515.6c0 17.7 2.5 29 20.3 29 17.7 0 24.2-18 24.6-30.6.6-16 3.5-40.4 39-40.4 17.7 0 128-11.7 131.2 248 3.3 259.9-184.2 206.8-184.2 206.8s-20.2 88.6 90 232.5a296 296 0 0 0 205.6 106.9s18.7 41.7 56.3 95.6c54.3 78 124 61 124 78.7 0 17.7-17.5 10-17.7 26 .2 19.4 9.4 27.9 26.5 27.2s17.1-17.8 18.4-53.2c.7-17.7-17.7-25.2-27.2-25.5-19.5-.7-70.8-16.2-106.3-63-29.7-32.9-53.1-88.6-53.1-88.6s46.1-17.8 35-38.3c-11.5-13.1-46 13.1-46 13.1s-6.7-45.7-28-46c-31.9.3 1.9 28.8 10.1 53.4-17.5 1.3-106.6-11.1-183.7-99.7-71.9-88.4-87.6-174.8-87.4-202.6 44.9 16.4 185.5 7.3 185.5-223.2-7-292.8-124-265.8-159.5-265.8-42 0-73.4 42-73.4 59.7z" transform="matrix(.1702 0 0 .1397 363.3 197.5)"/><path d="M148.7 515.6c0 17.7 2.5 29 20.3 29 17.7 0 24.2-18 24.6-30.6.6-16 3.5-40.4 39-40.4 17.7 0 128-11.7 131.2 248 3.3 259.9-184.2 206.8-184.2 206.8s-20.2 88.6 90 232.5a296 296 0 0 0 205.6 106.9s18.7 41.7 56.3 95.6c54.3 78 124 61 124 78.7 0 17.7-17.5 10-17.7 26 .2 19.4 9.4 27.9 26.5 27.2s17.1-17.8 18.4-53.2c.7-17.7-17.7-25.2-27.2-25.5-19.5-.7-70.8-16.2-106.3-63-29.7-32.9-53.1-88.6-53.1-88.6s46.1-17.8 35-38.3c-11.5-13.1-46 13.1-46 13.1s-6.7-45.7-28-46c-31.9.3 1.9 28.8 10.1 53.4-17.5 1.3-106.6-11.1-183.7-99.7-71.9-88.4-87.6-174.8-87.4-202.6 44.9 16.4 185.5 7.3 185.5-223.2-7-292.8-124-265.8-159.5-265.8-42 0-73.4 42-73.4 59.7z" transform="matrix(-.1702 0 0 .1397 611.1 197.5)"/><path d="M238.6-187.8c26.4 0 22.6 26.7 17.7 43-5 16.2-35.5 27.9-63.1 10.2 7.6 26.8 27.6 106.2 109.4 108.3 95.3-2 103.6-71.8 209.3-72.4 105.8-.5 124.9 15.5 123.5 52.6-1.3 33.5-9.1 53.2-35.5 53.2-17.7 0-35.7-15.7-35.4-35.4.3-19.8 22.6-21 37.9-19.4 5.4-16-20.2-33.8-91-33.8-70.2-1-124.7 73.3-216.8 70.9-92-2.4-133-114-115.4-141.8 18.5-33.8 31.2-35.4 59.4-35.4z" transform="matrix(-.1702 0 0 .1397 602.3 249.5)"/><path d="M238.6-187.8c26.4 0 22.6 26.7 17.7 43-5 16.2-35.5 27.9-63.1 10.2 7.6 26.8 27.6 106.2 109.4 108.3 95.3-2 103.6-71.8 209.3-72.4 105.8-.5 124.9 15.5 123.5 52.6-1.3 33.5-9.1 53.2-35.5 53.2-17.7 0-35.7-15.7-35.4-35.4.3-19.8 22.6-21 37.9-19.4 5.4-16-20.2-33.8-91-33.8-70.2-1-124.7 73.3-216.8 70.9-92-2.4-133-114-115.4-141.8 18.5-33.8 31.2-35.4 59.4-35.4z" transform="matrix(.1702 0 0 .1397 372 249.5)"/></g><path d="M-1576.8 1353.5c17.7 3 674.5-205.8 673.2-531.5V-772.5H-2250V822c-1.2 325.7 673.3 531.5 673.3 531.5z" transform="matrix(.19 0 0 .1557 781.4 252.5)" stroke="#000" stroke-width="11.1" fill="none"/></svg>