<svg xmlns="http://www.w3.org/2000/svg" height="480" width="640" version="1"><defs><clipPath id="a"><path fill-opacity=".7" d="M-19.4 0h682.6v512H-19.5z"/></clipPath></defs><g fill-rule="evenodd" clip-path="url(#a)" transform="translate(18.2) scale(.94)" stroke-width="1pt"><path fill="#fff" d="M-105.6 325.7h249.3V512h-249.3z"/><path fill="#0062da" d="M143.6 0h150v512h-150z"/><path fill="#0062da" d="M-105.6 186.2H792v139.6h-897.6z"/><path fill="#fff" d="M-105.6 0h249.3v186.3h-249.3zm399 325.7H792V512H293.2zm0-325.7H792v186.3H293.2zm-399 325.7h249.3V512h-249.3z"/><path fill="#0062da" d="M143.6 0h150v512h-150z"/><path fill="#fff" d="M-105.6 0h249.3v186.3h-249.3zm399 325.7H792V512H293.2zm0-325.7H792v186.3H293.2z"/></g></svg>