<svg xmlns="http://www.w3.org/2000/svg" height="480" width="640"><g fill-rule="evenodd"><path fill="red" d="M0 0h640v480H0z"/><path fill="#009a00" d="M146 83.5h361v314.4H146z"/><path d="M146 397.9h361L326.3 240.7 146 397.9zM146 83.5l180.5 157.2L506.9 83.5H146z" fill="#ffca00"/><path fill="#ffce00" d="M177.7 61.4l-16.4-11.8-16.5 11.7 6-19.2-16.1-12 20.2-.2 6.4-19.2 6.4 19.2 20.2.2-16.2 12m170.9 19.8L326.1 50l-16.4 11.7 6-19.2-16.2-12 20.2-.3 6.5-19.1 6.4 19.2 20.2.2-16.2 12m171 19L491 49.9l-16.4 11.7 6-19.3-16.2-12 20.2-.2 6.5-19.2 6.4 19.2 20.2.2-16.3 12M177.7 468.8L161.3 457l-16.5 11.7 6-19.3-16.1-12 20.2-.2 6.4-19.2 6.4 19.2 20.2.2-16.2 12m170.9 19.8l-16.4-11.7-16.5 11.7 6-19.3-16.1-12 20.1-.2 6.5-19.2 6.4 19.2 20.2.2-16.2 12m171 19L491 457.3 474.7 469l6-19.3-16.2-12 20.2-.2 6.5-19.1 6.4 19.1 20.2.2-16.3 12"/><path d="M369.7 243.1a43.8 43.8 0 1 1-87.5 0 43.8 43.8 0 0 1 87.5 0z" fill="red"/><path fill="#ffce00" d="M345.8 270l-19.6-13.9-19.5 13.9 7.2-22.9-19.3-14.3 24-.2 7.7-22.7 7.6 22.7 24 .3-19.3 14.2"/><path d="M170 273.5s2.2-18.4 1-30.8c-1.3-12.4-33-15.9-33-15.9l-.4 28.9s25.4 20.6 32.4 17.8z" fill="red"/><path d="M123.7 200.5s3 16.2-1.3 48.5c-2.3 17.6 16.8 29.5 40.3 35-4.8-8.3-17.5-21.6-14.3-46 17.1 2.2 33.3 35.5 33.3 35.5s12.8-47.3-13-54.6c-25-7-45-18-45-18.4z" fill="#ffce00"/></g></svg>