<svg xmlns="http://www.w3.org/2000/svg" height="480" width="640" version="1"><defs><clipPath id="a"><path fill-opacity=".7" d="M0 0h682.7v512H0z"/></clipPath></defs><g clip-path="url(#a)" transform="scale(.94)"><g fill-rule="evenodd" stroke-width="1pt"><path fill="#3e9a00" d="M0 0h768v171.9H0z"/><path fill="#fff" d="M0 171.9h768V340H0z"/><path fill="#e32118" d="M0 340.1h768V512H0z"/><path d="M0 0v512l256-256L0 0z" fill="#5567e4"/></g><path d="M283.5 148.8v443c0 35.4 17.7 70.8 53.1 70.8h70.9c17.7 0 35.4 35.4 35.4 35.4s17-35.4 35.4-35.4h71c35.3 0 53-35.4 53-70.9V148.8H283.6z" fill-rule="evenodd" transform="matrix(.24 0 0 .2 269.5 179.8)" stroke="#000" stroke-width="3.8" fill="#ccc"/><path d="M215.4 731.8c-18 0-35.8-17.7-35.8-35.4v-88.6c15.5 15.5 88.6 70.8 71 88.6-17.8 17.7-35.8 0-35.5 0s.3 35.4.3 35.4z" fill-rule="evenodd" transform="matrix(.24 0 0 .2 267.8 160.4)" stroke="#000" stroke-width="1pt" fill="#ccc"/><path d="M319.3 289.6c4.3-3.3 4.3 3.2 8.5 0l-4.2 19.7c-4.1-.6-4.3 0-6.6-3.3 0-3.3 0-13.8 2.3-16.4z" fill-rule="evenodd" fill="#ccc"/><path d="M215.4 731.8c-18 0-35.8-17.7-35.8-35.4v-88.6c15.5 15.5 88.6 70.8 71 88.6-17.8 17.7-35.8 0-35.5 0s.3 35.4.3 35.4z" fill-rule="evenodd" transform="matrix(-.24 0 0 .2 481.9 160.4)" stroke="#000" stroke-width="1pt" fill="#ccc"/><path d="M429.7 289.6c-4.2-3.3-4.2 3.2-8.5 0l4.3 19.7c4-.6 4.2 0 6.6-3.3 0-3.3 0-13.8-2.4-16.4z" fill-rule="evenodd" fill="#ccc"/><path d="M513.8 1140.9c0-17.7-35.5-53.1-35.5-70.9s35.5 17.8 106.3 17.8c71 0 106.3-88.6 88.6-106.3 17.7 35.4 17.7 70.8 17.7 88.5 0 35.5-35.4 70.9-106.3 70.9h-70.8z" fill-rule="evenodd" transform="matrix(.24 0 0 .2 268.4 107.5)" stroke="#000" stroke-width="1pt" fill="#ccc"/><path d="M513.8 1140.9c0-17.7-35.5-53.1-35.5-70.9s35.5 17.8 106.3 17.8c71 0 106.3-88.6 88.6-106.3 17.7 35.4 17.7 70.8 17.7 88.5 0 35.5-35.4 70.9-106.3 70.9h-70.8z" fill-rule="evenodd" transform="matrix(-.24 0 0 .2 480.6 107.5)" stroke="#000" stroke-width="1pt" fill="#ccc"/><path d="M357.5 315.9c0-3.3 8.5-6.6 8.5-10v16.5h-8.5V316zm34 0c0-3.3-8.5-6.6-8.5-10v16.5h8.5V316z" fill-rule="evenodd" fill="#ccc"/><path d="M371.2 1034.6c0 17.7 141.7 17.7 141.7 0v70.9c0 17.7-141.7 17.7-141.7 0v-70.9z" fill-rule="evenodd" transform="matrix(.24 0 0 .2 268.6 123.9)" stroke="#000" stroke-width="1pt" fill="#ccc"/><path d="M249.6 696.4c-17.7 17.7-17.7-17.8-35.4 0-17.7 17.7 17.7 106.3 88.6 106.3S409 767.2 409 784.9c0 17.8-35.5 35.5-35.5 53.2s141.8 17.7 141.8 0-35.5-35.4-35.5-53.2c0-17.7 35.5 17.8 106.3 17.8 71 0 106.3-88.6 88.6-106.3-17.7-17.8-17.7 17.7-35.4 0" transform="matrix(.24 0 0 .2 268 160.4)" stroke="#000" stroke-width="1.3" fill="none"/><path d="M426.8 313.6l-4.3-7.3.7-.3 4.4 7.3-.8.3zm-2.7-1.6h1c.2.9.2 1.6 0 2.2a2 2 0 0 1-1.3 1.1c-.7.3-1.3.3-1.8 0-.6-.1-1.1-.5-1.6-1a8 8 0 0 1-1.4-2 6 6 0 0 1-.6-2.1c0-.7 0-1.3.3-1.7a2.2 2.2 0 0 1 1.3-1 2.5 2.5 0 0 1 1.8.1c.5.3 1.1.7 1.6 1.4l-.7.5c-.4-.5-.8-.9-1.2-1a1.6 1.6 0 0 0-1.1 0c-.5 0-.8.3-1 .7-.1.4-.2.8 0 1.3 0 .6.2 1 .5 1.6l1 1.6c.4.4.8.7 1.2.8h1.2c.4-.1.7-.4.9-.8.1-.5.1-1-.1-1.7zm-5.3 5l-2.9-7.7.8-.2 2.9 7.7-.8.2zm-5.4.9l-.8-7.1-2 .1-.2-1 5.1-.3.1 1-2.1.1.7 7.1-.8.1zm-8.2-2.2h.8c0 .4.2.7.3 1l.7.6 1 .2c.3 0 .6 0 .8-.2.3 0 .4-.2.6-.5a1.4 1.4 0 0 0 .1-.7l-.1-.6c-.2-.2-.3-.4-.6-.5l-1.2-.4a5 5 0 0 1-1.2-.5 2 2 0 0 1-.7-.8 2.3 2.3 0 0 1-.2-1c0-.4 0-.8.3-1.1.2-.4.4-.6.8-.8a2.5 2.5 0 0 1 1.2-.3c.4 0 .8 0 1.2.3.4.2.7.5.9.8.1.4.3.8.3 1.3l-.8.1c0-.5-.2-.9-.5-1.2-.2-.2-.6-.4-1.1-.4-.5 0-.9.2-1.1.4-.3.2-.4.5-.4.9 0 .2 0 .5.3.7.1.2.6.4 1.2.6a7 7 0 0 1 1.5.5l.8.8a2.7 2.7 0 0 1 0 2.4c-.2.4-.5.7-.9.9a3 3 0 0 1-2.7 0 2.3 2.3 0 0 1-.9-1 3.3 3.3 0 0 1-.4-1.5zm-2.3-5.6h.9l-.3 4.8a7 7 0 0 1-.3 1.9 2.4 2.4 0 0 1-.9 1.1c-.4.3-.9.5-1.5.4-.6 0-1-.1-1.4-.4a2 2 0 0 1-.8-1.2c-.1-.5-.2-1.2-.1-2l.2-4.7h.9l-.3 4.7v1.6c.2.3.3.6.6.8l.9.3c.6 0 1-.2 1.4-.5.2-.4.4-1 .5-2l.2-4.8zm-10.5 5.5l.8-.2c0 .7.1 1 .3 1.3.2.3.4.4.7.4.2 0 .4 0 .5-.2a1 1 0 0 0 .3-.5l.1-1v-5.6h.9v5.5a5 5 0 0 1-.2 1.6l-.6.8c-.3.2-.6.3-1 .3-.6 0-1-.2-1.3-.6a3 3 0 0 1-.5-1.8zM378 329v-1l3.3-6 .7-1h-3.6V320h4.6v1l-3.6 6.4-.4.7h4v1h-5zM331.2 318l2-9 .9.1-2 9-.9-.1zm-9-3.6l5.2-8 .8.3-1.2 7.6 4.2-6.3.7.3-5.3 8.1-.8-.3 1.2-7.7-4.1 6.3-.8-.3zm4.5-9l.6.5-4.6 3.8-2 1.4a4 4 0 0 1-1.7.5 2.2 2.2 0 0 1-1.5-.5c-.4-.4-.7-.8-.7-1.2 0-.4.2-1 .6-1.4.3-.5 1-1 1.8-1.8l4.5-3.7.6.5-4.5 3.7c-.7.6-1.2 1-1.4 1.4-.3.3-.4.6-.4.9 0 .3.1.5.4.7.4.4 1 .5 1.4.4.6-.1 1.3-.6 2.3-1.4l4.6-3.8zm9 13.3l.4-9.2h2.2l1.1.2 1 .7c.3.4.5 1 .6 1.6.2.6.2 1.4.2 2.2a9 9 0 0 1-.2 1.8c-.1.6-.3 1-.5 1.3l-.6.9-.8.4-1 .1h-2.3zm1-1h1.3c.4 0 .8 0 1-.2.3-.1.5-.3.6-.5.2-.2.4-.6.5-1.1l.2-1.8c0-1 0-1.7-.2-2.2-.2-.5-.5-.9-.8-1-.2-.2-.6-.2-1-.2h-1.4l-.3 7zm5 1l2.4-9.1h1l2.6 9.1h-1l-.7-2.7h-2.7l-.7 2.7h-1zm1.8-3.7h2.2l-.7-2.6a33.4 33.4 0 0 1-.4-1.9l-.4 1.8-.7 2.7zm4.9 3.7v-9.1h2.2l1.1.1c.4.1.7.3 1 .7.3.4.6.9.7 1.5a9 9 0 0 1 0 4c0 .6-.2 1-.3 1.4a3 3 0 0 1-.6.8 2.1 2.1 0 0 1-.8.5l-1 .1h-2.3zm.8-1h1.4l1-.2.6-.5.4-1.1.2-1.8c0-1-.1-1.7-.3-2.2-.3-.5-.5-.9-.8-1-.3-.2-.6-.2-1.1-.2h-1.4v7zm17.4 11.5V320h3.4l.7.5c.3.2.4.5.6.9l.2 1.2c0 .8-.2 1.5-.6 2-.3.5-1 .8-1.9.8h-1.6v3.7h-.8zm.8-4.8h1.7c.5 0 .9-.1 1.1-.4.3-.3.4-.7.4-1.2 0-.4 0-.7-.2-1a1 1 0 0 0-.6-.6H367.4v3.2zm4.4 4.8l2.5-9.1h1l2.5 9.1h-1l-.7-2.7h-2.7l-.7 2.7h-.9zm1.9-3.7h2.2l-.7-2.6a31.8 31.8 0 0 1-.5-1.9l-.3 1.8-.7 2.7zm55-12.5l-4.2-7.8.7-.5 8 5.6-.7.4-2.4-1.7-2 1.2 1.3 2.4-.6.4zm-1-3.6l1.5-1-2.2-1.5-1.6-1.2 1 1.4 1.2 2.3z"/><path d="M375 251.8c0 5 3 19.7-5.6 42.7-.7 1.7 1 2.5 2.4 2.9 1.4.3 2.1-1.4 2.1-1.8s.4 2.8 1.8 2.5c1.4-.4 2.8-2.5 2.8-2.5s.7 3.2 2.5 3.2 1.8-4 1.8-4c0 .4 1.2 3.4 2.6 3.4s3.6-1.3 2.3-3.4c-9-15.2-8.5-40.2-8.5-43 0-2.8 4.2-8 8.4-8l-1.6-2.6c-1 .3-2.3.6-4.5 2.3s-3.3 3.7-3.3 3.7v-12h-3.5l.3 11s-1.2-1.5-3-3c-1.7-1.5-4.8-1.4-6.7-1.1l-.2 2.4c2.3.5 5.1-.5 6.5 1.6 1.8 1.8 3.4 3.2 3.4 5.7z" fill-rule="evenodd" stroke="#000" stroke-width=".8" fill="#682900"/><path d="M310.6 312.2v-.8c0 2-.1 1 .8-2.5.8-2.9 2.4-5.5 4.1-7.5 3-1 7.5 0 10.9-.8 2.2-3.3 5.8 4.2 5.8-.9 4.3-.3 4.4-4.5 5.8-6.6 4-.5 5-5.5 8.4-2.5 2.7 1.3.4-.9 5-.9 2.7.7 4 2.4 6.6.9.6-2.9 1.4-6.3 1.7-10-1.2-2.4-.9-7.2-.9-10.8 2.3-3 6.3 2.4 10 1.6 1-3.5 4.2-3.5 2.5-6.6-.3-4-1-6.5 0-10.9 1.3-3.7 3.3-3.6 6.7-5.8 1-3.3-.1-6 .8-10 4-.1 3.9-1.1 4.2-5 1.2-2.6 2.8-5.3 5-7.5 2-2.4 4.3-2.1 5.8-5.8 1.3-3.3 1.3-4.8 5-5.8 2.7-1.3 4.8-1.4 6.7-3.4 1.7-3 3.1-5.4 5.8-9.1 2.6-1.8 15.2 1.6 19.1 1.6 2.2-2.6 5.4-6.8 7.5-8.3 3.6-1.9 5-2.5 10-2.5 4.3 1.3 6.1 2.8 10.8 1.7 2-2.7 3.9-4 8.4-2.5 3.4 2.2 5.3 2.1 6.6 5.8 2 4.6 1.5 6.2 6.7 6.7 5.2.2 5.7 1.4 9.2 4.1 5.2 2.3 5 1 5 5.9 3.7 0 4-.5 4.1 3.3 2.3.7 5 2.7 6.7 4.2 2 2.4 2.6 3.9 7.5 4.1 3.6-1.5 4.7-1.5 5-5.8 2.7-1 3.2-3.6 4.1-6.7 2.1-2.8 3.5-3.3 8.3-3.3 4.3 1.8 4.2 3.6 3.4 7.5 2.6.5 3.7.2 4.1 3.3 1.4 2.4 1 5.2-.8 6.7 2.1 1.6 3.4 4.2 4.2 7.5-1.4 2.3-.6 5.8 0 8.3 2.9 1.5 4.4 2.8 8.3 4.2 2 1.7 6.2 3.4 10 4.1 4.5-.6 6-.5 10 1.7 2 3 2.2 6.8 4.1 8.3 2.2 1.9 5.9 2.7 7.5 5 2.8 2 3.6 4.3 7.5 5 1.5 2.2 4.7 6 5.9 8.3.9 2.7 1.3 7.5 2.5 10.9v11.6c-.2 4.3-.9 7-.9 11.7-.7 2.4-1.6 3.3-1.6 6.6-1.6 3.6-3 6.5-5 9.2-1 4.2-2.5 6.2-4.2 10 0 4.4.8 6.3.8 10.8a20 20 0 0 1-7.5 6.7c-2.7 3.2-4.3 4.4-5 9.1-1.5 2.7-1.4 2.5-5 2.5-4.2 0-7.8.4-11.6.9-3.4 0-4.6.3-6.7-1.7-4-1.8-7.3-2-11.6-.8-2.3-1.6-3.3-2.5-7.5-2.5-3.2.4-6 .8-10 .8-2.5-2.8-4-3.3-8.3-3.3-2.4 1.1-7.2.8-10.9.8-3.8-1-4.3-2.6-5.8-5.8-2.6-1.3-3.6-3-7.5-3.4-3.6 0-8.4.4-10.8-.8-2.7-.3-5.6-1-7.5-2.5a22 22 0 0 0-5.8-5.8c-3.7 0-5.9.3-7.5-1.7-2.7-2.1-5-5.5-8.3-7.5-3.1-2.4-5.2-3.9-6.7-8.3 0-4 .8-4.9-3.3-5-2.8 2.8-4 3.3-9.2 3.3-3.4 0-7 0-9.1-.8-3.7-2-5-3-9.2-3.3-2.6 1.6-6 3.5-10 4.1-3.4 2-5.4 2.4-6.7 5.9-3.1 2.5-5 4-9.1 5.8-2.3 2.2-4.5 2.6-5.8 6.6-.8 3.4-1.7 5.4-1.7 10 .6 4.4.3 6.3-1.7 10-1.7 2.5-4.7 3.7-7.5 5.9-4 .5-4.5.1-7.5-1.7-2.9-1-6.2-1.8-10-2.5-4.4-.9-6-2-8.3-4.2l8.3 4.2c-4.4-.9-6-2-8.3-4.2-5-3.6-6-5.4-11.6-5.8-5.2 0-7.5.3-8.4 5 3 .8.6 2.6-.8 3.3-2 1.9-5.4 3.4-8.3 4.2-1.3 1.3-1-1.1-3.4-1.7-3.4-1.8-4.8-3.2-8.3-4.1-1.7-3-3.6-5.3-5.8-8.4-1.7-2.8-3.4-3.8-5.8-6.6-1.2-1.8-4.2-1.9-5.9-3.4-1-3-3.1-8.5-2.5-11.6 1.7-1.6 2.7-7.3 5-8.3 3.4-2.6 4.7-.3 9.2 0 4.3 0-5.9-6.7-1.7-6.7 4-.7 4.4-2.6 5.9-5h10z" fill-rule="evenodd" transform="matrix(.2 0 0 .15 285.6 190)" stroke="#000" stroke-width="4.5" fill="#009200"/><path d="M362.2 229.8c.2.1 1 .5 1.7.5.8.1 1 .4 1.2 1.1.4.3.7.4 1.5.4.8.1.8.4 1.5 1m-10.7 6.3l2.5.2 1.5-1c.8 0 1 0 1.5.3l1.8.3c0 .2 0 .2.2.2m-1-2.7l1.2-.5c.5-.4 1.2-.6 1.8-.8.4 0 1.4 0 1.7-.2m3.5-1v.2c0-.5 0-.2.3.7l.7 2.1c.4.8.8 1.1 1.5 1.5.5.5 1 1 1.6 1.2l1.7 1 2.3.2h.5m.4-16.2v.2c0-.5 0-.2-.2.6l-.8 1.5c-.8.3-1.1.9-1.4 1.5l-1 1.5c-.5.7-.7.9-1.6 1.2m11.6-3l-.5 1c-.3.5-.4 1.4-.5 2 0 .7 0 1.5.2 2 .5.6.6 1 1.5 1.3l-1.5-1.3c.5.6.6 1 1.5 1.3m11.5-.5v.2c0-.5 0-.2-.9.5l-1.6 1.5-2 .2h-1.5m8.3 10.3h-.2c.5 0 .3 0-.6.3-.8.2-1.6.2-2.2 0-.6-.3-1.2-.6-1.7-1.1-.2-.2-.2-.3-.5-.4m-.6 6.3v-.1c0 .5 0 .2-.9-.5-.3-.6-.7-.8-1.5-1.3-.6-.8-.7-1.1-1-2 0-.7-.2-1.4 0-1.9m-9 3l2.4-.1c.5-.4 1-.6 1.6-.9.4-.9.7-1.1.7-2.1m-14.8-1.9l-1-2.1-.2-2m-21.3 9.5h1.3c.8-.4 1.4-.5 2.2-.5.4-.3 1-.3 1.3-.5.7-.5.8-1 1.2-1.7l.2-.8m4.8 1c-.4 0-1.7 0-2.5-.2l-1-1c.2 0 .2 0 .2-.2m5.3-3.5s.9-.3 1.5-.3l1.5-.7.8-.5m-24 8.2h.2c-.4 0-.2 0 .7-.2 1 0 1.7-.4 2.5-.6a8 8 0 0 1 1.6-1.2c0-.3 0-.3.2-.3m37.1-6.9h.2c-.5 0-.2 0 .7.4l2 .5c.6.1.8.3 1.6.3.9.4 1 .5 1.7 1 .5.2.9.3 1.7.3a12 12 0 0 1 1.6-.6c.3-.2.3-.1.4-.4" stroke="#006800" stroke-width=".8" fill="none"/><path d="M374.5 272.4v3.8c0 1.2 0 2.3-.4 3.3 0 1.2 0 2.3-.5 3l-.2 3.4c-.4 1-.3 2.4-.5 3.5l-.5 3.3-1.4 2.6c0 1-.3 1.5 0 2.3.3 1 .3 2.2.3 3.3.3 1 .2 2 .2 3m4.2-26.8l.5 3.3v5.2l.2 3.6a5 5 0 0 1-1 3c0 1.1-.3 2.2-.4 3.3-.3 1-.2 2.2-.2 3.3.3 1.3.7 1.5 1 2.6 0 .7 0 1 .2 1.4m1.8-17.2c0 .5 0 2.5.3 3.3l.2 3.3c-.1 1-.3 1.8-1 2.4-.4.8-.6 1.6-.6 2.8.6.4 1.2 1.6 1.9 2.1.5 1 1 1.1 1.1 2.4.5.5-.3.8 0 1.2.4.5.2.2 0 .7" stroke="#000" stroke-width=".3" fill="none"/><path fill-rule="evenodd" transform="matrix(.16 0 0 .15 369.6 198.5)" stroke="#000" stroke-width="3.1" fill="#ffd100" d="M93.2-106.6l16 25.6 30.2 1-14.2 26.7 14.2 26.7-30.2 1L93.2 0l-16-25.6-30.1-1 14.2-26.7L47-79.9l30.2-1z"/><path fill-rule="evenodd" transform="matrix(.16 0 0 .15 349.7 198.5)" stroke="#000" stroke-width="3.1" fill="#ffd100" d="M93.2-106.6l16 25.6 30.2 1-14.2 26.7 14.2 26.7-30.2 1L93.2 0l-16-25.6-30.1-1 14.2-26.7L47-79.9l30.2-1z"/><path fill-rule="evenodd" transform="matrix(.16 -.02 .02 .15 332.7 203.7)" stroke="#000" stroke-width="3.1" fill="#ffd100" d="M93.2-106.6l16 25.6 30.2 1-14.2 26.7 14.2 26.7-30.2 1L93.2 0l-16-25.6-30.1-1 14.2-26.7L47-79.9l30.2-1z"/><path fill-rule="evenodd" transform="matrix(-.16 -.02 -.02 .15 418.3 203.2)" stroke="#000" stroke-width="3.1" fill="#ffd100" d="M93.2-106.6l16 25.6 30.2 1-14.2 26.7 14.2 26.7-30.2 1L93.2 0l-16-25.6-30.1-1 14.2-26.7L47-79.9l30.2-1z"/><path fill-rule="evenodd" transform="matrix(-.15 -.05 -.05 .14 433.6 213.4)" stroke="#000" stroke-width="3.1" fill="#ffd100" d="M93.2-106.6l16 25.6 30.2 1-14.2 26.7 14.2 26.7-30.2 1L93.2 0l-16-25.6-30.1-1 14.2-26.7L47-79.9l30.2-1z"/><path fill-rule="evenodd" transform="matrix(.15 -.05 .05 .14 316.9 212.4)" stroke="#000" stroke-width="3.1" fill="#ffd100" d="M93.2-106.6l16 25.6 30.2 1-14.2 26.7 14.2 26.7-30.2 1L93.2 0l-16-25.6-30.1-1 14.2-26.7L47-79.9l30.2-1z"/></g></svg>