<svg xmlns="http://www.w3.org/2000/svg" xmlns:xlink="http://www.w3.org/1999/xlink" width="640" height="320"><path fill="#d3ae3b" d="M0 0h640v320H0z"/><path fill="#c40308" d="M16 16h608v288H16z"/><path fill="#B96B29" d="M389.6 157.4c2-.5 8.4-2.4 13-6.2 4.6-3.7 5.5-6.7 5.9-8.3.3-1.6.5-2.9-.7-2-1.2 1-4.7 3.8-7.2 5.1-2.4 1.4-4.6 2-6 2.4-1.3.4-2.3.6-1 0 1.2-.4 5.4-1.9 8.5-5 3.2-3.3 5.8-8 5.8-11s-.1-2.7-1-2c-1 .8-4.4 4.9-6.3 6.5a60 60 0 0 1-6.4 4.5c-1.6 1-3.7 2-.7-.1 3-2 8.6-6.9 11-13.1 2.3-6.3 1.8-10 1.8-10.6 0-.6-.6-1.9-1.1-.7-.5 1.1-4.3 8.7-7.4 12-3 3.2-2.3 2.6-3 3-.6.6-1.8 1.6-.3-.3a34.3 34.3 0 0 0 8.1-21.1c0-2.4-1-5.8-1.5-6.8-.4-1-1-1.7-1-.5-.2 1.1-2.6 8.6-4 12.2-1.3 3.6-3.9 7.7-4.4 8.5-.5.8-2 2.4-.4-.3a51.6 51.6 0 0 0 4.6-18.4c.4-7.6-.6-11.8-1.7-14-1-2-2-2.8-2-2.8s.2 5.2-1.3 12.7c-1.6 7.5-3.8 11.4-3.8 11.4s-1 1.1-.3-.7c.4-1.2 1.3-3.9 1.7-8.4.5-4.7.5-10-.9-14.6-1.5-5-4-7.5-4-7.5-.8 7.1-.6 16.3-3.3 23.8-.5-.5-1.1-1.3-1.4.4a42 42 0 0 1-9.2 19.5s-.5-1.4-1-2.2c-.4-.8-.6-1.2-1.2-.1-.5 1-2.3 5.2-6.2 9.7-4 4.6-6.2 6.8-6 10.2 0 3.4 1.9 5.1 4.2 6.7 2.4 1.5 2.9 2.4 2.5 4.2-.4 1.9-2.5 2.5-4.4 2.6-1.8 0-4.1-.1-5 .3-.8.5-.9 1.7-1.7 2.6-.8.8-1.2 1.3-2 1.4h-.6c-.2-9 3.3-13 3.3-13l-9.8-11.3-1.5.7c0-.2-.1-.3-.3-.5a7.5 7.5 0 0 1-1.7-5.2c.5 0 1.5.4 2.4.3.8-.2.2-1.1 0-2a17.4 17.4 0 0 1-.2-6.4s1.4 1.6 2.3 1.6c.9 0 .8-.9 1-1.9.1-1.4.8-3.3 2-4.3 0 0 1.5 1 3.3 1 1.7 0 4.1-.4 6-2.2 2-1.8 1.9-2.3 1.9-2.3s3.5 1.2 6.2 1.4c2.7.1 5.5-.3 7-3.2 1.3-2.8-.5-5.4-.8-5.8-.3-.5-1.2-.8-1.2 0s0 2.9-1.6 4c-1.6 1-2.9 1-4.4.5a13.7 13.7 0 0 0-8.7-.3 12 12 0 0 1 4-2.7c2-.7 3.3.2 4 1s1.2 2 1.7.2c.5-1.9.2-4-.7-5.4a5 5 0 0 0-4.7-2c-2 .2-2.7.5-2.7.5s-1-2.8-3.6-3.4a14 14 0 0 0-9.3 2s-2 .6-4.2 0a14 14 0 0 1-3.7-1.9l.8-2.3 1.2-.5c.7-.2.5-.4.6-1 .1-.5-1.2-1.4-1.2-1.4s-.2-1.6 2-2.8l1.8-.9s1.3.3 1.8-.1.5-.6.5-.6 1-.3 1.3-.9c.3-.6.4-1.4.1-2-.2-.7-.5-.8-.2-1.1.4-.4.7-1.1.7-1.7V84s.8-.3.7-1.4c0-1-.6-1.5-1-1.6l-.5-.1s0-.7-.6-1.6l-1-1.2s.4-.3.2-1a2 2 0 0 0-1.2-1.4h-1l-2.5-1.4-1-.5s0-.7-.3-1-1-.6-1.3-.6l-.7.2-4-1-1.2-.2s-2.5-1.2-3.5-1.4l-1.3-.3s1-1.2 1.1-2.6a4 4 0 0 0-1.9-3.4l-1-.5v-1l1.8.2.2-3-1.9.2.3-1.8h-3.8l.3 1.7h-1.9l.2 3 2-.3-.3 1.1s-.7.1-1.3.6c-1 .6-1.9 1.7-1.8 3.2 0 1.4 1 2.6 1 2.6l-1.3.3c-1 .2-3.5 1.4-3.5 1.4l-1.2.3c-1.2.1-4 .9-4 .9l-.7-.2c-.4 0-1 .1-1.3.5-.3.4-.3 1-.3 1l-1 .6-2.5 1.4h-1a2 2 0 0 0-1.2 1.3l.1 1-.9 1.3c-.6 1-.6 1.6-.6 1.6h-.6c-.3.2-1 .6-1 1.7s.7 1.4.7 1.4v.6c0 .6.4 1.3.7 1.7.4.3 0 .4-.2 1-.2.7-.2 1.5.2 2.1.3.6 1.3.9 1.3.9s0 .2.5.6 1.7.1 1.7.1l2 1c2.1 1.1 1.9 2.7 1.9 2.7s-1.3 1-1.2 1.4c0 .6-.1.8.5 1l1.3.5.7 2.3a14 14 0 0 1-3.6 1.8c-2.2.7-4.3.2-4.3.2a14 14 0 0 0-9.2-2c-2.6.5-3.6 3.3-3.6 3.3s-.7-.3-2.7-.5a5 5 0 0 0-4.8 2 6.9 6.9 0 0 0-.6 5.4c.5 1.9 1 .6 1.7-.2s1.9-1.7 4-1c1.9.6 4 2.6 4 2.7 0 0-.3-.2-2.5-.5-2.5-.3-4.7.3-6.2.8s-2.8.5-4.5-.6c-1.6-1-1.5-3.1-1.5-4s-1-.4-1.2 0-2.1 3.1-.7 6 4.2 3.2 6.9 3c2.7 0 6.2-1.3 6.2-1.3s0 .5 1.9 2.3a8.7 8.7 0 0 0 6 2.3l3.3-1.1c1.1 1 1.8 2.9 2 4.3.2 1 0 1.9 1 1.9.8 0 2.2-1.6 2.2-1.6l.3 1.6c.2 1.1 0 4-.3 4.9-.3.8-1 1.7 0 1.9.8.1 1.8-.2 2.3-.3 0 2.2-.5 3.6-1.8 5.2a3 3 0 0 0-.2.4l-1.5-.6-9.7 11.4s3.5 4 3.3 13l-.7-.1c-.8-.1-1.1-.6-2-1.4-.8-.9-.9-2-1.7-2.6s-3.2-.3-5-.3c-1.9 0-4-.7-4.4-2.6-.3-1.8 0-2.7 2.5-4.2 2.4-1.6 4.1-3.3 4.3-6.7 0-3.4-2.1-5.6-6-10.2-4-4.5-5.8-8.6-6.3-9.7s-.8-.7-1.2.1l-1 2.2s-1.4-.8-4.6-6.6a42 42 0 0 1-4.6-13c-.3-1.6-1-.8-1.4-.3-2.6-7.5-2.5-16.7-3.2-23.8 0 0-2.6 2.5-4.1 7.5-1.4 4.6-1.4 10-1 14.6.5 4.5 1.4 7.2 1.9 8.4.6 1.8-.3.7-.3.7s-2.3-4-3.9-11.4c-1.5-7.5-1.3-12.7-1.3-12.7s-1 .8-2 2.9c-1 2-2.1 6.3-1.7 13.9.3 7.6 3.2 15.7 4.6 18.4 1.5 2.7.2 1-.4.3-.5-.8-3.1-4.9-4.4-8.5-1.4-3.6-3.8-11-4-12.2 0-1.2-.6-.5-1 .5-.5 1-1.6 4.4-1.5 6.8 0 2.4.5 6.6 2 10.8 1.6 4.2 4.7 8.5 6.1 10.3 1.5 1.9.4 1-.3.4l-3-3.2c-3-3.3-6.9-10.8-7.4-12-.5-1-1 .2-1 .8-.1.6-.6 4.3 1.8 10.6 2.3 6.2 8 11 11 13 3 2.1.8 1.1-.7.2a60 60 0 0 1-6.5-4.5c-1.9-1.6-5.3-5.7-6.2-6.5-1-.7-1.2-1-1.1 2s2.6 7.7 5.8 11c3.2 3.1 7.3 4.6 8.6 5 1.2.6.2.4-1.1 0-1.4-.4-3.6-1-6-2.4-2.5-1.3-6-4.1-7.2-5-1.2-1-1 .3-.7 2 .4 1.5 1.3 4.5 5.9 8.2a38.7 38.7 0 0 0 13 6.2c1.8.5.5.5.5.5l-4.5-1c-3.8-.8-9.6-3.8-11.1-4.8-1.6-1-1.8-1.3-1.6.8.2 2 2.4 6.4 5.9 8.5s9.8 3.1 11.5 3.2c1.6 0 1.2.3.5.4a33.6 33.6 0 0 1-12.9-2.2l-.3-1.4c-.2-.8-.6-.6-.8-.5-.3.2-.4.4-1.3.8s-1-.1-1-.4l-.2-2c0-.5-.3-.6-.7-.4l-3.1 1.3c-.7.4 0 1 .3 1.6l1 1.8-2.4.6c-.6.1-.4.5-.3 1l1.3 3 .7.2 1.9-1 .6 2.4s-.8.2-1.8.8c-.9.7-.7 1.5.5 1.8 1 .4 2.4 1 3.8 3.5 1.4 2.6 1.8 7.3 2.7 14.7.8 7.3 5.6 11 6.2 11.5l.3.9s-.7 1-.4 2.3a3.6 3.6 0 0 0 2.2 2.5c.6.3.4 1 .4 1s-.3 1.5 0 4.4c.4 2.8 2.7 6 3.4 6.6.6.6.7.9.6 1.1-.1.2-.5 0-1.3.7-.8.6-1.7 1.4-2.2 2.4-.6 1-.4 1.6-.2 3s2.2 2.7 2.2 2.7-.4 0-.5 1c0 1.1.7 2.3 1.6 3 1 .7 2.7 1.1 2.7 1.1l.2 1.5c.1.6 1.3 1.2 2 1.6.7.4 2.2.2 2.8 0 .6-.3 1 0 1.4.6.3.6.2 2.9.2 3.8 0 1-.6 2-.2 2.4.3.5 1.2.1 2-.4 1-.5 1.1-.1 2 .4.7.5 2 1 2.3 1 .3-.1.2-1 .2-1.7s.1-2.2.4-2.5c.2 0 1.5-.2 2.6-.6.5-.2 1-.4 1.1-.9 0-.5-.6-.5-2.1-1.2-1.6-.8-1.8-1.3-2.8-2-1-.6-.5-.8-.5-1.1 0-.3.4-.6.6-1l.1-1.2 1.2-1.2 1.3-1.5c.5-.5 1.3-2.4 1.8-3 .5-.7 1.7-1.4 2.4-2.3.7-.8 2.5-2.3 3.6-3 1-.7 4-2 4-2s-.1 1.7.6 2.5c.7.9 1.7-.6 5-3 3.3-2.2 5.8-3 5.8-3l1.5 2.1c1 1.1 1.7 0 5.7-5.6 3.2-4.4 7.4-8.4 9-9.9l.9.4-.3.7c-.3 1.2-1 2-1.7 3.5-.8 1.6-2 2-3.4 4.2a10.5 10.5 0 0 0-1.7 5.8c-.1 2.2 1.1 2.7 1.1 2.7s-2 2-2.6 3.4c-.6 1.5-1 4.5-1 4.5s-.2.1-1 1.7c-.7 1.5-2 1.7-4 3.6-2 2-4 2.8-5.1 3.4-1 .6-.7 1.2-.5 2 .3.8 1.7 1.6 3.3 2.2 1.6.6 2.2.3 3.3.3 1 0 .2.8-.2 1.3-.5.4-1.1 2-1 3.8 0 1.8 1.4 1.4 3 1.1 1.7-.2 3.7-1 3.7-1l-.2.4c-.2.5-.3 1-.3 2.3 0 1.5.2 2.2.6 2.5.5.4 1.3-.4 1.9-.6.6-.2 1.6-.8 3-1 1.5-.4 2.1-1 2.1-1s-.4.4-.5 1.4c0 1 0 2.6.2 3.4.3 1 .9 2 2 2.9 1 1 1.2.5 1.9-.7.7-1.1 2.2-2.6 2.2-2.6l1.2 3.7c1 3.2 4.3 6 4.3 6s3.3-2.8 4.3-6l1.1-3.7s1.5 1.5 2.3 2.6c.7 1.2 1 1.6 2 .7 1-1 1.6-2 1.8-2.9.3-.8.3-2.4.2-3.4 0-1-.4-1.4-.4-1.4s.5.6 2 1c1.5.2 2.5.8 3 1 .7.2 1.5 1 2 .6.3-.3.6-1 .6-2.5 0-1.4-.1-1.8-.3-2.3l-.2-.5s2 .9 3.6 1.1 3 .7 3-1c.2-1.9-.4-3.5-.9-4-.5-.4-1.3-1.3-.2-1.2 1 0 1.6.2 3.2-.3 1.7-.6 3-1.4 3.3-2.2.3-.8.6-1.4-.4-2-1-.6-3.2-1.4-5.2-3.4-1.9-1.9-3.2-2.1-4-3.6-.7-1.6-1-1.7-1-1.7s-.3-3-1-4.5c-.5-1.4-2.6-3.4-2.6-3.4s1.3-.5 1.1-2.7c-.1-2.2-.3-3.7-1.7-5.8-1.3-2.2-2.5-2.6-3.3-4.2-.8-1.6-1.4-2.3-1.8-3.5l-.2-.7 1.2-.5c1.6 1.5 5.8 5.5 9 10 4 5.5 4.8 6.6 5.7 5.5l1.5-2.2s2.5.9 5.8 3.2c3.3 2.3 4.2 3.8 5 3 .4-.5.5-1.2.5-1.8a91 91 0 0 0 7.9 2.8c2.8 1.2 3.1 1.8 5.4 3.6s5.4 1.6 8.5.7c3-1 11.2-3.6 14.4-5 3.3-1.4 5.6-2.6 6-3.3.3-.6.7-2.5.7-3.1 0-.7-.8-1.6-1-1.8-.2-.2-.1-.7 0-1.1 0-.4-.2-1.7-.7-2.2-.5-.6-.5-.8-.4-2.3a9.9 9.9 0 0 0-5.6-9s-.1-.4-.4-.6l-.7-.4V197c0-.4.2-.3.4-.2.2.1.6.6 1.2.7.5.1.8-.3 1-.9 0-.6.5-1.8.7-2.5.2-.6 0-.7-.3-.7l-1.4-.3c-.4 0-.4-.1-.3-.3l.7-1.3c.5-.8 0-.8-.4-1l-3.3-.9c-.6 0-.7.4-.7.7v1.7c0 .4-.3.3-.6.2-.2 0-.7-.4-1.1-.7-.4-.4-.7 0-.9.4l-.8 2.9c-.2.5-.1 1 .1 1 .2.2 1.3 0 2 0 .6 0 .2.4.2.4l-.9 1.6c-.2.4-.6.5-1.1.5h-1.4s-3.6.1-6.1 2c-2.6 2-3.4 3.6-3.8 4.5-.4 1-.8.7-1.2 1-.4.4-1.5 1.6-1.5 2.3 0 .7.2 1.1-1 1.9-1 .7-2 3.9-.4 5.5 1.5 1.7 2 3.3 2.6 4.1.4.8 0 1.2-.4 1.2s-1.3-.7-2-1.2l-5.7-4.4c-1.5-1.1-.4-1-.4-1s.4 0 1.3-.3c.9-.4 1-.9.1-1.1-.8-.3-2.6-1.3-3-1.8-.5-.4-.7-1 .2-1.4.8-.5 2.8-1.7 1.3-2.1l-4.8-1.2c-1.5-.4-1.7-.8-1.7-.8l1-1.4s.8-1.1-.1-1.3-3.2-.4-5.2-1.3c-4-1.7-6.6-4.7-7.6-8.3l.1-.1c.8 1.5 2.5 4.3 5.2 4.4 3.6 0 4-1 3.2-2.2l-2-2.7c-.2-.3-.3-.8.6 0s2.8 4 8.3 3.7c5.5-.4 5.5-1.5 5.5-1.8 0-1-1.1-1.2-1.8-1.8-.3-.4-.6-.9.6-.5s3.8 1 7.5.2c1.4-.3 5.3-2 5.7-4 0 0-2.5-.1-4.2-.9-1.7-.7-2.7-1.3-1-1 1.9.4 5.4 1.2 8.5.1 1.9-.6 4.2-2 4.2-4.8 0 0-3.4-.7-4.6-1.1l-1.6-.8s4.8 1.5 9.2-.7c4.4-2.2 4.5-5.3 4.5-6v-1s-4 1-7 1-4-.3-4-.3 8.4-.2 12.6-2.8c4.2-2.5 4.4-7.6 4.4-7.6s-4.7 1.7-7.7 2c-3 .4-4.8.4-5.5.4-.8-.1-1.2-.3.4-.4 1.7 0 8-1.1 11.5-3.2 3.5-2 5.7-6.5 6-8.5.1-2.1-.1-1.7-1.7-.8-1.5 1-7.3 4-11 4.9l-4.6 1s-1.5-.1.4-.7zm-150 9.6l-1.7 1-.9-1.8c-.2-.4 0-.6.2-.6l1.4-.3h.3l.7 1.7zm51.1 30c-1 1.9-3.8 3.8-5.8 4.7s-4.3 1.2-5.2 1.3c-.9.2-.1 1.3-.1 1.3l1 1.4s-.2.4-1.7.8l-4.8 1.2c-1.5.4.4 1.6 1.3 2 .9.6.7 1 .2 1.5-.5.5-2.2 1.5-3 1.7s-.8.8.1 1.2l3.3.8-1.5 1.2c-1.5 1.1-4.1 1.8-5.8 2a76.7 76.7 0 0 1-11.7-.2l-.3-2.9c-.3-1.7-1.3-4-2-5.2-.9-1-2.5-3.3-2.5-3.3l.1-1c.1-.5 0-1.2-.3-2.2-.4-1-2.4-2.6-2.4-2.6l-.1-2.1c0-1-.7-5.2-1.4-7-.6-2-3.7-7-5.2-9.4a26.3 26.3 0 0 1-2.8-13.2c0-.3.2-.6.3-.8.6.7 1.3 1.4 2.3 2 4.2 2.6 12.5 2.8 12.5 2.8s-.9.3-3.9.3-7-1-7-1v1c0 .7.2 3.8 4.5 6 4.4 2.2 9.2.7 9.2.7s-.4.3-1.6.8c-1.2.4-4.6 1.1-4.6 1.1 0 2.7 2.3 4.2 4.2 4.8 3 1 6.6.3 8.4 0 1.8-.4.8.2-.9 1-1.7.7-4.2.8-4.2.8.4 2 4.3 3.7 5.7 4 3.7.8 6.4.3 7.6-.2s.9.1.5.5c-.6.6-1.8.8-1.8 1.8 0 .3 0 1.4 5.5 1.8s7.3-2.7 8.3-3.6c1-1 .9-.4.6 0l-2 2.6c-.9 1.1-.4 2.3 3.2 2.2 2.7-.1 4.5-3 5.2-4.5v.1l.2.2c-.3.9-1 2.3-1.6 3.5zM335 78.2l-.8-1.4s2.1 1 3.3 2.4c1.3 1.4 1.2 2 1.4 2.8.2.7 0 2-.2 3.1-.1 1.2-.1 1.9.1 2.3l.4.6-1.7.6c-.9.4-2 .7-2.7.1-.6-.5-.7-.8-.3-1.2.3-.3 1.8-.7 2-3.3.2-2.5-1-5-1.5-6zM323.7 85c.5-1.1.7-2.3.3-4.7-.3-2.1-.7-3.9-.8-6 0 0 1.5.2 3.7 2.2s2.7 4.1 2.7 5.1-.5 2.3-.6 3.2c0 1 .3 1.9.3 1.9l-1.5.8c-.7.5-1.2.8-2.4.8-1-.1-1.7-.6-2.4-1l-1-.3s1.2-.8 1.7-2zM313 76.5c2.2-2 3.7-2.3 3.7-2.3 0 2.2-.5 4-.8 6-.3 2.5-.1 3.7.3 4.8.5 1.2 1.8 2 1.8 2l-1 .4c-.7.3-1.4.8-2.5.9-1 0-1.6-.3-2.3-.8-.7-.5-1.5-.8-1.5-.8s.3-.9.2-1.9c0-1-.6-2.2-.6-3.2s.5-3 2.7-5zm-7.9 12.2c-.6.6-1.7.3-2.6 0l-1.8-.7.5-.6c.2-.4.2-1.1 0-2.3-.2-1.2-.4-2.4-.2-3.1.2-.7.2-1.4 1.4-2.8s3.3-2.4 3.3-2.4l-.7 1.4c-.5 1-1.7 3.5-1.5 6 .1 2.6 1.6 3 2 3.3.4.4.2.7-.4 1.2zm29.2 21.1c-2.1 1.2-3.3 1-3.3 1.8.1 1 2 1.6 2 1.6s-2 2.1-3.5 3c-1.5 1-3.3 1.7-3.3 1.7s-.6 0-.3 1c.4 1 1 1.7 1.5 2l.7.3s-2.7 2.9-3.9 3.8c-1.1 1-1.8 1.2-2.8 1.6-1 .4-.5 2-.2 2.7.2.7 1 1.7 1.5 1.8.5.2.7.5 0 1.5l-2.7 3.7-2.8-3.7c-.6-1-.4-1.3 0-1.5s1.4-1 1.6-1.8c.2-.7.7-2.3-.3-2.7-1-.4-1.6-.7-2.8-1.6-1.2-1-3.9-3.8-3.9-3.8l.8-.4c.5-.2 1-.9 1.4-1.9.4-1-.2-1-.2-1s-1.8-.6-3.4-1.6c-1.5-1-3.5-3.1-3.5-3.1s2-.7 2-1.6c.1-.8-1.1-.6-3.3-1.8l-2.8-2.7s2.5-.8 3.7-3.3c.4-1 .5-1.7.5-2.4 4.1 1.3 8.8 1.8 13 1.8 4.2 0 8.9-.5 12.9-1.8 0 .7.1 1.5.6 2.4 1.2 2.5 3.7 3.3 3.7 3.3s-.7 1.5-2.8 2.7z"/><path fill="#D4AF3A" d="M347.5 158.5c0-6.8 3-11 3-11l-8.4-9.8c-8 3.1-15.5 3.3-22.1 0-6.6 3.3-14 3.1-22 0l-8.6 9.7s3.1 4.3 3.1 11.1-1.3 11.8-2 15.1c-.8 3.3-1.5 9.4.3 13.8 1.7 4.4 3.6 8.2 11.1 11.4s11.5 4.8 14.2 7c2.6 2.2 3.9 4 3.9 4s1.3-1.8 4-4c2.6-2.2 6.5-3.9 14-7 7.6-3.2 9.5-7 11.2-11.4 1.8-4.4 1.1-10.5.3-13.8-.7-3.3-2-8.3-2-15.1z"/><path fill="#B96B29" d="M344.8 161.3c-1-6.5 2.7-12.2 2.7-12.2l-7.3-8.5c-5.6 3.2-13.4 2.7-20.2-.4-6.7 3.1-14.5 3.6-20.1.4l-7.3 8.5s3.7 5.7 2.7 12.2c-1.1 6.5-3.4 16.7-2.8 21 .5 4.1 3.5 9 6.5 11.5s7.6 4.7 10.8 5.8a31 31 0 0 1 10.2 6.7l2.5-2.2a30 30 0 0 1 7.8-4.5c3.2-1.1 7.7-3.3 10.7-5.8 3-2.6 6-7.4 6.6-11.6.6-4.2-1.7-14.4-2.8-21z"/><path fill="#1D5E91" d="M344.1 162c-1-7 2.1-12.6 2.1-12.6l-6.6-7.3c-5.5 2.9-12.2 2.1-19.6-.4-7.3 2.5-14 3.3-19.6.4l-6.6 7.3s3.2 5.7 2.1 12.7-2.6 14.9-2.3 19.5v1h6s.4-.4 1-.7l1-.5s0-1.2.8-1.4c.7-.3 1-.3 1.3-.3s.5 0 .8-.4c.4-.3 1.3-1.2 1.8-2.4s.6-1.7.6-2.5.3-2 .3-2-.2-.4-.8-.2c-.6.2-.6-.4-.7-1 0-.6 0-1.8.3-2.4l.5-.8-.3-1s-3.8.9-4.4-2.1c-.7-3-.8-4.4-1-4.7 0-.3-.1-.5-.6-.4-.5 0-1.6-.4-2.4-1.9-.7-1.5-.8-2.1-.6-2.7.3-.7.7-.4.8-.2.1.2 1.1 1.6 1.5 1.2.5-.4.2-.4-.3-1.6s-.4-1.5-.4-2c.1-.6-.1-1.4-.1-1.7 0-.3.3-.6.7-.4l.8.6c.1.2.2.5.5.3s.1-1.3.1-1.6c0-.4.5-.6 1-.3s.7.8.7 1.2c0 .4 0 .7.2.7s.5-.6.5-1c0-.3.2-.9.6-.4.3.5.5 1.2.3 1.9 0 .7.2.3 0 1.6-.3 1.3-.5 1.8-.4 2.8 0 1 0 1.5.5 2.7.5 1.1.9 2.5 1.7 2.5h1.2s1-1.8 1.7-2.3c.8-.4 1.9-.5 2.6-.6.8 0 1-.3 1-.5s-.2-.3-1-.4c-1-.1-1.8-.3-1.8-1s.2-1.3-.4-1.4c-.6 0-2.1-.5-2.7-1.5-.5-1-.4-1.2-.3-1.7 0-.5.8-1.6 1.2-.6s.7 1.1 1.1 1.4c.4.2.9.2.6-.5-.2-.6-.4-1-.3-1.6 0-.5.4-.7.8-.8l2.3-.6.7-.2s0-.5.8-.7a6 6 0 0 1 2-.3c.6 0 1 0 1.8-.3.8-.4 1.5-.4 2-.4s.9.2 1.2.5c.4.2.3.6.3 1 0 .3 0 .5.6.5.5 0 1 0 1.5.2.5.1 1.2.4.8 1-.5.5-.5 1.1-.8 1-.3 0-.2.4-.4.6 0 .2-.2.3.1.5l.8.8c.5.4 1.1.9.5 1.5-.7.7-1.9 1.2-1.9 1.2s-.6.3.1.8c.8.4 1.1 1.4 1.4 1.5l.8.5c.2.1.1.8.1.8l-1 .5c-.5.2-1.1.4-1.7.4-.5 0-.8 0-.6.5l.7 1.4.3.8 1.6.2 3-.2c1.7-.2 2.2-.2 3.9 0 1.6.1 1.9 0 2.3.2l1 .4s2.3 0 3.6-.3c1.3-.3 1.6-1.1 1.4-1.6-.2-.4-.1-1-2.4-1.4-2.3-.3-3.2-.2-5-.5-1.8-.4-4.7-1.3-5.2-3.6-.5-2.2 1.4-3.2 2.3-3.6l3.8-1.5c1-.4 2.6-.8 4.4-.5 1.8.2 2.8.7 3.5.3.7-.4 1.2-.1 1.1.5-.1.6-.8 2-2.8 2.6-2 .6-4.4.6-5.7.3-1.3-.4-2.3-.9-3-.6-.9.3-1.8 1.3-.9 2.4.9 1.2 5.2 1.6 6.4 1.7 1.2.1 5.5-.2 6.7 2 1.3 2.1.3 4.5-1.2 5-1.4.6-2.7 1-3.8 1.1l-1 .2s.4 1.1.4 1.6 0 1.4.5 1.7c.6.4 1.3.6 2.2.5 1 0 2 .6 2.1 1.4l.4 3.6v3s0 .7-.3 1.3l-1.3 3h6.4v-1c.3-4.8-1.3-12.7-2.3-19.7z"/><path fill="#6D8C3E" d="M294.4 185.7c1.3 3.6 3.8 7.2 7.8 9.6 5.4 3.3 7.8 2.8 13 6.2 5 3.3 4.7 3.9 4.8 3.9s-.2-.6 4.9-4c5.1-3.3 7.5-2.8 13-6.1 3.9-2.4 6.4-6 7.7-9.6h-51.2z"/><path fill="#D4AF3A" d="M298.9 158.1c.6.6 1 .8 1.9.7.9 0 1.1.6 1.3 1.3.1.7.1 2.4.8 4 .6 1.5 2.8 1.5 2.8 1.5 0-.7.3-1.7.6-2.5 0-.2.3-.8-.4-.8s-.8-.3-1.2-1c-.5-.8-1.4-2.8-1.6-4a10 10 0 0 1 .4-3.9c.2-.7.2-1.1 0-1.2-.2-.2-.7 0-.7 0s.1.5 0 .6c-.3.1-.5-.3-.6-.7-.2-.4-.4-.4-.7-.3-.3 0-.3.3 0 .6.2.3 0 .8 0 .8l-1-.6c-.2-.1-.8.1-1 .5 0 .4.3 1.3 1 1.8.5.5.5 1.5.3 2s-1 .4-1.2.2a.5.5 0 0 0-.8 0c-.3.3-.5.4 0 1zm-.4-1.6l-.4-.4-.4-.5v.5l.3.8.5-.4zm1.3-4.3c.3-.1.5-.2.3-.5l-.6-.7h-.4l.3.9c0 .3.2.4.4.3zm1.6-1.3c0 .3 0 .4.3.3.3-.1.4-.5.2-.7 0-.3-.4-.4-.4-.4l-.2-.2s.2.7.1 1zm2.3.4v-.7s0 .4-.2.6c-.2.2-.1.2 0 .4.2.2.2 0 .2-.3zm3.7 15.6c.4 1.1 1.6-.5 2.6-1.9 1-1.3 1-.3.9.8-.2 1 .3 2.2.7 3 .4.7.7.3 1-.2 0-.6.2-1.6.6-2.2s.7 0 .7.4.6 1.5 1.1 2c.6.7.8-.1 1-.9l.5-2.3c.1-.4.6 0 .6 0l1 1c.8.6.8-.4.9-1 0-.5-.1-1.6.1-1.8.2-.2.8.2 1.7.7 1 .5.9-.4.8-1a5 5 0 0 0-1.4-2.1c-.7-.7-.8-1.4-.6-1.7.3-.3 1.1 0 1.7-.1l1.3-.2c.4-.1.4-.5.4-.5s-.3-.6-1-1c-.5-.6-.9-1-1.6-1.2-.7-.2-1.7 0-1.7 0l-.1-.2c-.2-.2-.4-.2-.5 0l-.8.7c-.2.3-.4.4-.6.3-.2-.1.1-.3.1-.3s.4-.3.8-1c.3-.7.4-1.4.1-1.7-.2-.3-1 0-1.4 0l-.7-.1c0-.3.4-.1 1-.2.5 0 .8-.7 1-1.2s.3-.5.6-.2.6.3.6 0l.7-1.2c.4-.5.6-1.3.2-1.8-.4-.4-1.3-.4-1.7 0-.4.3-.6.6-.7 1.3-.1.8-.4.4-.4.1s-.3-.6-.1-.9v-.7s-.1-.6-.8-.8-1.6 0-2.3.2l-.6.8-1.2.2c-.6 0-1.3.3-1.8.4-.6.1-.8.2-.8.5l.1.7s.5 0 .7.2c.3.1.1.4-.2.5-.2 0-.3.1-.3.4 0 .4 0 .5.4.5s.8 0 1.5.3 1 1 .8 1.3c0 .3-1 .8-1.5.8s-.6 0-.6.4c0 .3.6.3.6.3l1.7.2c1.2.1 1.3.3 1.9.8.5.4.1.6-.1.7l-1 .6-1 .5c-.4 0-1.2 0-2.9.6-1.6.7-2.1 2.8-2.1 2.8l1-.5 2.4-1.3c.8-.5.8.2.4 1-.4.7.4.6.7.4.2-.3.5-.5 1.3-.9s.5.3.5.3-.2.4-.3 1.6c0 1.2 1.2 0 1.7-.7s.8 0 .4.9c-.4.8-1.2 1.5-1.7 1.5-.4 0-.8-.5-.8-.8s.1-1.1-.1-1.3c-.3-.2-1.1 0-1.7.4-.6.3-.7 0-.9-.3-.1-.3.2-.4 0-.6 0-.2-.4 0-.6.1l-1.9 1c-1 .5-1 .8-1 1.7s.2 1 .6 2zm10.4-17.5l.7-.3 1-.2c.4 0 .3-.3.2-.5 0-.2-.3-.3-.9-.3-.6 0-1 .3-1.3.4l-.8.3.3.4c.2.4.6.4.8.3zm2.5 2.5l.6-.1.8-.4c.4-.1.6-.2.8-.7.3-.5-.2-.5-1-.7-.7-.1-1 .1-1.1.4 0 .2 0 .5-.3 1-.3.6 0 .5.2.5zm-.2.7c-.7 0-1.5 1-1.8 1.2v.4l.2.8.1 1.1h.5c.4 0 .7-.1 1-.4s.8-.4 1.3-.5l1.5-.5c.6-.4-.4-1-1-1.5-.7-.5-1-.6-1.8-.6zm-9.3 2.4c.6 0 .8-.3.8-.7s-.3-.6-1-.5c-1.7.1-3.4-.5-3.7-2.2 0 0-.6 1 .5 2.3 1 1.2 2.9 1.2 3.4 1zm-6 27.3l.4.3h2.7c.4-.1.4-.5.4-.8l.7-3.1c.4-1.8 1-3 1.2-3.7s-.2-1-.4-1.4a12 12 0 0 1-.5-1.7c-.1-.4-.8-.3-1.1-.3s-.4.6-.4 1.1l-.6 3.4a9 9 0 0 1-2.2 3.6c-.4.4-.8.5-1 .5s-1 0-1.3.2c-.3.2-.6.7-.6 1 0 .5.6.7.6.7l.6-.5c.2-.3.6-.3 1-.4.5 0 .5 0 .4.3-.2.2-.1.2.2.8zm-4-.1c-.2 0-.3.2-.4.4h1.7c0-.1 0-.3-.2-.4-.2-.3-.7-.2-1 0zm2.4 0c-.2 0-.5.2-.6.4h1.9c0-.2 0-.4-.2-.6-.4-.3-.8 0-1.1.1zm16.2-.8l-.7.3c-.3.2-.4.6-.4.8v.1h.8c0-.3.1-.5.5-.8.3-.3 0-.5-.2-.5zm1.6.8c0-.2-.1-.5-.3-.4l-.7.5c-.2 0-.3.2-.4.3h1.2l.2-.4zm7.2-8.6c.5-.4.5-.5.5-1 0-.4 0-.5-.2-.7-.3-.2-1-.5-1.9-.5s-2.3.2-2.8.5c-.6.4-.9 1.8-.9 2.5s.2.9.4.9l.5-.5 1.2 1.6c.4.7.2 1 0 1.5s-1 1.9-1.5 2.2c-.6.3-1 0-1.7-.1s-1.1 0-1.5.5 0 .7.2.7c.3 0 .6 0 .9.3v1.1h3.4c.6-.3 1-1 1.1-1.5.2-.5 1-1.2 1.3-1.5.4-.3.4-.6.4-1.3s-.2-1.2-.4-1.7a3 3 0 0 1-.4-1.7c0-.5.8-1 1.3-1.3zm-5.7-8.7c.3.6.2.7-.3.8l-1.8.2c-.8-.1-.8 0-.8.4s-.1 1.2-.6 1.8c-.4.6-1 .4-1.3.1s-.6-.1-.7.3l-.7 1.4c-.4.6-.6.6-.9.6s-.5-.5-.7-.5-.7-.5-1-1.2c-.5-.6-.7.1-1 .6-.2.6-.5 1-1 .9-.4 0-1-1-1.3-1.6-.3-.5-.4-1-.9-1-.4 0-1.1.9-1.6 1.1-.5.3-.6.2-.8-.1-.2-.3-.5 0-.8.8-.3.7 0 1.3.4 1.5.4.2 1.2-.4 1.7-.7.5-.3.8-.3 1.3-.3s.5 1 .7 2.2c.3 1.3 1 1.5 1 1.5s.3.2.9-.8c.6-1 .6-2 1.2-2 .5 0 .6.2 1.1 1 .6.7 1 1.3 1.4.7.3-.6.6-1.4 1-1.7.3-.3.7-.4.3.2-.4.5-.6 1.1.2.9s3.9-1.5 5.1-1.7c0 0 1.4-.3 3.1-.3l2.7-.2c.7 0 .7-.1.7-.5 0-.5-.3-.4-1.5-.4s-2 .2-2.9.3c-.8.1-1.2.1-1-.1.1-.2.3-.4 1.3-.5 1-.2 3-.3 4-.3s.7.3.6 1l.2 2.3c0 .7 0 .9.6 1.8s2.5 1.4 3 1.8c.6.3.6 0 .5-.6 0-.5.5-.5 1-.2s1.3.5 1.9.6c.5.2.6.3.6.6l.2 1.6c0 .6 0 .8-.3 1.2L336 180l-1.6.3c-1 .2-1.3.7-1.5 1.2s.2.5.3.7v.5h.2l.4-.5c.4-.5 1.3-.6 2-.4.3.2.3.6.3 1h2.4l1.3-2.7c.2-.6.4-1 .4-1.7s.1-3.9 0-4c-.2-.2 0-.8 0-1.6 0-.9 0-1.5-1.6-1.7-1.6-.1-2.1-.8-2.7-1.3-.5-.6-.4-1.8-.8-3.3-.4-1.6-1.5-1.8-3.4-2.2-1.8-.3-3.2-.4-4.6-.2s-3.2.3-4.1.2c-1-.1-.8.2-.5.7zm9 17.4l-.3.3h1.6l-.1-.5c-.3-.3-.7 0-1.1.2zm3-.1c-.3 0-.5.3-.6.4h1.7v-.2c0-.2-.6-.5-1.1-.2zm-40.8 1l.4 1.5H346l.4-1.5h-52.6zm35-24.8c1.6 1.1 6.8 1.2 9.2 1.7 2.5.5 2.3 2.3 1.5 3.3-.7 1-4.1 1.1-4.8 1.2.4.2.9 1 .9 1l1.4-.2c1 0 2.8-.3 4-1.4 1.3-1 1.2-2.7.1-3.8-1-1-2.9-1.2-4.7-1.4l-5.4-.7c-2-.3-3-1.2-3-2.4s1.1-1.8 1.9-2c.8-.3 2-.6 3.2-.2 1.2.4 2.5.5 4.8.2s2.8-1.9 2.8-1.9-.3.2-1.4.2c-1.2 0-2-.5-4.1-.5-2.1 0-2.9.7-3.8 1-1 .4-3.6.7-4.4 2.4-.8 1.7.1 2.5 1.8 3.6z"/><ellipse rx="1" ry="1" cy="150.6" cx="315" fill="#B96B29"/><path fill="#B96B29" d="M336 152.3c-1.3-.1-3 .2-3 .2s.3.3.8.2l2.4.2c1.3.2 2.2-.4 2.2-.4l-2.4-.2z"/><path fill="#1D5E91" d="M323.7 176.4c-.3-.5-.4-.5-.7-.2-.4.4-.8-.7-.8-1.4l.3-2.8-2.7.7-2.7.6c-.8.2-1.1.4-1.5.3l-2-.2c-.7 0-.6.2-1.3.9-.7.6-.9 1-1.4 2.3-.6 1.2-.7 2.4-1 4 0 1-.2 1.6-.3 2h8l.4-.8c.2-.5.7-.8 1-1s.6 0 .7-.4c.2-.4.6-.7 1-.9s1.2 0 1.8.1c.7.2 1-.3 1.1-.5l.7-1.1c.3-.5 0-.9 0-.9l-.6-.7zm13 .2c0-.5 0-.5-.3-.6l-1.1-.3c-.4-.2-.4.9-.4.9s-1 .1-2 0c-1.1-.1-2.4-1.1-2.8-1.4l-1-1-.7.4c-.4.2-.5.9-.5 1.6-.1.7.7 1.5.8 2.2 0 .6-.7 2-1.1 2.6-.3.3-.7 1.1-.9 1.6h4c0-.2.2-.4.4-.6.4-.4 1-.5 1-.5l.2-.6c.1-.3.5-.8 1.5-1.1 1-.4 2.2-.5 2.2-.5l.8-.9c.3-.5 0-1.3 0-1.8z"/><path fill="#D4AF3A" d="M304.1 219.8c.8.2 2.1-.3 2.8-1.1.7-.9 1-2.1 1.4-2.9l.9-1.2s-.1 1.2-.8 2.8c-.6 1.5-.7 3.6-.6 4.5.3 1.8 1.5 2.1 2.2 1.9.5-.2 1.3-1 2-2.2l.6-1.3c.5-1 .9-2.4 1-2.3.5 0 .3 1 0 1.8-.3 1.3-1 3.3-1 4.5s.1 3.4 1.3 3.5c1.2.1 1.9-1 2.6-3.4.6-2.5.8-3.3 1-3.3.4 0 .4 1.7.4 2.5a12.4 12.4 0 0 0 1 4.9c.6.5 1.1.4 1.1.4s.5.1 1-.4c.7-.6 1.1-4.2 1.1-5s0-2.4.3-2.4.5.8 1.2 3.3c.6 2.5 1.3 3.5 2.5 3.4 1.2 0 1.3-2.2 1.3-3.5s-.7-3.2-1-4.5c-.4-1.4 0-1.3 1 .5l.9 1.6c.6 1 1.3 1.7 1.7 1.9.7.2 1.9 0 2.2-1.9.3-1.8-1.1-7-1.1-7l.6 1c.5.7.7 2 1.4 2.8.7.8 2 1.3 2.8 1s.8-1.5.3-4c-.6-2.4-2.8-3.8-4.3-5.7-1.5-1.8-2.6-5-2.7-5.4-2 1-3.7 2-5.3 3.7l-3.9 4.2-3.9-4.2a18 18 0 0 0-5.3-3.8c-.1.5-1.5 3.5-3 5.3-.6.9-1.6 1.6-2.3 2.4-.9 1-1.4 2.2-1.6 3.5-.6 2.4-.5 3.8.3 4zm0 8.2l1.4-1.3s.7-.5.5.5c-.2 1.1-.5 3.3-.3 4.3s.3 1.8 1.5 1.1 1.5-1.1 2-1.7c.7-.6 1.3-.9 1.1 0-.1 1-.6 2.4-.4 4.3.2 2 1.2 2.2 2.4.6s2-3.1 2.3-4c.4-.7 1.2-1.4 1.2 0 0 3.3.7 8 4.2 9.2 3.5-1.3 4.3-6 4.3-9.1 0-1.5.7-.8 1 0 .4.8 1.2 2.3 2.4 3.9s2.2 1.3 2.4-.6c.2-1.9-.2-3.3-.4-4.3s.5-.6 1 0c.6.6.9 1 2 1.7 1.3.7 1.4-.1 1.6-1 .3-1-.1-3.3-.3-4.4-.2-1 .5-.5.5-.5l1.5 1.3c.9.8 2.2.9 2.2.9s.6-3.4-.8-5.4l-1.9-2.6s-.8 0-1.4-.3a6 6 0 0 1-1.2-.7v1.9l2.1 2.1c.4.5 1.2 1.3 0 .5l-2-1.6s-.3 1.7-.8 2.1c-.5.5-1.2.5-1.5.4l-.2-.1-.1.6s1 2 1.2 2.8c.1.8-.1.7-.6-.3s-1.4-2.3-1.9-3-1-1.3-1-.3c.1.9-.3 2.5-.6 3.1l-.5.8s.7 2.3.7 2.8c.1.4 0 .9-.3.3-.4-.5-1.4-2.8-1.4-2.8s-1.4 0-1.8-.4-1-2-1-2-.6 2-1.1 2.6c-.5.6-1.6 1.3-1.6 1.3l-.1 4c-.1.6-.1.9-.4.9-.2 0-.3-.3-.4-1l-.1-4s-1.1-.6-1.6-1.2-1-2.6-1-2.6-.7 1.6-1 2c-.5.4-1.9.4-1.9.4l-1.4 2.8c-.4.6-.4 0-.3-.3l.7-2.8-.5-.8c-.3-.6-.7-2.2-.6-3.1 0-1-.6-.5-1 .2s-1.4 2-1.9 3c-.5 1.1-.7 1.2-.5.4l1.2-2.8-.1-.6-.3.1c-.3.1-1 0-1.5-.4s-.7-2-.7-2l-2.1 1.5c-1.2.8-.4 0 0-.5l2.1-2.1v-1.9l-1.2.7-1.4.3-1.9 2.6c-1.4 2-.8 5.4-.8 5.4s1.3 0 2.3-.9zm17.1 22.3c-.9-1-1.2-1.6-1.2-1.6l-1.2 1.6c-.9 1-3 2.7-3 2.7s.2 2.8 1.2 4.3a11 11 0 0 0 3 3.3 11 11 0 0 0 3-3.3c1-1.5 1.2-4.3 1.2-4.3s-2-1.6-3-2.7z"/><path fill="#B96B29" d="M319.6 253.7c0 .7 0 2.3.4 2.3s.3-1.6.4-2.3l.1-2.2h-1v2.2z"/><path fill="#D4AF3A" d="M320 100.9c-3.8 0-8.2-.5-10.6-1.4l-2.6.6c4 1.5 7.3 2 13.2 2.1 5.8 0 9.2-.6 13.2-2.1l-2.6-.6A34 34 0 0 1 320 101zm13.7-3.2l-2.5-1.7c-.4-.2 0-.8 0-1 0-.3 2-.8 3-1.1 1.1-.3 1-.5 1-.5s-.7-.7-4.5-1.2c-3.9-.4-10.7-.3-10.7-.3s-6.8 0-10.7.3c-3.9.5-4.5 1.2-4.5 1.2s-.2.2 1 .5c1 .3 3 .8 3 1 0 .3.4 1 0 1.1l-2.5 1.7c-.3.3-.3.7.2.7l1.8-.3a63 63 0 0 1 23.4 0l1.8.3c.5 0 .5-.4.2-.7zm-4.4 1.7c-2.7-.3-4.4-.7-9.3-.6-5 0-6.6.3-9.3.6 1.7.6 4.4 1 9.3 1a27 27 0 0 0 9.3-1zm-10.1-36.5l2-.2-.2-1.7 2.2.3v-1.8l-2.2.2.4-1.9h-2.5l.4 2-2.2-.3v1.8l2.2-.3zm4.4 2.9H321v-2.4a4 4 0 0 0-1.5 0v2.4h-2.9a3 3 0 0 0-.1.9v.4h7.3v-.4l-.1-1z"/><path fill="#1D5E91" d="M320 70c1.7 0 3-1 3.6-2.2h-7A3.7 3.7 0 0 0 320 70zm1.6-6.4v1.6h1.8c-.4-.7-1-1.2-1.8-1.6zm-3 0c-.8.4-1.5 1-1.8 1.6h1.8v-1.6z"/><path fill="#B96B29" d="M322.2 93.3l-2.2-1-2.2 1.1c-.8.4-.7.3-1 .9s0 .7.4.9l2.8 1.4 3-1.4c.6-.3.5-.6.3-1-.1-.4-.4-.6-1.1-.9z"/><path fill="#D4AF3A" d="M317.6 94l2.4 1.2 2.4-1.2L320 93zm2.4-9.4s-.2.9-.5 1.3c-.3.3-.5.6-.4 1 0 .5.6.8.9.8.3 0 .8-.3.8-.7.1-.5 0-.8-.3-1.1-.3-.4-.5-1.3-.5-1.3z"/><circle cy="88.6" cx="320" r=".5" fill="#D4AF3A"/><path fill="#D4AF3A" d="M318.4 86.2s.8-.8 1-1.4l.6-1 .5 1c.3.6 1 1.4 1 1.4s1.2-.5 1.8-2.6c.6-2.2-.1-4.4-.4-6.8l-.6-6.5c-.8.5-1.6.7-2.3.7-.8 0-1.6-.2-2.4-.7 0 0-.2 4.1-.5 6.5-.3 2.4-1 4.6-.4 6.8.6 2 1.7 2.6 1.7 2.6z"/><ellipse rx="1.9" ry="1.8" cy="81.5" cx="320" fill="#B96B29"/><ellipse rx="1.8" ry="1.8" cy="77.2" cx="320" fill="#B96B29"/><ellipse rx="1.7" ry="1.7" cy="73.1" cx="320" fill="#B96B29"/><ellipse rx="1" ry="1" cy="81.2" cx="320" fill="#D4AF3A"/><ellipse rx="1" ry=".9" cy="76.9" cx="320" fill="#D4AF3A"/><ellipse rx=".8" ry=".8" cy="72.8" cx="320" fill="#D4AF3A"/><path fill="#b96b29" d="M320 224v-.8l.3-2.7c.2-.8-.2-.7-.4-.7s-.3.7-.3 1v2.8c0 .4.2.4.3.4z"/><g id="a"><path fill="#d4af3a" d="M300.3 239.4l3.5-2.4c1.9-1.2 2.6-2.7 2.6-2.7h-.7c-.4 0-.7-.5-.7-1l.1-2.7c.2-1.2-.2-2.2-.2-2.2s-.8.7-2 1.4c-1.2.6-1.8.3-1.8.3l-.3-1.2-1.3 2.4c-.7 1.4-2.8 2.8-4.2 4-1.5 1-3 2.2-4.3 2.6-1.2.4-.5 1-.5 1s1.2 1.2 4.3 1.7 4.6-.7 5.5-1.2zm10.9-1.2c-1.1-.1-1.8-.5-2-1.7-.2-.8 0-3.8 0-3.8l-.8.8c-.4.5-1.3.6-1.3.6l-.6 1c-.4.8-1 1.6-2 2.3l-3.1 2c-.8.8-1.8 1.6-2.9 2.1-1 .6-2 1.6-2.3 3.2-.4 1.5-.1 2 1.1 2 1.2-.1 1.4 0 3.4-.5s4.8-2.7 6.9-4c2-1.4 3.6-4 3.6-4zm5.5 1.8s-.9-1-1.2-2.3l-.9-3.6s-.2.8-1 2.2c-.6 1.5-1.7 1.8-1.7 1.8s0 .6-1 1.8a14 14 0 0 1-3.8 3.2 14 14 0 0 0-4.3 3.4c-1 1.5-1.1 3-.6 3.6.4.7 1.1 0 2-.5s3.7-1 7.5-3 5-6.6 5-6.6zm1.6 8.4c1-1.5 1.2-5.3 1.2-5.3l-.8-.7c-.5-.4-1.5-1.9-1.5-1.9l-1.3 2.5c-.7 1.2-1 1.7-2.4 3s-3.3 2.5-4.2 3.9c-.8 1.4-.3 4.1.2 5 .5 1 1.3.7 2 0l2.5-2.2c1.4-1.2 3.3-2.7 4.3-4.3z"/><path fill="#b96b29" d="M306 216.9c.5-1.1 1.2-2.5 1.7-3.2.5-.7.8-1.5.8-1.5s-1.3 1.2-1.8 2.1c-.6.9-1 1.7-1.2 2.6-.2 1 0 1.1.5 0zm5.3 1l.3-1.3s.3-.7.1-.8c0 0-.6.5-1 1.7l-.9 3c.2.2 1.3-2 1.5-2.7zm4.2 3.3l.2-.5.5-1.7c0-.3-.2-.6-.5 0-.4.8-.4 1.5-.5 1.8 0 .3-.5 1.4-.3 1.5l.6-1zm-13 12.8l-.6-.3-.8 1-1.4 1.1c-.3.5-1 1.1-1.8 1.5s-1.2.6-1 .8c.2.1.7-.2.7-.2l1.3-.7 2-1.5 1.6-1.7zm4.5 5.4c.4-.4.8-.7.6-1-.2-.1-.5-.1-.9.2l-1.8 1.7-1.4 1-2 1.3c-.5.2 0 .3 0 .3l.8-.4 1.6-.6 1.1-.7 2-1.8zm5.3 3.6c.3-.6 0-.4-.6-.2s-1.9 1.6-2.6 2.1-1.3.7-2 1c-.6.3-.6.5-.5.6 0 .2.2.2.5 0 .3 0 1.1-.6 1.1-.6l.7-.1c.4 0 .8-.4 1.6-1 .7-.7 1.4-1 1.8-1.8zm2.4 4.8c-1 .6-2.5 1.9-3 2.7-.4.9-.6 1.5-.5 1.6.1.1.6-.1.8-.5l.6-.8s1.6-1.6 2.2-2 1.5-1.4 1.8-2c.2-.6 0-1 0-1s-1 1.5-1.9 2z"/><path fill="#c52126" d="M290 113.3a14.9 14.9 0 0 0-11.9-1 7 7 0 0 1-3.7.1c-1.8-.4-3.1-2-3.6-4 0 0-1.6 2.1 0 4.4.8 1 1.9 1.7 2.9 2 3.4.6 6.7-1.5 9.6-1.6 2.7-.2 4.8 1.5 4.8 1.5s.7.5 1.6 0c.9-.5 1.1-1 .3-1.4z"/><path fill="#d4af3a" d="M280.2 211.7l-.8-.1a10 10 0 0 1-1.8-.6c-.3-.1-.7-.1-1 .2l-2.8 1.8h4c1.5 0 2.4-1.3 2.4-1.3zm11.4-.7v-.4l-.5-1.2-1.3 1-2 2.5c-.7.9-1.6 1.7-.8.3s1-2 1.7-3c.7-.8 1.1-1.2 1-1.3l-2.2-.3c-1.7-.3-2.8-.9-3.6-1.4l-2.1-1.2-4 1.5c-1 .3-1.7.4-.7 1l2.5 1c.5.3 2 .8 3 .8s2.7 0 2 .7c-.6.7-1.4 2-2 4-.8 2-.8 3.7-.8 4.5l.1 1.8s1.2-1.4 4.4-3.4l5-3c.5-.2.8-.2.7-1l-.4-3zm12.1-9.7l-.6-.3h-.1c-.4.3-2.3 1.6-3.1 2.9-.8 1.2-1.6 1.3-.7 0a12 12 0 0 1 2.8-3.4c-1.5-.7-3.2-1.6-4.9-2.8l-1 1.7c-.7.7-2.2 1.3-2.2 1.3s1.2-1.2 1.6-2.2c.3-.6.4-1.2.5-1.6a21 21 0 0 1-3.2-3c-.2.7-.8 2.7-2.7 4.8-2.5 2.8-7.5 4.3-7.5 4.3s-1.8.1-.4.5 2.4 1 5.2.5c2.8-.4 3-.6 3.3-.7.4 0 1.4 0 0 .5s-4.6 1-5.8 1c-1.2-.2-2.9-.5-1.1.5s2.5 1.3 3.5 1.3c1.1 0 1.6.3 2.6.3s1.3-.2 2-.3c.8-.2 1.3 0 1.3.4 0 .3-1 1.1-1 3.2 0 2 .2 3.4.4 4l1 2c.3.6.4 1.2.7 0l1.2-4 .5-1.9c.1-.6.8-1 .5 0l-.9 3.5c-.2 1-.7 2.8.2 1.4.9-1.5 4.2-5.2 4.8-5.9l1.4-1.9c.4-.5 1.6-1.3 2.1-2 .5-.8 2-2.3 2.6-2.8l-3-1.3zm-46.3-86c0 2 2.3 6 3.6 8 1.3 2.1 1.7 3 1.5 3.1-.3.1-.8-1-1.5-1.9l-3.3-4.8c-1.2-1.7-2.8-5.5-3-5.9-.3-.4-.4-.6-1-.1-.5.4-1.6 4.7-.3 7.7s3.3 5 4.2 6.1c.8 1 2 2.7 1.8 2.8-.2.1-.5-.3-1.5-1.4l-3.9-4.2c-.9-1-2.1-3.3-2.5-4-.2-.4-.4-.3-.6-.1-.3.3-1 1.2-.7 3.5.4 3.3 2 5.2 3.6 6.8 1.5 1.7 3 3 2.8 3.3s-1.8-1.2-2.8-2.2l-4.3-4.3c-.6-.7-1.5-.4-1.4 2.5s3.2 5.6 4.5 7.2c1.2 1.6 2.9 2.5 2.7 2.8-.1.3-1.4-.5-2.3-1-.8-.7-4-2.7-4.6-3.2-.6-.4-1 .4-.1 3.1.8 2.7 3 4.9 4.5 5.8 1.4 1 3.6 2.2 3.5 2.5-.2.4-1.1 0-2.4-.7-1.3-.6-2.9-1.2-4-1.5-1.1-.3-1 .5-1 .5s-.3 2.3 1.3 4.1 3.6 2.6 5.3 2.9c1.8.3 2 .4 2 .6 0 .3-.2.3-.6.3l-3.5.2c-1.5 0-2.4.4-2.4 1s0 1.6 2.3 3.1c2.2 1.6 4.8 1.8 5.9 2 1 .2 1 .3.8.6-.2.3-.7.3-2.4.5s-2.7.8-3 1.3c-.1.4.2 1.8 1.6 2.7 1.4 1 3.2 1.2 5.9 1 2.6-.1 3.3-.2 3.4.3 0 .4-.8.6-2.2.8-1.3.2-2.3.2-3 .8-.8.7-.3 2 1 2.9s4.5 1 5.9.9 3.4-.6 3.5-.3-1 1-2.4 1.4c-1.3.5-1.7.8-2 1.4-.3.6 0 1.1 1.6 1.7a8 8 0 0 0 5.3 0c1.3-.5 2-.7 2.1-.5.3.2 0 .5-.2.8-.3.3-1.4 1.1-2.7 1.5s-1.6.3-2 1.5c-.5 1 .7 2 3.2 2 2.5.1 5.9-.8 7-1.5 1-.6 1.4-.7 1.6-.5.1.2.1.4-.4.8-.6.4-2.3 1.6-3.1 1.8-.9.2-1 .8-1 1.4 0 .6-.2 1.8 2 2.3a9 9 0 0 0 8.8-3c-.2-2.2 0-3.8.2-5.2-.5 0-1.4-.2-2.3-.6-1.3-.5-1.9-1.8-2.2-2.5-.3-.6-.7-.6-1.3-.4-.5.1-1 .4-1.8.3s-2.4-.4-3.5-1.8c-1.2-1.4-1-2.7-1-3.4 0-.7-1.1-.2-1.7-.2a7 7 0 0 1-3.5-1.2c-1.4-1-1.4-2.3-1.5-2.9-.2-.5-.8-.9-1.2-1-.4-.2-1.2-.4-2.1-1.2-1-.8-1.4-2.4-1.4-2.9s-.7-.6-2.7-1.6-1.8-3.2-1.7-4c0-.9 1-1.6 1-1.9 0-.3-.6-.4-1.3-.8-.7-.4-2.4-1-2.4-3.6 0-2.5 1.6-2.7 1.6-2.7l-1-.6c-.7-.4-2.5-1.6-2.5-3.1s.7-2.2 1.2-2.5c.5-.4 1.8-.7 1.8-.7s-.9-.6-1.2-1.7c-.4-1.2-.5-2.6.3-3.6.9-1 2.3-1 3-1s1.5.3 1.8.1c.2-.2.3-.4 0-1-.2-.6-.3-2 0-2.5.2-.5.2-1.5 2.1-2 2-.7 4 .6 4.6 1s.3-.5.3-1.2c0-.6-1.3-2.2-2.7-4.4a48.7 48.7 0 0 1-6.8-15.7c-.2-1-.6-.6-.6-.6s-.5.2-1.5 2.8c-1 2.6-1.2 5-1.1 7zm33.6 45.6a5 5 0 0 1-3.8-2.3c-1.1-1.7-2.8-2.1-5.8-2-3 0-4.4-1.4-5.1-3.5-.8-2 0-4.4 3.1-6s4.4-3.1 4.6-5.7c0-2.6-3-5.8-6.3-9.4l-5.6-8.8s-.9 1.2-.9 2.4.5 2.5 0 2.9c-.5.3-.6-.6-2.5-1.4-1.8-.8-3.3-.9-4.5.4s0 3.7 1 4.8c1.1 1 2 1.9 1.7 2.3s-1.9-.7-2.4-1-1.7-1.7-3.5-1.5-2.4.7-2.6 2.2c-.1 1.5 1.7 2.8 2.8 3.4 1.1.5 1.6 1 1.3 1.3-.3.2-.6 0-1-.2-.6-.1-2-.3-3 0-.9.4-2.4 1.6-1 3.2 1.4 1.5 4.3 2.1 4.8 2.2.6.1 1 0 1 .4 0 .5-1.2.5-2.8.6s-2 1.5-1.8 2.7 2.8 2.4 4.3 2.6c1.4.2 2 0 2 .4.2.4-.1.6-1 .8-.7.2-2.3.4-2.6 1.7-.3 1.2-.3 1.8.9 3 1.2 1 3.2.8 3.7.7.6 0 1.3-.7 1.9-.1.5.5-.6 1-1.5 1.7-1 .7-1 2 .7 3 1.7.8 3.3.5 4 .3s1.6-1.4 2.1-.7-1.4 1-2.2 2c-.8.9-.6 2.5 1 3.5 1.7 1 4.3.3 4.8-.1.4-.4 1-.6 1.3-.3.4.4-.1 1.3-.5 2.1-.3.8-1 3.2 1.5 4.1 2.4 1 4.6-1.1 5-1.6.4-.4.8-.4 1.1-.2.4.1.2.5-.1.9-.3.4-1 2.1.8 3.3 1.2.8 2.5.8 3.2.7l1.3-4.8h-.4c-.2 0-.3.3-.3.4s.1.3-.1.3-.2.1-.5.3c-.3.2-.6.5-.8.4-.1-.2.6-.6.9-.8.2-.3.6-.7.6-1 0-.2.2-.4.6-.7l.3-.4a65.3 65.3 0 0 0 1-8.4h-.7zM242 125c2.5 5.2 6.1 8.2 6.1 8.2l-.7-2.2c-.2-.9 0-1.9 0-1.9l-2.6-3.8-2.6-6.4s1.6 3.8 2.8 5.9c1.2 2 2.6 3.7 2.6 3.7s.5-1.8.8-2c.4 0 .7.3 1 .7.3.4.5.3.5.3l-1-1.9-1-1.4c-1-1.5-3-4.4-4.1-7.3-1-2.8-3.4-10-3.8-12.2-.4-2-.8-1-1.2.6-.4 1.6-1 3.8-.6 7.1s1.1 7.5 3.7 12.7zm3.2 14l2.4 1.7-.4-1.1-.2-2-1.9-1.6c-.8-.7-1.7-1.6-3.7-4s-.4-1 1.2.8l4.6 4.2v-.5c0-.6.2-1 .5-1.3.3-.4.1-.4-1.6-1.7a49.3 49.3 0 0 1-8-9.3c-1.7-3-3.7-7-3.7-7s-1 6 2.7 12.5c3.6 6.5 7.2 8.7 8.1 9.4zm19 37.6c2-.8 1.5-2.7 1.5-2.8l-2.3.8c-1.2.5-4 1.3-5 1.3-1.1 0-1.1-.1-1.1-.3 0-.2.8 0 2.4-.3 1.5-.3 4.3-1.7 4.8-2 .5-.4.4-.4-.3-.5a3 3 0 0 1-1.6-.6c-.2-.2-1 .1-2.8.5a33.8 33.8 0 0 1-14.3.5c-.4-.1-1 .2.5 2.5 1.3 2.3 6.2 3.5 9.5 3.5 3.4 0 6.8-1.8 8.8-2.6zm-8.9-4.8c3.5 0 4.8-1 4.8-1l-.5-.9c-.5-.7-.4-1.9-.4-1.9l-2.2.4c-1.5.2-3.2.4-5 0s-1-.5.4-.3c1.5.2 4.3-.3 5.2-.7 1-.3.5-.6 0-.8-.7-.2-2.4-1.2-2.4-1.2s-4.2.5-8 0c-4-.4-6.5-1.4-7.3-1.5l-.7.2s-.2.3 1.1 2.5c1.4 2 4 3.5 6.2 4.1 2.3.7 5.3 1.1 8.8 1.1zm-.9-8.1l-.3-1c-.2-.6.3-1.1.3-1.1s-.7-.3-3.3-.6c-2.6-.3-2.8-.5-4.4-.9-1.5-.3-2.6-.8-2.6-1s.6 0 1.5.4c1 .4 5 .8 6.6 1 1.7.3 2.6.5 2.9.3l1.3-.5-1.6-.3c-.9-.2-1.6-.5-2.1-.9-.5-.3-.6-.4-2.8-.6-2-.2-3.8-1-7.6-2.3-3.8-1.4-6.6-3-7.4-3.7-.7-.6-.7-.1-.5.7.2.8.2 1.8 2.1 4 2 2.2 2.9 3.2 7.7 5 4.8 1.7 10.2 1.5 10.2 1.5zm-14.2-11.8a27 27 0 0 0 10.3 4.3c.2-.3-.3-1.3 0-1.9.2-.7.7-.7 1.7-.8 1 0 .4-.3.1-.3l-2-.4c-1.7-.5-3.4-.7-5.8-1.6-2.3-.9-3-1.5-3-1.7.1-.2 1.1.5 3.3 1.4 2.2.8 4.7 1.1 6 1.4 1.5.3.3-.3-.4-.7-.6-.4-1.5-1.8-1.5-1.8s-1.6-.2-4-1c-2.6-.8-4.7-1.6-6.7-2.8-.8-.4-1.5-1-2.2-1.5l-3.4-2.4c-.9-.7-.6-.2-.5.2s.6 2.2 2 4.1c1.4 2 1.8 2.5 6 5.5zm-.7-8.4c4.2 3.3 7.8 4.4 8.4 4.6.6.3.6 0 .4-.4l-.2-1.5-3.1-1.8c-1.7-1-3.6-2.3-4.8-3.2-1.2-.9-.5-.8-.1-.5a287.7 287.7 0 0 0 8 5s.1-.6.5-.9l1.2-.3-.7-.8c-.3-.4-1.6-.9-3.2-1.6-1.6-.7-4.4-2.8-6.4-4.5-2-1.8-6-6.1-6.3-6.5-.3-.4-.5-.3-.5.1 0 .5-.2.8.3 2.8.4 2 2.3 6.2 6.5 9.5zm14.8-31.5l1.4 2.4.9 1.6v-1c0-.6-.2-1.3 0-2.3l.2-1.5c0-.5-.2-1-.3-1.2l-1-4.8c-.3-1.7-.6-4.2-.6-6.4s.3-1 .3 0 .1 2.7.5 5.2c.3 2.5 1.4 6.3 1.4 6.3l.3-1.4 1.3-2.9c.4-1 .2-1.2.2-1.2s-1.4-7-1.8-10.4c-.4-3.3-1-12-1-12-2.2 2-3.8 7.8-4 13.2-.3 4 .4 7.9.5 9.4.4 3 1 5.4 1.7 7zm-4.8 11.2c.1-1.6.5-2.8 1.5-3.2 0 0-.9-1.6-1.7-3.9-.5-1.5-1-3.5-1.2-5-.6-3.9-1-7.8 0-1.4 1.2 6.4 2.6 8.7 2.6 8.7l1.6 2.6c-.2-1.1-.3-2-.2-3.2s.2-3 .6-4.4c0 0-2-4-3.2-8.7s-2-9-2-11.7l-.2-3.4s-2 1.5-2.7 9.3a46 46 0 0 0 5 24.3zm22.2 59l-1.3-.8c-1-.6-.6-2.4-.6-2.4l-1 .6-2.5 1.5-2 .8c-.6.2-.5 0 0-.4l2-1c1.3-.4 3.8-2.7 3.8-2.7h-1.6l-2.4-.7s-1 1-5.3 2.8c-4.3 1.9-8 2.3-8 2.3s.5 2.2 2.6 3c1.7.7 4 1.1 8.6 0 4.6-1 7.7-3 7.7-3zm5.6 4.4c.4-1.8-.7-3-.7-3l-.8.7c-.7.5-1.6 1.6-3.4 2.5s-2.4.9-.7 0l4.3-3.6-.7-.3c-.7-.2-1.8.2-6.6 3.1s-7.7 3-7.7 3 2.2 2.6 8 2.4c5.9-.2 8-3 8.3-4.8zm11-2s-.6.8-1.5 1.4l-3.1 1-.6.8c-.4.5-1.4 2-2.4 2.7-1 .7-2.7 1.2-2.8 1s1-.6 2-1.2 1.8-1.7 2.5-2.5-.3-.7-.3-.7h-2.3c-1.1-.1-1 0-1.2.5s-.8 1-1.6 2l-3 3.4c-.6.8-.1 1-.1 1s.3.5 2.8.8c1.6.2 3.4 0 5.2-1 1.1-.7 2.3-1.8 3.5-3 3.1-3.5 3-6.3 3-6.3zm1.4 7l-1 1.1s.5-1.4.9-2l.6-.9c-.5-1-.8-2-1-3.1-.4 1-1.3 3.6-2.4 5.4-1.3 2.1-2.5 3-1.7 3.5.7.6 2.2.7 4-.1 1.6-.9 2-2.3 2.3-3.4l-.8-1.4-.9.8z"/><ellipse rx="1.2" ry="1.1" cy="105.8" cx="289.3" fill="#d4af3a"/><path fill="#d4af3a" d="M286.8 103.7c1.1 0 1.7-.6 2.9-.4 1.4.1 3.3 1 5.7 2.2 1.8.8 4.2 1.2 6.5.5.7-.1 1.3-.5 2-.9 2.8-1.6 2-4.7 2-4.7-2 1.5-4.6 2.3-7 2.1l.6.6c.4.4 1.2.9.9 1-.2.3-1.3-.7-2.1-1.3a13 13 0 0 0-4.4-2.2c-2.2-.6-4.7-.7-6.3.2-1.6 1-1.8 2.1-1.6 2.6.2.2.5.3.8.3zm30.8 23.1c-.5-.1-1.3-.3-2.5-1.3-1.1-1-3.9-4.1-4.2-4.7-.3-.5-.2-1 .6-1.3.8-.4 1.3-1.4 1.3-1.4s-1.7-.6-2.8-1.4c-1.1-.9-3.8-3.2-4.2-3.8s-.1-.7.4-1c.6-.1.7-.5.7-.5l-2.4-1.7-2.7-2.4c-1.7.7-4.4.4-5.8.1-2.6-.4-4.5-1.5-4.5-1.5l-.4 1.2c-.3.8-1.5 1.3-2.7.5-1.2-.8-.9-2.5-.9-2.5s-1-.6-3-1.3-3.5-.8-5-.1c-1.7.7-2.5 3-2.5 4.6 0 1.6 1 1 1 .7.3-.2.6-1.4 2.7-1.7 2-.4 3.8.6 6 2.5 2.4 1.9 2.9 2 4 3.2 1.2 1.2.2 1.8-1.7 2.5s-4.5-.7-4.6-.6c-.4.2.8 2 2.5 2.6 1.7.6 4 .2 5.6-.5 1.1-.4 1.3 0 1.7.4 1.8 2 2.3 3.8 2.6 6 1-.3 1.6-1.2 1.8-2 0-.4.2-1.2.8-.6.6.6 1.1 3.9 1.1 5.4l-.4 3.5h.4c.3 0 .9-.4 1.6-.8.7-.4.8 0 .8.9s.2 2.4 1.3 5.2l2.7 3.7s.4-.6.7-1.7c.3-1 .5-3.2.5-5.1l-.5-6s2.3 2.9 4.7 3.6c2.4.6 4.7.2 5.8-1 1-1 0-1.6-.5-1.7zM302 134l-1.1 2.2-.6.7s.7.6 1.8.9l2 .5s-1.2-1.6-1.6-2.7l-.5-1.6zm14.3-.9l-.6-1.4a10 10 0 0 1-5.4-1.1s1 2.2 2.2 3l1.2.8s-1 .2-2.5-1.3c-1.5-1.4-2.2-3-2.2-3s.4 3.8-.2 6.1l-.7 2.7s3 .5 6.5-.4c3.5-1 3.7-1.3 3.7-1.3s.5-.1 0-.8c-.6-.7-1.7-2.4-2-3.3z"/><path fill="#b96b29" d="M310 124.6l-1.2-1.5s-.3.4 0 1c.3.5 1.8 1.8 2.8 2.4 1 .6 2.1.7 2.1.7v-.2s-2.6-1.1-3.7-2.4zm-4.2 8l-.3-5.5-.4-.5-.6.2 1 7.1c.2.8.6.7.8.7-.4-.2-.5-1.7-.5-2zm-6.6-20.9c-.3-.4-1.2-.7-.4.3.9 1 2 2.1 2.3 3.1.4 1 .6 2.2 0 2-.6-.3-1-.3-1.6-.8a9.9 9.9 0 0 0-2.1-1.5c-.5 0-1.3 0-.7.8.7.7 1.4 1.4 2.7 2.3 1.2 1 2 1.3 2.6 1.8l1.3.8s-.6-4-1.6-5.7-2-2.7-2.5-3zM278 178c-.8.6-1.8.8-1.8.8s-.5 0-.5.2.5 0 1.1-.1c.7-.1 1.5-.7 1.8-1 .3-.2.7-.5.6-.8-.1-.4-.4.3-1.2.9zm6.9 3.7l-1.5 1.2-.9.4-.5.4h.5c.5-.2 1.9-1.1 2.3-1.5.5-.4.7-.5.5-.7-.1-.1-.2 0-.4.2zm-28-49.7c.3.3.6.7.8.6.1-.1 0-.3-.4-.7l-.5-.5s-.5-.8-.8-1c-.2-.3-.7-.5-.1.2l1 1.4zm-2 4.7l.9.9c.4.4.5.7.7.5.2-.2-.5-.6-.8-1a5 5 0 0 0-1-1l-.8-.5 1 1zm.7 7.5c.6.5 1.3.7 1.4.5.2-.2 0-.4-.4-.6a15.9 15.9 0 0 1-2.5-1.7c-.3-.3-.6-.5-.7-.4 0 0 .8 1 1 1l1.2 1.2zm1.6 6c0-.2 0-.3-.4-.4h-1s-1-.4-1-.2c0 .1.7.5 1 .5.4 0 .8.2 1 .3.2.1.4 0 .4-.2zm.6 6.5c-1 0-1.7-.2-1.8 0s.5.3 1 .5l1.9.2c.6 0 .7 0 .7-.4 0-.3-.8-.3-1.8-.3zm7.4 7.2c-.2-.2-.5 0-1 0a9 9 0 0 1-1.9.3h-1.6l-.6.1 2 .2c1.1.2 2 0 2.5-.1s.7-.4.6-.5zm3 5c-.6.3-1 .3-1.4.3l-1.5.2s-.5.1-.4.3c0 .2.2 0 .7 0h1.5l1.7-.4c.5 0 1-.3.7-.6-.2-.3-.7 0-1.3.3zm6 4l-1.7 1.1-.7.5c-.5.3-.5.3-.4.5s.4-.2.7-.4l1.6-1c.5-.4 1.1-.8 1-1-.1-.3-.2-.1-.6.2zm-10-50l1.2 1.6c1 1.3.5 0 .2-.3l-2.2-3c-.5-.6-.6-.3-.4 0l1.3 1.8zm-2 6.6l-.8-1-1.8-2.2s-.3-.7-.4-.6c-.1 0 .4 1.1.9 1.6l1.4 1.8c.4.4.5.6.6.4zm2.8 12.3c0-.3-1.2-.3-1.7-.4l-1.5-.3s-1-.2-1 0c-.1 0 .1.2.7.3l2.2.5c.7.1 1.3.3 1.3 0zm-2.9-6.6l1.7 1.1c.4.2.7.6 1 .3.2-.2-.2-.4-.9-.7l-1-.6-.7-.3c-.3-.2-.8-.4 0 .2zm6.6-4.4l-.8-.6s-.6-.6-.7-.4c-.1.2.6.8 1 1 .4.4 1 1.4 1.3 1.2.4-.2-.3-.8-.8-1.2zm-4.3 17.2l-1 .2s-.5.3.3.3l1.8-.3c.7-.1 1-.2.9-.5-.1-.2-.5-.1-.8 0l-1.2.3zm1.2 6.2c0 .1.5 0 .9-.2l1.7-.7c.4-.1.4-.2.4-.5 0-.2-.5 0-1 .2-.7.2-1.5.8-1.5.8l-.5.4zm8 3.7c.5-.3.6-.6.5-.7-.2-.2-.4-.2-.9.2l-1.3 1-.7.3c-.3.2-.8.4-.7.6.1.2.8 0 1.2-.3l1.9-1zm3.8 5l1.1-.6c.3-.2.5-1 .3-1l-1 .7c-.4.4-2.2 1.5-2.2 1.5l-.5.2c-.5.2-.3.4.1.3.4 0 .7 0 1.2-.4l1-.7zm5.5 4.7c.5-.2 1.2-.8 1.5-1 .4-.4.8-.8.5-1-.2-.1-.5.1-.9.5l-1.4 1.4-.7.5c-.5.4 0 .3.2.1l.8-.5z"/><path fill="#d4af3a" d="M305.6 96.6l2.2-1.6-2.6-.7-1.7 1.4z"/><ellipse rx="2.1" ry="2.1" cy="94.7" cx="312.8" fill="#b96b29"/><ellipse cx="312.8" rx="1.3" cy="94.3" ry="1.2" fill="#d4af3a"/><path fill="#d4af3a" d="M308.3 87.6c.6.2 1.3.1 1.3.1s.2-1-.3-1.4l-1.3-1.1-.4-.4V86c-.1.5.1 1.3.7 1.5z"/><ellipse cx="309.4" rx=".4" cy="88.7" ry=".4" fill="#d4af3a"/><path fill="#d4af3a" d="M306.5 88.3l-.5.6.8.2c.3.3.8.5 1.2.4.4 0 .6-.4.5-.7 0-.3-.3-.6-1-.8-.6-.3-.8 0-1 .2zm1.5 2.5c-1.3 0-3.1-1.4-3.1-1.4-.2 1.2-1 1.8-2 2s1.1.6 2.3.8c.6.1 1.1 0 1.7-.1a7 7 0 0 0 2-.6c.8-.6.6-1.9.6-1.9s-.1 1-1.5 1.2zm-5.2-1.4c-.6-.2-1.4-.6-1.8-.6-.3 0-.8-.1-.7.5 0 .7.7 1 1.4 1 .6 0 1-.2 1.3-.4.4-.2.3-.3-.2-.5zm-4.3-2.3c-.6-.4-1.1-.5-1.1-.5s-.4 1-.2 1.6c.3.7.7.9 1.3.8.6 0 1.4-.3 1.2-.7-.3-.4-.6-.8-1.2-1.2z"/><ellipse cx="299.1" rx=".5" cy="90" ry=".3" fill="#d4af3a"/><path fill="#d4af3a" d="M300.4 84.9a7.4 7.4 0 0 1 1.4-6.2c1.6-2.5 4.6-3.5 4.6-3.5l1-1.1c1-1 2.8-2.3 2.8-2.3l-3.4 1c0 .9-.7 1.6-1.5 1.6-.4 0-.7-.1-1-.3-.6.1-2.9 1.5-3.4 2l.2.8c0 .8-.7 1.5-1.5 1.5-.3 0-.5 0-.7-.2l-.2.4c-.5.9-.8 1.7-1 2.5.3.2.6.7.6 1.3 0 .8-.6 1.5-1.3 1.5v1c0 .5.2.8 1 1 1 .3 2.1 1.9 2.1 1.9.1 0 .7-1.2.3-3zm5.3-11.4c.4-.3.4-.6.2-.9-.3-.2-.7-.2-1 0-.4.3-.4.7-.2 1 .3.2.7.2 1 0zm-5.6 3.8c.4-.3.4-.8.1-1-.2-.4-.8-.3-1.1 0-.4.3-.4.8-.2 1 .3.4.8.3 1.2 0z"/><ellipse cx="296.7" rx=".9" cy="82.1" ry=".9" fill="#d4af3a"/><path fill="#d4af3a" d="M315.5 70l-2.5 1c.9 0 1.6.6 1.6 1.3 0 .7-.8 1.5-1.7 1.5s-1.5-.7-1.5-1.5c0-.1 0-.3.2-.4l-1.2.7a11.7 11.7 0 0 0-4.8 5.4c-1.4 2.5-1.9 5.3-1.3 7 .6 1.6 2.8 2 2.8 2s-.2-.3-.3-.6l.2-1.1v-1.4s.5 0 .8.3l1 1.1 1 1s.4-.6.4-1.4c0-.7-.5-1.5-.6-2.8s.6-3.7 1.9-5.4a15 15 0 0 1 4.4-3.6c.7-.3.8-.9.9-1.2l.1-1.3c0-.8-.6-.7-1.4-.6zm-2.7 3c.5 0 1-.5 1-.9s-.5-.7-1-.7c-.4 0-.8.3-.8.7s.3.9.8.9zm4.1 16.2a2 2 0 0 0 1.8 0c.3-.3.5-1 0-1.3-.4-.3-1-.3-1.4 0-.4.1-1.3.8-1.3.8s.2.3 1 .5zm2.2.8c-.3.4-.5.6-1.2.6s-1.6 0-2-.5L315 89h-.8s-.3 1.1-.6 1.4c-.4.4-1.7.4-2.3 0s-1-1-1.1-.9 0 .5.5 1c.6.5 1 .8 2 .8h5.3s1 0 1.4-.6c.3-.6.3-1 .1-1.2-.1-.1-.2.1-.5.5zm-8.1-.9c.8.4 1.2.2 1.5-.2.3-.3.3-.5.3-.5l-1-.5c-.5-.2-.7-.4-1-.4l-.5.1s-.1 1 .7 1.5z"/><ellipse cx="307.1" rx="1.8" cy="81.2" ry="1.8" fill="#b96b29"/><path fill="#b96b29" d="M310.2 75.1c-.7-.4-1.8-.2-2.3.5-.6.7-.5 1.7.2 2.1.7.5 1.8.3 2.3-.4.6-.7.5-1.7-.2-2.2z"/><ellipse cx="307" rx="1" cy="81" ry="1" fill="#d4af3a"/><path fill="#d4af3a" d="M309.4 75.3c-.4 0-1 .1-1.2.5-.2.4 0 .9.6 1 1.1.2 1.7-1.2.6-1.5z"/></g><path fill="#D4AF3A" d="M282.3 212.7s-2.7 1.3-3.6 1.5l-1 .3s-2 1.7-3.3 2.5c-1.4.8-3 1.4-4.7 1.6-2.2.2-8 .2-10.7 0s-4.3.6-5.4 1.9c-1.2 1.3-1.4 3.1 0 4.5s3 .7 3.6-.2c.5-.8.3-2 0-2.4-.2-.5.5-.7 1.2-.7a16 16 0 0 1 7.1 1.5c1 .5.4.5-.2.4l-2.3-.7c-1-.4-2-.6-2.7-.6-.6 0-.4.3-.3.5l.6 1.1c.1.3-.2 1.3-.2 1.3l.4.6.5-1 .1-1.2s.7-.3 1.1.2c.5.5 1 1 1.2 2.4.2 1.2-.2 2.1-.2 2.1s.6.5.7.8l-.2 1.5s.4.2.7-.5c.4-.7.8-2 .9-2.4 0-.4.4-1.2.9-.6s.9 1.3 1 1.7v.7s1.3-1.2 1.7-1.9 1.2-1.6 2.4-2.6c1.1-1 3-2.8 4-3.4 1-.7 3.5-2 4.3-2.5s.9-.5 1-1.8c.1-1.3.8-2.5 1-3.4l.4-1.2zm-43.8-49.2l-.6-1.4c-.1-.4-.5-.1-.5-.1l-1.5.6c-.6.2-.8 0-.8-.4l-.4-2.1c0-.7-.2-.7-.5-.6l-1.6.7c-.6.2-.4.5-.2.8l1.1 2.1c.3.5 0 .7-.3.8l-1.5.5c-.7.3-.6.3-.6.6l.8 1.5c.2.5.5.2.5.2s.7-.7 1.3-1c.6-.3.6-.2.8.3l1 3.2c0 .5.3.4.6.3l1.1-.3c.4-.1.5-.8.5-.8l-1.7-3c-.3-.6 0-.8.3-.8l1.7-.3c.7-.2.5-.6.5-.8zm14.8 64.4c0-.6 0-1.1-.4-1.6-.4-.4-1-1.3-1.2-2-.2-.7.2-1 .1-1.4 0-.4-.6-.4-1 0-.6.4-1.3.8-1.3 2.1s.4 2.8 2.2 3.3c1.8.6 1.8.2 1.7-.4zm1.8-.6s-.3-.2-.5 0-.1.6.3 1.3.8 1 1.4 1.3c.5.3.1-.4 0-.6v-.6c-.2-.2-.3-.4-.3-1 0-.4-.9-.4-.9-.4zm2.2 6c.4-.5.7-.6 1.5-1s2.2-.5 2.7-.6c.5 0 1.7-1 1.5-2-.2-1-.9-1.4-1.5-1.5s-1.2-.2-1.4.1c-.2.3-.6.7-1.3 1l-1.2.6c-.5.1-.1.4-.5.7-.4.3-.9 0-1.5-.2-.5-.2-.6-.3-1.2-.3l-2.3-.1h-.4c-.4 0-.4 0-.6.4-.2.4 0 1.4.4 2 .4.4 1.7.7 2.6 1l2 .4c.8.2 1 0 1.2-.5zm8.1.8c.8-.4.4-1.2.2-1.7-.2-.6-1.2-.7-1.7-.7s-.7 0-1 .3c-.3.2-.6.6-1.4.8l-2.3.9c-1 .4-1.3 1-1.7 1.3-.4.3-1.3 0-1.3 0s-.6-.1-.8 0c-.2.2 0 .5.4 1 .4.4 1.2.4 2 .6 1 .3 1.1.1 1.4-.1.4-.3.6-.8 1.2-1.1.6-.4 2-.5 2.6-.5.6-.1 1.8-.3 2.5-.8zm0-3c.4.3.7.6 1 .2.2-.5.7-1.4.4-1.9l-.7-1-.8 2c-.2.4-.1.4.2.7zm-2.7-4.7c0-.8-.6-1.9-.6-1.9l-.5 1.5c-.4.7-.8 1-.8 1l1.2.3c.3 0 .7 0 .7-.8zm-5 1.9c1-.2 1.5-.6 1.9-1s.6-1.1.3-1.6c-.2-.5-.9-1-1.2-1h-.5s-.2.9-.6 1.3c-.4.5-.8.8-.8 1.3 0 .6 0 1.2 1 1zm2-4.3c0-.4-.2-.9-.5-1.2l-.5-.5-.1 1-.1.5s.2.3.5.4c.2 0 .6.3.6-.2zM248 200.2l.6-3.9a26 26 0 0 0-4.2-10.3 49 49 0 0 1-4-8.8 25 25 0 0 1-1.3-6.6c0-1.6.7-2.4.7-2.4s.3-.4 0-.7c-.2-.2-.7 0-1 .4s-1 1.2-1.1 1.8l-.2.7s-.8-.2-2.2 0c-1.3 0-2 .2-2 .4 0 .3.2.6 1.1 1 1 .4 1.6.6 2.1 1.1.5.6 1.7 3.5 2.1 5 .4 1.3 1.2 5 1.5 8s1.4 6.6 2.8 9.6c.4 1 3 5.7 5 4.8zm2.4 7c-.9.5-.9 4.3-.5 6.2a14 14 0 0 0 3 5c.5.6.6.6 1 .5l.4-.2 1.4-.7c.6-.5.4-1.7.3-2.8-.1-1-1-3.1-2.4-5.6-1.5-2.4-2.3-3-3.2-2.4zm1-3c0-1.2-1-2.2-2.2-2.2-.6 0-1.1.2-1.4.5-1.3 1-.5 3.9 1.3 3.9.6 0 1.4-.2 1.8-.6.4-.4.5-1 .5-1.6zm17.7 35.1c-.5 0-.8-.3-1.5-.8a7.6 7.6 0 0 1-2-2c-.3-.4-.3-.4-1-.2-.6.2-1.6.2-2.3.2-.8 0 0 .9.6 1.6.5.8.3 3.4.3 3.4l-.1.6c-.1.4 0 .7.2.8.2 0 .3-.1.8-.7l1.5-2.2.9.2c.9.2 2 .1 2.8-.1.6-.2.3-.7-.2-.8zm-3 2c-.4 0-.5 0-.7.2-.2.2-.3.6-.4.9-.1.2 0 .4.1.6l.5.3s.3.4.6.5c.3.2.3-.3.3-.6l.2-1.3c0-.4-.3-.5-.6-.6z"/><path fill="#1D5E91" d="M396.6 216.1c-.8-.2-1.2-.5-1.2-.5s-.3 0-.6.5-1.4 1.2-1.4 1.2-1.5.4-1.7 1.4c-.2 1 .5 1.4 1.3 1.3.7-.1 2.4-.5 3.2-1.4.7-1 .9-1.5 1-1.8.2-.4.2-.5-.6-.7zm2.4-8.3c-.6-2.3-2-5.1-5-6.5l-1.3 5c-.4 1.1-.4 1.1.6 1.4l4.4 1c.6.2 1.6.7 1.3-.9zm-13.7-2.1c.7.1.6-.2.8-1l1.5-5.5s-3-.2-5.7 1.1c-2.6 1.3-3.8 3.6-3.8 3.6l2.5.7c1.8.4 4 1 4.7 1zm-7 6.3l-1.5-.4s.7 2.6 1.8 4c1.1 1.5 2.3 2.2 4.7 2.3 2.3 0 4-1.3 4.3-2.3.3-1 .8-1.7.8-1.7s-4.2-.6-6-1l-4.2-1z"/><path fill="#D4AF3A" d="M377.6 210.3c1 .3 9.5 1.9 10.2 2 .8.2 1.4.4 1.6.2.2-.2.3-.3 1-.6.8-.3.8-1 .8-1l.2-1.5c.1-.7.5-1 1.3 0 .9.8 1 2 1.2 3.3.2 1.2 2.1 1.6 2.9 1.7.7.1 1-.1 1.5-.9.5-.7.7-2.1.8-3 .1-1 0-.9-.9-1.1L392 208c-.8-.2-.6-.8-.5-1.3l1.9-6.2c-1.3-.8-3-1.2-5.1-1.5l-1.5 6.7c-.3.8-.8.8-1.8.7l-7.5-1.7-.5 1.2c-.5 1.2-.8 2.7-.8 3.5s.3.7 1.3 1zm22.6 5.2c-.9-.6-1.5-.7-2 .4-.4 1-.5 2.6-1.6 3.7-1.2 1.1-2.8 2.3-4.4 2.1-1.6 0-2.5-.5-2.1-2.3.4-1.8 2.8-2.4 3.4-3.4s.4-2-.4-2.7c-.9-.8-2.1-1-2.4-.7-.4.2-1.4 1-1.9 2.5-.5 1.3-.8 2.4-1.9 3.3-1 .9-3.8 1.8-6 1.3-2-.5-2.8-1.2-3.6-3.3-.8-2-1.8-5.6-2.2-6-.4-.3-1-.6-1.9 0-.9.7-1 1.6-1 2.4-.2.8 0 1.6.9 2.7.9 1.2 1.8 2.3 2.2 3.4.3 1.2 1.3 3-.1 3-1.5 0-2.1.1-3.2-1-1.1-1-5.4-4-6.6-5l-1.7-1.2c-2 0-4-.8-6-2.2l1.4 4 .2 1.8 6 3 7 3.9c1.6 1 3 2.6 6 2 3-.6 9-2.4 11-3 1.9-.6 7.3-2 9.3-3.3s2.1-1.3 2.5-2.7c.3-1.3 0-2-.9-2.7zM388.7 195l1.5-.2c1-.1.6.8.5 1.2l-1 1.8c-.4.8.2.9.5 1l1.5.4c.8.2.7-.4.7-.7l.1-2.5c.1-.6.6-.4.8-.3l1.2.6c.4.2.6 0 .7-.3l.4-1.3c.2-.7-.2-.5-.6-.5h-1.6c-.7 0-.3-.7-.3-.7l1-1.4c.3-.6.2-.7-.2-.8l-1.9-.5c-.3 0-.5 0-.5.2v1.8c0 .5 0 .7-.6.8-.6 0-1-.4-1.4-.9-.5-.5-.7-.3-.7 0l-.6 2c0 .4.2.4.5.3zm3.2 14.5l-.1 1.6c-.2.4-.4 1 0 1.1.5.2 1 .4 1.2.3.3 0 .2-.6 0-1.1-.1-.5-.4-1-.7-1.5l-.4-.4zm7 4.6c.2.4.5.5.7.5.3.1.6.1.6-.3s0-1-.3-1.5-.5-.8-.7-.1c-.2.7-.4 1-.3 1.4zm-24.4-4.6l1 .2.1-1.8c.2-.8.5-1.3.2-1.3s-.4.2-.6.6c-.2.3-.8.4-1 1.3-.2.9 0 1 .3 1z"/><circle cy="207.4" cx="379.3" r="1.6" fill="#B96B29"/><circle cy="208.5" cx="383.6" r="1.6" fill="#B96B29"/><circle cy="211.2" cx="396.4" r="1.6" fill="#B96B29"/><circle cy="209.6" cx="388" r="1.6" fill="#B96B29"/><circle cy="205.7" cx="389.2" r="1.6" fill="#B96B29"/><circle cy="201.9" cx="390.3" r="1.6" fill="#B96B29"/><circle cy="207.3" cx="379.4" r=".8" fill="#D4AF3A"/><circle cy="208.4" cx="383.8" r=".8" fill="#D4AF3A"/><circle cy="211.1" cx="396.5" r=".8" fill="#D4AF3A"/><circle cy="209.4" cx="388.2" r=".8" fill="#D4AF3A"/><circle cy="205.6" cx="389.3" r=".8" fill="#D4AF3A"/><circle cy="201.8" cx="390.4" r=".8" fill="#D4AF3A"/><use xlink:href="#a" transform="matrix(-1 0 0 1 640 0)" height="320" width="640"/></svg>