<svg xmlns="http://www.w3.org/2000/svg" height="480" width="640"><defs><clipPath id="a"><path fill-opacity=".7" d="M-85.7-1.5H599V512H-85.7z"/></clipPath></defs><g clip-path="url(#a)" fill-rule="evenodd" transform="translate(80.1 1.4) scale(.93483)"><path fill="#ed3d00" d="M-126.6-.4h767v512h-767z"/><path d="M-126.6 200.9l.2 109.9 385.8-55-386-55z" fill="#ffd100"/><path d="M-128 512l159.3-.3L260 254.3-128 512z" fill="#ffd100"/><path d="M311.7 511.6H201.8l55-254 55 254zm329.5-513L482-1.3 253.3 258.3l388-259.8zM201.5 0l110 .1-55 253.9-55-254z" fill="#ffd100"/><path d="M640.5 511.6l-159.3-.3L252.5 254l388 257.7z" fill="#ffd100"/><path d="M640.5 200.9l-.2 109.9-385.8-55 386-55z" fill="#ffd100"/><path d="M-127 0L32.3.3 261 257.7-127 0z" fill="#ffd100"/><path d="M346.4 255.8c0 48.3-40.1 87.5-89.6 87.5S167 304.1 167 255.8s40.2-87.5 89.7-87.5 89.6 39.2 89.6 87.5z" fill="#ed3d00"/><path d="M339.5 255.8c0 45.4-37 82.2-82.7 82.2a82.5 82.5 0 0 1-82.8-82.2c0-45.4 37-82.2 82.8-82.2a82.5 82.5 0 0 1 82.7 82.2z" fill="#ffd100"/></g></svg>