<svg xmlns="http://www.w3.org/2000/svg" xmlns:xlink="http://www.w3.org/1999/xlink" height="480" width="640" version="1"><path fill="#cc0001" d="M0 0h640v480H0z"/><path id="a" fill="#fff" d="M0 445.8h640V480H0z"/><use height="100%" width="100%" transform="translate(0 -68.6)" xlink:href="#a"/><use height="100%" width="100%" transform="translate(0 -137.2)" xlink:href="#a"/><use height="100%" width="100%" transform="translate(0 -205.8)" xlink:href="#a"/><use height="100%" width="100%" transform="translate(0 -274.3)" xlink:href="#a"/><use height="100%" width="100%" transform="translate(0 -343)" xlink:href="#a"/><use height="100%" width="100%" transform="translate(0 -411.5)" xlink:href="#a"/><path fill="#010066" d="M0 0h480.1v274.3H0z"/><path d="M197.5 34.2a103 103 0 1 0 55.9 189.4 91.6 91.6 0 0 1-30 5 91.4 91.4 0 0 1-91.5-91.2 91.4 91.4 0 0 1 123.3-85.6 103 103 0 0 0-57.7-17.6z" fill="#fc0"/><path d="M368.7 190.7L325.2 168l12.9 46.4-29.1-38.8-9 47.3-9-47.3-29.2 38.7 13-46.4-43.6 22.6 32.4-36.3-49.3 1.9 45.3-19-45.2-19.2 49.3 2-32.3-36.3 43.5 22.7L262 59.8l29.1 38.9 9.1-47.3 9 47.3 29.1-38.8-13 46.4L369 83.8 336.5 120l49.3-2-45.3 19 45.2 19.2-49.2-2z" fill="#fc0"/></svg>