<svg xmlns="http://www.w3.org/2000/svg" height="480" width="640" version="1"><defs><clipPath id="a"><path fill-opacity=".7" d="M0 0h640v480H0z"/></clipPath></defs><g clip-path="url(#a)"><path fill-rule="evenodd" fill="#5387f4" d="M-79.4 318.9h798.8V480H-79.4zm0-318.9h798.8v161.1H-79.4z"/><path fill-rule="evenodd" fill="#fff" d="M-79.4 161.1h798.8V319H-79.4z"/><g transform="matrix(.45385 0 0 .45413 121 -34.8)"><path d="M240 725.2l196.6-338.7 196.6 338.7H240z" fill-rule="evenodd" fill="#ffd200"/><path d="M259.9 716L437 409.2 614.2 716H259.9z" fill-rule="evenodd" fill="#0ff"/><path d="M439.2 556.7L438 448.3m7 115.4l39-54.1m-33 60l62.4-25.9M455.7 578l73 2.3m-77.7 7l42.3 37.8m-54.1-41.3V618m-13-42.4L371 623.8M432 579l-24.7 46m15.3-55.4l-91.8 31.8m90.6-36.5l-64.7-2.4m13-24.7l56.4 18.9m-29.4-67.2l34.1 66" stroke="#ffd200" stroke-width=".7" fill="none"/><g fill-rule="evenodd"><path d="M437 538.2c-35.4 0-61.2 6.5-83 14.2l5.6-9.6 5.5-9.6 5.5-9.6 5.6-9.6 5.5-9.6 5.6-9.6 6-9.7c8.3-7.3 26-10.7 43.8-10.7 17.7 0 35.4 3.6 44.3 10.9l5.5 9.5 5.5 9.6 5.6 9.6 5.5 9.6 5.6 9.6 5.5 9.6 5.5 9.6c-23-7.7-47.6-14.2-83-14.2z" fill="#c453d7"/><path d="M437 531.5c-35.5 0-75.2 10.6-77.4 11.3l5.5-9.6 5.6-9.6 5.5-9.6 5.5-9.6 5.6-9.5 6.1-9.8c8.3-7.3 26-10.7 43.7-10.7 17.7 0 35.4 3.6 44.3 10.9l5.5 9.6 5.6 9.5 5.5 9.6 5.5 9.6 5.6 9.6 5.5 9.6s-42-11.3-77.5-11.3z" fill="#5000c1"/><path d="M437 523.8c-26.2-.1-68.6 7.1-71.6 8.5l5.2-8.7 5.6-9.6 5.5-9.6 5.6-9.6 6-9.7c8.3-7.3 26-10.7 43.8-10.7 17.7 0 35.4 3.6 44.3 10.8l5.5 9.6 5.5 9.6 5.6 9.6 5.5 9.6 5.6 9.6s-36.6-9.4-72-9.4z" fill="#0053d7"/><path d="M437 515.9c-34.7-.1-63.7 6.6-66.4 7.7l5.6-9.6 5.5-9.6 5.5-9.6 6.2-9.7c8.2-7.3 26-10.7 43.7-10.7 17.7 0 35.4 3.6 44.3 10.8l5.5 9.6 5.5 9.6 5.6 9.6 5.5 9.6s-31-7.7-66.4-7.7z" fill="#009f9f"/><path d="M437 509c-35.5 0-57.9 4.6-60.8 5l5.5-9.6 5.6-9.6 6-9.7c8.3-7.3 26-10.7 43.8-10.7 17.7 0 35.4 3.6 44.3 10.8l5.5 9.6 5.5 9.6 5.6 9.6s-25.5-5-61-5z" fill="#ff0"/><path d="M436.8 500.2c-31-.6-53.8 4.3-55 4.2l5.4-9.6 6.2-9.7c8.2-7.3 26-10.7 43.7-10.7 17.7 0 35.4 3.6 44.3 10.8l5.5 9.6 5.5 9.6s-20.2-4.2-55.6-4.2z" fill="#f50"/><path d="M438 490c-31.2.2-47.3 4.3-50.8 4.9l6.2-9.8c8.2-7.3 26-10.7 43.6-10.7 17.8 0 35.5 3.6 44.3 10.9l5.6 9.6s-13.5-5-49-5z" fill="#ff0b00"/></g><path d="M259.9 716l49.8-86.3h254.7l49.8 86.3H259.9z" fill-rule="evenodd" fill="#4363ff"/><g fill-rule="evenodd"><path d="M334.7 674.4s28.3-5 46.6-20 18.3-40 26.7-40c8.3 0 10 28.3 30 38.3 20 10 51.5 23.3 51.5 23.3l-154.8-1.6z" transform="matrix(.96712 0 0 1 110 -5.8)" stroke="#000" stroke-width=".7" fill="#6da700"/><path d="M543.1 656.9c-43.5-20-17.7-10-30.6-18.3-6.4-16.7-16-30-8-30s9.6 28.3 29 38.3a200 200 0 0 0 27.3 12.5l-17.7-2.5z" fill="#ffbd00"/><path d="M334.7 674.4s28.3-5 46.6-20 18.3-40 26.7-40c8.3 0 10 28.3 30 38.3 20 10 51.5 23.3 51.5 23.3l-154.8-1.6z" transform="matrix(.96712 0 0 1 73.7 -5.8)" stroke="#000" stroke-width=".7" fill="#6da700"/><path d="M506.9 656.9c-43.5-20-17.7-10-30.6-18.3-6.4-16.7-16.1-30-8-30 8 0 9.6 28.3 29 38.3a200 200 0 0 0 27.3 12.5l-17.7-2.5z" fill="#ffbd00"/><path d="M334.7 674.4s28.3-5 46.6-20 18.3-40 26.7-40c8.3 0 10 28.3 30 38.3 20 10 51.5 23.3 51.5 23.3l-154.8-1.6z" transform="matrix(.96712 0 0 1 37.5 -5.8)" stroke="#000" stroke-width=".7" fill="#6da700"/><path d="M470.7 656.9c-43.5-20-17.8-10-30.6-18.3-6.5-16.7-16.1-30-8-30 8 0 9.6 28.3 28.9 38.3a200 200 0 0 0 27.4 12.5l-17.7-2.5z" fill="#ffbd00"/><path d="M334.7 674.4s28.3-5 46.6-20 18.3-40 26.7-40c8.3 0 10 28.3 30 38.3 20 10 51.5 23.3 51.5 23.3l-154.8-1.6z" transform="matrix(.96712 0 0 1 -3.6 -6.7)" stroke="#000" stroke-width=".7" fill="#6da700"/><path d="M429.6 656c-43.5-20-17.7-10-30.6-18.3-6.4-16.6-16.1-30-8-30 8 0 9.6 28.4 29 38.4 19.3 10 27.3 12.5 27.3 12.5l-17.7-2.5z" fill="#ffbd00"/><path d="M334.7 674.4s28.3-5 46.6-20 18.3-40 26.7-40c8.3 0 10 28.3 30 38.3 20 10 51.5 23.3 51.5 23.3l-154.8-1.6z" stroke="#000" stroke-width=".7" fill="#6da700" transform="matrix(.96712 0 0 1 -34.2 -6.7)"/><path d="M399 656c-43.5-20-17.7-10-30.6-18.3-6.4-16.6-16.1-30-8-30 8 0 9.6 28.4 29 38.4 19.3 10 27.3 12.5 27.3 12.5L399 656z" fill="#ffbd00"/></g><path d="M438 565.5c.4 0 .7-1.9 1.8-3.5 2.2-1.7 4.5-3 7.6-3.6 1.7-.8 5.1-.6 7.7-.6 3.6.4 3.8 1.9 5.9 4.2.9 1.8 3 4.3 4 7 1.3 1.4 2.2 3.6 3 5.3.9 1.8 1.8 4.5 3 7 .6 3 1.2 5.1 1.2 8.3 0 3.4-.6 4.8-1.2 7-1.8.7-5.3 1-7 0-2-1.6-5.2-.5-6.6-2.3-3.3-.4-4.2-4.4-5.8-6.4-1.2-1.8-1.2-3-2.4-4.7-1.9-1.4-2.1-3-3-5.3.8-2.6 2-3.1 4.2-4.2 1.1-1.6 1.7-2.3 1.7-5.3-.4-3.3-1.6-3-4.7-3.5-3.8 0-5.7.4-9.4.6z" fill-rule="evenodd" transform="matrix(.67241 0 0 .52247 132.3 268.7)" stroke="#000" stroke-width=".7" fill="red"/><g stroke="#0ff" stroke-width=".7" fill="none"><path d="M314.4 690.9h1.2c-3.2 0-1.6 0 4.7 1.2 5.4.6 10.5 1.1 16.5 1.1m-28.3 15.3v-1.1c0 3.7-.3 1.4 5.9-3.6 5.2-.9 7.7 1 14.1 1.2 3.4 1.7 9.5 1.2 13 0 1.7-.7 1.7-1.6 3.5-2.3m-23.6 8.2v-1.2c.8.3 5.3 0 8.3 0 6.1 0 10.9-.3 14.1 2.4h2.4m20-26h5.9c3.7-1.2 9.2-1.2 13 0 1.4 5 3.3 5.9 9.3 6 2-1.5 6-2.6 8.3-3.6m-33 6h16.5m-5.9 10.5v-1.2c0 3.7-.3 1.5 5.9-3.5 4.7-2.3 7.2-3.6 14.1-2.3 5 2.6 6.8 4.2 13 4.7 5.6 0 8-1 13-1.2m-30.7 9.4h1.2c-3.3 0-1.5.2 4.7-2.3 5.9 1.4 9.8 3.4 16.5 3.5 3.8-.2 6.6-1.2 10.6-1.2m9.4-24.7h5.9c5.8 0 11.4-.1 16.5 1.2h16.5c1.5 0 1.1.3 1.1-1.2m-44.7 9.4h1.2c-3.3 0-1.6.1 4.7-2.4 5 .4 10.5 1.1 14.1 3.6 5.2 2.2 7.2 4.2 14.1 4.7 4-.2 4.3-1.8 8.3-2.4m-24.7 8.3c1.8-1 8-3.3 13-1.2 5 1.3 10.6 1.2 16.4 1.2 3.7-1.6 9.9-3 13-4.7h3.5m3.5-10.6c2.4 0 12.5-.6 17.7 1.1 6.3-.7 8.6-3.8 13-7 4.3 0 8 0 11.7 1.2m-20 18.8s4.7-1 8.2-1.2c5.3-4 6.2.1 11.8 1.2 6.1-1.4 9.2-4.4 11.8-8.2m-18.9 0h1.2c-3.5 0-1.5.2 4.7-3.6 4.2-2 4.6-4.1 10.6-4.7 3.3-2.5 5.7-.3 8.3 1.2m0 16.5c.2-1 2.3-6 3.5-8.3 5.2-2 7.8-3 11.8 2.4 4.2 1.1 8.2 3.5 13 4.7 1.7 0 .8.3 2.3-1.2M576.9 691v-1.2c0 3.7-.2 1.5 4.8-4.7 5.4 1 6.8 4.3 9.4 8.2 5.8 0 9.7-.1 13-2.3m1.1 13c.7-1.1 5.4-8.8 9.4-4.8 5.2 1.5 6 3.8 11.8 6 1-1.8 2.1-2.2 4.7-2.4" transform="matrix(1.0073 0 0 1.4304 -35.2 -306.5)"/><path d="M501.6 708.5h1.2c-3.3 0-1.6.2 4.7-2.3 4.9-2.8 7.3-4 10.6-8.2 5.4.1 9.6 1.1 15.3 1.1 0-1.5-.4-1.1 1.2-1.1m-183.7-3.6c0-.8 3.2-2 7-3.5 2.9-2.1 5.2-.1 9.5 0M356.8 705h1.1c-3.3 0-1.5.2 4.7-2.3 4.6.6 6.6 2.8 11.8 3.5" transform="matrix(1.0073 0 0 1.4304 -35.2 -306.5)"/></g><path d="M704.7 581.4c-11.7-.2-17.2 4.5-17.4 16.1 0 2.7.7 6.2 1.6 8.2 3.3 7.3 9 8 16.2 8.1l20.1.4c1.9 0 4 1 3.8 6h1.3l.2-14.8h-1.2c-.1 5-2.2 6-4 6L705 611c-6 0-15-.3-14.9-12.2.1-8 4-11 14-10.9l21.4.3c1.9 0 4 1 3.9 5.7h1.2l.2-17.7h-1.2c0 4.6-2.1 5.5-4 5.5l-21-.3zM727.5 563.9l-.2-1.4c-5-.8-1-6.5-2.3-14.2a21.4 21.4 0 0 0-25.4-18.2c-14.9 2.4-19.8 15.2-18.1 26 .8 5.1 4.4 11.8 7 15.1l12-1.9c3.6-.6 5.7-.6 6.4 3.5l1.2-.2-2.5-16-1.2.1c.8 5.3-1.2 6-4.8 6.5l-9.5 1.5c-1.8.3-2.2.3-3.3-1.3-1.4-2-2.2-4.6-2.6-7-1.7-10.6 6.3-17.4 16-19 11.1-1.7 20.7 1.5 22.4 12 1.1 7.4-2.4 12.2-8.7 15.7l.3 1.5 13.3-2.7zM630.2 384.8l-1-.8c-5 2.6-4-3.5-10.8-9.1a21.2 21.2 0 0 0-31 3c-9 10.7-6.8 23 2.8 31 4.7 4 11.8 5.7 17.9 4.5v-1.7c-6.2.5-10.8-.7-15.6-4.7-8-6.7-5.5-17.1.3-24 7.3-8.8 16.3-12.5 24.4-5.7 5.6 4.7 6.1 11.4 3 18l1.2 1 8.8-11.5z" stroke="#000" stroke-width=".7" fill="#ffd200"/><path d="M511.4 334c0-1.8 1-3.8 6.3-3.8V329h-19v1.2c5.2 0 6.2 2 6.2 3.9v32.1c0 1.9-1 3.9-6.3 3.9v1.2h19v-1.2c-5.2 0-6.2-2-6.2-3.9v-32.1z" transform="matrix(.87269 .5324 -.48758 .84843 302.2 -196.2)" stroke="#000" stroke-width=".7" fill="#ffd200"/><path d="M564.7 346.4c.7-1.8 2.4-3.3 7.2-1.2l.5-1.2-14-5.9-.5 1.2c4.8 2 5 4.3 4.2 6l-10 23.6-10.7-38-10.1-4.2-.5 1.2c2.9 1.2 3.2 2 4.2 4.8l.2.8-12.6 30c-.8 1.7-2.4 3.2-7.3 1.2l-.4 1 14 6 .5-1.1c-4.9-2-5-4.3-4.2-6l11.3-27 12.5 43.5.9.4 14.8-35.1zm-89.9 10.9l3.6-10.6-1.7-.1c-4 7.8-8.8 7.6-14 7.2l-8.4-.5c-1.3-.1-1.5-1.5-1.5-2.6l1.1-15.8 9 .7c4.3.3 7.8 1.7 7.5 6.7h1.3l1-14.9h-1.3c-.3 5-4 5.8-8.3 5.5l-9-.6 1-13.7c0-1.6 1.3-2.4 2.9-2.3l10.3.7c4.4.3 6.3 3.5 6.8 7l1.4.1.6-9.1-33.9-2.3v1.2c4.6.3 5.4 2.4 5.3 4.3l-2.2 32c-.1 1.9-1.2 3.8-5.9 3.5v1.2l34.4 2.4zm-175.1-13l-1.2.6c1 5.6-4.5 2.7-12 7.3a21.2 21.2 0 0 0-7.3 30.3c7.3 12 19.6 13.9 30.3 7.4 5.2-3.2 9.2-9.3 10-15.5l-1.5-.5c-1.6 6-4.2 10-9.5 13.2-9 5.5-18-.4-22.7-8-6-9.9-6.5-19.5 2.6-25 6.2-3.8 12.7-2.1 18 3l1.2-.8-8-12zM260.9 378c-1.2-1.4-1.8-3.6 2.4-7l-.8-1-14.8 12.2.8 1c4.1-3.4 6.2-2.5 7.3-1l20.4 24.8c1.2 1.4 1.8 3.6-2.3 7l.7 1 14.8-12.2-.8-1c-4.1 3.5-6.1 2.5-7.3 1L260.9 378zm10.6 40l-6-9.8-1 1.1c3.9 8.6-.2 12.6-5.8 18.5-2.7 2.9-5 4.2-6.2 3l-23.3-22.2c-1.4-1.2-2.2-3.3 1-6.7l-.9-.9-12.2 13 .9.8c3.2-3.4 5.3-2.7 6.7-1.4l23.3 22c1.4 1.3 2.2 3.4-1 6.8l.9.9 23.6-25zm-80 85.8c10.4 5.5 17.4 3.9 22.9-6.4a22 22 0 0 0 2.4-8c.4-8-4.3-11.2-10.7-14.6l-17.7-9.6c-1.7-.9-3-2.7-.6-7.1l-1-.6-7.1 13 1 .7c2.5-4.5 4.7-4.4 6.3-3.5l17.8 9.6c5.4 2.8 13.3 7.2 7.6 17.7-3.8 7-8.6 8-17.3 3.2l-19-10.1c-1.6-1-3-2.7-.8-6.9l-1-.5-8.5 15.6 1.1.6c2.2-4.1 4.5-4 6.1-3l18.6 9.9zm2.4 50.4l-10-5-.4 1.8c7.3 5 6.4 9.7 5.4 14.7l-1.6 8.3c-.2 1.3-1.6 1.4-2.8 1.2l-15.4-3 1.7-9c.9-4.2 2.8-7.5 7.7-6.5l.2-1.3-14.6-3-.3 1.4c4.9 1 5.3 4.7 4.5 9l-1.8 8.8-13.5-2.7c-1.6-.3-2.2-1.7-1.9-3.2l2-10.1c.9-4.4 4.3-6 7.8-6l.3-1.3-9-1.8-6.6 33.3 1.2.3c1-4.6 3.1-5.1 5-4.8l31.5 6.3c1.8.3 3.6 1.7 2.7 6.3l1.2.2 6.7-33.9zM184 628c1.9 0 4 1 3.9 5.5h1.2l.2-17.6H188c0 4.6-2.1 5.6-4 5.5l-14.4-.1-.1-3.6 19.8-15 .1-10.3h-1.2c-.2 2.9-1.5 4.3-3.6 6L168.8 611c-.7-6-3.8-11.6-10.6-11.7-7.5 0-11.3 6.3-11.4 17l-.2 16.8h1.3c0-4.4 2-5.4 4-5.4l32 .4zm-31.7-6.9c-3 0-3-.6-3-4.8.1-5.7 2.7-10.2 9-10.1 6.9 0 8.8 5.8 9 15h-15zm39.6-80.7c1.8.5 3.6 1.9 2.4 6.4l1.2.3 4.4-17.2-1.2-.3c-1.2 4.5-3.4 5-5.2 4.5l-13.3-3.4c.7-1.7 1.3-3.5 1.7-5.3 2-8 .8-16.6-8.3-18.9-7.4-1.8-12.7 4.7-15.1 14.3l-4 15.6 1.2.3c1-4.2 3.3-4.6 5-4.2l31.2 7.9zm-29.3-14.2c-2.6-.6-2.9-.8-2.2-3.4 1.5-6 5-11.2 12-9.4 7.1 1.8 8.2 7 6.5 13.7l-1 3-15.3-3.9zm60.6-59c1.5 1 2.7 3-.3 7.3l1 .7 11.6-16.5c5.8-8.2 6.4-16 0-20.4-5-3.5-10.7-1.2-14.8 2.7 2-4.7 1.7-9.2-2.7-12.3-6.7-4.8-13.2 0-18.9 8l-9.9 14.1 1 .7c3-4.2 5.2-3.8 6.8-2.8l26.2 18.5zm-9-14.4l1.8-2.6c3.4-5 9-10.3 15.2-6 6.1 4.4 4.9 9.5 1 15-2.6 3.8-4 3.6-5.7 2.3l-12.4-8.7zm-2.2-1.5L200 443c-1.8-1.3-.5-3 3.2-7.5 3.3-3.2 7.2-4.2 11.1-1.4 4.3 3 4.4 7.7.6 13l-3 4.2z" stroke="#000" stroke-width=".7" fill="#ffd200"/><path d="M418.3 355.2c17-1.4 25-10 24-23-1-14.4-11.5-20.5-27.9-19.2l-16.4 1.2v1.3c4.7-.4 5.9 1.6 6 3.4l2.5 32c.1 1.9-.6 4-5.3 4.4v1.2l17-1.3zm-7.8-36.3c-.2-3 .4-3.3 3.4-3.5 11.8-1 20.5 4.9 21.5 17.4 1 11.8-6 19.4-19.1 19.9-1.4 0-3.2-.5-3.3-2.9l-2.5-30.9zM643.6 456c-1.6 1-3.8 1.2-6.1-2.7l-1 .7 8.9 15.1 1-.6c-2.3-4-1-6 .5-6.9l12.5-7.3 2 3-9.3 23.1 5.3 9 1-.7c-1.3-2.6-1-4.5 0-7l7-19c3.8 4.8 9.3 8 15.1 4.6 6.5-3.8 6.4-11.2 1-20.4l-8.6-14.5-1 .6c2.2 3.9 1 5.7-.6 6.7L643.6 456zm30.7-10.5c2.6-1.6 2.9-1 5 2.5 3 5 3 10-2.4 13.3-6 3.5-10.5-.4-15.5-8.2l13-7.6zM653 405.8l-.8-1-31.6 11.2c-6.4 2.2-11 4.1-13.8 1.4l-1 .8 8.6 9.4.9-.8c-1.5-1.6-2.5-3.6-1-5 1.8-1.7 7.4-3.2 9.7-4.2l11.3 12.4-2.5 5.4c-2.6 5.6-3.4 6.5-7.3 2.6l-.9.9 11 12 1-.8c-2.6-2.5-.7-6 .5-8.7l16-35.6zm-8.3 4.5l-8 17.3-10-11 18-6.3zm64.8 86.5l-.5-1.1-33.4.5c-6.8 0-11.7.4-13.6-3.1l-1.1.5 5 11.6 1.2-.5c-.9-2-1.2-4.2.7-5 2.2-1 8-.7 10.5-.9l6.7 15.4-4 4.3c-4.3 4.5-5.4 5-7.8.2l-1.1.4 6.5 15 1.2-.5c-1.7-3.2 1.3-6 3.3-8l26.4-28.8zm-9.3 1.6L687 512.3l-5.9-13.5 19-.4zm27 147.5l.1-1.3-29.1-16.5c-5.9-3.3-10.3-5.5-10.2-9.5l-1.2-.2-1.5 12.6 1.3.2c.2-2.2 1-4.3 3.1-4 2.4.2 7.2 3.4 9.5 4.5l-2 16.7-5.7 1.6c-6 1.8-7.1 1.7-6.7-3.7l-1.2-.2-2 16.2 1.2.2c.3-3.6 4.2-4.5 7-5.3l37.3-11.3zm-9-3.4l-18.3 5.3 1.8-14.7 16.6 9.4zM332.7 330.6l-1.1.5-.7 33.4c-.2 6.8 0 11.7-3.6 13.5l.5 1.1 11.8-4.6-.5-1.2c-2 .8-4.3 1-5-.9-1-2.2-.4-7.9-.5-10.5l15.6-6.2 4.1 4.3c4.4 4.3 5 5.5 0 7.7l.4 1.1 15.2-6-.5-1.1c-3.2 1.5-5.9-1.6-8-3.6l-27.7-27.5zm1.3 9.4l13.4 13.6-13.7 5.5.3-19zM699.5 735.6l-7.9-8.4-.8 1.4c5.7 7.5 2.5 12.3-1.8 19.2-2 3.4-4 5.1-5.4 4.2l-27.4-16.8c-1.6-1-2.9-2.8-.4-6.8l-1-.7-9.4 15.2 1 .7c2.5-4 4.8-3.8 6.3-2.8l27.5 16.7c1.5 1 2.8 2.9.4 6.9l1 .6 18-29.4zM578.9 811.2l3.7-2.7c3.6-2.7 6.1-4.7 12.2 1.2l1.2-.9-6.7-8.5-29.2 21.2 6 9 1.3-.9c-.8-1.9-1.8-3.8-1.7-6 0-3.2 4.2-5.9 7.9-8.6l20.3 28c1 1.5 1.5 3.7-2.3 6.4l.7 1 14.4-10.4-.7-1c-3.8 2.7-5.7 1.6-6.8.1l-20.3-28zM555 830.8c-.7-1.8-.6-4 4.2-6l-.5-1.2-14 6 .5 1c4.8-2 6.5-.5 7.2 1.2l10 23.7-34.7-18.8-10 4.2.4 1.1c2.9-1.1 3.7-.8 6.4.5l.7.4 12.6 30c.7 1.7.6 4-4.2 6l.4 1 14-5.8-.4-1.2c-4.8 2-6.5.6-7.2-1.1l-11.4-27 39.9 21.5.9-.4-14.8-35.1zm-29.8 52.4l.2-11.2-1.7.4c-1.4 8.7-6.1 9.9-11.1 11l-8.2 2c-1.3.3-2-.9-2.2-2l-3.7-15.3 8.8-2.1c4.2-1 8-.7 9.2 4.2l1.3-.3-3.5-14.6-1.3.3c1.1 4.9-2.1 6.8-6.3 7.8l-8.8 2.1-3.2-13.4c-.4-1.5.6-2.7 2.2-3l10-2.4c4.4-1 7.1 1.4 8.6 4.6l1.4-.3-2.1-9-33.1 8 .3 1.2c4.5-1.1 6 .6 6.4 2.4l7.4 31.3c.5 1.8 0 4-4.5 5.1l.2 1.2 33.7-8zm-47.3-30.6h-1.4c-1.8 5.3-5.3.2-14 .6a21.2 21.2 0 0 0-20.9 23.2c.7 14 10.6 21.5 23 21 6.2-.4 12.6-3.9 16.3-8.8l-1.2-1.3a19.6 19.6 0 0 1-14.6 7.1c-10.5.5-15.6-9-16-17.9-.6-11.5 3.6-20.2 14.1-20.7 7.3-.3 12.2 4.2 14.4 11.2h1.5l-1.2-14.4zm-89.9-3.2l-1.2-.4c-3.6 4.4-5.1-1.6-13.5-4.1a21.2 21.2 0 0 0-27.3 14.9c-4 13.4 2.8 23.8 14.7 27.4 5.9 1.8 13.1.6 18.2-2.8l-.6-1.6a19.6 19.6 0 0 1-16.2 1.8c-10-3-11.8-13.6-9.2-22.2 3.3-11 10.1-17.8 20.3-14.8 7 2 10 8 9.8 15.3l1.4.5 3.6-14zm-42.8-8c.7-1.7 2.4-3.2 7.3-1.1l.5-1.1-17.6-7.5-.4 1.1c4.8 2.1 5 4.4 4.2 6l-12.6 29.6c-.7 1.7-2.4 3.2-7.3 1.2l-.4 1 17.5 7.6.5-1.2c-5-2-5-4.3-4.3-6l12.6-29.6zm-75 1.4l9-6.5-1.3-1.2c-7.8 4.1-11.6 1.1-15.5-2.2l-6.6-5.3c-1-.8-.4-2.1.3-3l10-12.2 7 5.8c3.3 2.7 5.4 6 2.2 9.8l1 .9 9.5-11.6-1-.9c-3.2 3.9-6.7 2.5-10-.3l-7-5.7 8.7-10.6c1-1.3 2.6-1.2 3.8-.2l8 6.6c3.4 2.8 3.1 6.6 1.4 9.7l1.1.9 5.8-7.1-26.2-21.6-.8 1c3.6 3 3 5.1 1.9 6.5l-20.4 24.8c-1.2 1.5-3.2 2.5-6.8-.5l-.8 1 26.7 21.9zM260.6 785.1c1.3-1.2 3.5-1.8 6.6 1.6l1-.8-8.6-9.5-33.5 11.1 14.2-32.6-8.5-9.4-.9.8c3.5 3.8 2.6 5.9 1.2 7.1L208 775c-1.3 1.2-3.5 1.9-7-2l-.9.8 10.2 11.3.9-.8c-3.5-3.9-2.6-6-1.2-7.2l22.2-20-15.3 35.4.6.6 38-12.1-23.3 20.9c-1.4 1.2-3.5 1.9-6.6-1.6l-1 .8 12 13.3.8-.8c-3-3.5-2.2-5.6-.8-6.8l23.9-21.6zM287.2 848.3c-.9 1.7-2.7 3-6.6 1l-.6 1 15.6 8.3.5-1.1c-4.1-2.2-4-4.5-3.1-6.1l6.8-12.8 3.2 1.6 4.2 24.5 9.1 4.9.6-1.1c-2.5-1.5-3.2-3.4-3.7-6l-3.9-19.8c5.7 2.1 12.1 2 15.3-4 3.5-6.6-.4-13-9.8-18l-15-7.8-.5 1c4 2.2 3.8 4.4 3 6l-15 28.4zm20.7-25c1.4-2.7 2-2.4 5.6-.4 5 2.7 7.9 7 4.9 12.6-3.3 6-9.2 5-17.5 1l7-13.2zm98.6 28.8l-1.3-.2-16.6 29.1c-3.3 5.9-5.5 10.3-9.5 10.2l-.1 1.2 12.6 1.5.1-1.2c-2.2-.3-4.3-1.1-4-3.2.3-2.4 3.5-7.1 4.6-9.4l16.7 2 1.6 5.6c1.7 6 1.7 7.2-3.8 6.8l-.1 1.2 16.2 2 .1-1.3c-3.6-.2-4.4-4.2-5.3-7l-11.2-37.3zM403 861l5.3 18.3-14.7-1.7L403 861zM224.8 731.3l-.6-1.2-33.3 2.7c-6.8.6-11.7 1.3-13.8-2.1l-1 .5 5.8 11.3 1-.6c-1-1.9-1.4-4.1.4-5 2.1-1.2 7.9-1.2 10.4-1.6l7.8 14.9-3.8 4.5c-4 4.8-5 5.5-7.7.7l-1.1.6 7.5 14.5 1.1-.6c-1.8-3 1-6 2.8-8.3l24.5-30.3zm-9.2 2.2l-12.2 14.7-6.8-13.1 19-1.6zm405.7 91.1c1.2 1.4 1.9 3.6-1.5 6.5l.8 1 13.2-11.8-.8-.9c-3.5 3.1-5.6 2.2-6.8.9l-9.6-10.8 2.5-2.5 24.5 4.6 7.7-6.9-.8-.9c-2.3 1.8-4.2 1.8-7 1.4l-19.8-3.3c4-4.6 6-10.6 1.5-15.7-5-5.6-12.2-4-20.1 3l-12.6 11.2.8 1c3.3-3 5.4-2.2 6.6-.8l21.4 24zm-16.3-28c-2-2.3-1.6-2.7 1.6-5.5 4.3-3.8 9.3-5 13.5-.2 4.6 5.2 1.6 10.4-5.1 16.8l-10-11.2zm26.7-36.3l-.8 1 17.4 28.7c3.5 5.7 6.3 9.8 4.2 13.2l1 .7 7.4-10.2-1-.8c-1.2 1.8-3 3.2-4.7 2-1.9-1.4-4.5-6.5-6-8.6l9.8-13.6 5.8 1.3c6 1.4 7 2 4 6.6l1 .7 9.6-13.2-1-.7c-1.9 3-5.8 1.8-8.6 1.2l-38.1-8.3zm6 7.3l18.7 4.3-8.7 12-10-16.3z" stroke="#000" stroke-width=".7" fill="#ffd200"/><ellipse fill-rule="evenodd" rx="9.6" ry="9.2" stroke="#000" transform="translate(2.5 8.3)" cy="676" cx="176.9" stroke-width=".7" fill="#ffd200"/><ellipse fill-rule="evenodd" rx="9.6" ry="9.2" stroke="#000" transform="translate(514.5 20)" cy="676" cx="176.9" stroke-width=".7" fill="#ffd200"/></g></g></svg>