<svg xmlns="http://www.w3.org/2000/svg" height="480" width="640"><g fill-rule="evenodd" stroke-width="1pt"><path fill="#00006a" d="M0 0h640v480H0z"/><path d="M0 0l319 304.3h65.4L72.4.1 0 0z" fill="#fff"/><path d="M360.5 304.3L48.2 0 23.9.4l313.6 304h23z" fill="red"/><path d="M384.4 0l-319 304.3H0L312.1.1l72.3-.1z" fill="#fff"/><path d="M360.4 0L48.3 304.3H24L337.5 0h23z" fill="red"/><path fill="#fff" d="M161.5 0H223v304.3h-61.5z"/><path fill="#fff" d="M0 121.7h384.4v60.9H0z"/><path fill="red" d="M175 0h34.5v304.3H175z"/><path fill="red" d="M0 137h384.4v30.4H0z"/><path fill="#fff" d="M520 179.3L500.4 165l-20.3 13.4 7.7-23.2-19-15.3 24.3.2 8.6-22.9 7.4 23.3 24.2 1.1-19.7 14.3z"/><path fill="red" d="M512.2 167.6l-11.6-8.4-11.9 8 4.4-13.6-11.2-8.9H496l5-13.5 4.4 13.6 14.2.5-11.5 8.5z"/><path fill="#fff" d="M444.9 304l-19.6-14.4L405 303l7.6-23.2-19-15.2 24.4.1 8.5-22.9 7.4 23.3 24.3 1.1-19.7 14.3z"/><path fill="red" d="M437 292.3l-11.6-8.3-11.8 8 4.4-13.7-11.3-8.8 14.3-.1 4.9-13.5 4.5 13.6 14.2.6-11.5 8.4z"/><path fill="#fff" d="M598.6 291.8l-19.5-14.5-20.3 13.4 7.6-23.2-19-15.2 24.3.1 8.6-22.8 7.4 23.2 24.2 1.2-19.7 14.2z"/><path fill="red" d="M590.8 280l-11.6-8.3-11.8 8 4.3-13.7-11.2-8.8 14.3-.1 4.8-13.5 4.5 13.6 14.3.6-11.5 8.4z"/><g><path fill="#fff" d="M518.3 469.2l-19.6-14.5-20.3 13.4L486 445l-19-15.2 24.4.1 8.5-22.8 7.4 23.2 24.3 1.2-19.8 14.2z"/><path fill="red" d="M510.4 457.5l-11.6-8.4-11.8 8 4.3-13.7-11.2-8.8h14.3l4.9-13.6 4.4 13.7 14.3.5-11.5 8.5z"/></g></g></svg>