<svg xmlns="http://www.w3.org/2000/svg" height="480" width="640" version="1" viewBox="-15 -7.5 30 15"><defs><clipPath id="a"><path d="M-15-7.5h30v15h-30z"/></clipPath></defs><path fill="#00247d" d="M-15-11.3h30v22.6h-30z"/><g clip-path="url(#a)" transform="translate(0 -3.8)"><circle r="20" fill="#00247d"/><path stroke-width="3" stroke="#fff" d="M-20-10l40 20m-40 0l40-20"/><path stroke-width="2" stroke="#cf142b" d="M-20-10l40 20m-40 0l40-20"/><path fill="#fff" d="M0 0l20 10h-3L-3 0m3 0l20-10h3L3 0M0 0l-20 10h-3L-3 0m3 0l-20-10h3L3 0"/><path stroke-width="5" stroke="#fff" d="M-20 0h40M0-10v20"/><path stroke-width="3" stroke="#cf142b" d="M-20 0h40M0-10v20"/></g><path d="M4.2 3.3c-.4.4-.8.9-1 1.4C3 6 2.7 6.3 2 6c0 .8.7.8 1 .4 0 .7.2 1.3.8 1.8.2.2.2 0 .1-.2 0-.2 0-1-.3-1.4.3.2.9 0 .8-.6-.4.2-.9.2-1-.4 0-.7.3-1.8.8-2.3zm-.5-5.4c0-.2 0-.5-.3-.7-.3-.3-.7-.2-1 0-.4-.2-.6.6-1 .5 0 .2.1.4.4.3-.3.2 0 .5-.3.7.5.2.8-.1.7-.6.2.2.6.2.7 0-.2-.1-.2-.4-.1-.6.1-.3 1-.3.9.4z" fill="#f7e017"/><path d="M4.9 1.8c-.6.3-1.7.2-1.8-.6C3.1.4 3.8.1 4 0c.3-.2.5.1.4.4a.5.5 0 0 0 .3-.7c.4 0 .9-.3 1-.8h-1c.2-.1.2-.4.2-.5-.4.4-1 .2-1.7 1.4L3.6-2a1.3 1.3 0 0 0 0-.2c.1-.7-.7-.7-.8-.4.1.2 0 .5 0 .8 0 .5-.3 1.5-.4 1.8 0-.5-.4-.6-.5-.8l-.1.3-.7-.1c-.2.3.1.7.4.8L1 .5c.2.3.5.4.8.4s.5.1.6.5c.3.6 1.4 1 2.4.4z" fill="#337321"/><path d="M6.4 1.1a3 3 0 0 1-1.7 1.7C4 3 2.6 3.7 2.2 4A.5.5 0 0 1 2 4c-.2-.2-.3-.6 0-1 1-1 2.2-.5 2.9-1.2-.6.3-1.7.2-1.8-.6A2.7 2.7 0 0 0 5.8.4l.6.7z" fill="#f7e017"/><path d="M4.2 3.3c-.5.4-.8 1.6-.7 2.3l.1.4c0-.4.4-1.5 1.1-2 .7-.4 1.6-1.3 2-2.4 0-.2-.2-.3-.4-.4-.3 1-1.3 1.4-2 2.1z" fill="#337321"/><path d="M6 .7c-.2.3-.6.7-1 .8l.1-.3c-.5.2-1.6.2-2 0A2.7 2.7 0 0 0 5.8.4l.2.3z" fill="#316d3a"/><path d="M2 3c-.8.8-.3 1.5 0 1.7 0 .5.5.5.5 1 .2-.2.2-.5.2-.8.3.3 1 0 1.1.5 0-.5-.4-1.1-1-1 .3-.3.2-.6 0-.7-.1.4-.6.4-.8.3-.2-.2-.3-.6 0-1z" fill="#337321"/><path d="M3.9 8.1v.3c0 .1-.2.5.2.6.1 0 .2 0 .3-.2 0-.4-.3-.4-.3-.6 0-.1-.2-.1-.2 0z" fill="#f7e017"/><path d="M4.2 8.8c-.2 0-.3.1-.2.5l-.1.6h.6l.2-.2c.1 0 .3 0 .2-.3l.3-.1c-.1 0-.5-.2-.6-.4 0-.1-.3-.2-.4-.1z" fill="#f7e017"/><path d="M2.2-2.5l.2-.3m2 1.8c0-.1.2-.1.4 0M4.2 9.8v-.5m.3.4a.7.7 0 0 1-.2-.3m.4.2l-.3-.5m.5.2L4.4 9" stroke="none" stroke-width=".2" fill="none"/><path d="M10 3c1.5 1.2 1.5 2.1 1.3 2.6 0-.5-.7-1.2-1.2-1.4V3z" fill="#f7e017"/><path d="M7.6 2.4h2.6v3c0 2.6-1.5 4.1-3 4.9a5.4 5.4 0 0 1-2.8-4.9v-3h1.8c0 .2 0 .4.2.6.4 0 .9-.3 1.2-.6z" fill="#337321"/><path d="M10.2 2.4v3c0 .8-.2 1.5-.4 2L7.3 2.9 4.8 7.5a5.8 5.8 0 0 1-.4-2V2.3h5.8z" fill="#006ec7"/><path d="M9.9 7.2a5.5 5.5 0 0 1-.2.5L7.3 3.2 4.9 7.7a5.5 5.5 0 0 1-.2-.5l2.6-4.8 2.6 4.8z" fill="#f7e017"/><g stroke="none" stroke-width=".2" fill="#f7e017"><path d="M8.4 8.9l.3.1V8c0 .4-.5.4-.7.6l.2.1-.7.6V6.9v-1l-.2-.2-.1.2v3.4c-.2-.4-.7-.3-1-.6a.6.6 0 0 1 .3 0C6.4 8 6 8 5.8 7.9v1a.6.6 0 0 1 .2-.1c.2.4 1 .4 1.3 1 .1-.2.7-.5 1.1-1z"/><path d="M7.3 6.9h1l.1-.3c0-.2 0-.1-.1-.1l-1-.1h-1l-.1.2v.2l1 .1zm-.1-1A.2.2 0 0 0 7 6c-.1 0-.2 0-.2.2 0 0 0 .2.2.2l.2-.2c0-.1.2-.1.2 0 0 .2-.2.3-.4.3s-.3-.1-.3-.3c0-.2.1-.4.3-.4h.2V6zM6.3 6.8v-.2-.1"/><path d="M6.4 6.8v-.2-.1m.5.4l.1-.3v-.2M7 7c.1 0 .2-.1.2-.3 0 0 0-.2-.2-.2m.5.5l.1-.3-.1-.2m.1.5l.1-.3-.1-.2m.6.4l.1-.2c0-.2 0-.1-.1-.1M6 8.8a.8.8 0 0 1 .3-.1m2.1.1c.2 0 .3-.3.4-.5"/></g><g stroke="none" stroke-width=".2"><path d="M6.8 4.5l.2-.2h.8v1.1h-1v-.9" fill="#fff"/><path d="M7.6 5.6l.1-.1V4.4H7l-.2.2v1h.8z" fill="#e5e5e5"/><path d="M7.6 5.5v.1h-.8v-1-.1h.8v1z" fill="#fff"/></g><path d="M9 1.8c.2.2.3.4.2.6H9c0-.3 0-.5-.4-.6-.6 0-1.2 1-2.2 1.2-.3-.3-.3-1 0-1.3A4 4 0 0 0 5.7.3a2.7 2.7 0 0 0-.5 0c.1-.4.5-.7.9-.8L6-.7c0-.5 2.1-.3 2.6 0 0 .5.2 2 .4 2.5z" fill="#96877d"/><path d="M6.6 2.1c0-.7-.4-1.4-.8-1.8l1-.1C7-.1 8-.5 8.3-.3a.5.5 0 0 1 0 .3c0-.2-1 .1-1.3.2-.2.1-.3.3-.2.6-.2 0-.1-.2-.3-.3l.1.6-.3-.6c.2.3.3 1.2.2 1.7l.7-.3-.7.4-.2.5c0-.2 0-.7.2-.7zM9 1.8c-.2-.2-.6-.3-1-.2l.3-.1-.1-.7h.1l.2.7h.2l-.2-1h.2c0 .4.1 1 .3 1.3z"/><path d="M9 2.4c0-.3 0-.5-.4-.6-.3 0-.6.3-1 .6H9zM6.5 0a2.2 2.2 0 0 1-.7 0 .8.8 0 0 1 0-.2l-.4.3 1-.1z" stroke="none" stroke-width=".2" fill="#96877d"/><path d="M6.5 1.7l.1.5M6-.5l-.2.4h.7M5.6.3h.2l1-.1c.3-.1 1-.8 1.8-1" fill="none"/><path d="M5.4.1l1-.1c.7-.5 1.4-.7 2-.7" fill="none"/><path d="M10 3c1 .7 1.7 1.3 2 2.3.1 1 .5 1.3 1 1-.2.6-.7.7-1.2.2 0 .7-.2 1.5-1 1.8 0-.4.3-.7.2-1 0-.2 0-.5.2-.7-.4.1-1-.1-1-.7.4.2 1 .3 1.1-.3s.2-1.4-1.2-2.6zm1.3-5.2c.3-.7 1-.7 1.3-.3.7-.5.8.5 1.5.3 0 .2-.3.4-.5.3.2.3-.1.6.4.8-.4.2-1 0-1.2-.6-.2.3-.7.3-.9 0 .5 0 .4-.5.2-.7-.3-.2-.7 0-.8.2zM9-.5a4 4 0 0 0 1.1 1.7c.5.5 1.3.4 1.8 0 0 .8-1 1-1.5.6-.2-.1-.4 0-.2.2.3.3 1.1.5 2 .7 1.6.3 1 1.6.5 1.6.2 0 .3-.2.1-.3-1.4-1.3-4.1-.8-4-3.5-.4.7-1.6.4-1-.4h.6c0-.3 0-.6-.3-.8 0 0 .2 0 .1-.1l.3.1.2.1v-.1l.3.2z" fill="#337321"/><path d="M10.4 1.8c.6.5 1.4.5 2-.3.3-.3.6-.5.8-.5.3 0 .3-.3.4-.3 0 0-.1-.2-.3-.2.4-.1.3-.4.5-.6-.1 0-.4-.2-.7.1.1-.1 0-.3 0-.4 0 .2-.4.2-.4.7 0 .2-.2.2-.2-.2l-.3-1.4c-.2-.3-.2-.9 0-1a.4.4 0 0 0-.1 0c-.3-.3-.7-.2-.8.1-.3.8.5 1.2.4 2-.1-.6-1.1-.7-1-1.3-.4.1-.4.4-.2.6-.2-.3-.7.2-1-.2-.1.5.4.7.8.8-.2.3 0 .6.3.7 0-.6 1.3-.3 1.3.7s-1 1-1.5.7zm1.8 1c1.6.2 1 1.5.5 1.5-.2 0-.5-.3-.5-.5-.4.2-.3.5 0 .7-.7-.1-1 .4-1 .9 0-.3.5-.3.6-.2l.7-.1-.1.5c.6 0 .8-.6.7-.8.8-.7.7-1.8-.9-2zM11 8v.3c-.1.2.1.6-.3.6-.2 0-.2 0-.3-.2-.1-.4.3-.4.4-.6 0-.2.1-.1.2 0z" fill="#f7e017"/><path d="M10.6 8.7c.2.1.3.2.2.6l.1.7h-.4l-.3-.1c-.1 0-.2 0-.2-.2-.1 0-.3 0-.2-.3l-.3-.1c.1 0 .5-.2.6-.4.1-.2.4-.2.5-.2z" fill="#f7e017"/><path d="M10.5 10v-.5m-.3.4a.7.7 0 0 0 .2-.4m-.4.2s.3-.3.3-.5m-.5.2l.5-.4" stroke="none" stroke-width=".2" fill="none"/><path d="M8.7.5c0 1.1.5 1.7 1.1 2.1-.2-.1-.1-.7-.4-.8h.4c-.1-.2-.3-.5-.6-.5h.4C9.4 1 8.9 1 8.7.4zm0-1l-.2-.2-.3-.1h-.1c.3.3.4.6.3.8-.1.2-.4.2-.6 0 0 .6.6.7.8.1l.2.2c.1-.2 0-.6-.2-.9z" fill="#f7e017"/><path d="M7.6-2.9a1.3 1.3 0 0 1-.4-.9c0-.2.1-.5.5-.4-.1 0 0 .2-.2.3l.3-.1.2.1-.1-.3v-.3l-.1.2s0-.3-.2-.3a.3.3 0 0 0 0 .3l-.4.1.1-.4s0-.2 0 0C7-5 6.7-5 6.6-5s-.3 0-.4.1c-.1.2-.5.2-.4.4l-.1.3c-.1.2 0 .3 0 .4 0-.4.7-1.2 1.4-1l-.1.7c0 .3 0 .9.4 1.2h.1z" fill="#337321"/><path d="M7.8-4.2l.4-.2.8.2c.3 0 0 .1 0 .2v.1c0 .1 0 .1-.1 0h-.7c-.2 0-.4-.1-.4-.3z" fill="#cf142b"/><path d="M6.7-1.6c-.1-.3-.6-.7-.8-.8v-.2l.5-.3c.9.4 2-.2 2.5-.8l.2.1v.2l-.2-.1-.7.7h.5c.5-.3.8-.6 1-.6l.2.2-.2.1c-.6.4-1.1 1.3-1.4 1.9-.3 0-1.4 0-1.6-.4z" fill="#96877d"/><path d="M8.2-2.8a.8.8 0 0 1-.2 0l-.6.1" fill="none"/><path d="M6.7-1.7c0-.4 0-.9.3-1 .4.3 1.2.3 1.7 0" fill="none"/><path d="M6.7-1.9H8c.2.1.6.2.5.3M7-2v-.2l-.1.1v.1z" fill="none"/><path d="M7.1-4c-.1-.2-.5-.3-.5 0l-.2.2v.3c0 .2 0 .3.2.4l.3-.3c.2 0 .4-.1.5-.3 0-.2 0-.3-.3-.3z" fill="#337321"/><path d="M6.3-2.4v.3h.1l.3-.2-.3.2.3.2h-.3v.2-.3h-.1l-.3.2.3-.2-.3-.2.3.1v-.3z" fill="#96877d"/><path d="M6.7-1.7a.5.5 0 0 1-.9-.3.5.5 0 0 1 1-.4 1.1 1.1 0 0 0 0 .3.4.4 0 1 0-.5.4.4.4 0 0 0 .4-.3v.3z" fill="#96877d"/><path d="M6.1-1.2v-.2a.3.3 0 0 1 .1 0v-.2l.2.2a.8.8 0 0 1 0-.3l.2.2.1-.3.2.2L7-2l.2.4.1-.2a.3.3 0 0 1 0 .2c.1 0 .2 0 .2-.2a.4.4 0 0 1 .1.3v-.3l.2.2.1-.3v.3l.2-.2v.3a.5.5 0 0 1 .2-.1v.1l.1-.2.2.2a.6.6 0 0 0 .2-.2V-1.2a.3.3 0 0 1 .2 0v.3c-.6-.2-1.7-.2-2.9-.3z" fill="#337321"/><path d="M8-4.1s0-.2.2-.2l.6.2c.2 0 0 0 0 0v.1h-.5L8-4.1z" fill="#f7e017"/><g stroke="#000" stroke-width=".2"><path d="M6.3-.8c-.2.2-.3.1-.4 0v-.3c0-.1.1-.2.2-.1h.3c0 .2.2.3.1.4h-.2zm.7-.3l.2-.2.4.1.1.3c0 .1-.2.2-.3 0 0 .1-.2.2-.3 0V-1zm1.2 0s.1-.1.2 0l.3.1v.3s-.1.2-.2 0c-.2 0-.2 0-.3-.2V-1z" stroke="none" fill="#f7e017"/><path d="M6.4-1.2H7l.1.4h-.3-.2l-.2-.4zm1.2 0h.3s.2 0 .3.2v.3H8s-.3 0-.3-.2L7.6-1zm1 .2H9S9-1 9-.8v.3s-.4 0-.4-.2a3.5 3.5 0 0 1 0-.3z" stroke="none" fill="#337321"/><path d="M6.3-.8c0-.1-.1-.3-.3-.1m.8 0a.6.6 0 0 1 0-.1m.6.2a.5.5 0 0 1-.1-.2m0-.1l.3.1.1.2m.3 0v-.1m0-.3A.7.7 0 0 1 8-1m.5.3a.5.5 0 0 0-.2-.2m.2-.1c0 .2.2.2.2.3M9-1v.2" stroke="none" fill="none"/></g></svg>