<svg xmlns="http://www.w3.org/2000/svg" height="480" width="640"><defs><clipPath id="a"><path fill-opacity=".7" d="M-170.7 0H512v512h-682.7z"/></clipPath></defs><g clip-path="url(#a)" fill-rule="evenodd" transform="translate(160) scale(.9375)"><path fill="#009af4" d="M-256 0h768v256h-768z"/><path fill="#1c8f31" d="M-256 384h768v128h-768z"/><path fill="#efef00" d="M-256 256h768v128h-768z"/><path fill="#ffda00" d="M441.3 178.2l-37.2-20.5 22.1 36.2-30.6-29.4 12 40.7-22-36.3 1 42.4-11.7-40.7-10 41.2-.8-42.4-20.4 37.2 10.2-41.2-29.3 30.8 20.5-37.2-36.2 22 29.4-30.5-40.7 12 36.3-22-42.4 1 40.8-11.8-41.3-10 42.5-.8-37.3-20.3 41.2 10.2-30.7-29.3 37.1 20.5-22-36.3 30.5 29.4-12-40.7 22 36.4-1-42.5 11.8 40.8 10-41.3.8 42.5L404.3 51 394 92.2l29.3-30.7-20.5 37.2L439 76.6l-29.4 30.6 40.7-12-36.3 22 42.4-1-40.8 11.7 41.3 10-42.5.8 37.3 20.4-41.2-10.2z"/><path d="M406.4 128.8a32.4 32.4 0 1 1-64.8 0 32.4 32.4 0 0 1 64.8 0z" fill="#0098f6"/><path d="M400 128.8c0 14.6-11.6 26.4-26 26.4s-26-11.8-26-26.4 11.6-26.4 26-26.4 26 11.8 26 26.4z" fill="#ffd900"/></g></svg>