<svg xmlns="http://www.w3.org/2000/svg" height="480" width="640"><defs><clipPath id="a"><path fill-opacity=".7" d="M-85.6 0H597v512H-85.6z"/></clipPath></defs><g clip-path="url(#a)" fill-rule="evenodd" transform="translate(80.3) scale(.9375)"><path fill="#fff" d="M-256 0H767.4v512H-256z"/><path fill="#239f40" d="M-256 372.4H766.6v139.2H-256z"/><path fill="#cd1738" d="M-256 0H766.6v139.1H-256z"/><path fill="#ff0" d="M159.9 212.3l3.7 12 11.9-.2-10 7.4 4 11.8-9.8-7.6-9.5 7.6 3.9-12-9.8-7.2h12.1zM148 264.2l3.7 12.1 12-.3-10 7.4 4 11.8-9.8-7.5-9.5 7.5 3.8-12-9.8-7.2 12.2.1zm52-94.3l3.6 12.1 12-.3-10 7.4 4 11.8-9.8-7.5-9.5 7.5 3.9-12-9.8-7.2 12.1.1zm54-14.1l3.6 12 12-.2-10 7.4 4 11.8-9.8-7.5-9.5 7.5 3.8-12-9.8-7.2 12.2.1zm54.4 14L312 182l11.9-.3-10 7.4 4 11.8-9.8-7.5-9.5 7.5 3.9-12-9.8-7.2 12.1.1zm40 42.7l3.7 12.1 12-.3-10 7.4 4 11.8-9.8-7.5-9.5 7.5 3.9-12-9.8-7.2 12.1.1zm11.7 51.7l3.7 12.1 11.9-.3-10 7.4 4 11.8-9.8-7.5-9.5 7.5 3.9-12-9.8-7.2 12.1.1zm-85.4-28.3c0 8.6-9.2 15.5-20.6 15.5s-20.7-7-20.7-15.5 9.3-15.6 20.7-15.6 20.6 7 20.6 15.6z"/><path fill="#ff0" d="M248.1 246.8H260v55h-11.8z"/><path d="M357.6 297.6c-5.2 11-12 14.8-23.3 14.5-19.8.4-24.2-14-26.8-20.4-7 9.1-11 12.8-22.5 12.6-16.5.3-24.9-9-31-26.8-6.2 17.6-14.5 27-31 26.7-11.6.2-15.5-3.5-22.5-12.7-2.6 6.4-7 21-26.8 20.5-11.2.3-18.2-3.6-22.8-14.6 5.4 15.4 10.7 24 27.2 24.6 14.9.1 21.7-8.5 25-14.4 10.7 5.7 11.8 7 27 6.6 11.4-.4 18-7.8 23.9-14.9 5.8 7.1 12.4 14.5 23.7 14.9 15.3.4 16.4-1 27.1-6.6 3.3 5.9 10.1 14.5 25 14.4 16.5-.6 21.8-9.2 27.8-24.4z" fill="#ff0"/><path d="M204.2 313.5l5.4 7.5 10.3-.3-8 9-15.6.4-4.9-6.5 9-1.5 3.8-8.6m99.4 0l-5.4 7.5-10.3-.3 8 9 15.6.4 4.9-6.5-9-1.5-3.8-8.6m-62.6 4.8h7.1l6-4.7 5.8 4.7h7l-6.3 9.4h-13.3l-6.3-9.4zm89.7 33.3c-27.6-5.7-46-8.5-76.7-8.5s-49.2 2.8-76.6 8.4v-11.9c27.4-5.6 45.9-8.4 76.6-8.4s49.1 2.8 76.5 8.4l.2 12z" fill="#ff0"/><path d="M264.8 236c0 3.3-4.8 6-10.8 6-6 0-10.8-2.7-10.8-6s4.9-6.2 10.8-6.2c6 0 10.8 2.7 10.8 6.1z" fill="#fff"/></g></svg>