<svg xmlns="http://www.w3.org/2000/svg" viewBox="0 0 512 512" height="480" width="640"><path fill-rule="evenodd" fill="#3a7dce" d="M-85.3 0h682.6v512H-85.3z"/><path d="M111.8 240.3c-3-6.3-3-6.3-3-12.5-1.6 0-1.9.2-2.8 0-.9-.2-1.2 5.8-4 4.6-.6-.6 2-5-.8-6.8-.9-.6.2-4.1-.2-5.7 0 0-3.5 1.8-6.1-4.7-1.3-1.8-3.1 1.5-3.1 1.5s.8 2-.6 2.5c-2-1.4-3.4-.7-6-2.7-2.4-2 .6-4.3-4.2-6 3.1-8 3.1-6.4 10.8-9.5-4.6-3.2-4.6-3.2-7.7-7.9-4.6-1.6-6.2-3.1-10.8-6.3-6.1-7.9-9.2-23.6-9.2-34.6 3.9-3.7 9.2 12.6 17 17.3l10.7 4.7c6.2 3.2 7.7 6.3 12.3 9.5l13.9 4.7c6.1 4.7 9.2 11 13.8 12.6 5 0 6-3 7.6-3.1 9-.5 13.7-1.7 15.5-4.5 1.8-2.2 6.2 1.3 18.5-3.4l-1.5-6.3s3.3-2.8 7.7-1.6c-.1-2.9-.4-10.6 4-14-2.7-2.9-1-4.9-1-4.9s2.5-2.4 2.8-3.7c-1.3-7 1.1-7 1.7-9 .5-2.1-2.1-1.4-1.4-4.2.8-2.9 5.2-3.5 5.8-5.8.6-2.4-1.2-3.5-1.1-4 1-2.3.1-7.5 0-9.5 8.2-2.3 11-9.2 13.8-6.3 1.6-9.5 3.1-12.6 12.3-12.6 1.3-3-3.3-5.4-1.5-6.3 3-.4 5.4-.2 9 4.6 1.2 1.5 1.4-2.3 2.6-2.6 1.1-.4 3.9-.4 4.3-2.3.4-2 1-4.4 2.6-7.6 1.3-2.5 2.3 1 3.4 6 6.5.3 21.2 1.7 27.4 3.5 4.6 1.2 7.7-1.3 12.1-1.8 3.3 3.4 6.4.9 8 8 2.5 3.9 6.5.4 7.4 1.5 5.2 14.5 22.9 4.7 24.2 5 2.3 0 5 6.4 6.8 6.3 3-.5 2-2.5 4.6-1.7-.7 5.4 5 11.7 5 15.8 0 0 1.3.7 2.6-.5s2.5-4.3 3.6-4.2c2.7.3 3.8.7 6.9 1.3 8.3 2.9 12.6 3.5 15.8 5 1.5 2.8 3 4.3 6 3.8 2.6 1.7.7 4 2.2 4.1 3.1-1.6 4.1-3.3 7.2-1.7 3 1.6 6.2 4.7 7.7 7.9 0 1.5-1.5 7.8 0 17.3.8 3.1 1.1 5.6 4.4 11-.8 5.6 4.2 15 4.2 17.3 0 3.1-2.4 4.8-4 7.9 6.2 4.7 0 12.6-3 17.3 23 4.7 12.3 14.2 30.7 9.5-4.6 11-3 10.1 1.7 21.1-9.3 6.3-.2 8.2-6.4 16.1-.4.5 3.7 6.9 9.4 6.9-1.6 12.6-6.2 7.8-4.7 26.7-12-.2-7.2 14.2-15.4 12.6.5 9 4.7 9.8 3.1 19-6.1 1.5-6.1 1.5-9.2 6.2l-4.6-1.6c-1.6 8-4.7 9.5 0 17.4 0 0-6 .2-7.7 0-.2 2.7 2.6 3.4 3 6.3-.2 1-8.7 6-15.4 6.3-1.7 3.8 4.7 8 4.3 10-7.2 1.4-10.4 10.4-10.4 10.4s3.7 1.6 3 3.2c-2-1.5-3-1.6-6.1-1.6-1.5.4-5.3 0-8.9 6.1-4 1.3-5.8.9-8.8 5-1.3-4-3.2 0-5.6 1.5-2.3 1.5-5.4 5.2-5.9 5 .1-1 1.5-5 1.5-5l-7.7 1.6h-1c-.6.1-.4-4.5-1.9-4.4-1.4.2-5.6 5.9-7 6-1.5.3-1.9-1.7-3.1-1.6-1.2.2-3.6 6-4.5 6.2-.9.2-4.3-3.5-7.3-3-15.1 5.4-17.5-10.8-19.9-1.6-3.2-1.8-2.6-.8-5.8 0-2 .6-2.3-2.7-4.1-2.6-3.7 0-3.5 3.6-5.5 2.6-1.6-7.4-11.5-6.1-12.4-9.2-.8-3.3 4.2-3.3 5.9-5.5 1.2-3.3-1.3-4.5 3.7-7.6 6.6-4.5 2.8-6.3 4-9.7 2-5 2-6.2.4-10.6 0 0-5.2-14.1-6.2-14.1-3-1-3 5.2-7.6 6.9-9.2 3.1-25.6-8-28.4-8-2.6 0-14.6 2.9-14.2-3.2-1.8 6-8.4 1.4-8.8 1.4-6.2 0-3.8 4.8-8 4.6-1.8-.6-20.8-1.7-20.8-1.7v3.1l-12.3-6.3-10.8-3.1c-9.2-3.2-4.6-11-20-6.3v-9.5h-7.7c3-18.9 0-9.4-1.5-26.7l-6.2 1.5c-6.2-8.5 8.6-6.9-4.6-12.6 0 0 .2-9.4-3.1-6.3-.7.4 1.5 4.8 1.5 4.8-12.3-1.6-15.4-4.8-15.4-17.4 0 0 10.2 1.5 9.3 0a77.5 77.5 0 0 1-3-18.7c-.1-2 9.4-7.3 7.6-12.3 1.2-.4 4.6-.4 4.6-.4" fill="#fff"/><path stroke-linejoin="round" d="M527.5 303.3c-.4 1-.4 2.2.2 3 .9-1.4.1-2-.2-3z" stroke="#fff" stroke-linecap="round" stroke-width="2.2" fill="none"/><path stroke-linejoin="round" d="M131.5 179s-2.6-.4-2 1.9c.9-1.8 2-1.9 2-2zm.6-5.3c-1.4 0-3.2-.2-2.6 2 .9-1.7 2.5-2 2.6-2zm9.7 30.2s2.2-.2 1.6 2c-.8-1.7-1.5-2-1.6-2z" stroke="#fff" stroke-width="2.1" fill="none"/></svg>