<svg xmlns="http://www.w3.org/2000/svg" height="480" width="640"><defs><clipPath id="a"><path fill-opacity=".7" d="M0 0h640v480H0z"/></clipPath></defs><g fill-rule="evenodd" clip-path="url(#a)"><g stroke-width="1pt"><path d="M-160.2 33.1l.1 114.2 960 199.4V233.3L-160.2 33.1z" fill="#fff"/><path d="M-160.1 246.7V480h960v-33.3l-960-200zm960-13.4V0h-960v33.3l960 200z" fill="#fdd114"/><path d="M-160.1 146.7v100l960.3 200-.3-100-960-200z"/></g><path transform="matrix(1.1378 0 0 1.138 1.6 -513.1)" stroke="#000" stroke-width="1.6" fill="#cf1126" d="M274.6 617.6h9.5v25.5h-9.5z"/><path d="M415.1 645.7c-.2-33.6 1.1-65.9 3.8-75s6.5-11 11.4-15.6c-11.5-1-24.2 8.6-30 21.4a55 55 0 0 0-16.8-29 52.8 52.8 0 0 0-16.6 29.1c-6-10.7-16.5-22.6-29-21.2 4.4 4.6 8.5 6.3 11.2 15.2s4 41 3 74.6" transform="matrix(.5185 0 0 .5925 120.5 -116.5)" stroke="#000" stroke-width="3.2" fill="#cf1126"/><path d="M414.4 642c-.2-33.6 1.4-62.3 3.7-71.4 2.3-9 6-10.8 11.3-14.7-11.5-1-22.5 1.7-29 17.3a45.5 45.5 0 0 0-16.7-26.5 44.7 44.7 0 0 0-16.5 26.7c-7-15.5-17-19-29.4-17.6 5.2 4.3 9.3 5.9 11.8 14.8s2.9 37.3 1.9 71" transform="matrix(.5654 0 0 .711 102.4 -140.6)" stroke="#000" stroke-width="2.8" fill="#cf1126"/><path d="M343.3 329c-.2-5.5.5-13 1.8-15.9 1.3-2.8 3-5 4.8-7.4-7.6-1-15.4-.5-19.5 10.7a33.4 33.4 0 0 0-11-19c-4.3 3.4-8.1 8.7-10.8 19-4-11.2-11.9-12-19.7-10.7 1.7 2.5 3.6 4.6 5 7.4a45.6 45.6 0 0 1 1.8 16m19.7-195.8v22.9h8v-23h-8z" stroke="#000" stroke-width="1.8" fill="#cf1126"/><path stroke-linejoin="bevel" d="M371.5 415.8c2 1.3 10 2.7 24.5.2 25.2-4.5 25-29.4 64.3-17.8a26 26 0 0 0-23.3-14.9c1.5-5.1 2.7-12.6-.2-17.3-3 6.6-7.6 9.6-11 11.8-1-.6-6.9-5.4-7.5-12.7-1-14.5-8-17.1-8.7-16.7-4.6-.1-32 43.1-90.5 43.4-57.8.3-86.6-43-90-43.4-.7-.4-7.7 2.2-8.6 16.7-.7 7.3-6.7 12-7.7 12.6-3.3-2-7.9-5.1-10.8-11.7-3 4.7-1.8 12.2-.2 17.3a26 26 0 0 0-23.4 14.9c39.4-11.6 39.4 13.3 64.7 17.8 14.4 2.5 22 1.3 24 0" stroke="#000" stroke-width="1.8" fill="#cf1126"/><path stroke-linejoin="bevel" d="M249.5 403.3c-13.7-.5-40.4-21.4-36.6-25.7 1.2-1.2 7 0 17.3 7.2 15 10.3 28 42.8 88.7 42.6 61.9-.3 74.6-32.3 89.7-42.6 10.2-7.1 16.6-8.3 17.3-6.9 3.6 4.1-23.1 25-36.8 25.5" stroke="#000" stroke-width="1.8" fill="#cf1126"/><path d="M230.7 193c-54 57-25 188 87.5 189.9 113 1.2 146-131 89.9-190.1M241.7 195c-28.8 48.5 1.1 133.4 78.1 133.4 77.6 0 106-85.6 77.6-133.7" stroke="#000" stroke-width="1.8" fill="#cf1126"/><path d="M339.5 399.7c4 .9 7.6 5 6.1 9-1.6 5-7.5 6.3-9.7 6-2.5-1.5-1-3.6 6.4-4.4 4.8-1.8.4-5-3.2-6.6-2-.9-1.4-4.4.4-4zm-12.2-1.3c1.9-2 3.4 4.3 3.8 8.7.5 4.3.6 9.7-1.2 10-1 .1-.2-5-1.3-9.7-1.4-5.5-2-8-1.3-9z" stroke="#cf1126" stroke-width=".3" fill="#fdd114"/><path d="M323.1 406.3c4.6 4.4-3.1 17.3-20.2 11.7-1-1.8 6.8 0 12.2-1 10.4-1.6 6-12.7 8-10.7z" stroke="#cb4f46" stroke-width=".3" fill="#fdd114"/><path d="M314.8 397.4c1.8-2 .8 4.5 1.2 9 .3 4.1-.1 9.2-2.1 8.5-1-.5.7-5.2-.4-9.6-1.2-5.5 0-6.5 1.3-7.9zm-11.7-1.7c3.3 0 2.4.8 2.2 9.5-.3 9.8-8.5 10.8-10.4 8.2-1.7-2.1-1-2.8-8.4-2-1.7-.9-1.6-2.6-7-2.2-1.3.3-1.3-2.4-3.8-4-4.4-2.5-5.8 2-14.1-2.8-.6-.3-4-2.4-3.3-6.7.6-5.3-4.2.7-9.6-1.6-1-.5-4.2-1.8-7-4.2-3.8-3.4.3-4 5.5-.6 3.3 2 8-2.7 8.2-7.5.3-5-2.2-6.4 1.7-6.2 2.1 0 1.6 8.8-2 12.6-5 5.4-1.6 4.3.1 4 1.8-.4 10.2-10.7 11.6-9.8 2.1 1.4-6.5 8-4.6 14.3 1 2.8 6.1 5.5 10.4 5.9 5 .8 5-6 7-4.7 2.8 1.9-5.4 5.3 3.2 7.9 2 .5 3-4.3 4.1-4 2.7.3-1.7 5.5 3 6.4 3.4.5 2.5-4.9 4.6-4.6 2.4-.1.2 8.7 6.8 7.8 2.8-.4-1.6-15.7 1.8-15.7z" stroke="#cf1126" stroke-width=".3" fill="#fdd114"/><path d="M242.7 384.2c1.9-.4 5.2-2.2 5.3-5 .3-3.2-4.1-4.4-9.3-3.5-2.8.4-7.5-1.4-10.3-3.8-2.7-3.4-2.7-7.3-6-5.6-2.5 1.1 3.4 7.4 6.3 9 3 1.5 7.6 1.3 7.9 3.5.3 2.3-1.1 5.7 6 5.4zM360 399c-1.1.6-2 10.2 4 10.4 7.6.3 11.4-3.6 13.3-5 3.2-2.3 8.8-7.1 6.2-11.2-1.3-1.5-2 2.7-3.5 5.2-2.1 3.7-9.2 8-14.6 7.4-6.6-.4-4-7.1-5.4-6.8z" stroke="#cf1126" stroke-width=".3" fill="#fdd114"/><path d="M375.6 394.6c-1.5-1.2 3.4-3.1 4-4.9.5-1.8-2.2-3.5-.7-5.5 1.5-2.6 1.6 5 3.6 5.1 5.6.6 1.6 4.2-.5 3.5-2.3-.7-5.5 2.6-6.4 1.8zm-4.3-11.4c-.3 2.5 1.2 3.2 1.6 1.7.6-2.7-1-4-1.6-1.7z" stroke="#cf1126" stroke-width=".3" fill="#fdd114"/><path d="M375.3 380.6c-.9.1-1 3.2.2 3.3 1.2 0 .7 2.2 1.7 2.2 1.3 0 1.4-3.6 0-3.6s-1-1.9-1.9-1.9zm10-.6c-1 1.4-3-5.1 3.8-6 3.2.2 6 5.5 5.7 10.6-.1 2-.2 6.2-1.3 8.3-.8 2-4 8.5-5.5 8-1.5-.6.4-3.3 3-7.2 2-3 2.8-11.7 1.8-13.2s-2.1 3.8-4.3 4.9c-1.8 1-3.7-1.8-4-3.1-.2-1.6 1.2-2.6 2.2-.7.8 1.4 3.2-1.4 3.1-3.4 0-3.2-2-.6-4.4 1.8zm14.7-14.5c-.9 1.2-3.8 4-4.4 5.1s-.6 3.1.3 5c1 2 3 5 2.6 7.7-.4 2.8-2.3 8.5-1.2 8 1-.5 3.6-6 3-10.4-.6-4.2-2.6-6.6-2.2-8 .4-1.4 2.8-4 3.2-5.9.5-1.8-.3-6.6-1-7s-3 .5-2.2 2c.8 1.7 2.4.7 1.9 3.5zM403.9 367.7c-1 1-.5 6.2 1 4.4 1.3-1.9-.2-5.3-1-4.4zM376 407c-.5 2.2 1.8 3 2.4 1.6.8-2.4-1.5-3.7-2.4-1.7zM379.5 405c-.7 1.9 2.6 2 3.5 1 1.1-2.1-2.2-2.7-3.5-1z" stroke="#cf1126" stroke-width=".3" fill="#fdd114"/><path d="M242.2 377.6c-1.7-.8-1.6 2.8-.8 3.7.8 1 5.7-1.5.8-3.7z" stroke="#cf1126" stroke-width=".3" fill="#cf1126"/><path d="M320.2 182.7c-17.8 3.6-30 14-24.3 17.5 3.5 2.3 20-4 23.4-9.5 6.3 9.6 23.4 13.2 27.5 11" stroke="#000" stroke-linecap="round" stroke-width="1.8" fill="#cf1126"/><path d="M228.2 177c3 4.6 18.2 15.6 29.1 16.4 11 .8 35.9 5.9 40.7 3.8 4.8-2.2 18.5-11.6 22-10 3.4 1.7 23.8 12.9 31.3 12.6 7.5-.2 55.9-13.9 57.5-16.6 1.6-2.6-9.6-9.6-16.9-9.6-7.2 0-163.7 3.8-163.7 3.5z" fill="#cf1126"/><path d="M270.8 199c0 2.8 2.2 4.8 7.2 4.9 8.5.1 22.8-3.9 31.4-13.5" stroke="#000" stroke-linecap="round" stroke-width="1.8" fill="#cf1126"/><path d="M245.4 195c-.5 2.3 3.3 5.3 10.7 5.4s33.3-3 41.6-11.7" stroke="#000" stroke-linecap="round" stroke-width="1.8" fill="#cf1126"/><path d="M227.9 188c-4 5.2 8.6 7 16.2 7 7.6-.1 27.2-.2 36-6.8" stroke="#000" stroke-linecap="round" stroke-width="1.8" fill="#cf1126"/><path d="M214 179.5c-3.8 5 9 9.4 24.5 9 14.3-.3 28.8-5.2 28.8-5.2m100.4 15.8c-.1 2.7-2.2 4.7-7.3 4.8-8.4.1-22.8-3.9-31.3-13.5" stroke="#000" stroke-linecap="round" stroke-width="1.8" fill="#cf1126"/><path d="M393 195c.5 2.3-3.3 5.3-10.7 5.4s-33.2-3-41.5-11.7" stroke="#000" stroke-linecap="round" stroke-width="1.8" fill="#cf1126"/><path d="M410.5 188.2c4 5.1-8.6 6.8-16.2 6.7-7.6 0-27.2-.2-36-6.7" stroke="#000" stroke-linecap="round" stroke-width="1.8" fill="#cf1126"/><path d="M424.5 179.4c3.8 5-9 9.5-24.5 9.2-14.3-.4-28.9-5.3-28.9-5.3" stroke="#000" stroke-linecap="round" stroke-width="1.8" fill="#cf1126"/><path d="M244.5 179c-19.7 2.9-28.8 1.4-32.8-.5-4.9-2.1-13.3-8.7-.9-9 8.3-.1 12.4.5 21.8.5 24-.3 58.6-19.2 69-19.3 9.8-.1 12.4 4.4 18 4.5 5.6 0 7.4-4.6 17.2-4.5 10.5 0 45 19 69 19.3 9.4 0 13.6-.6 21.8-.4 12.4.2 4 6.8-.9 9-4 1.8-13 3.3-32.7.4" stroke="#000" stroke-linecap="round" stroke-width="1.8" fill="#cf1126"/><path d="M319.2 108.2c-9.3.5-22-1-26.2 9.3-6.2 11.8-4.5 25.2-1.7 25.5 5 .6 5.5-13.4 7.7-13.4s2.2 12.1 6.6 12c3.3 0 5.3-12.2 6.3-12.1s3.2 11.6 7.3 11.6c4.4 0 6.3-11.5 7.3-11.6s3 12 6.4 12.1c4.3.1 4.3-12 6.6-12 2.1 0 3 13.9 8 13.3 2.9-.3 4.3-13.6-2-25.4-4-10.4-17.1-8.8-26.3-9.3z" stroke="#000" stroke-width="1.8" fill="#cf1126"/><path d="M296.9 112.5c2.5 4.2 21.9 4 23 4s18 .3 22-3.8m-26.3-43.9v41.3s.3 2.3 3.7 2.4 4-2 4-2.3l-.2-41.4" stroke="#000" stroke-width="1.8" fill="#cf1126"/><path d="M319.7 73.6c15.5-.8 20.1 8.4 24.5 10.4s6.4 2.8 12.4 2.4c6-.4-10.4 10-10.4 10.3l6 10.8c-5.6.8-16.2-4.4-20.3-7.2-4.8-2.8-10-1.2-12-1.6l-.2-25z" stroke="#000" stroke-width="1.8" fill="#cf1126"/><path d="M313.4 264.7c0 4.3-3.9 7.8-8.7 7.8-4.8 0-8.7-3.5-8.7-7.8 0-4.4 4-7.9 8.7-7.9 4.8 0 8.7 3.5 8.7 7.9z" transform="matrix(1.0322 0 0 1.092 4.8 -228)" stroke="#000" stroke-width="1.7" fill="#cf1126"/><g stroke="#cf1126" stroke-width=".4" fill="#fdd114"><path d="M223.2 266c-1.2 1.7-2.2-2.7-6.3.4-2.3 2-3.2 5-3.2 11.2 0 5.3 3.1 8.9 4.9 8.5 2.7-.3 1.3-6.8 4.3-8 4.2-2 10.3 1 11.3 5s-2 8.1-5.3 7.6c-1.9-.7 1-3.4 1.3-4.6.2-1.2.6-5-2.2-6.1-2.9-1-2.4 2.8-2.5 3.9-.1 1-2.2 4.4-4.4 4.2-2.3 0-5.8 0-9.4-3.9-1.8-2-4.1-7.2-2.1-13.8 2-6.7 5.4-7.2 7.3-7.4 2 0 6.8 1.1 6.3 3zm-4.8 27.6c-2-1 .7-5-4.4-3.6-2 .6 3 6.6 5.3 6.8 2.5-.2 1.8-1.9-1-3.2zm5.4 3.2c1 4.8 2 4.4 2.3 6.9 0 3-5.3 1.7-6 3.2-.7 1.4-1.6 5 1.8 5.3 3.4.2 8.4-1.1 9.4 1.3 2.6 6.7 8.3 5.7 11 4.7 3-1.2 10-7.6 11.7-8.1 2.4-1-2.2-2.7-5-.3-.7.7-6.6 6.8-9.7 6.9-2.2.2-5.7-5.5-5.5-7.5.2-1.4 5.4-.2 6.1-3.2.6-2 .6-4.4-1-4.5-1.7 0-9.5 1-9.8-.2-1.4-3.4 1.5-4.9.4-5.8-1.2-.5-5.6-1.2-5.7 1.3zm26.3 18.8c-2.5 2.6-9 6.8-9 9.8 0 1.7 1.8 4.3 3.3 5a9 9 0 0 0 8.4-1.4c3-2.5 4.4-5 3-5.4-4.5-1.3-4.6 5-6.7 5.2-2.1.2-5.3-3.2-1.1-7.3 4.1-4.2 9.9-8.4 9.7-9.5-.2-1.2-5.8 1.8-7.6 3.6zM239.4 333c-.2 1.7 4.2 1.7 5 .2.6-1-4.8-1.9-5-.2zm15 1.1c-2.6 2.7.2 5.6 2.1 8 1 1.4 3.5 2.7 5 3.3 2.3.9 6.8.6 9.5-1.5 3-2.4 3.2-6.7 1.4-6.7-4.7 0-1.4 6.2-3.6 6.4-2 .2-8-1.1-10.8-7.1-1.6-3.6 3-4.2 2.3-5.8-.7-1.6-4.2 1.6-6 3.4z" stroke-width=".3"/><path d="M266.6 334c1 1.3 4.2-1.6 3.9-3.3-.3-1.2-5 1.9-4 3.3zM273.2 346.4c-.2 2 .4 4.5-1.9 4.6-2.2 0-5.1-3-7.4-2.9-2.2.1-3.2 1.9-3 2.8.3 1 4.3 2.1 11 1.7s5.2 3.6 9.9 3.3c4.7-.4 5.4-2 5-3-.3-1-4.3-.3-5.8-.6s-4.1-2.6-4.4-4.6c-.4-2-.4-5.5 1.3-5.5 3.3 0 1.8 3 1.9 4 .1 1 1.2 1.9 2.6.2 1.9-2.2.9-5.8-1-7s-7.9 2.3-8.2 7zm16.6.3c-.4 3.5-2.8 3.7-2.5 5 .3 1.4 1.2 1.9 1.8 5.5.3 1.7 2.5 2.5 5.3 2.3 2.3 0 3.8-3.1 5.3-3 2 0 .3 4.8 5.2 4.8 4 0 4.9-3.4 6.3-3.5 1.4-.1 1.2 3.9 4.4 3.9s4.6-3.7 6.1-3.7c1.6 0 1.6 3.9 6.4 3.6 4.8-.2 8.3-1 9.5-1.9 1-1 1.6-4 3.2-4.3 1.5-.1 4 3 6.1 3s6.7-5.5 8.1-5.6c1.4 0 2.6 3.4 5.7 3.4 4.9 0 5.4-6.4 7.7-6.7 4.1-.4 4.3-2 4.5-2.5.4-1.2 0-7-1-9.5-.4-1.4-5.6-13-8-13.3-2.3-.3-1.6 3.1-.2 5.1 1.4 2 8.5 11.3 7.5 14-1 2.7-6-1-10-1-5.5 0-9 11.2-12.9 11.6-1.7.2-3.5-1.5-3-2.7 1.2-1.8 2.5-6-1.8-5.3-4.4.6-8.8 2.6-8.1 5 .7 2.3 3.3 4.6.4 5.6s-7.8 1.2-10.3.4c-2.4-.8-1-6.3-2.4-6.3-1.6 0-1.7 6.5-4 6.7-2.4.1-4.5-.8-5-2.7-.6-1.8.8-4-.7-4.3-1.6-.3-3.2 7.2-5.5 7s-2.5-.6-3.8-2.1c-1.4-1.5 1.2-6.6-1.2-7-2.3-.4-4.7 7.5-6.2 7.4-1.6 0-4-.2-4.7-1.7-.3-.8-.2-5.7-.1-7.7 0-1-2.3-.5-2.1.5zm79-21.3c4.4 6.5 8.2 15.3 10.6 15.8 1.6.2-5-11.8-7.1-14.5-1.9-2.8-7.1-7-3.4-1.3z" stroke-width=".3"/><path d="M342.2 613.7c-1.2 2.3-.8 4.5 1.2 4.2s4.5-4.2 3.8-4.9-3.5-1.4-5 .7z" transform="matrix(.5597 0 0 .689 97.9 -81.5)"/><path d="M381.5 328.3c0 3.5 2.5 7.5 7 7.2 4.7-.2 9.8-5.3 10.2-10.6s-6.1-9.1-7.8-8c-1.6 1.1.7 5 4.8 5.3 1.8.1 1.2 3.6-2.2 6.3-3.6 2.9-8.9 2.8-10.2.9-1-2.8-1.9-2.8-1.8-1.1z" stroke-width=".3"/><path d="M384.3 317.6c-.7 1.4.7 4.6 2.2 4.5 1.6-.2-1.7-5.4-2.2-4.5zm13.6-2.5c.9 2.1 2 5.3 3.9 5.3s3.4.5 3.4 2.1-5 7-5.1 8.8c-.3 3.1 2 3 3 1.3 1.2-1.7 4.1-9.6 4.7-11.8.3-1.8 2.4-5 2.5-8.4-.1-3.8 3.4-.7 5-.6 1.6.1 3.3-2.7 3.5-4.8.2-2-1.6-2.4-1.6-4.2 0-1 2-4.4 2-6.6.3-1.9-3.7-7.5-5.4-7.4-1.4 0-.2 2 .6 3 .8.9 2.8 2.7 2 4.3-1.2 3.1-7.7 4-8 7.3-.3 2.4.3 10-1.7 10s-3.6-4.7-6.6-4.7c-3.5-.1-3 4.8-2.2 6.4zm5-28.9c.1 1.4 3 7.3 4.7 7.3 2.4 0-1.1-2.8-1-3.8s3.8-2.6 2.3-3c-2.5-.7-6-2.3-6-.5zm-.2-7.6c.5 1.9 8.4 4.8 11.7 5.7s7.5 5 9 3.7c1.6-1.3-10.3-6-12-6.7s-9-4.6-8.7-2.7zm23.7 12.3c2.9 0 1.3-5.7.6-7.1-.8-1.4-1.9 2.6-1.7 3.8.1 1.2.2 3.2 1 3.3zm-17-28.8c-.1 1.3 8 .4 11.8 1.4 1.6.5 7.1 3.5 8.2 2.7 1.1-1.5-7.6-4.8-12.5-4.8-1.7 0-7.6-.8-7.6.7zm-2.2 3.8c-1.5 1.5 4.9 3.3 10.5 3.5 5.7.2 9.3 3.6 8.8 6-.8 4.2-7.8 1.5-7 3.8.6 1.7 3.7 1 4 3 .3 1.9 2.2 2.2 2.1-.1 0-1.9 4.4-5 4.3-5.8-.2-1.8-2.9-8-9.6-8.6-6.7-.7-11.3-4-13.1-1.8z" stroke-width=".3"/></g><path d="M227.2 307c-1-.5-4.2 2.3-3 3 2.2 1.2 4.3-2.3 3-3zm6.9-3.5c-1.6-.2-2.3 3.2-1 3.4 3.3.4 4-3 1-3.4zm168.5 9.3c-.8 0-3 1-2.3 2.7.8 1.6 3.1 1.6 4.2.7 1-.9.7-3.3-2-3.4zm9.1-7c.3 1.8 1.6 1.5 2.6 1.1 1.2-.5 1.5-2 .4-2.6-1.2-.6-3.2.2-3 1.5zm-52.9 41.4c-1.5 3.5-.2 7 2.3 6.3s5-5.5 3.2-7-4.4-1.6-5.5.7z" stroke="#cf1126" stroke-width=".1" fill="#cf1126"/><g fill="#cf1126"><path d="M146.5 202.7c-5.8-.6-19.2-3.2-19.7-.6-.5 2.7 7.2 34 11.2 38 4 4 22.7 12.5 24.6 11.4 1.8-1-3.8-20.5-6-24a98 98 0 0 1-8-16.6c.6-.5-2.3-8.2-2-8.2z"/><path d="M134.8 201.6c1.4-7.5 10.2 1.4 9.3 11.2-.4 3.3 1.4 7 3.2 8.8" stroke="#000" stroke-width="1.8"/><path d="M142.3 202l-.3.4c4.4-7.5 8.6 3.1 9.2 15.3m-24-17c-.2-6 9.6-7.8 9 14.2a32.8 32.8 0 0 1 9.6 17.2c3.3.7 8.6 4.7 10 8" stroke="#000" stroke-width="1.8"/><path d="M151.4 322.3c.5-16.7.7-52.4-1-56.3-3-7.2-18.6-15.5-23.3-26.8-4.7-12-8.7-39.2-6.8-42.5 2.5-4.7 10.9 5.8 8.6 17.4 10.1 12 8 19 9.9 20.5 6.2 4.8 15.7 8.1 17.4 12.4 3.5 7.7-.8-10.9-3.5-14.7-2.8-3.7-7.6-12-4.3-14.1 3.3-2 9 3.3 9.8 4.8s8.6 10.1 10.9 12.1c4 3 14.3 9.8 14 15.7 0 9.4.9 71.2.9 71.2m-34.5 22.4v6.8c2.9 3.6 15 4 17.8 4 2.7-.1 14.1 0 16.8-4.3l.1-7.3" stroke="#000" stroke-width="1.8"/><path d="M149 334.4c-3.4.8-4.3 4.9-1.9 7.9 2 2.4 10 5.2 19.1 5.4 9.2.2 21.4-3 22-8 .1-5-4.6-4.8-4-4.6" stroke="#000" stroke-width="1.8"/><path d="M149 325.1c-3.4.8-4 5-1.6 8 1.9 2.4 10 5.8 19.2 6 9.2.2 20.8-3.5 21.4-8.6.2-5-3.3-4.6-3.6-4.5" stroke="#000" stroke-width="1.8"/><path d="M168.1 330.3c12.2.2 20-5.8 20-9s-3.9-3.4-6.3-2.4c-2.5.9-6.2 3.3-14 3.3-8.1.3-15.3-5.6-17.7-5.4-2.4.2-4.3 2.8-3.6 5.6 1 2.8 9.6 8.3 21.6 7.9z" stroke="#000" stroke-width="1.8"/></g><g fill="#cf1126"><path d="M493.5 202.7c5.8-.6 19.2-3.2 19.7-.6.5 2.7-7.2 34-11.2 38-4 4-22.7 12.5-24.6 11.4-1.8-1 3.8-20.5 6-24a98 98 0 0 0 8-16.6c-.6-.5 2.3-8.2 2-8.2z"/><path d="M505.2 201.6c-1.4-7.5-10.1 1.4-9.3 11.2.4 3.3-1.4 7-3.2 8.8" stroke="#000" stroke-width="1.8"/><path d="M497.7 202l.3.4c-4.3-7.5-8.6 3.1-9.2 15.3m24-17c.2-6-9.6-7.8-9 14.2a32.8 32.8 0 0 0-9.6 17.2c-3.3.7-8.6 4.7-10 8" stroke="#000" stroke-width="1.8"/><path d="M488.6 322.3c-.5-16.7-.7-52.4 1-56.3 3-7.2 18.6-15.5 23.3-26.8 4.7-12 8.7-39.2 6.8-42.5-2.5-4.7-10.9 5.8-8.6 17.4-10.1 12-8 19-9.8 20.5-6.3 4.8-15.8 8.1-17.5 12.4-3.5 7.7.8-10.9 3.5-14.7 2.8-3.7 7.6-12 4.3-14.1-3.2-2-9 3.3-9.8 4.8s-8.6 10.1-10.9 12.1c-4 3-14.3 9.8-14 15.7 0 9.4-.9 71.2-.9 71.2m34.5 22.4v6.8c-2.9 3.6-15 4-17.8 4-2.7-.1-14.1 0-16.8-4.3l-.1-7.3" stroke="#000" stroke-width="1.8"/><path d="M491 334.4c3.4.8 4.3 4.9 1.9 7.9-2 2.4-10 5.2-19.1 5.4-9.2.2-21.4-3-22-8-.1-5 4.6-4.8 4-4.6" stroke="#000" stroke-width="1.8"/><path d="M491 325.1c3.4.8 4 5 1.6 8-1.9 2.4-10 5.8-19.2 6-9.2.2-20.8-3.5-21.4-8.6-.2-5 3.3-4.6 3.6-4.5" stroke="#000" stroke-width="1.8"/><path d="M471.9 330.3c-12.2.2-20-5.8-20-9s3.9-3.4 6.3-2.4c2.5.9 6.2 3.3 14 3.3 8.1.3 15.3-5.6 17.7-5.4 2.4.2 4.3 2.8 3.6 5.6-1 2.8-9.6 8.3-21.6 7.9z" stroke="#000" stroke-width="1.8"/></g></g></svg>