<svg xmlns="http://www.w3.org/2000/svg" width="900" height="600"><path fill="#ffd520" d="M0 0h900v600H0z"/><path d="M0 600h900V0z" fill="#ff4e12"/><g stroke="#000" stroke-width=".5"><g fill="#fff"><path d="M481.7 187.6c-5-1.8-8.2.8-8 7.2.2 6.5 3.5 10.2 8.5 7.8l-.5-15zm4.4-12c-4.1-3.3-8-2-10 4.2-1.8 6.2.2 10.7 5.7 10l4.3-14.3zm7-11.7c-3.6-4-7.7-3.2-10.6 2.6-2.8 5.7-1.6 10.6 4 10.8L493 164zm-4.6 56.7c-6.1 2.2-6.8 10.6-2.9 15.8 3.9 5.1 11 6 14.8 0l-11.9-15.8zm-7-17.7c-5.9-2-11.1 5.8-12 12.9-1.1 8.8-13.7 11.7-6.8 25 1.5-8.5 7.1-13.1 11.6-13.5 4.5-.3 11.3-1.2 14.2-6.7l-7-17.7zm18.3 34.4c-6.8 1.6-7.8 10.7-3 17 4.2 5.6 17.1 4.3 16.8-1.2l-13.8-15.8zm19.1 54.3c.4-5.8-9-8-13.5-7-4.5 1.2-13.1-.1-15.1-5-1.6 4 .7 8.1 7.2 10.2 5 1.6 4.9 5.2 3.4 6.8 3.7.6 14.7.6 18-5zm-5.3-37c-6.6-3-10.5 1.5-13 5.8-3.7 6.2-15.2-1.8-19 6.6 5.2-2.3 10.5 2.5 13 4.1 7.1 4.7 20.8 3.3 22.7-7.7l-3.7-8.8zm3.9 7.7c-6.6 5-9.2 11-9 15 .1 4 5.8 12.8 11.9 13.3 3.5-7.2 5.3-22.5-3-28.3zm-27.4 31c0-2.4 3.6-3.3 6-2.5 2.4.8 6 3.2 4.8 5.8l-10.8-3.3zm-36.4-13.2c-.6-2.8 4-7.8 10.3-5.1 6.3 2.7 7.1 8 4.5 10.1l-14.8-5zm15.3 5.4c-.5-1.7 4-4.9 11.8-3 7.7 2 9.6 7 9.3 10.8l-21-7.8zm-16-5.4c4-3 2.4-8.8-1.2-10.6-6.6-3.2-4.2-11.6-8.4-13.2-4.2-1.6-8.2-4.5-8.3-7.4-2.1 4-.8 7.7 2 10.3 3 2.6-2.2 13 1.5 15.8l14.3 5.2zm-86.4-2.2c-3.3-5.3-11.4-4.3-14.8-.6-3.4 3.7-2.9 9.1.4 11.5l14.4-10.9zM386 270c-1.3-7-9.9-7.9-14.5-6.1-4.7 1.8-8 8.8-4.9 14L386 270zm12.8-1c3.1-6-2.9-14.8-9.6-16-5.7-1.1-12.3-1.1-14.5-6.7-1.4 4.9 2.2 8 6.4 10.7 4.2 2.7-.8 9.8 6 13.8l11.7-1.8zm-.6.3c-1.4-4.3 1.4-10 7.2-9.6 5.8.4 9.1 4.6 6.6 9.9l-13.8-.3zm12.9.3c-.8-4.5 2.8-9.7 8.5-8.5s8.3 5.9 5 10.7l-13.5-2.2zm12.8 2c-.6-4.5 3.3-9.5 8.9-8 5.6 1.5 8 6.2 4.5 11l-13.4-3zm-97.2 73.8c-10.8 0-13.4 2.5-15 13.6-1.9 13.9 17 15.5 15-13.6zm4.9-14.5c-16.6-6.3-25.6 20-42 15.3 5.8 9.3 20 0 25.4 1 9 1.5 28.5-1.9 16.6-16.3zm-10.8 35.9c-8.3-3.7-17.1 8.8-15.5 14.3 2 7 20.8 1.3 15.5-14.3zm-38.4 54c4.6 1.3 10 4 9 12.6-.9 8.7-17.3 26.4-32.1 27.4s-20.2 18.8-32.9 13.8c12-2.2 12-15.8 21.3-20-6.8-2.4-10.3 13-19 13s-12.9 13.8-23.5 12.8-11.8 16.9-33 17c-16.3.2-36.4 19.2-43.6 11 15.7-2.2 22.1-11 31.5-20.6 15.1-15.4 32.2-8.5 38-22.2-7 4.7-15 7-22.9 6.8-9.9-.2-20.7 15.7-31.8 8.7 6.4-.8 10.6-3.6 17.4-10.7 6.9-7.2 17-2.5 25-10 12.6-11.5 23.4-1.9 35.5-16.4-3.4-1.6-10.6-.5-17.4 3-6.8 3.6-15.5-2.3-23.2 1.9 1-9.5 19-4.1 30.3-10.7 12.7-7.4 23.2-5.2 33.3-4.3-14 0-19.5-13.4-38.8-9.5-8.4 1.7-15.1-11.6-23.5-4.8.2-5 9-9 18-4.2s12.7-4.2 30.6 7c7.4 4.7 20.1-2.8 28.2 2.2-1-3.1-5.6-5-11-4.6 3.3-7 25.2-6 34.7.9zm14.4-10.4c-7.1-5.5-17 1.1-23.7-1.5 0 4.5 2.3 11.3 9.7 13.9 2.2-1.6 12.4-10.5 14-12.4zm11-15.6c-11-5.7-13 8.3-21.6 5.4.3 4 3.5 9 10.6 10.2l11-15.6zm6.7-12.8c-16.4-6.4-18.5 9.4-28.2 6.3 2.3 5.5 16.1 8.4 23.2 6.5l5-12.7zm22.5-69c-4.3-6.1-13.5-1.1-15 6.1-1.4 7.3 2.1 17.4 8.3 15.1L337 313zm11.1-19.3c-7.5-1.8-16.2-1-15.3 6.4-2.9 1.3-3.7 10.8 4.2 12.9l11.1-19.3zm5-5c-7.4-8.7-15.6-8.5-20.3-4.8-8.5 6.7-16.8 2.8-17 9.6 5.1-4 9.6.8 13.8-.6 4.2-1.5 7.3 6.6 18.9 3.2l4.6-7.4zm-17.9 129.9c1.2 2 8.1 3 11.5-.5 4.5-4.7-.5-17.7-7.6-18.7-7-1-7.7 14.7-3.8 19.2zm-8 .3c10.1 3.7 14.5-4.7 9-10a101 101 0 0 1-9 10zm-38 13.9c-2 5.8-11.9 6.7-23.2 24.8-11.2 18-22 10.4-24.8 22.8 13.6-11 24.2-3.7 32.2-14.5 12.3-16.4 22.3-14 27-25 6.8-15.9 36.5-15.5 38-40.3-10-2-41.5 24.8-49.2 32.2zm254-243.4c13 4.1 13.2 20.9 28 26.4 14.9 5.4 16.3 18.6 28.4 15.4-11.3-3-10.5-16-22.2-19.3-13.8-3.8-19-24.8-30-28"/><path d="M602.3 276.8c2.3 5.1 2 14.3-6.1 16.7 4.3 2.7 10.8.2 14.3-5.8-5.3 11.8-1.7 22.4 6.6 24.5-4-8.2 5-12 2.1-17.4 5.3 2.3 10 9.5 9.8 14 7-7.7-5.1-18-2.9-25.3l-23.8-6.7zM519 359.5c-7.9-7-11.2 1.8-15.1-1.2-3.6-2.8-8.5-3.2-10.3-.4 6.8.2 3.5 5.5 16.6 6.8-13.1.8-10.7 15.5-19.5 14.8 9.3 8.8 14.2-8 21.7-5.2-2.2.7 3.6 6-.5 13 6.6-.1 9.2-9.1 10-13.8l-2.9-14zm-173.7 75.2c-2.9-2.4-11.2-3.6-14.5-1.6-3.2 2-2 2.4 1.8 2.7 3.9.3 8.9 6.6.5 7-3.9.1-2.6 9.4-10.6 10 3.3 4.1 12.7 1.4 16-3-.6 3.6 4.3 7 2.3 11.3 6 .6 2.5-12 12-11.4-4 .4-2.3 9.1 4.4 6.9-4 2-1.9 6.6 2.6 5.5-2.9 1-3.8 4.6.2 6.7 3.8-5.3-.5-24.3-14.7-34.1zM696 257a22.3 22.3 0 1 0 0-44.6 22.3 22.3 0 0 0 0 44.6zm-116.6 27c6.8-6.5 17-9.7 24.1-5 7.1 5 30.6 10.7 42.2 2.7 11.6-8 17-12.3 22.2-11.3 3.9 5.8 8.6 8.5 14.4 9 1.7 2 8 3.6 11.6 3 5.1 1.4 11.4-.3 16.4-5.7 7.7 1.1 15-4.7 17.7-13.4 8.2-1 8.7-10.1 3.5-16.2-4.8-1-1.1-17.3-18.6-14 7.4 4.5 1.7 13.5 7.8 17.7-4.1 0-9.5 1.7-10.8 8 1.6-4.3-.3-7.2-1.4-8.2.2-3.7-8-12.8-15.8-9.5 5.6 1.2 2.4 10.1 6.5 13.5-3 .2-6 1.6-7.8 4.2-2-3.7-9.5-7.6-14-7.9 0-1.3-.2-3.8-.8-5.1a23 23 0 0 1-2.9-14.4c-3.8 4.2-7 10-9 14.2-6-4.2-21.2 2-28.3 3.5-7 1.7-31-2.2-36.4-8-5.5-5.8-16-9.3-26-12.2-13.8-4-14-19-29-29.3-.4 18.6 28 77.9 34.4 84.3zM421.5 426.2a21.6 21.6 0 1 0 0-43.1 21.6 21.6 0 0 0 0 43.1zM370 409.7c4.4 5.7 11.8 5.4 14.8 4.9 2.6 6.7 10.8 6.6 14.4 10.3 3.5 3.7 15.6 3.4 19.1 1.3-3.2-.4-7.4-2.3-11.4-5.7-4.9-4-2.6-12.2-6.5-15.1 3-3.2 3.4-8.5 2.8-10.6 3-1.8 5.3-4.7 5.6-6.1 5.3-.4 10-3.1 12-5.2 2.7 2.6 9.6-.8 13.3 3.5.8-10.6-9.3-16.2-16.1-12.7-2.7-1.4-10-.5-11.3 1.5-2.2-1-8.5 2.2-11.4 4.3 3.2-1.8 3.7-7 2.4-9 2.7-1.1 5.8-4.8 6.1-7.6 3.9.7 9.7-1.9 12.3-1.2-4.2-5.5-11.1-7.5-18.2-7-7.4.4-10.5 5.6-11.5 11.1-4.3 2.6-5.8 11.3-4.1 14.4-2.5-.1-4.9 2.3-5.8 3.7a33.4 33.4 0 0 0-11.7-2.5"/><path d="M366.3 373.2c-1.4-4.2.5-8 1.5-11.3 2.5-8.4 1-10.6-6.6-9.5-.7 4 3.2 17.3 5.1 20.8zm-5.5-20.3c1.9 2 8.7 2.8 9.5-3.3.8-7-2-9.7-8.2-7-.4 1.6-1 8.2-1.3 10.3zm1.4-10.5c2.6 1 8.2 3.1 11.2-2.8 2.6-5-.8-8.9-6.1-8.6a35.4 35.4 0 0 0-5 11.4zm4.8-11.9c.6 2 7.2 8.4 12 3.7 4.9-4.6 4.9-11.5-2.4-14.1-1.9.3-7.7 7-9.6 10.4zm9.6-10.4c1.5 4 6 11 14.3 7.7 8.4-3.2 4.9-13.7 1-15.8-2.2.2-11.4 4.4-15.3 8zm15.3-8c-.6 3.5 0 13.1 11.4 13 11.5-.2 8.3-13.6 5.4-15.5-4.7 0-12.6.2-16.8 2.4zm17.2-2c-1.2 2.7-4.2 20.7 18.2 15.8 3-.7 10.5-17.3-18.2-15.8zm12.3 1.6c-2.3 2.3 3.5 20.4 18.6 17.4 15.2-3 2.5-20.3-18.6-17.4zm12.9 2.7c-2.5 5 1.2 19.8 19.8 19.8 17 0-.9-19.4-19.9-19.8zm14.6 4.4c-1.2 2.8-2.7 18.5 19.3 19.8 16 1 12-21.6-19.3-19.8zm23.7 6.6c-2.8 4.8-5.7 16.9 18.5 17.9 15.5.6 6-17.6-18.5-18zm20 3.7c-3.5 4.8-.8 14.3 8.1 16 11.3 2.3 13-8.3 5.2-13.4-7.7-5.2-13.2-2.6-13.2-2.6zm11 2.2c-2.5 4.5-1 15.5 16.1 15.5 3.6 0 17.1-13.9-16-15.5zm-132.1 210a25 25 0 1 0 0-50.1 25 25 0 0 0 0 50zM555 177c-1.9 2-5.9 7.8-6.7 10-8.4 25.1 14 43.9 27 70.8a78.7 78.7 0 0 1-7 76c-5.6 7.3-4 9.4-11 16.8-2.7 2.8-5.8 6.4-4.8 16.7 4.5-1.6 11 2.6 12.2 6.1 3.2-1.6 7.7-1 9.3 1 5.5-2.6 10-1.3 14.9 3.9 4.1-.7 8.6 0 12.8 4.5 2.3-4.5 6.8-6.2 10-5.2-.3-5.8 5.5-10 10.6-7.7a9.5 9.5 0 0 1 12.3-11.3c5.8-4.5 17.4-4.8 23.2 2-10.4-3-10 8-18.7 7 2.2 6.5-3.6 10.2-9.4 12.3 3.7-1.8 7.8-3.9 9-1.6 3.3-2.9 9.7-1.8 11.3-.4 4.3-1.3 8.4-.3 10.3 4.9 5.8 3.5 9.7 12.5 5.5 19.3-1.3-7.1-6.1-6.8-8-9.7-4.6 1.6-9 1.6-10.4-1.3-2.5 2.6-11.2 4.9-15 1-1.5 5.8-6.5 10.6-12.3 10.6 1.6 4.5-3 12.3-6.5 16.1 5.5 3 4 9.4 2.6 13.2 8.4 1.3 1.3 8.7 15.8 13.5-7 2.3-21 0-22.9-8.7-7-.3-11.9-7.4-11.6-14.8-5.4-5.1-6.2-12.5 1.3-17.7-6.4 2-10-8.3-19.3-4.2-4.6 2.1-16.9-1.4-16.7-5.7-2 3.2-13.7 1.9-15.3-3.6-3.9 2.1-12.9-1.4-12.7-6.8-5 2.3-11.8-1.7-11.5-6.9-4.6-.6-5.1-4.8-4.8-8.3-4.2-2-3-6-1.4-10.8-3-3.2-1.7-7.8.6-12-3.2-3.2-2.6-7-1.6-11.5-15.5-1.3-34.8-5-79.2-18.7-67-20.6-85 27.7-70.2 58 17 34.9-2 42.4 3.9 68.5 6 1.3 9.3 6.5 9 12 3.6.1 6.2 3.5 4.9 10 3-.6 7 .2 9.6 2.8 2.2-4.2 9.6-5.1 13.5-.3 8.4-.7 12.5 6.1 12.2 14.5 4.5 8 3 17.9-1.9 24.1.5-3.4 0-8.2-.2-11-.3-5.4-7.7-6.5-6.9-10.9-3.8.4-7.6-1.7-8.8-4.6a8.5 8.5 0 0 1-8.3 1.6c4.4 2 7.8 9.6 6.5 14.8 2.2 3.9 1.8 11-1 14-1.3 6.3-6 8.5-12.4 5.8 3.6-2.3 4.9-6.3 4.7-9.7-2.3-1.9-3.4-5.6-3.5-7.9-6.3 1-15-4.3-16.6-6.4a25 25 0 0 0-25 25c-.7-5.1-7.2-10.2-6.4-14.5-3.9-12 1.6-23 17.4-25.3-2-4.5 4.8-9.2 2.2-14.3-3.3-6.6-9.3-15.2-18.3-25.2 5.4-9.3 3.8-21.8.6-29.6-4.6-11-9-8.3-25.4 9.7-26.8 29.4-62.5 21.2-94 40.6-8.4 5-16.8 7-7.8-2s32.9-18 48.3-25.7c29-14.5 53.5-38.7 63.1-85.7 22.7-110.4 106.3-74 159-53.4 49.6 19.3 40.6-24.5 15.5-50.9-30.2-31.7-24.1-56.7-10-76.6 25.5-3.6 74.3 5.3 64.4 13.8zm89.7 271.4a27.6 27.6 0 1 0 0-55.1 27.6 27.6 0 0 0 0 55z"/></g><path d="M539.7 178.4c-6.1 27-1 39.3 8 51.2 18.7 24.6 33.5 80.8 12.3 117.5m11.9-31.7c2.6-1 7.4-4 8.5-9.3m-6.6-2.4c.8-4.7 8-6.7 8.2-11.7m-8-6.5c-.5-4.9 7.2-9.2 6.1-14m-10.3-3.4c-.6-2.8 6.4-8 4.5-12.3m-9.8-4.6c-1.5-3 3.4-6.6 1.3-9.8m-9-3.8c-.5-2 2.5-6.6.8-9.4m-8.6-6.5c.7-.8 3.3-2.7 2.2-5.1m-7.5-6.5c1-.6 4.2-1.6 3.8-4m-165 307.5c-6.4-2.3-14.4 1-16 6.4m4.8 5c.8-5.5 9.2-7.9 11.8-5.3-5.4-3-8 7.4-3.3 7.7m43.3-129.7c-3.8 1.9-5 9 0 14.3m5.8-12.7c-2.7 2.2-2.5 9 1.5 10.6-3.4-2.4 0-6.6 2.4-6.8 2.4-.1 4 2.8 1.1 5.7m221.2 6.4c-9-2.4-16.2 8-8 17.4-.2-9 6.2-15 14.1-13.4m-3.6 6.3a3.4 3.4 0 0 0-3.5 3.4c0 1.8 1.6 3.5 4 3.5 1.7 0 3-1.9 3-3.3m28.3-201.3c1.4 5.5 9 7.8 15 6.5m0-3.6c-4.7.2-8.6-4.2-8.2-7.9 0 2.8 6.2 4 8.2 2.3M384.8 414.6c-1.3-3.3 3.9-6.5 4-9.5.2-3 5.8-5.5 11.6.3m-2.7-34.3l-3 1.5m14.1 16c-1.3.1-4.2 0-5.7-1m0 7.2c-1 .5-3.5 1.5-5 1.8M348 492c-.2 2.9 2.7 7 4.3 8.4m8.2-15.3c-1.6 2.4-2.5 6.6-1.6 9.5m25.6.1c-2.9-1.9-1-6.9-1.3-10.1-.3-3.2 3.4-8.4 10.6-4m-36.3-4.2c2.9-.5 6-.3 7.9.5m28.8-9.7a10.4 10.4 0 0 0-1.8 5m15.3-5.3c-2.3 0-4.2 1.6-5.2 3.2m-26-85.6c2.5.9 9.2 5 9.5 9.2m17.8-30.2c-7.9-.1-11-8.2-5-8.2m19.2 19c-3 1.3-1.6 6.6 2.7 9.2m-21.5 41.4c-1.6-2 .4-7.6 5.4-5.9m6.3 64.6c.3-4.9 6.5-7.8 9-2.2m-31.8 16.2c-.5-5.4 2.3-7.1 4.7-7.5 2.4-.3 5.9 1.7 7.5 5.3m-60.2 6.3c.3-3.3 3-6.6 6-6.2m288.6-136.8c-2.1 1.5-3.5 8.4 4.5 9m-16.8 2.3c0 .8 1 2 1.7 2.4m36.3 10.5c-2-1.6-7.5 4.9-2.5 9.6M609.2 437c-1.2-4.5 3.1-5.7 7.1-4.8M599 404.4c2.5-1.6 4.9-3.3 8-4.2m-9.3 22c0-4 2-7.1 3.7-8.1m10.5-36.4c-.3 4.7 1.6 9.2 3 11.6m35.3-11.3c-2.3.8-4.4 1.6-5.3 3.6m2.8 9.6c1-1 2.4-2 3-2.9m57.8-137.6c0 4.5-5.6 7-9.3 4m21.5-3.8c2.5 1.9 11.1 0 9.1-5m-19.5 30.9c-1.8-.4-4.9-2.3-6.1-3.9m23.8-9.5c-3 .7-4.8 0-6.3-.6m-39.4 16.7c1.6 0 5.4-.6 8-2M677.4 251c-2-.2-3.6.2-4.8 1m37.3 6.9c-.6 2-2 5.2-3.8 6.5m-34.1.6c4-1.8 9 11.9 18.6 7m.8-14.1c-1.2 1.8-2 4.5-2.2 7m-190.3-28c1.3 0 3.6-.6 4-2.2M333.2 388c4.8 2.7 8.2 7.4 6 14.3m215.3-179c1.4 1 7 1 10-.2m3.9 3.4c-.2 2.2.4 10.8-4 12.5m1.7-1c4 1.2 12 .7 14.7-6.7m-5.7 6.3c2.1 3.2 2.7 9.5-3.5 12.9m5.1-7.6c4.7 1.6 15.5 1.8 14.3-7.4m-3.6 7.4c3.2 4.5 17.3 9.8 15 .5m-28 12.5c5.4 1.3 13.1-2.4 9.9-12m15.4 4.8c.8 3.7 18.9 7.6 16.5-.8m-3.4 4.8c3.4 7.8 21.2 7.1 15.6-3.2m-2.9 8c3.5 4.4 19.3 1.8 13-8.6m-.1 8.5c9.8 7.4 21.2-3.2 8.8-11m5.7 8.6c8.7 6.9 19.3-5.7 11.7-9.2m-80.5 6.3c2.8.8 8.6.5 9.8-4.5m-2.1 3.3c-.4 7.4 12 10.2 15.1 1.7m-4.1 4.6c2.3 4.9 13 6.8 14.8-.1m-1.8 3.2c1.8 4.8 11.1 4.3 13.7-.7m-3.4 3.3c3 6.2 14.8 6.2 17.6-3m-2.1 4c4.7 3 14.7 1.9 13.8-7.2m-1.9 6.5c7 5.6 16.8.2 12-9.3m-.6 16.7c3.7-.7 5.7-8 1.8-10m-87.6 11.3c7.8-4.2 9.2-11.3 3.9-18.2m2.7 11.1c4.9 2.9 14-.2 15.7-7.2m-9 8c2.7 3.5 3.2 7.9-.4 12m2.6-7.5c8.5-5.3 19.1 4.5 11.3 10.5m-1.5-11c2-.5 5.3-4 5.6-8m-1.7 11.7c3.5-3.7 27.7 3.9 12.4 11.6m-1.2-21.7c4.7 1.8 7.1 8.4 0 10.6m6.2 5.5c5.1-5.3 21.2-2 15.4 4.8m-3.9-7c3-9.7 20.2-3.6 14.5.4m-18-10.1c.5 1.9.7 6.7-2.6 9.3m17.1-11.3c.6 1.6.5 4.7-1 6.6m12-6.4c1 1.8 2.5 5.2-1 7.9m-136.9-82c.2 9.2 3.4 15.3 15.8 9.5m-11.9 1.5c-6.1 8.2.8 17 12.9 8.2m-31.7-4.2c8.3 9 23.3 2.4 13.7-11.2m10.1 19c-1.6 8.8 5.6 10.6 11.6 6.6m-42.8-13c1.5 9 10.6 16 19.4 10.5m-8.5 1.8c0 12.7 17.6 14.2 21.6 1m-6.3 8c5.6 11.6 17.9 7 21.9-.1m-34.3-18.4c2.3 5.6 6.8 12 17.2 7.3m-49.4-10c1.5 4.6 9.8 10.3 19.5 3.8m-13.5 2.1c-5.2 7.6 5.1 14.7 17.5 3.4m-11.4 6c2 10.6 6.3 19.1 21.4 5.4m-7.6 5.5c5.5 6.8 13.9 11 21.8-.5m5.8 2.4c-.5 8 1 12.1 7.4 11.8 5-.3 9.6-4.2 12.4-8.4m-13.6 8.4c-.1 9.2 7.1 16.4 20.6 7m-15 3.8c-2.5 6.9 5.2 18.2 20.4 12.4m-52.4-30.8c-1 8.9 7.3 14.8 20.5 3.4m-14 6.5c.5 7.2 8.7 15.9 20.7 3.3m-15 5.8c-.9 12.4 10.5 16 20.2 6.5M509 250c2.5.1 4.6-2.1 5.9-3.8m-.5 12.8c2.3.4 6.1-1.7 7.4-4.2m-1.7 18.8c2.5 2.7 11.2.8 12.4-2.9m-2.8 2.8c4.8 11.2 17.7 10.7 23-2m-2.4 4.5c2.4 6.6 8.6 10.8 18.5 8.6m-13.6-1.8c-5.7 9.2 1.7 20 14.3 9.3m-11.3 4.4c-.6 5.8 4.7 12.4 12 13.2m-35.8-30.1c-2 13 7.4 19.3 19.1 12.4m-32.8-6.2c3 2.5 8.5 2.8 13.7.9m6.3 7.5c-3 11 8.3 18.9 18 6.6M525 287.7c.2 5.7 5.7 11.8 15.2 10m26.5 11.3c-6.4 4.3-7.7 12 1.3 17m-17-19.3c.3 6.6 3.3 10.3 10.6 11m-20.1-14.4c-9.7 8.9-.2 19.2 11.2 10.5m-4.5 2.7c-3.2 10.2 8.9 16.3 15.3 6M528.3 295c-3.6 10 1 16.5 9.1 15.9M515.5 293c.5 6 5.7 8 11.5 6.8m-7.8-.5c-4.3 8.4 2.3 12.9 11 9.7m26.4 18.6c-1.4 5.4-.6 9.2 7.2 11m-6.7-3.4c-9.5 4.4-10.3 13.5-3 19.5m-4.7-29.7c-5 4.5-4 12.3 1.5 15.4m-43.7-44.8c-5.5 5.4-.3 20.3 11.8 12.2m19.6 6.6c-7.4 6.2-4 17.3 8.2 14.2m-20.5-18.8c-3.8 11-.1 14.8 8.6 15M499 295c-6.6 5-4.8 12-1.9 15.3 2.9 3.2 8.4 1.8 10.1-2.4m-22-17.2c-7.4 9.5 0 20.7 10.4 17.4M525 319c-7.6 2.7-13.3 9.6-8.7 15.6 2.7 3.5 14.6 4 18-9.7m-23-14.8c-4.3 6.3-2.9 12.2 5.2 15.3m-5.7-3.5c-4.7 2.5-7.7 5.6-6.6 11.2m-3.8-21c-1.8 7.5.3 12.2 5 14.4M500 321c-7.2-.4-11 2.6-8.5 9.7m.6-7.9c-7-2.6-8.2-8.7-5.1-15.1m-1 9.5c-7.7.3-11.1 4.2-11.1 9.5m.6-39.6c-5.6 2.4-7.4 10-5.3 14.1 2.1 4.2 8.7 4.5 12.7 1.8M460 281.1c-5.2 5.8.8 17 10 14.3m-23.3-18.8c-4.8 6.8.5 18 13 14.8m.6 31.4c-1.3-8 7-13.4 17.4-2.9m-5-16.2c-3 2.7-4.5 7-4 10.6m-35.2-41.6c-5.3 9 1.2 17.3 12.6 14m17.2 8.4c-7.5 7.6-5 15.2.7 19.5m-5.5-10.6c-11.4.1-12 13.3-2.7 17.5m-6-30.7c-4.7 3.2-6.1 12 2 15.6m-2.3 4.2c-4.8-2.3-10.6.5-10.2 6.1m3-6c-4.4-10.3-17.1-8.5-16 2.1m19.5-14.8c-2.8.5-8.2 2.1-10.3 6.3m.8-17.9a8.8 8.8 0 0 0 3 14.2M421 270.2c-1 6.9 1.8 10.3 10.5 9.6m-7.4-.8c-3.4 8.4 1 12.1 9.8 11.6m-8-1.3c-5 6.1-1.5 12.7 3.5 15.5m-5.8-7.7c-9.2-1.2-10.7 9.5-7.6 14.4m.2-42.1c-5.7 2.4-8.9 9.5-5.8 13.8 3 4.4 9.1 3 12.5.7m-10.6 1.2c-4.7 7.1-.5 12.4 4.5 14.5m-22.5-31c-3.7 3.8-1.5 11.7 7.5 11.9 7.3.1 11-6.8 8.7-11.6m-10 11.6c-2.8 6.4-1 13.3 9.9 12.2m4.6 10.2c-6.7-3.1-15.7 0-11.9 8m-1-19.5c-2.7 3.9-1.7 9.4 1.3 12.7m-1.7-2.4c-4.5.8-8.9 3.2-6.1 10.3m-.7-5.8c-5.8-1.7-13.2 2.4-8.7 8.4m-1-5.6c-5-.8-10.9 4.5-6 9.8m-2-4.4c-4.5 1.2-9.8 6.3-5.1 10.3m27.8-35.5c-6.4 2.9-7 10.1-4 15.4m-2.8-28.8c-9.6 3.7-9.5 16.6 1.2 20.6m-4.5-2.9c-5.8 3.4-7 9.8-3.1 14m-7-36.5c-4 1.3-3.6 13.2 6.7 12.9m-17.4-8.9c-7.7 5.2 1.6 18.2 14.2 8.9m-7 3.2c-1 5.3.4 11 8.9 11.7m-8.4-4.6c-6.1 2.2-7.2 14.8 3.9 15.7M357 282.7c-7.8 7.3 6.5 13.6 11.8 3m-22.7 9.1c-3.9 4.7 9.7 16.9 15.6-3.5m1.5-.4c.3 4.9 3.2 7.8 9.1 8m-.1 4.8c-9.5 1.4-12.6 13.3-2 15.9M354.7 302c-.3 4.6 4.4 8.3 9.7 7.5m4.8 9.8c-8.7 1.9-9.8 13.2-2 12.5m-4.1 10.5c-7.2-2.2-7.4-10.8-1-14m-5 6.4c-6 3.7-3.7 12.6-.4 13.9 3.2 1.3 5.8-.4 6-3m-.4 12.3c.6 4.2-14.9 2.6-7-10.5m0 11.2c-5.2 8.2 3.3 15 8.7 8m-8 2c-2 6.5 5.9 11.3 11 6.1m-28.4-68c-2.9 6 11.6 8.2 12.6-4m-16.6 12.9c-2.9 11.6 19 9.1 13.4-5.8m.4 7.7c3.1 1.8 12.3 2 14.5-7.9m-6.6 8.2c.7 3 3.4 6.8 6 8m-16.4-5c-1 6.4 5.3 11.5 12.5 11M347 327c-3.5 4.8-4.7 14.2 6.4 14.8m-23.3-13.2c-1.8 5 8.7 10.2 14.8 2m-18 10.7c-1 3.8 8.5 8.9 13.8-7.2m-4.2 8.2c2.3 4 9.9 7.2 14.5-.7m-7.5 4.9c-2 5.6 3.3 11 9.8 9.3m-22-10.6c-1.2 8 8.1 12.7 14 8.5m-20-5c-2.8 10.3 10.4 14.2 15.4 6.5m-3.3 3c.4 5.8 9.4 10.8 16.5 6m-32.6-1.1c-.7 2.5 10 5.1 11.7-3.9m-5.5 6.1c2.6 6.6 11.3 8.2 16.3.2m-3 3.2c1.2 6.1 9.1 9.5 16 5.3m3 2.4c-1.8 8.2 6.7 14.8 12 10.3M346 375c-2.5 9 8.7 14.1 15 9.1m-28.5-13.6c-.6 8.3 6 13.3 13.5 9.6m-27.8-8.8c-2.3 5.4 9.6 10 15.3 5.3m-22.7 9.6c3 3.6 13.7 0 14.6-7.8m-2.9 5.7c3.9 4.5 13 7 16.8-2.7m-3.2 5c-.2 7 12.2 12 16.2-.8M367 388c-1.1 3.4 1.5 8.8 7 9.4M356.8 386c-.8 3.9 4.8 9.3 10.7 7m1.2 1.7c-1.6 4.2-.3 10.2 5.4 10.1m-4.9-2.3c-4.1 3.5-2.4 9.8 3.7 10m-5.8-4c-6 4-3.9 12.8 4 12.3m-22-29.4c0 8.7 10.7 10 12.8 2m-4.2 5c-1.6 5.2 2.6 10.2 9.2 8.8m-7.9 53.4c1.5 2.1 7.4-1.4 5.8-5s-7.9-1.6-7.2 2.1m5.8-3.5c.8-7.1-7.6-8.2-9.7-2.1m3-3.6c2.2-3.5-5-8.3-7.8-3.2m2.6-2c1.9-5.2-6.2-7.5-6.8-2.8m-1.8-6.8c1-2.6 10-1 6.1 4.4m7 6.4c3.5-3.2-2.5-9.8-6.2-7.4m30 17.2c-2.8.4-5.7 2.2-3.6 8.2 1.4 4 7.6 4.3 8.5 1.8m-9-7c-2.8-1.8-8.7 1.2-6 7 2 4.4 7.3 2.6 8 .3m-17.4 1c1.4 2.4 8.2 1.4 9.4-1.3m-4.7-6.7c1.4-1 4 .3 4.6 1.5m-5.1-41.2c-4.7 3.1-1.8 12.4 5.5 10m-7-2.4c-3.7 3-.3 12 6.6 8.6m-5.4 0c-2.6 2.5-.1 9.7 6.6 8.3m-7.6-4.8c-1.4-.7-5.2-.2-6.8 2.2m2.6-34.8c-3.5 3.4-1.8 10.3 4.8 10.9m-6-3.8c-5.1 2.5-5.1 12.5 5 13m-5.5-1.7c-2.8 2.3-1.4 11 5.8 9.8m-3.4-.3c-1 1-1.2 3.7-.4 4.8m-2.9-8c-2.5 0-6 1.9-6.8 4.5m-4.7-9.3c1-2.6 9-2.4 9.5 5.1m.8-9c-1.1.3-3.3 1.3-3.8 3.5m.4-27c-3.5 3-5.2 13 5.4 14.9m-12.4 5.5c0-2.7 7.1-5 9.6-1m-14.2-13.4c1 2 6 4.7 9 2.5m-35-18.3a8 8 0 0 0 9 8.2c5.4-.6 6.5-5.3 4.9-8.4m-4 8.6c-3.6 4.3.8 10.4 4.8 8.7M328 393c2.1-.8 9-1.8 11.1 1.4m-33.5-.1c-1.6 2.4 8.4 4.8 11.8.2m-3.4 2.4c-.3 3.2 1.3 8.7 9.5 6.4m1.3 5c1.3-2.7-4.8-7.3-9.5-2.3s.6 10.7 3.5 8.7m-15.4-17.2c-2.4 4.2 6.9 11.8 12.2 4.8m-18.4 2.4c-3.4 3.5.8 9.9 5.9 8 5-2 4.5-7.3 3.3-8.7m-15.7 7.2c-2.8 2.5-.1 8.4 3.7 8.4 3.7 0 6-3 5.4-6.8m6.2-2c-.5 3.6 5 6.2 8.6 2.7m.1-6.7c.5-.8.1-2.2-.7-2.9m-29.2 12.3c-3.1 2.5 3.6 9.4 7.9 3m16.3-4.4c-2 2 1.2 7 4.4 5.5m-15.4-2c.5 3.5 7.2 6 11.5.8m-7.8 2.7c-1 2.2 1 5.6 3.6 5.2m60.5 14.7c-2.5 5 5.4 10.6 11.2 4.7m-5.4 2.6c-1.3 2.7.2 6.4 2.4 7.7m-10-2.1c.6-2.4 4-4.7 7.2-3.6m-11.4-2.8c.5-2.2 3.4-4.3 5.6-3.8m184-96.6c-11.5.1-6.6 18.5 3.2 14.8m-7-1.3c-2.2 3.7 2.1 9.6 7 6.1m-1.3.7c-3.4 5.7 8.7 14.3 13.5 5.4M561 377c.1 5.3 15.6 8.7 13.3-2m-1.4 5.9c3.7 6.2 17.5 6.9 16-2.5m-3 6.5c2.9 4.2 16.4 6.8 16-2m-70.9-51c2 5 8.5 6.8 15.8 3.9m-20-.3c4.5 2.9-2 16-9 10.8m9-2.6c5 2.4 11.1.6 12.9-6.5m-3 5.5c.4 3.7 5.7 6.6 12.7 5.2m-25.2-1.3c6.5 5.5-2.9 16.7-7 11.6m9.5-7.4c3 2.2 11 1 11.7-5m-3.5 5c.6 3.8 3.7 5.3 8 5.4m-18-.1c3.2 4.5 11.3 5.8 14.8-.2m-3.6 3.4c-.3 4.3 4.6 7.9 9.5 7m-27 2.7c4.2 2 8.7-5.8 5.2-11.3m-.4 19.6c5 .3 5.7-7.2 1-11.4M535 384c4.2-1 2.9-10.1-7.3-11m20 17.8c4-1.1.8-11.3-10.3-10.6m25.6 14.1c2.7-4.1-6.3-11.2-13.7-7.5m21.2 13.3c5 1.5 8.4-11.7-7.4-9.6m16.6 9.6c4.4-1 7.4-9-5.3-6.4m15 7c3.8 2 5.6-9.2-6.1-6.2m-58.8-28.8c4.8 2.7 12.4-.5 11.8-6.6m-2 5.3c1.6 3 1 8.5-2 10m2.5-3.2c3.2 1.3 7.6.1 10.1-5m-4.5 5c1 2.2 1.3 6.7-.8 9m1.6-5.2c3.6 2 7.8-.6 9.5-4.3m-2.2 3.2c2.6 1.6 4.8 9.2.5 12.2m2.4-3.5c3 .2 7.6.2 10.5-3.7m-2.1 2c2.7.9 6 5.4 4.8 9.4m.1-1.4c3.1-.4 8.4-2.4 9.9-6.1m-1.5 2.4a8.3 8.3 0 0 1 4 8m0-2.6c3.1-.1 5.8-1.7 6.6-5.1m-.8 2.3c2.3.8 5 3.3 5.2 6.4m-.3-2c2.2-.3 3.8-1.7 5.3-4m6.1-.3c2.9 3-1 12.6-7 10.8m-54.8-205.9c-6 3.5-22.9 2.4-14.5-11.6m16 2.1c-11.7 4.7-26.2-4.3-11-14.2m-4-3.2c-9.9 0-16.5 15.8-3.3 21.3m-34.9-14.7c-2.6 5 6.6 10.5 12.9 5.5 4.9-3.9 4.5-14.3 1.6-18.4m-19.5 24.8c-3.2 10.7 20.5 11.3 16.8-5.6m-18 21.4c.7 8 22.6 5.5 15.5-10.8m2.6-4.5a16 16 0 0 0 14.8 5.8m-11-17.2c.8 2.9 5.7 5.1 12 3m-231.6 242c-5.5 3.9 3 10 6.1 3.2m-10.4-.2c-5.6 4 3 10.1 6.1 3.3m-10.7-.3c-5.6 3.9 3 10 6.1 3.2m-11-.5c-5.3 2.8 1 9.7 6.3 3.6m-11.5-1c-5.3 2.9 1 9.8 6.3 3.7m20.7-12c0 4.2 7.7 5.8 10.5-.3m-5.6 4.1c-2.4 3.1 2 6.9 4.4 5.5m-14.8-6c-.2 3.4 6.5 5.4 9.8 1.7m-6 1.9c-2.2 2.8 2 6.6 4.8 5.5m-13-6c.2 2.7 4 5.9 8.2 4.1m-5.8-.4c-1.6 1.5-.8 4.8 1.5 5.9m-9.9-6.1c-.6 2.5 3.7 6.9 8 4m-7-1.1c-2.7 2-2.3 5 1 5.4m-7.3-5.8c-.3 1.7 1.9 4.5 4.6 4.2m-18.3-4.3c-2.6 1.4 4 8.4 8 1.8m-14.4 1c-3.2 1.6 4.7 9.3 8.3 1.5m12.6-1.7c-2.5.5-4.2 4.1-2 5.6m-6.2-4.4c-.3 1.5 2.8 4 5.3 3m-7.4-2.3c-2.4 1.5-1.1 5.8 1.7 5.2m-10.3-2.4c-2.2 1.7-.7 5 2.4 4.3m1.7-4.5c.1.9 2.1 2.2 3.8 1.7m-15.7-3.2c-2.8 1.2-2.6 8.3 6.9 4.4m-13.3-1.6c-3.9 2-2.6 7.3 6 2.2m.7.4c-1 .8-2.1 4.4 1.8 3m-9-1.3c-1.6 1.4-.6 4.4 3 3.3m-11.3-2.8c-2.9 1.7 3.5 4 7.7-.6m-5.8 2.7c-1.3 1.3-1.3 5 2.1 3.7m-10.3-2.2c-2 1.5 1.4 3.4 7.4.7m-5 1.4c-2.2 1.9-2 4.2 1.3 3.5m-8-2.4c-2.4 2.2 1.2 3.7 5.5 1.9m-5.4.6c-4.2 1.9-2.4 5.4.3 4m142.2 8.3c-1 2 2.3 3.8 5.3 3.3 3-.4 5.8-2.8 3.6-6.2m.1 4.1c3 2.3 8-.3 8-3.7" fill="none"/><g fill="#fff"><path d="M546 128.8c-13-6.4-39.6-18.3-47.2-8.7 7-2.9 27.2.2 44 15.7l3.2-7zm7.8-.7c-15-17.3-23.7-13.4-34.4-19.4-10-5.6-26-6.7-29.2 2.2 14.7-7.2 28.2 3.8 36.5 5.2 11.4 1.8 17.8 10.6 21.1 14.6l6-2.5zm56-2.2c-7.6-17.7-24.2-13-31.5-20.6-10.6-11-37.5-21-48.6-13.5 24.5-1.3 34.9 16.9 48 23.2 9.3 4.5 19.3 14.1 32.2 11zM581 124c-13.2-16.4-33.5-31-42.8-25.4 12.2.6 16 9.1 24.8 14.6 8.7 5.5 4.8 13.4 18 10.8zm-62.8 29c-13.8-5.2-40.9-7.7-53.4 8 20.9 3.6 52.5 1.6 53.4-8zm-2.6 6.1c-13.8-6.4-24.6 2.6-37.6 1.3-24.8-2.4-42.5-1-44.8 11 14.2-12.8 38-2.3 47.7-4.9 9.6-2.6 45.4-.3 56.6 4.5-5.8-7-14.8-9-21.9-11.9zm43.5-36.9c-3.2-10.6-3-21.9 12.9-21-4-5-18.8-7.6-21.3 11-17.5-12.8-36.7-15-40.2-4 9-7.7 23-2 39.8 17 1.4-.9 5.3-2.5 8.8-3zM535 137c-10-6.5-23.5-17 .1-21.1-10.1-5.5-25-3-23.3 15.6-27-11-46.5-7.2-50.6 3.5-4.5 12 12.3 18.6 15.2 11-3 1.3-13.5-2.3-8-9 5.4-6.8 33.4-1.7 60.1 12.2 7.4 3.9 32.9 3.2 6.5-12.2zm-7.1 17.7C520 138.9 495 153 490 137.9c-7 22.3 35.5 10 37.7 16.7zm158.9 17c5.2 2.7 9.7-1.4 1.7-4.6 5.3 2.6 9.8-1.4 1.8-4.7 5.3 2.6 9.8-1.3 1.8-4.6-2.1 2.2-5.2 10-5.3 14zm2.7-30.2c11.6-12.2-1-16.4 13.2-29 11.6-10.3 2.2-17.1 13.2-25.1 3.5-2.6 11.3-7.7 12-12.9 4.6 11.6-14.6 13.2-13.3 31.9.8 11.9-7.2 10.8-10.3 30.9-.6 4.2-3.5 13.5-14.8 4.2zm5.2 5.5c6.4-13.9 13.8-13.6 17.3-19 6.8-10.3 21.1 1.7 33.2-7.4-2 13-18.3 8.3-25.4 16.7-7.1 8.4-13 12.2-25.1 9.7zm1.6 4.5c11.2-9 19.5-3 27.3-7.8 19.7-11.9 27.6 2.5 45.1-3.2-4.7 11.3-30.6 1.6-41.8 10-11.3 8.4-51 16.4-30.6 1zm-32.9 64.2a14 14 0 0 0-11.7-12.6c-6.8-.8-9.7-7.8-14.8-8.2-5.2-.3-8.6-10.6-15.6-10.4-7.1.1-10 9.3 6.6 17.7 16.5 8.3 34.9 18 35.5 13.5zm-20.9 4.3c-7 .4-8 10.7-14.8 11 9.3 5 16-2.3 21-8.7l-6.2-2.3zm5.8 1.3c-6.1 5.2-7.9 16 1 19-5.3-7.3 9.3-10.6 4.8-17.4l-5.8-1.6zm6.1.4c-4.8 9.3 7.6 10.4 4.4 17.5 7-1.6 8.2-15 1.7-18.5l-6 1zm-47.3-20a33.9 33.9 0 0 1 29.3 15.8c4.5 6.4 19.6 9 24.8 3.8 5.1-5.1 2.2-16-10.7-12.5-3.2-5.5-12.5-3.6-17-8-4.5-4.6-22-17.5-26.4.9zm43.5 7c-3.1.7-4 6-2.1 8.8m8.6-5.5c1 1.6.4 3.9-.1 5M625.3 202c6 .3 7.1 4.6 13.6 6.3"/><path d="M621.4 187.4c20.6 5.2 36.9 9.7 47 15.5a54.5 54.5 0 0 0 39.5 3.5c13.7-3.8 40.2-7.4 38.9 9.7 7.2-8.5-2-17.7-20.3-19.3.4-8.4-8.6-16-15-11 6-.8 11 10.3-.7 14.8 2.3-8.3-6-16-14.7-12.2 5.6 1.6 11.2 11-1.2 14.5-7.9 2.2-19.3-.7-27.8-5.8-8.5-5.2-56.1-23.8-45.7-9.7zm52-8.3c-6.5 2.9-2.3 9.6-12.3 13.5-10 3.8-17 12.7-14.7 20.3 6.8-14.8 18.7-14.2 22.9-20 4.2-5.8 10.3-14.3 4-13.8zm1.7 1c-.3 11.7-9.6 7.4-6 24 1.2 5 3.2 13.4-.3 21.8 10.4-7.6 3.7-23.5 8.4-29.5 2.2-2.9 5.1-7.4 6.3-11.2-2.5 6.7-2.3 19.3 4.3 22.5-5.3-12.5 14.3-22.8.8-37.3-2 3.5-8 9.8-13.5 9.6zm-32.9-11.8c1.7 2.4 3.3 8.5 1.8 11.9 3.2-2 7.9-7 9.3-10.3 6.6 1 9.2 9.2 3 12.7 3.8 0 10.4 0 14.1-4.3-4.5-5-18.5-12.8-28.2-10zm-100-23.1c-1.1-1-2.9-1.9-6-2.5-9.8-2-4.8-10.8 3.5-10.7 17.7-19.3 27.7-4.5 49.3-10.6a24 24 0 0 1 16.8.3c9.7-6.4 21-4.6 29.2 3 1-1.5 2.1-2.6 3.9-3.1 7.5-2.1 13.6 4.3 15.7 12.7 6-1 12.7 1.8 17 5.9 6.2-3.2 10.4-3.3 12 0 5.5-2.7 12.6-4.3 16.1 4.4 3.6 8.7-8.4 6.1-10.3 24.5-1.2 11.3-13.8 15.8-23.8 9-16-10.8-31.6-12.6-39.3 3.9-7.7 16.4-13.8 26-32.5 20.6-6.8-2-15.5.6-21 8-5.4 7.4-13.8.5-23.8 1.3 12.6-2 7.8-5 18.7-5.8 10-.6 7.4-10 13.9-11.3-25.2 6.5-24.2-2.9-44.8 3.6 9-11.6 23.2-5.2 30.3-12-18.7-.3-27-12.5-35.5-7.3-13.2 8-7.4 31-41.8 29-16.7-1-27.4 1.2-37.4 11.2 17.4-36 41-16.2 52.5-27.7a85 85 0 0 0 15.5-18.3c1.2-2.3 3-3.6 5-4.1-28.6-9-11.3-23 16.7-24zm141.4-5c.4.8.7 2 .7 3.4 0 7.1-10.7 7.4-11.3 18-.4 5.4-1 8.4-4.7 7.8-3.7-.6-7-6.4-3.4-13.2m-117.5-21.6a13.6 13.6 0 0 0-7.7-2.6m66-10.3c8.6 3.6 12.7 12.5 25.1 13 12 .3 19.3 17.6 39.3 6.4l1.6-.9M635 124.6a15.8 15.8 0 0 0-1.7 10.3"/><path d="M596 161c-15 0-19 7.8-19 15.2 0 7.4 7.1 17 19.7 17 12.5 0 19.3-7.7 19.3-16s-7.7-16.2-20-16.2zm2.8 31.9c-.4-4.2-8-3.5-7.6-6.8.3-3.2 4.2-4.5 4.2-9s6.7-4.8 9-1.3c2.3 3.6 9 10.5 10.5 7m-10.5-7a12.4 12.4 0 0 0-.5 16.5m5.3-11c-1 2.4-1.4 6.1-.1 8.4"/><path d="M669.4 169.5c11.8 1 13.8-12 5-12.9m-19.6-22.3c-4.1-5.2-13.5-7-13.7 4.1" fill="none"/><path d="M640 151c-4-10-14.3-11.4-19.8-6.4-4.6 4.2-4.7 15 5.1 17.2 3.4-4 10-9.3 14.7-10.7zm-4.4-6.2c-5.8-5.2-14.4 4.6-6.6 13.5m-103.7 10.9c3.9-1 9.6 1 18.3 5 5.4 2.6 21.9 8 32.2 2.6-10.7 3.9-18.7-12.2-26.8-10.3-8 2-22.7 5-29-1 15.2 1 23.3-11 40.6-.6 4.9 2.9 11 4.8 16.4 4.5-14.1-17-32.8-6.1-34.7-20 8.5 9.2 29.3-2 40 15.2m-37-12.6c-2-2.5-1-5-3.2-6.9"/></g><path d="M654.8 134.3c-3.5-3.8-11.3-.8-9.1 6.9 1.7-3.6 5.3-6.6 9.1-6.9zM632.9 155c2.4-1.7 5-3.2 7-3.9-1-2.8-2.7-5-4.7-6.5-1.8-1.3-7.1 5.9-2.3 10.4z" stroke="none"/><path d="M623.4 141.9c-5.8-3.9-11.1-3.6-12.9-.4-4.2-.1-7.6 3-7.8 9m9 2.6c-7-4.7-16.5-3-15.8 7.7m-4.2 6c3.4-2.7 8.2-4.6 11.9.2m39.8-10.6c-1.3 1.7-2.3 4.5-.2 8.7-2.6-3.4-9-3.4-16 5.6m31.5-14.8c-8.4 1-8.2 6.4-1.5 8.8m-58.1-29.3c-7-1.4-12.2 2.8-2.4 6.3m16-11.1c-10-2.4-14 .2-9.6 2.4m-19.3 37.7c-.3 3.5 1.6 8.2 7.4 2.9m-5.5 7.7c0 1-.1 2.1-.8 3M562.5 134c-6-1.7-7.2-7.4-.1-6.9m-2 20c-6.7-2.3-6.7-8.9-1-8.2m13.6 4.8c-7.9-2-8.2-7.4-2.2-6.6m3.2-10.1c-4.2-.4-10.6 4.3.1 7m11.6 2.3c-9.8-1.4-9.6 2.6-3.8 5.2M593 127c-7.5-1.5-10.1 3-5 5m-18.8 22.8c-1.8-1.5-3.4-8.8 5.5-6.7m12.9 4.5c-6-1.6-11.6 4.1-6.1 7.5m14-14.5c-6.3-1-11.6.7-8.3 3" fill="none"/><path fill="#fff" d="M654.5 134.3a12 12 0 0 0-8.8 6.8"/></g></svg>