<svg xmlns="http://www.w3.org/2000/svg" height="480" width="640"><defs><clipPath id="a"><path fill-opacity=".7" d="M0 0h640v480H0z"/></clipPath></defs><g clip-path="url(#a)"><path fill-rule="evenodd" fill="#c60000" d="M-40 0h720v480H-40z"/><path fill-rule="evenodd" fill="#003bb2" d="M-40 68.6h720v342.8H-40z"/><path d="M457.1 240a137.1 137.1 0 1 1-274.2 0 137.1 137.1 0 0 1 274.2 0z" fill-rule="evenodd" fill="#fff"/><g stroke="#000" fill-rule="evenodd"><path d="M0 318c7 1 14.4 1.2 23.3 0 7.4 2 12.9 5.7 18.3 8.4 3 5.6 7.4 14 11.7 18.3 1.9 6.9 4.6 9.7 8.3 16.6 1 6.8 3.2 13.7 0 20-3.8 4.8-9.7 7.5-15 10-6.9 3.7-11 5-20 6.7-7.4 1.3-15 1.6-23.3 1.6-8-1.4-14.2-2.7-21.6-3.3-7.4-1.3-16-2-23.3-3.3a72 72 0 0 0-16.7-6.7c-3.9-3.7-9.5-8-15-11.6-4.2-7.5-8-10.3-11.6-16.7a35 35 0 0 1-5-20c2.6-5.3 7-10.5 10-15 5.2-3.4 11-8 18.3-11.6 9.8-.4 13.6-3.2 23.3-3.3h25c5.6.5 8.4 5.5 13.3 10z" transform="matrix(.199 0 0 .1704 345.2 141.6)" stroke-width="3.8" fill="#030"/><path d="M273 659.4c-6.6-38.3-16.6-133.2-16.6-174.8 1.7-31.7 121.6-140 125-151.6 3.2-11.6 64.9-99.9 74.8-126.5-25 18.3-66.6 98.2-74.9 106.5-8.3 8.4 18.3-83.2 10-111.5-8.3 33.3-21.6 118.2-31.6 126.5-5 5-91.6 105-101.6 101.6-10-3.3-36.6-20-31.6-30s71.6-71.6 74.9-93.2 8.3-73.3 15-78.3c6.6-5 16.6-30 25-50-21.7 10-25 40-33.3 41.7-8.4 1.7-28.4-33.3-28.4-33.3s13.4 38.3 15 46.6c1.7 8.3-6.6 63.3-11.6 70-5 6.6-41.6 53.2-48.3 54.9-6.7 1.7-25-76.6-25-91.6s13.3-73.2 0-76.6c-8.3 0-10 68.3-15 68.3s-16.6-68.3-16.6-68.3-6.7 31.7-3.4 53.3c-10 1.7-36.6-40-36.6-40s50 86.6 60 90c10 5 20 68.2 18.3 71.6s-50-16.7-60-23.4c-10-6.6-30-79.9-30-79.9s10 71.6-1.6 61.6c-11.7-10-30-18.3-40-33.3-10-15-5-76.6-5-76.6s-16.6 55-23.3 55c-6.6 0-28.3-73.3-28.3-73.3s3.3 80 13.3 85 159.9 104.8 161.6 114.8a224 224 0 0 0 30 60c-1.7 21.6 6.6 161.5 10 194.8l29.9 10z" transform="matrix(.199 0 0 .1704 279 126.3)" stroke-width="1pt" fill="#520900"/><path d="M-338 133.2c1.8 6.4 2.5 12.2 11.6 15 5 2 15 4.5 20 6.7 5.3 2.4 11.2 5.5 18.3 6.6 5.4 1.8 14.6 3.7 21.7 5 7.4 1.3 15 1.7 23.3 1.7a37.4 37.4 0 0 0 20-8.3c1.8-6.8 4.3-9.9 5-18.4.5-8 1.6-14.8 1.6-23.3-1.5-4.6-1.8-15.3-3.3-20-5.6-5.4-7-8.6-16.6-11.6-7.5-3.4-14.4-3.3-23.4-3.3-7 2.3-15.3 1.6-23.3 1.6h-23.3a50 50 0 0 0-18.3 6.7c-8.1 3.7-9.3 6.3-13.3 15-3 8.8-3 15.4 0 26.6z" transform="matrix(.199 0 0 .1704 343.3 135.9)" stroke-width="3.8" fill="#030"/><path d="M-329.7 191.5c0-2.8-6 2.7-8.3 5-5.4 3.8-7.7 8.8-8.4 18.3-2.5 5.2 0 13.7 0 21.6 0 9.2.1 15.6 5 20 5.6 3.5 8.3 5 18.4 5h46.6c5.9-2 13-3 20-5 7.7-4 13-4.5 21.6-6.6a41.2 41.2 0 0 1 20-10c9.5-.5 15.3-3.8 21.6-8.3a81 81 0 0 0 21.7-10c4.8-3.3 8.3-7.5 11.6-13.4 3.4-7.9 4.5-12.9-1.6-21.6-12.2-4.4-6.1-9.2-15-13.3-4-2.5-13.5-5.7-18.3-8.4-8.3.7-14.2 2.7-23.3 3.4-4.7 2.3-14.4 1.6-21.7 1.6h-26.6c-8 0-16.4-.6-23.3 1.7-6.7 1.8-10 4.9-16.7 6.7-4.4 3-11.5 5.4-16.6 8.3l16.6-8.3c-4.4 3-11.5 5.4-23.3 13.3z" transform="matrix(.199 0 0 .1704 342.3 137.6)" stroke-width="3.8" fill="#030"/><path d="M-186.5 50c3.3 0-5.2 4-8.3 6.6-4 7-4.5 13.4-6.7 20-2.6 5.8-5.7 13-6.6 20-3.2 7.5-5 10.2-5 20 0 7.6-.1 16.3 1.6 21.6 5 6.4 10 10 18.3 15a94 94 0 0 0 20 5h23.3c5.3 1.7 14 1.6 21.7 1.6 8.5-3.1 11.7-7.2 20-8.3 9-.8 10.6-4.6 15-11.6 4-5.2 5.6-11 6.6-18.3 0-8.4-.7-15.7-1.7-23.4-4-4.5-7-10.7-10-18.3-5.1-8.8-5.1-12.7-13.3-16.6-4-5.5-10.8-8.1-15-11.7a53.3 53.3 0 0 1-21.6-5c-7.7 0-16.4 0-21.7 1.7-6 0-10.4.6-16.6 1.7z" transform="matrix(.199 0 0 .1453 344 141)" stroke-width="3.8" fill="#030"/><path d="M-58.3 65c-1 0-4 4.8-6.6 10-4.4 6.8-5 13.2-8.4 18.2-1.3 7.5-1.6 15-1.6 23.4.7 8.3 3.2 11.3 8.3 15a60 60 0 0 0 20 8.3c7.4.5 12.8 1.6 21.6 1.6 8 0 16.4.7 23.3-1.6 8.3 0 15.9-.4 23.3-1.7 3.9-3.2 12-6.1 16.7-8.3 5.5-6.7 8.1-13.3 11.7-18.3 0-9.9 0-15.6-5-23.4-3.7-6.3-8-9.3-13.4-15-6.7-2.3-12.3-7.1-20-8.3h-69.9z" transform="matrix(.199 0 0 .1704 342.6 135.3)" stroke-width="3.8" fill="#030"/><path d="M76.6 76.6c-6.3 2.6-8.6 3.3-11.7 10a88.6 88.6 0 0 1-11.6 15c-1 6.6-3.7 13.8-6.7 18.3-.9 7.7-1.6 14.9-1.6 23.3 4.2 6.5 10 12.6 16.6 16.6 6.8 2.4 14 6 20 8.4 7.8 2 15 4.4 23.3 5 7.2 1.8 15.2 1.6 23.3 1.6a46 46 0 0 0 20-8.3c3.3-5.2 7.2-11 8.3-20 2.8-8.2.6-19-3.3-26.6-2-7.5-5-10.4-13.3-15a113.4 113.4 0 0 0-15-13.3c-5.3-4.6-12.2-5.2-20-8.4-8.5-1.8-11.3-4.3-20-5l20 5c-8.5-1.8-11.3-4.3-28.3-6.6z" transform="matrix(.199 0 0 .1704 340.6 141.9)" stroke-width="3.8" fill="#030"/><path d="M-51.6 146.5c-7.6 3.5-11.2 7.7-16.7 13.4 0 8.8 1.1 14.1 1.7 21.6 3.5 4.7 7.1 14.2 10 18.3 2.2 6.8 7 12.2 10 16.7 7.7 3 15.5 5.4 23.3 8.3 9.2 0 15 2 23.3 3.3 7 2.3 15.3 1.7 23.3 1.7 8.2 0 16.1-.2 23.3 1.7 7.7 1.3 13.4 4.3 21.7 5 4.7-.5 13.1-1.2 20-1.7 7.6-3.5 11-5.7 15-11.7 3.7-4.5 3.3-11.2 3.3-20 1.6-9 2-15-1.7-23.3-.1-9-1.8-13.1-3.3-21.6-3-6-5.7-8.7-11.7-11.7-5.4-3.8-12.8-6-18.3-10-7.4-.8-15.8-2-21.6-3.3-6.6-4.3-12-6.5-21.7-6.7-9.5-1-14-2.2-21.6 1.7a48 48 0 0 0-20 5c-6.2.5-15.3 1-20 3.3-7.4 0-10 1.3-16.7 1.7l16.7-1.7c-7.4 0-10 1.3-18.3 10z" transform="matrix(.252 0 0 .132 337.9 147)" stroke-width="3.8" fill="#030"/><path d="M-123.2 278c-4.3-.6-17.3-1.6-26.7-1.6-8.7 0-15.8.6-23.3 3.3-8 1.6-13.9 4-20 6.7-5 2.4-11 4.8-15 8.3-4.9 3.4-9 6.4-13.3 13.3-4.4 6.5-5 10.6-8.3 18.4v23.3c.6 7.6 1.7 14.2 5 21.6 5 4 12 5.3 18.3 6.7 6 1.3 13.9 2.8 21.7 3.3 9.2 0 14.1.5 21.6 3.3 9.8-.3 11.6-2.6 20-6.6 9.3-3.7 14.9-5 23.3-10 5.2-4 8.6-11 11.7-18.3 4.7-7.6 7.9-15 11.6-21.7 1.8-7.2 1.7-15.1 1.7-23.3-2.2-6.2-5.8-8.9-10-15-4.6-5-6.7-9-10-13.3l10 13.3c-4.6-5-6.7-9-18.3-11.6z" transform="matrix(.199 0 0 .1704 344.3 138.7)" stroke-width="3.8" fill="#030"/><path d="M0 318c7 1 14.4 1.2 23.3 0 7.4 2 12.9 5.7 18.3 8.4 3 5.6 7.4 14 11.7 18.3 1.9 6.9 4.6 9.7 8.3 16.6 1 6.8 3.2 13.7 0 20-3.8 4.8-9.7 7.5-15 10-6.9 3.7-11 5-20 6.7-7.4 1.3-15 1.6-23.3 1.6-8-1.4-14.2-2.7-21.6-3.3-7.4-1.3-16-2-23.3-3.3a72 72 0 0 0-16.7-6.7c-3.9-3.7-9.5-8-15-11.6-4.2-7.5-8-10.3-11.6-16.7a35 35 0 0 1-5-20c2.6-5.3 7-10.5 10-15 5.2-3.4 11-8 18.3-11.6 9.8-.4 13.6-3.2 23.3-3.3h25c5.6.5 8.4 5.5 13.3 10z" transform="matrix(.2554 0 0 .1425 350.6 136.5)" stroke-width="3.8" fill="#030"/></g><g fill-rule="evenodd" stroke="#000" stroke-width="3.7" fill="#006a00"><path d="M200.2 613.2l4.7-7-13-2.4 9.4-9.5-13-4.7 13-9.4-13-7 14.2-6-7-11.7 14 2.3-5.8-14 16.5 7v-18.9l11.8 13 9.4-16.5 7 15.3 14.2-16.5 4.7 13 21.2-10.6-6 16.5 22.5-9.5-4.8 18.9 21.2-9.4-8.2 17.6 21.2 1.2-17.7 10.6 17.7 7-16.5 9.5 14.1 11.8c-45.1 20.8-79.6 27.4-131.8 9.4z" transform="matrix(.1647 -.0123 .0082 .1518 294.2 194.2)"/><path d="M200.2 613.2l4.7-7-13-2.4 9.4-9.5-13-4.7 13-9.4-13-7 14.2-6-7-11.7 14 2.3-5.8-14 16.5 7v-18.9l11.8 13 9.4-16.5 7 15.3 14.2-16.5 4.7 13 21.2-10.6-6 16.5 22.5-9.5-4.8 18.9 21.2-9.4-8.2 17.6 21.2 1.2-17.7 10.6 17.7 7-16.5 9.5 14.1 11.8c-45.1 20.8-79.6 27.4-131.8 9.4z" transform="matrix(.1647 -.0123 .0082 .1518 255.2 193)"/><path d="M200.2 613.2l4.7-7-13-2.4 9.4-9.5-13-4.7 13-9.4-13-7 14.2-6-7-11.7 14 2.3-5.8-14 16.5 7v-18.9l11.8 13 9.4-16.5 7 15.3 14.2-16.5 4.7 13 21.2-10.6-6 16.5 22.5-9.5-4.8 18.9 21.2-9.4-8.2 17.6 21.2 1.2-17.7 10.6 17.7 7-16.5 9.5 14.1 11.8c-45.1 20.8-79.6 27.4-131.8 9.4z" transform="matrix(.1647 -.0123 .0082 .1518 316 193.7)"/><path d="M200.2 613.2l4.7-7-13-2.4 9.4-9.5-13-4.7 13-9.4-13-7 14.2-6-7-11.7 14 2.3-5.8-14 16.5 7v-18.9l11.8 13 9.4-16.5 7 15.3 14.2-16.5 4.7 13 21.2-10.6-6 16.5 22.5-9.5-4.8 18.9 21.2-9.4-8.2 17.6 21.2 1.2-17.7 10.6 17.7 7-16.5 9.5 14.1 11.8c-45.1 20.8-79.6 27.4-131.8 9.4z" transform="matrix(.1602 -.0466 .031 .1476 289 212.4)"/><path d="M200.2 613.2l4.7-7-13-2.4 9.4-9.5-13-4.7 13-9.4-13-7 14.2-6-7-11.7 14 2.3-5.8-14 16.5 7v-18.9l11.8 13 9.4-16.5 7 15.3 14.2-16.5 4.7 13 21.2-10.6-6 16.5 22.5-9.5-4.8 18.9 21.2-9.4-8.2 17.6 21.2 1.2-17.7 10.6 17.7 7-16.5 9.5 14.1 11.8c-45.1 20.8-79.6 27.4-131.8 9.4z" transform="matrix(.1647 -.0123 .0082 .1518 330.4 202.7)"/><path d="M200.2 613.2l4.7-7-13-2.4 9.4-9.5-13-4.7 13-9.4-13-7 14.2-6-7-11.7 14 2.3-5.8-14 16.5 7v-18.9l11.8 13 9.4-16.5 7 15.3 14.2-16.5 4.7 13 21.2-10.6-6 16.5 22.5-9.5-4.8 18.9 21.2-9.4-8.2 17.6 21.2 1.2-17.7 10.6 17.7 7-16.5 9.5 14.1 11.8c-45.1 20.8-79.6 27.4-131.8 9.4z" transform="matrix(.1647 -.0123 .0082 .1518 314 204.4)"/><path d="M200.2 613.2l4.7-7-13-2.4 9.4-9.5-13-4.7 13-9.4-13-7 14.2-6-7-11.7 14 2.3-5.8-14 16.5 7v-18.9l11.8 13 9.4-16.5 7 15.3 14.2-16.5 4.7 13 21.2-10.6-6 16.5 22.5-9.5-4.8 18.9 21.2-9.4-8.2 17.6 21.2 1.2-17.7 10.6 17.7 7-16.5 9.5 14.1 11.8c-45.1 20.8-79.6 27.4-131.8 9.4z" transform="matrix(.1647 -.0123 .0082 .1518 238.8 193)"/><path d="M200.2 613.2l4.7-7-13-2.4 9.4-9.5-13-4.7 13-9.4-13-7 14.2-6-7-11.7 14 2.3-5.8-14 16.5 7v-18.9l11.8 13 9.4-16.5 7 15.3 14.2-16.5 4.7 13 21.2-10.6-6 16.5 22.5-9.5-4.8 18.9 21.2-9.4-8.2 17.6 21.2 1.2-17.7 10.6 17.7 7-16.5 9.5 14.1 11.8c-45.1 20.8-79.6 27.4-131.8 9.4z" transform="matrix(.1602 -.0466 .031 .1476 211.9 211.8)"/><path d="M200.2 613.2l4.7-7-13-2.4 9.4-9.5-13-4.7 13-9.4-13-7 14.2-6-7-11.7 14 2.3-5.8-14 16.5 7v-18.9l11.8 13 9.4-16.5 7 15.3 14.2-16.5 4.7 13 21.2-10.6-6 16.5 22.5-9.5-4.8 18.9 21.2-9.4-8.2 17.6 21.2 1.2-17.7 10.6 17.7 7-16.5 9.5 14.1 11.8c-45.1 20.8-79.6 27.4-131.8 9.4z" transform="matrix(.1647 -.0123 .0082 .1518 253.3 202.2)"/><path d="M200.2 613.2l4.7-7-13-2.4 9.4-9.5-13-4.7 13-9.4-13-7 14.2-6-7-11.7 14 2.3-5.8-14 16.5 7v-18.9l11.8 13 9.4-16.5 7 15.3 14.2-16.5 4.7 13 21.2-10.6-6 16.5 22.5-9.5-4.8 18.9 21.2-9.4-8.2 17.6 21.2 1.2-17.7 10.6 17.7 7-16.5 9.5 14.1 11.8c-45.1 20.8-79.6 27.4-131.8 9.4z" transform="matrix(.1647 -.0123 .0082 .1518 236.9 203.9)"/><path d="M200.2 613.2l4.7-7-13-2.4 9.4-9.5-13-4.7 13-9.4-13-7 14.2-6-7-11.7 14 2.3-5.8-14 16.5 7v-18.9l11.8 13 9.4-16.5 7 15.3 14.2-16.5 4.7 13 21.2-10.6-6 16.5 22.5-9.5-4.8 18.9 21.2-9.4-8.2 17.6 21.2 1.2-17.7 10.6 17.7 7-16.5 9.5 14.1 11.8c-45.1 20.8-79.6 27.4-131.8 9.4z" transform="matrix(-.3346 -.014 .019 -.1517 399.8 380.2)"/></g><path d="M356.3 196.5c0 22.5-19 6.6-38.3 6.6-19.3 0-36.6 17.6-40 0 0-9.2 25.7-23.3 45-23.3 14.3 1.7 36.7-4.2 33.3 16.7z" fill-rule="evenodd" transform="matrix(.273 0 0 .3008 278.6 211)" stroke="#000" stroke-width="2.5" fill="#510800"/><path d="M356.3 196.5c0 22.5-19 6.6-38.3 6.6-19.3 0-36.6 17.6-40 0 0-9.2 25.7-23.3 45-23.3 14.3 1.7 36.7-4.2 33.3 16.7z" fill-rule="evenodd" transform="matrix(-.273 0 0 .3008 369.7 209.6)" stroke="#000" stroke-width="2.5" fill="#ffc600"/><path d="M349.7 188.2c0 13.8-7.1 25-15.8 25-8.8 0-15.9-11.2-15.9-25s7.1-25 15.9-25c8.7 0 15.8 11.2 15.8 25z" fill-rule="evenodd" transform="matrix(.3368 0 0 .3286 277.8 205.3)" stroke="#000" stroke-width="2.5" fill="#520900"/><g fill-rule="evenodd" stroke="#000" stroke-width="1pt" transform="matrix(-.6243 -.1173 -.3707 .6237 523.7 93.7)"><path d="M273.8 383.6c-2.8 4.5 43 13 57.6 22.3 14.8 9.5 14.8 10 21.2 14.8l1.8-3a268 268 0 0 0-62.4-34.1c-6.8-2.3-10.3-13.3-13-8.9l-5.2 8.9z" transform="matrix(-.7233 -.545 .52 -.758 322.4 678)" fill="#af8000"/><path d="M319 369.4l-25.2-5.8s-6 2.3-6.5 11.1c-.6 8.9 4.7 14.2 4.7 14.2l27-9.4v-10z" transform="matrix(.8444 -.2975 .2838 .885 -89.2 -64.2)" fill="gray"/><rect ry="3.5" rx="3.5" transform="matrix(.8444 -.2975 .2838 .885 -19.2 -255.6)" height="19.4" width="7.1" y="534.6" x="175.7" fill="gray"/></g><path d="M244.8 87.4c7.3-6 11.1-3.7 17.6 3.1 9.3 9.8 41.3 58.9 46.3 63s4.3-6.4 10.4-1.3c3 3.7-10.5 17-13.8 14.5-6.4-5 4-5.4-.3-9.6-5-5.2-51.2-40.5-60.3-50.6-6-6.6-6.3-14 0-19z" fill-rule="evenodd" transform="matrix(.7148 .1604 .3327 .529 132.4 68.2)" stroke="#000" stroke-width="1.3" fill="#923d09"/><g stroke="#000"><path d="M193.6 88.3c15.6 4.4 43.3 46 53.8 45.7 16.6-.4 83.2-77.5 72.6-88.2-7.4-8.3-68 41.2-71.9 44.1-.7-8.6-16-51-28.3-60-14.6-9.2-32.2-4-47.8-6.6a55.4 55.4 0 0 1-23.8-25c8.2-3.5 15.3-2.4 23.3-10.6 5.7-6.7 2.4-47 .4-51-13.3-14.3 5.4-7.4-39-9.2-64.3-2.4-76 49.6-31.7 70.8C97.7 14.3 87 18 78.2 20c-8.7 0-38.8-.8-55.5 12.5-33.4 24.5-9 30.9-15.3 35.8a101.7 101.7 0 0 0-22 28.3c-10.4 5-99.4-5-116.4-1.7-16.4 1-56.5 15.8-73.2 26.6 3.6 14.2 241.5-7.6 249.3-2.4 6 3.3-2.7 51.2 2 54.9 1.7 9 116.5 5.8 125.6 5.8 7.6-18.8 15.4-81.5 21-91.6z" fill-rule="evenodd" transform="matrix(-.1285 0 0 .2044 282 186.3)" stroke-width="4.7" fill="#ffc600"/><path d="M174.9-96.6c1.5 25.5-7.1 3.3-38.4 3.3-60.5-5-39.3 99.2-39.3 67C71-40 52.4-126.4 127-123.1c23.5 0 45 7.9 48 26.6z" fill-rule="evenodd" transform="matrix(-.1542 0 0 .1434 285.6 187.1)" stroke-width="5.1"/><path d="M388 96.6c0 1.7-.2 8-.9 11.6-.4 3.8-1.5 8.1-2.5 10.9-.3 4.4-2 5.1-2.4 10-1.6 2.2-2.3 5.9-2.5 10 0 4.2.6 7.5.8 11.6.5 3.6 1.6 6.4 1.7 10.8 0 4.4 0 7.6-1.7 10v5.8" transform="matrix(-.202 0 0 .2044 353.2 179.9)" stroke-width="3.8" fill="none"/><path d="M383.8 76.6c.6 0 1 20.1 5.8 25 1 3.2 4.6 7.3 5.9 10a15 15 0 0 0 8.3 6.6h11.6c4.7 0 7.5 0 10.9-1.6a7.8 7.8 0 0 0 3.3-3.4m12.5 2.5h.8c-2.3 0-1 0 3.4 1.7 1.7 2.5 3.7 3.6 6.6 5a24 24 0 0 0 10.8 1.6c4.2-.3 6.8-1.6 9.2-3.3 4-1.3 4.8-3 5.8-7.5v-11.6c-.5-3.6-1.4-6.4-2.5-9.2-.4-1.2-.8-.7-.8-2.5m35 31.6c-.5 0-2.7 2.6-4.2 5-2.6 1-3.2 3.8-4.2 5.9-.6 2.6-1.6 2.8-1.6 6.6-1.7 3.7-2.2 7-2.5 10.9l2.5-10.9c-1.7 3.7-2.2 7-2.5 10.9m-36.7-95h-.8c2.3 0 1.1 0-3.3.9a27 27 0 0 1-7.5 5.8c-3 1.8-5.4 4-8.3 5l8.3-5c-3 1.8-5.4 4-8.3 5m-39.2-15h.9c-2.3 0-1.1 0 3.3.8 3 1.4 4.7 3 7.5 5 1.3 2 3.2 2.3 4.1 5.9 1.6.8 2.2 1.6 2.5 4.1m6.7-37.4h4.2c4.5 0 6.7.6 10.8.8 3.5-.4 4.4-1.7 7.5-2.5m-6.7 105c.2.6 1.7 4.2 2.5 5.7 1.5 2.6 3.6 5 4.2 8.4 1 2.9 1.5 6.2 1.7 10 .7 3.5 1.2 6.6-.9 9.1-.9 3.3-2.5 5.7-4.1 9.2-1.1 0-.9-.3-.9.8M416.3 135v.8c0-2.2 0-1.1-.9 3.3-1.1 4-2.1 7.4-4.1 10-1.1 3.3-2.3 4.5-2.5 9.2.6 1.5.8 3.2.8 5.8m2.5 5v4.2c1 1.2.6 1.3 1.7 1.6M343 128.2v.8c0-2.3-.2-.9 4.2.9 3.6.6 8 1 10.8 1.6 2.7 1.4 5.3 3.5 7.5 5 2 1.8 4.8 3.5 7.5 5a11 11 0 0 1 5.8 5.9c1 1.2.6 1.3 1.7 1.6" transform="matrix(-.202 0 0 .2044 353.2 179.9)" stroke-width="3.8" fill="none"/><path d="M423.8-16.7c.1-.1 2.4-1.9 5-2.5 1.8-1.3 4.8-.7 6.6 0" transform="matrix(-.3155 0 0 .2044 403.2 180.6)" stroke-width="3" fill="none"/><path d="M445.4-19.2h.9c-2.3 0-1.2.1 3.3-.8 3.5-1.1 7.7-.8 11.6-.8 1.2.4.9.2.9 1.6M444.6-7.5v.8c0-2.3-.1-1 1.7 3.4.6 3 1.7 7 .8 9.1-2.2 0-2.9-.3-4.2-.8" transform="matrix(-.2454 0 0 .2044 373.5 180.6)" stroke-width="3.4" fill="none"/><path d="M371.3-25c0 3.2-4 5.8-9.1 5.8S353-21.8 353-25s4.1-5.8 9.2-5.8 9.1 2.6 9.1 5.8z" fill-rule="evenodd" transform="matrix(-.2418 -.035 -.024 .115 350.6 199)" stroke-width="4.5"/><path d="M371.3-25c0 3.2-4 5.8-9.1 5.8S353-21.8 353-25s4.1-5.8 9.2-5.8 9.1 2.6 9.1 5.8z" fill-rule="evenodd" transform="matrix(-.175 -.023 -.0174 .0756 330.5 187.5)" stroke-width="6.5"/><path d="M371.3-25c0 3.2-4 5.8-9.1 5.8S353-21.8 353-25s4.1-5.8 9.2-5.8 9.1 2.6 9.1 5.8z" fill-rule="evenodd" transform="matrix(-.175 -.023 -.0174 .0756 325.2 187)" stroke-width="6.5"/><path d="M413 113.6c0 2.1-2 3.8-4.2 3.8-2.3 0-4.2-1.7-4.2-3.8s1.9-3.7 4.2-3.7c2.3 0 4.1 1.7 4.1 3.7zm56.6 6.3c0 1.4-1.3 2.5-3 2.5-1.6 0-2.9-1.1-2.9-2.5s1.3-2.5 3-2.5c1.6 0 2.9 1.1 2.9 2.5z" fill-rule="evenodd" transform="matrix(-.202 0 0 .2044 353.2 179.9)" stroke-width="3.8"/><path d="M447 31.6v.9c0-2.8.3-1-4 3.3a12.6 12.6 0 0 0-6.7 6.7 25.6 25.6 0 0 0-2.5 10.8v6.6m-14.2-29.1c.6 0 1.5 2.3 2.5 5a16 16 0 0 1 3.3 9.2c0 4.5.8 6.4.9 10.8V59m78.2 70c0 .4-2.6 1.4-4.1 3.3-3.2.4-6 .8-10 .8-.6-1-1.8-1.2-3.3-1.7" transform="matrix(-.202 0 0 .2044 353.2 179.9)" stroke-width="3.8" fill="none"/></g><g fill-rule="evenodd" stroke="#000" stroke-width="3.8" fill="#fff"><path d="M276.4 36.6l88.3 1.7V50S373 65 378 98.2c5 33.3 10 158.2 10 158.2L409.6 398s-13.3 21.6-23.3 20c-10-1.7-40-13.4-40-15 0-1.7-1.6-80-5-133.2-3.3-53.3-10-81.6-25-105-20 48.3-21.6 98.3-20 98.3s1.8 40 3.4 70c1.7 30-1.6 71.5-1.6 71.5l-58.3-3.3s1.6-36.6 3.3-65c1.7-28.2 6.8-41.6 8.3-73.2 1.8-35 4.2-53.3 6.7-109.9 3.2-45.7 14.7-75.3 17.9-103.2.9-7.2-.4-12.5.4-13.4z" transform="matrix(-.209 0 0 .1326 334.4 211.4)"/><path d="M316.4 166.5s-8.3-13.3-11.7-36.6-3.3-28.3-3.3-28.3M298 233l-10 40" transform="matrix(-.209 0 0 .1326 334.4 211.4)"/><path d="M276.4 223.1l11.7 55" transform="matrix(-.209 0 0 .1326 322 211.6)"/><path d="M388 418l-11.7-81.7M276.4 45l88.3 1.6M318 164.8c0-1.6 5-30 5-30M284.7 45l-8.3 84.9" transform="matrix(-.209 0 0 .1326 334.4 211.4)"/></g><path d="M549.2 538.6a248 248 0 1 1-496 0 248 248 0 0 1 496 0z" stroke="#006a00" stroke-width="6.3" fill="none" transform="matrix(.4628 0 0 .4634 181.2 -9.5)"/><g stroke-width="1pt"><path d="M446.2 215.4c14.4 12.3-2.9 24.7-10.9 24.7s-25.2-12.4-10.8-24.7c-3.6 12.3 10.8 15.4 10.8 21.6 0-6.2 14.5-9.3 10.9-21.6z" fill-rule="evenodd" fill="#006a00"/><path d="M336.6 432.3c35.4 124-53.1 106.3-53.1 141.7 0-35.4-88.6-17.7-53.2-141.7" stroke="#000" fill="none" transform="matrix(.2038 0 0 .1738 377.6 140.3)"/></g><g stroke-width="1pt"><path d="M310.3 112c13.8-13 24.2 5.6 23.3 13.5-1 8-15 23.8-25.7 8.1 11.9 5 16.5-9 22.6-8.4-6.1-.7-7.6-15.4-20.2-13.2z" fill-rule="evenodd" fill="#006a00"/><path d="M336.6 432.3c35.4 124-53.1 106.3-53.1 141.7 0-35.4-88.6-17.7-53.2-141.7" stroke="#000" fill="none" transform="matrix(.0225 -.2028 .1725 .0192 228.2 172)"/></g><g stroke-width="1pt"><path d="M347 361.8c-10 16.2-24.7.9-25.9-7-1.2-8 8.4-26.9 22.7-14.4-12.7-1.8-13.6 13-19.7 14 6.1-1 11.3 12.8 23 7.4z" fill-rule="evenodd" fill="#006a00"/><path d="M336.6 432.3c35.4 124-53.1 106.3-53.1 141.7 0-35.4-88.6-17.7-53.2-141.7" stroke="#000" fill="none" transform="matrix(.0304 .2018 -.1716 .026 411 282.7)"/></g><g stroke-width="1pt"><path d="M194.1 247c-13.6-13.1 4.4-24.3 12.3-23.8 8 .5 24.5 13.8 9.3 25.2 4.4-12-9.8-16-9.4-22.2-.4 6.2-15 8.4-12.2 20.9z" fill-rule="evenodd" fill="#006a00"/><path d="M336.6 432.3c35.4 124-53.1 106.3-53.1 141.7 0-35.4-88.6-17.7-53.2-141.7" stroke="#000" fill="none" transform="matrix(-.2034 -.0127 .0108 -.1734 257.9 326.3)"/></g><g stroke-width="1pt"><path d="M435.5 184.2c16.8 8.7 2.8 24.7-5 26.5-7.7 1.8-27.4-6.2-16.1-21.5-.7 12.8 14 12.5 15.5 18.5-1.5-6 11.9-12.3 5.6-23.5z" fill-rule="evenodd" fill="#006a00"/><path d="M336.6 432.3c35.4 124-53.1 106.3-53.1 141.7 0-35.4-88.6-17.7-53.2-141.7" stroke="#000" fill="none" transform="matrix(.1984 -.0468 .0398 .1692 351.5 126.9)"/></g><g stroke-width="1pt"><path d="M275.6 120.4c9-16.8 24.7-2.4 26.4 5.4 1.7 7.8-6.7 27.3-21.8 15.8 12.8.9 12.8-13.9 18.8-15.2-6 1.3-12.1-12.2-23.4-6z" fill-rule="evenodd" fill="#006a00"/><path d="M336.6 432.3c35.4 124-53.1 106.3-53.1 141.7 0-35.4-88.6-17.7-53.2-141.7" stroke="#000" fill="none" transform="matrix(-.0432 -.1994 .1696 -.0368 216.9 203.4)"/></g><g stroke-width="1pt"><path d="M383.9 347.6c-4 18.5-23 9.2-26.8 2.1-3.8-7-1.2-28 16.4-21.2-12.5 2.7-8.3 16.8-13.7 19.8 5.4-3 15 8.3 24-.7z" fill-rule="evenodd" fill="#006a00"/><path d="M336.6 432.3c35.4 124-53.1 106.3-53.1 141.7 0-35.4-88.6-17.7-53.2-141.7" stroke="#000" fill="none" transform="matrix(.097 .1795 -.1526 .0827 417.2 251.4)"/></g><g stroke-width="1pt"><path d="M201 279.4c-17.1-8.2-3.6-24.6 4.1-26.6 7.7-2.1 27.6 5.3 16.9 21 .3-12.9-14.5-12.1-16-18 1.5 5.9-11.6 12.6-5 23.6z" fill-rule="evenodd" fill="#006a00"/><path d="M336.6 432.3c35.4 124-53.1 106.3-53.1 141.7 0-35.4-88.6-17.7-53.2-141.7" stroke="#000" fill="none" transform="matrix(-.1968 .0528 -.045 -.168 286.7 334.1)"/></g><g stroke-width="1pt"><path d="M418.3 160.3c18.8 2.7 10.7 22.4 4 26.6-6.7 4.3-28 3.2-22.3-15 3.5 12.4 17.4 7.2 20.7 12.4-3.3-5.2 7.2-15.5-2.4-24z" fill-rule="evenodd" fill="#006a00"/><path d="M336.6 432.3c35.4 124-53.1 106.3-53.1 141.7 0-35.4-88.6-17.7-53.2-141.7" stroke="#000" fill="none" transform="matrix(.172 -.1093 .093 .1467 320.2 133.7)"/></g><g stroke-width="1pt"><path d="M246 137.4c4.7-18.4 23.3-8.2 26.8-1 3.5 7.1 0 28-17.3 20.5 12.6-2.2 9-16.5 14.5-19.2-5.5 2.7-14.6-9-24-.3z" fill-rule="evenodd" fill="#006a00"/><path d="M336.6 432.3c35.4 124-53.1 106.3-53.1 141.7 0-35.4-88.6-17.7-53.2-141.7" stroke="#000" fill="none" transform="matrix(-.0895 -.1833 .156 -.0763 208.6 232)"/></g><g stroke-width="1pt"><path d="M410.2 328c1.5 18.9-19.4 15.3-25 9.7-5.7-5.7-9.2-26.6 9.7-25-11.3 6-3.2 18.5-7.6 22.8 4.4-4.3 16.8 3.7 22.9-7.6z" fill-rule="evenodd" fill="#006a00"/><path d="M336.6 432.3c35.4 124-53.1 106.3-53.1 141.7 0-35.4-88.6-17.7-53.2-141.7" stroke="#000" fill="none" transform="matrix(.144 .1443 -.1227 .123 414.7 226.3)"/></g><g stroke-width="1pt"><path d="M213.8 306.3c-18.6-3.9-9.3-23-2.3-26.8 7-3.9 28-1.4 21.3 16.3-2.8-12.5-16.9-8.2-19.9-13.6 3 5.4-8.2 15 1 24z" fill-rule="evenodd" fill="#006a00"/><path d="M336.6 432.3c35.4 124-53.1 106.3-53.1 141.7 0-35.4-88.6-17.7-53.2-141.7" stroke="#000" fill="none" transform="matrix(-.1786 .0983 -.0836 -.1523 310 339)"/></g><g stroke-width="1pt"><path d="M393.3 138.2c18.9-2.4 16.3 18.7 10.9 24.6-5.4 5.9-26.1 10.4-25.5-8.6 6.7 11 18.7 2.4 23.2 6.5-4.5-4.1 3-16.9-8.6-22.5z" fill-rule="evenodd" fill="#006a00"/><path d="M336.6 432.3c35.4 124-53.1 106.3-53.1 141.7 0-35.4-88.6-17.7-53.2-141.7" stroke="#000" fill="none" transform="matrix(.1375 -.1507 .128 .1172 291.7 138.2)"/></g><g stroke-width="1pt"><path d="M221.6 159.6c-.2-19 20.4-14 25.7-8 5.2 6 7.4 27.1-11.4 24.3 11.6-5.4 4.4-18.3 9-22.3-4.6 4-16.4-4.8-23.3 6z" fill-rule="evenodd" fill="#006a00"/><path d="M336.6 432.3c35.4 124-53.1 106.3-53.1 141.7 0-35.4-88.6-17.7-53.2-141.7" stroke="#000" fill="none" transform="matrix(-.1344 -.1534 .1305 -.1146 210.4 260.8)"/></g><g stroke-width="1pt"><path d="M428 301.2c6 18-15.2 19.5-22 15.4-6.8-4.2-15.2-23.7 3.5-26.7-9.4 8.6 1.3 18.8-2 24 3.3-5.2 17.2-.3 20.5-12.7z" fill-rule="evenodd" fill="#006a00"/><path d="M336.6 432.3c35.4 124-53.1 106.3-53.1 141.7 0-35.4-88.6-17.7-53.2-141.7" stroke="#000" fill="none" transform="matrix(.174 .1062 -.0903 .1484 408.5 201.3)"/></g><g stroke-width="1pt"><path d="M234.8 330.2c-19 1.2-15-19.7-9.4-25.3 5.8-5.5 26.8-8.7 25 10.2-6-11.4-18.5-3.5-22.8-8 4.3 4.5-4 16.7 7.1 23z" fill-rule="evenodd" fill="#006a00"/><path d="M336.6 432.3c35.4 124-53.1 106.3-53.1 141.7 0-35.4-88.6-17.7-53.2-141.7" stroke="#000" fill="none" transform="matrix(-.1466 .1418 -.1206 -.125 336.2 336.5)"/></g><g stroke-width="1pt"><path d="M367.4 121.3c18-6 19.6 15.2 15.5 22-4.2 6.9-23.6 15.3-26.7-3.4 8.7 9.4 18.8-1.3 24 1.8-5.2-3.1-.4-17.1-12.8-20.4z" fill-rule="evenodd" fill="#006a00"/><path d="M336.6 432.3c35.4 124-53.1 106.3-53.1 141.7 0-35.4-88.6-17.7-53.2-141.7" stroke="#000" fill="none" transform="matrix(.1055 -.1746 .1485 .09 267.7 141.2)"/></g><g stroke-width="1pt"><path d="M204.5 190.4c-6.7-17.8 14.4-20.1 21.4-16.3 7 4 16 23.1-2.5 26.8 9.1-9-2-18.7 1-24-3 5.3-17.1 1-20 13.5z" fill-rule="evenodd" fill="#006a00"/><path d="M336.6 432.3c35.4 124-53.1 106.3-53.1 141.7 0-35.4-88.6-17.7-53.2-141.7" stroke="#000" fill="none" transform="matrix(-.178 -.0993 .0845 -.1518 227.9 289.4)"/></g><g stroke-width="1pt"><path d="M440.6 278.1c8 17.3-13 21.2-20.2 17.8-7.2-3.3-17.8-21.8.5-26.9-8.4 9.7 3.4 18.5.8 24.1 2.6-5.6 17-2.3 18.9-15z" fill-rule="evenodd" fill="#006a00"/><path d="M336.6 432.3c35.4 124-53.1 106.3-53.1 141.7 0-35.4-88.6-17.7-53.2-141.7" stroke="#000" fill="none" transform="matrix(.185 .0856 -.0728 .1578 409.8 181.1)"/></g><g stroke-width="1pt"><path d="M270 354c-17.4 7.5-20.7-13.5-17.2-20.7 3.6-7.1 22.3-17.2 26.9 1.2-9.4-8.7-18.6 3-24.1.2 5.5 2.7 1.8 17 14.5 19.3z" fill-rule="evenodd" fill="#006a00"/><path d="M336.6 432.3c35.4 124-53.1 106.3-53.1 141.7 0-35.4-88.6-17.7-53.2-141.7" stroke="#000" fill="none" transform="matrix(-.0905 .183 -.1555 -.077 367.7 325.8)"/></g><g stroke-width="1pt"><path d="M447.8 249.5c11.5 15.2-8.1 23.5-15.9 21.7-7.8-1.7-22-17.5-5.2-26.4-6.2 11.2 7.2 17.4 5.9 23.4 1.3-6 16-5.8 15.2-18.7z" fill-rule="evenodd" fill="#006a00"/><path d="M336.6 432.3c35.4 124-53.1 106.3-53.1 141.7 0-35.4-88.6-17.7-53.2-141.7" stroke="#000" fill="none" transform="matrix(.199 .0445 -.038 .1696 397.3 161.2)"/></g><g stroke-width="1pt"><path d="M339.3 114.3c16.4-9.6 22.4 10.8 19.8 18.3-2.6 7.6-19.9 20-26.8 2.3 10.5 7.4 18-5.3 23.9-3.3-5.8-2-4-16.7-16.9-17.3z" fill-rule="evenodd" fill="#006a00"/><path d="M336.6 432.3c35.4 124-53.1 106.3-53.1 141.7 0-35.4-88.6-17.7-53.2-141.7" stroke="#000" fill="none" transform="matrix(.0662 -.193 .1642 .0564 246 155)"/></g><g stroke-width="1pt"><path d="M305.9 364.5c-15.6 10.9-23-9-21-16.7 2-7.7 18.2-21.4 26.5-4.3-11-6.6-17.6 6.6-23.6 5 6 1.6 5.3 16.4 18 16z" fill-rule="evenodd" fill="#006a00"/><path d="M336.6 432.3c35.4 124-53.1 106.3-53.1 141.7 0-35.4-88.6-17.7-53.2-141.7" stroke="#000" fill="none" transform="matrix(-.0515 .1974 -.168 -.044 395.8 317)"/></g><g stroke-width="1pt"><path d="M196 217c-10.4-16 9.7-23 17.3-20.7 7.7 2.2 20.9 18.9 3.6 26.7 6.9-10.9-6.1-17.8-4.4-23.8-1.7 6-16.5 4.9-16.4 17.7z" fill-rule="evenodd" fill="#006a00"/><path d="M336.6 432.3c35.4 124-53.1 106.3-53.1 141.7 0-35.4-88.6-17.7-53.2-141.7" stroke="#000" fill="none" transform="matrix(-.1957 -.057 .0484 -.167 241 308.2)"/></g><g stroke="#000"><path d="M193.6 88.3c15.6 4.4 43.3 46 53.8 45.7 16.6-.4 83.2-77.5 72.6-88.2-7.4-8.3-68 41.2-71.9 44.1-.7-8.6-16-51-28.3-60-14.6-9.2-32.2-4-47.8-6.6a55.4 55.4 0 0 1-23.8-25c8.2-3.5 15.3-2.4 23.3-10.6 5.7-6.7 2.4-47 .4-51-13.3-14.3 5.4-7.4-39-9.2-64.3-2.4-76 49.6-31.7 70.8C97.7 14.3 87 18 78.2 20c-8.7 0-38.8-.8-55.5 12.5-33.4 24.5-9 30.9-15.3 35.8a101.7 101.7 0 0 0-22 28.3c-10.4 5-99.4-5-116.4-1.7-16.4 1-56.5 15.8-73.2 26.6 3.6 14.2 241.5-7.6 249.3-2.4 6 3.3-2.7 51.2 2 54.9 1.7 9 116.5 5.8 125.6 5.8 7.6-18.8 15.4-81.5 21-91.6z" fill-rule="evenodd" transform="matrix(.1285 0 0 .2044 363.6 187.5)" stroke-width="4.7" fill="#520900"/><path d="M174.9-96.6c1.5 25.5-7.1 3.3-38.4 3.3-60.5-5-39.3 99.2-39.3 67C71-40 52.4-126.4 127-123.1c23.5 0 45 7.9 48 26.6z" fill-rule="evenodd" transform="matrix(.1542 0 0 .1434 360 188.3)" stroke-width="5.1"/><path d="M388 96.6c0 1.7-.2 8-.9 11.6-.4 3.8-1.5 8.1-2.5 10.9-.3 4.4-2 5.1-2.4 10-1.6 2.2-2.3 5.9-2.5 10 0 4.2.6 7.5.8 11.6.5 3.6 1.6 6.4 1.7 10.8 0 4.4 0 7.6-1.7 10v5.8" transform="matrix(.202 0 0 .2044 292.4 181)" stroke-width="3.8" fill="none"/><path d="M383.8 76.6c.6 0 1 20.1 5.8 25 1 3.2 4.6 7.3 5.9 10a15 15 0 0 0 8.3 6.6h11.6c4.7 0 7.5 0 10.9-1.6a7.8 7.8 0 0 0 3.3-3.4m12.5 2.5h.8c-2.3 0-1 0 3.4 1.7 1.7 2.5 3.7 3.6 6.6 5a24 24 0 0 0 10.8 1.6c4.2-.3 6.8-1.6 9.2-3.3 4-1.3 4.8-3 5.8-7.5v-11.6c-.5-3.6-1.4-6.4-2.5-9.2-.4-1.2-.8-.7-.8-2.5m35 31.6c-.5 0-2.7 2.6-4.2 5-2.6 1-3.2 3.8-4.2 5.9-.6 2.6-1.6 2.8-1.6 6.6-1.7 3.7-2.2 7-2.5 10.9l2.5-10.9c-1.7 3.7-2.2 7-2.5 10.9m-36.7-95h-.8c2.3 0 1.1 0-3.3.9a27 27 0 0 1-7.5 5.8c-3 1.8-5.4 4-8.3 5l8.3-5c-3 1.8-5.4 4-8.3 5m-39.2-15h.9c-2.3 0-1.1 0 3.3.8 3 1.4 4.7 3 7.5 5 1.3 2 3.2 2.3 4.1 5.9 1.6.8 2.2 1.6 2.5 4.1m6.7-37.4h4.2c4.5 0 6.7.6 10.8.8 3.5-.4 4.4-1.7 7.5-2.5m-6.7 105c.2.6 1.7 4.2 2.5 5.7 1.5 2.6 3.6 5 4.2 8.4 1 2.9 1.5 6.2 1.7 10 .7 3.5 1.2 6.6-.9 9.1-.9 3.3-2.5 5.7-4.1 9.2-1.1 0-.9-.3-.9.8M416.3 135v.8c0-2.2 0-1.1-.9 3.3-1.1 4-2.1 7.4-4.1 10-1.1 3.3-2.3 4.5-2.5 9.2.6 1.5.8 3.2.8 5.8m2.5 5v4.2c1 1.2.6 1.3 1.7 1.6M343 128.2v.8c0-2.3-.2-.9 4.2.9 3.6.6 8 1 10.8 1.6 2.7 1.4 5.3 3.5 7.5 5 2 1.8 4.8 3.5 7.5 5a11 11 0 0 1 5.8 5.9c1 1.2.6 1.3 1.7 1.6" transform="matrix(.202 0 0 .2044 292.4 181)" stroke-width="3.8" fill="none"/><path d="M423.8-16.7c.1-.1 2.4-1.9 5-2.5 1.8-1.3 4.8-.7 6.6 0" transform="matrix(.3155 0 0 .2044 242.4 181.8)" stroke-width="3" fill="none"/><path d="M445.4-19.2h.9c-2.3 0-1.2.1 3.3-.8 3.5-1.1 7.7-.8 11.6-.8 1.2.4.9.2.9 1.6M444.6-7.5v.8c0-2.3-.1-1 1.7 3.4.6 3 1.7 7 .8 9.1-2.2 0-2.9-.3-4.2-.8" transform="matrix(.2454 0 0 .2044 272 181.8)" stroke-width="3.4" fill="none"/><path d="M371.3-25c0 3.2-4 5.8-9.1 5.8S353-21.8 353-25s4.1-5.8 9.2-5.8 9.1 2.6 9.1 5.8z" fill-rule="evenodd" transform="matrix(.2418 -.035 .024 .115 295 200.3)" stroke-width="4.5"/><path d="M371.3-25c0 3.2-4 5.8-9.1 5.8S353-21.8 353-25s4.1-5.8 9.2-5.8 9.1 2.6 9.1 5.8z" fill-rule="evenodd" transform="matrix(.175 -.023 .0174 .0756 315.1 188.7)" stroke-width="6.5"/><path d="M371.3-25c0 3.2-4 5.8-9.1 5.8S353-21.8 353-25s4.1-5.8 9.2-5.8 9.1 2.6 9.1 5.8z" fill-rule="evenodd" transform="matrix(.175 -.023 .0174 .0756 320.4 188.2)" stroke-width="6.5"/><path d="M413 113.6c0 2.1-2 3.8-4.2 3.8-2.3 0-4.2-1.7-4.2-3.8s1.9-3.7 4.2-3.7c2.3 0 4.1 1.7 4.1 3.7zm56.6 6.3c0 1.4-1.3 2.5-3 2.5-1.6 0-2.9-1.1-2.9-2.5s1.3-2.5 3-2.5c1.6 0 2.9 1.1 2.9 2.5z" fill-rule="evenodd" transform="matrix(.202 0 0 .2044 292.4 181)" stroke-width="3.8"/><path d="M447 31.6v.9c0-2.8.3-1-4 3.3a12.6 12.6 0 0 0-6.7 6.7 25.6 25.6 0 0 0-2.5 10.8v6.6m-14.2-29.1c.6 0 1.5 2.3 2.5 5a16 16 0 0 1 3.3 9.2c0 4.5.8 6.4.9 10.8V59m78.2 70c0 .4-2.6 1.4-4.1 3.3-3.2.4-6 .8-10 .8-.6-1-1.8-1.2-3.3-1.7" transform="matrix(.202 0 0 .2044 292.4 181)" stroke-width="3.8" fill="none"/></g><g fill-rule="evenodd" stroke="#000" stroke-width="3.8" fill="#fff"><path d="M276.4 36.6l88.3 1.7V50S373 65 378 98.2c5 33.3 10 158.2 10 158.2L409.6 398s-13.3 21.6-23.3 20c-10-1.7-40-13.4-40-15 0-1.7-1.6-80-5-133.2-3.3-53.3-10-81.6-25-105-20 48.3-21.6 98.3-20 98.3s1.8 40 3.4 70c1.7 30-1.6 71.5-1.6 71.5l-58.3-3.3s1.6-36.6 3.3-65c1.7-28.2 6.8-41.6 8.3-73.2 1.8-35 4.2-53.3 6.7-109.9 3.2-45.7 14.7-75.3 17.9-103.2.9-7.2-.4-12.5.4-13.4z" transform="matrix(.209 0 0 .1326 311.2 212.6)"/><path d="M316.4 166.5s-8.3-13.3-11.7-36.6-3.3-28.3-3.3-28.3M298 233l-10 40" transform="matrix(.209 0 0 .1326 311.2 212.6)"/><path d="M276.4 223.1l11.7 55" transform="matrix(.209 0 0 .1326 323.7 212.8)"/><path d="M388 418l-11.7-81.7M276.4 45l88.3 1.6M318 164.8c0-1.6 5-30 5-30M284.7 45l-8.3 84.9" transform="matrix(.209 0 0 .1326 311.2 212.6)"/></g><path d="M349.7 188.2c0 13.8-7.1 25-15.8 25-8.8 0-15.9-11.2-15.9-25s7.1-25 15.9-25c8.7 0 15.8 11.2 15.8 25z" fill-rule="evenodd" transform="matrix(.3368 0 0 .3286 143.1 206)" stroke="#000" stroke-width="2.5" fill="#ffc600"/><g stroke-width="1pt"><g fill-rule="evenodd" stroke="#000"><path d="M212.6 893s53.1-17.8 70.9-17.8c17.7 0 17.7 17.7 19.1 18.2l-1.4 35h-88.6v-35.5z" transform="matrix(.2036 0 0 .241 240 90.4)" fill="#00cfe6"/><path d="M265.8 893s0-17.8 17.7-17.8 35.4-.5 53.1 0v53.1h-70.9V893z" transform="matrix(.2036 0 0 -.241 247.2 542)" fill="#00cfe6"/><path d="M212.6 893s53.1-17.8 70.9-17.8c17.7 0 17.7 17.7 19.1 18.2l-1.4 35h-88.6v-35.5z" transform="matrix(-.2036 0 0 .241 413.1 90.4)" fill="#00cfe6"/><path d="M265.8 893s0-17.8 17.7-17.8 35.4-.5 53.1 0v53.1h-70.9V893z" transform="matrix(-.2036 0 0 -.241 406 542)" fill="#00cfe6"/><path d="M249.4 875.2s0-17.7-17.7-17.7H285l-35.4 17.7z" transform="matrix(-.2036 0 0 -.241 395.4 537.8)" fill="#fff"/><path d="M159.4 893l106.3 53s-36 33.4-70.8 35.5c-17.7 0-35.4-35.4-35.4-35.4v-53.2z" transform="matrix(-.2375 0 0 .241 418.5 90.4)" fill="#00cfe6"/><path d="M249.4 893c.8-9-2.2-35.5-19.9-35.5H285a38.1 38.1 0 0 1 35.4 35.4l-1.4 35.4h-69.4V893z" transform="matrix(-.2036 0 0 .241 402.6 94.7)" fill="#fff"/><path d="M249.4 875.2s0-17.7-17.7-17.7H285l-35.4 17.7z" transform="matrix(.2036 0 0 -.241 257.8 537.7)" fill="#fff"/><path d="M159.4 893l106.3 53s-36 33.4-70.8 35.5c-17.7 0-35.4-35.4-35.4-35.4v-53.2z" transform="matrix(.2375 0 0 .241 234.6 90.4)" fill="#00cfe6"/><path d="M249.4 893c.8-9-2.2-35.5-19.9-35.5H285a38.1 38.1 0 0 1 35.4 35.4l-1.4 35.4h-69.4V893z" transform="matrix(.2036 0 0 .241 250.5 94.6)" fill="#fff"/><path d="M88.8 891.9c-.1 1 17.6-34.4 53-34.4s177.2 70.8 248 70.8c71 0 196.6-72.5 230.4-70.8 33.8 1.7 53.5 37.1 53.1 35.4-.3-1.7-17.7 53.2-17.7 53.2a38.1 38.1 0 0 0-35.4-35.5c-17.7 0-106.3 70.9-230.4 70.9-124 0-212.5-70.9-230.2-70.9a38.1 38.1 0 0 0-35.5 35.5l-35.3-54.2z" transform="matrix(.2036 0 0 .241 247.2 90.4)" fill="#fff"/></g><path d="M362.5 313.8l-3.2-9.7 3.2-1.4.4 1-2.6 1.3 1 3 2.4-1.2.4 1.1-2.5 1.2 1 3.3 2.8-1.3.4 1.1-3.3 1.6zm-13.6 6.3l-3.1-9.7.6-.2 2.7 8.5 2.2-1 .4 1-2.8 1.4zm-4 1.9l-3.2-9.6 3-1.4.4 1.1-2.5 1.1 1 3 2.1-1 .4 1.2-2.1 1 1.4 4.3-.6.3zm-36.3.1l2-10 1.2.4v9l.7-1.4 2.9-6.5 1 .3-2 10-.8-.3 1.7-8.3-3.5 7.8-.7-.2v-9l-1.8 8.4-.7-.2zm-.4-10.9l.8.4-2 5.5c-.3 1-.6 1.6-1 2.1-.3.5-.7.9-1.1 1-.5.2-1 .2-1.6-.1-.5-.3-1-.6-1.1-1.1-.3-.5-.4-1-.3-1.7 0-.7.2-1.5.6-2.5l1.9-5.4.8.3-2 5.5c-.2.8-.4 1.4-.4 1.9l.1 1.1c.2.3.4.6.8.7.5.3 1 .3 1.4 0 .4-.3.8-1 1.2-2.2l1.9-5.5zm-15.5-6.6l.6.4-2.1 5.4-1 2.1c-.3.5-.7.9-1.1 1.1-.4.2-.8.2-1.2 0a1.7 1.7 0 0 1-.8-1c-.2-.5-.2-1 0-1.7 0-.6.3-1.4.7-2.4l2-5.4.7.3-2.2 5.4-.6 1.9v1c.2.4.3.6.6.7.4.2.8.2 1.1-.1.4-.3.8-1 1.2-2.2l2.1-5.5zm-10.2 1.7l.5.2-.2 1.3.1 1 .6.6h.7a1.1 1.1 0 0 0 .5-.3l.5-.7.2-.8a1.6 1.6 0 0 0-.2-.8c0-.2-.3-.5-.6-.9l-.6-1a2.8 2.8 0 0 1-.1-1.2l.3-1.2c.2-.5.4-.9.7-1.2.3-.4.6-.6.9-.7l1 .1c.2.2.5.5.6.8.2.4.2.8.2 1.3a5.8 5.8 0 0 1-.4 1.6l-.5-.2c.2-.6.2-1 .2-1.5a1 1 0 0 0-.6-.9h-1c-.2.2-.4.5-.5.9a2 2 0 0 0-.2 1c0 .2.2.6.6 1l.7 1.2c.2.4.3.8.2 1.3l-.3 1.4a4.8 4.8 0 0 1-.8 1.3c-.3.4-.6.6-1 .7a1.2 1.2 0 0 1-1 0 1.9 1.9 0 0 1-.8-1l-.2-1.5c0-.5.2-1.1.5-1.8zm83 .1c-.5-1.6-.7-2.9-.6-4 .1-1 .5-1.8 1.1-2 .4-.2.9-.2 1.4 0s.9.8 1.3 1.5.8 1.5 1.1 2.5l.6 2.7a5 5 0 0 1-.2 2.1c-.2.6-.5 1-1 1.1-.3.2-.8.2-1.3-.1-.4-.3-.9-.8-1.3-1.5l-1-2.3zm.7-.2c.4 1.1.8 2 1.3 2.5.5.6 1 .7 1.4.5.5-.2.7-.7.8-1.5a8 8 0 0 0-.5-3l-.9-2c-.3-.5-.6-1-1-1.1-.3-.2-.6-.3-1-.1-.3.1-.6.6-.7 1.4 0 .7.1 1.8.6 3.3zm-9 9.8l-3-9.6 1.9-.9c.4-.2.7-.2 1-.2.3.1.5.3.8.7.3.4.5.9.6 1.4.3.7.4 1.3.3 1.9 0 .5-.3 1-.7 1.3.3 0 .4.2.6.3l.9 1 1.6 2.3-.7.4-1.3-1.8a23.8 23.8 0 0 0-1.4-1.6.8.8 0 0 0-.3-.1h-.4l-.6.4 1.4 4.3-.6.2zm-1.1-5.6l1.3-.6.5-.5c.2-.2.2-.4.2-.7a3.3 3.3 0 0 0-.2-1c-.1-.4-.3-.7-.6-1-.2-.2-.5-.2-.8 0l-1.4.6 1 3.2zm-5.6 3.2c-.5-1.6-.7-2.9-.6-4 0-1 .5-1.8 1-2 .5-.2 1-.2 1.4 0s1 .8 1.4 1.5c.4.7.7 1.5 1 2.5.4 1 .6 1.9.6 2.7a5 5 0 0 1-.2 2.1c-.2.6-.5 1-.9 1.1-.4.2-.8.2-1.3-.1-.5-.3-1-.8-1.3-1.5-.5-.6-.8-1.4-1-2.3zm.6-.2c.4 1.1.9 2 1.4 2.5.5.6 1 .7 1.4.5.4-.2.7-.7.8-1.5a8 8 0 0 0-.6-3c-.2-.8-.5-1.5-.8-2-.3-.5-.7-1-1-1.1-.3-.2-.7-.3-1-.1-.4.1-.6.6-.7 1.4-.1.7 0 1.8.5 3.3zM317 324.3l1.2-10.1 2.3.3 1.2.5a3.7 3.7 0 0 1 .7 2.4 3.3 3.3 0 0 1-.5 1.3 2 2 0 0 1-.7.8c.3.2.6.6.7 1 .2.5.2 1 .2 1.6a4.5 4.5 0 0 1-.4 1.3c-.1.4-.3.7-.5.9a1.6 1.6 0 0 1-.8.4h-1l-2.4-.4zm1.5-5.8l1.4.3h.8a1 1 0 0 0 .5-.4l.3-.9v-1a1 1 0 0 0-.4-.5l-1-.3-1.2-.2-.4 3zm-.5 4.7l1.5.3h.6c.2 0 .4 0 .5-.2.2 0 .3-.3.4-.5l.2-.8v-1c-.1-.3-.3-.6-.5-.7a2 2 0 0 0-.9-.3l-1.4-.3-.4 3.5zm6.4 2.3v-10.2h2.7c.6 0 1 0 1.3.3.3.2.5.5.7 1 .2.4.3 1 .3 1.5 0 .7-.2 1.3-.5 1.8a2 2 0 0 1-1.3 1l.5.5c.3.3.5.8.7 1.3l1 2.8h-1l-.8-2.1a22.8 22.8 0 0 0-.6-1.4l-.4-.7a1 1 0 0 0-.4-.3H325v4.5h-.7zm.8-5.7h1.8c.4 0 .6 0 .9-.2l.5-.6a2.5 2.5 0 0 0 .1-1 2 2 0 0 0-.3-1.1c-.2-.3-.6-.5-1-.5h-2v3.4zm6.4 5.5l1-10.6.8-.2 4 9.5-.9.2-1.2-2.9-2.6.6-.2 3.2-.9.2zm1.2-4.6l2.1-.4-1-2.6a39 39 0 0 1-.8-2v2l-.3 3zm-40.4-5.5l3.6-9.3 1.7.9c.3.1.5.4.7.7v1.1a4.8 4.8 0 0 1-.2 1.3l-.6 1.1c-.2.3-.5.5-.8.6.2.3.3.7.3 1.2s-.2 1-.4 1.5l-.6 1.2-.6.7a1.2 1.2 0 0 1-.7.2l-.8-.3-1.6-.9zm2.7-5l1 .4c.2.2.4.2.5.2.2 0 .4 0 .5-.3.2-.1.3-.4.4-.7l.3-.9-.1-.6c-.1-.2-.3-.4-.7-.5l-.8-.5-1.1 2.8zm-1.7 4.2l1 .6.5.2a.7.7 0 0 0 .4 0l.4-.5.4-.7a3.1 3.1 0 0 0 .3-1c0-.3 0-.5-.2-.7 0-.2-.3-.4-.6-.5l-1-.6-1.2 3.2z"/></g><path d="M212.6 432.3v106.3c0 70.8 88.6 106.3 88.6 106.3s88.6-35.5 88.6-106.3V432.3H212.6z" fill-rule="evenodd" transform="matrix(.4072 0 0 .3835 201.1 45.2)" stroke="#000" stroke-width="1pt" fill="#00daec"/><path d="M212.6 432.3v106.3a83.1 83.1 0 0 0 3.8 24.9l84.8-42.6v-88.6h-88.6z" fill-rule="evenodd" transform="matrix(.4072 0 0 .3835 201.1 45.2)" stroke="#000" stroke-width="1pt" fill="#fff"/><path d="M212.6 432.3v106.3a83.1 83.1 0 0 0 3.8 24.9l84.8-42.6v-88.6h-88.6z" fill-rule="evenodd" transform="matrix(-.4072 0 0 .3835 446.4 45.2)" stroke="#000" stroke-width="1pt" fill="#fff300"/><g fill-rule="evenodd" transform="matrix(.4072 0 0 .3835 201.1 45.2)" stroke="#000" stroke-width="1.3"><path d="M244.8 87.4c7.3-6 11.1-3.7 17.6 3.1 9.3 9.8 41.3 58.9 46.3 63s4.3-6.4 10.4-1.3c3 3.7-10.5 17-13.8 14.5-6.4-5 4-5.4-.3-9.6-5-5.2-51.2-40.5-60.3-50.6-6-6.6-6.3-14 0-19z" transform="matrix(.6394 .2374 .1423 .7022 58.9 338.9)" fill="#923d09"/><rect ry="1.3" rx="2.6" transform="matrix(.7556 .655 -.586 .8104 0 0)" height="66" width="5.2" y="181.3" x="495.5" fill="#af8000"/><path transform="matrix(.8312 .556 -.641 .7675 0 0)" fill="#b0b0d4" d="M497.3 228.6h29.4v18.9h-29.4z"/></g><g stroke="#000" fill-rule="evenodd" transform="matrix(.4072 0 0 .3835 201.1 45.2)"><path d="M385.1 528.6c4.9-2.1-27.3-35.6-33.8-51.9-6.4-16.2-6-16.7-8.6-24.3l-3.1 1.4c.8 4.9 15.8 43.8 30.7 64.1 4.2 5.8.6 16.8 5.4 14.7l9.4-4z" stroke-width="1pt" fill="#af8000"/><path d="M341.5 453.6l-25.8 2.4s-4.9 4.1-2.6 12.7c2.3 8.6 9 11.9 9 11.9l22.6-17.6-3.2-9.5z" stroke-width="1pt" fill="gray"/><rect ry="3.5" rx="3.5" transform="rotate(-18.6)" height="19.4" width="7.1" y="534.6" x="175.7" stroke-width="1pt" fill="gray"/><path d="M239.6 381.5c0 7.3-1.6 13.3-3.5 13.3-2 0-3.6-6-3.6-13.3 0-7.3 1.6-13.2 3.6-13.2s3.5 5.9 3.5 13.2z" transform="matrix(.7447 -.716 .6347 .3935 -105.9 523.8)" stroke-width="1pt" fill="#cf0000"/><path d="M239.6 381.5c0 7.3-1.6 13.3-3.5 13.3-2 0-3.6-6-3.6-13.3 0-7.3 1.6-13.2 3.6-13.2s3.5 5.9 3.5 13.2z" transform="matrix(-.978 .311 .0275 .7554 595.5 104.8)" stroke-width="1pt" fill="#cf0000"/><path transform="matrix(.859 -.512 .4994 .8664 0 0)" stroke-width="1.2" fill="#b0b0d4" d="M15 596.3h79V614H15z"/></g><path d="M231.4 591.4l8.8-7s1.8 8.8 7 8.8 8.9-7.7 8.9-7.7 0 7.7 5.9 7.7 10.6-7.7 10.6-7.1c0 .6.6 7 5.3 7s10.6-6.4 10.6-6.4.6 7.6 5.9 7c5.3-.5 7-8.2 7.6-7.6.6.6 4.1 7.7 8.2 7s10-6.4 10-6.4 1.2 7 6 7 6.4-6.4 6.4-6.4 2.4 5.3 6.5 5.3 10.6-6 10.6-6" transform="matrix(.389 0 0 .3835 211.3 51.7)" stroke="#0072ff" stroke-width="1pt" fill="none"/><path d="M232 591.4c3-1.4 5.6.2 9.4-7.7 0 4.2 3 9.5 8.2 9.5s8.8-7.7 8.8-7.7 0 7.7 6 7.7 10.5-7.7 10.5-7.1c0 .6.6 7 5.3 7s10.6-6.4 10.6-6.4.6 7.6 6 7c5.2-.5 7-8.2 7.6-7.6.6.6 4 7.7 8.2 7 3-.5 10-7 10-7" transform="matrix(.4072 0 0 .3835 212.1 55.8)" stroke="#0072ff" stroke-width="1pt" fill="none"/><g fill-rule="evenodd"><path d="M305.5 350.6v18.9h14.8l-5.3-18.9h-9.5z" transform="matrix(.3216 0 0 .286 236.6 162.3)" stroke="#000" stroke-width="1pt" fill="#fff"/><path d="M341.3 265.4c-.1.2-7.5 3.7-17.2 3.7s-13.4-1-14.4-1.7c-1-.6-2-2-3.2-2-1.1 0-2 .9-2 .9s1.8.8 3.1 1.8c1.4 1 1.7 2.9 1.7 2.9l31.3.3-.2-2.9c0-1 1.1-2.5 1-3z"/><path d="M314 253.5h.8V269h-.7zm10.3-2h.8v17.8h-.8zm10 3h.8V269h-.8z"/><path stroke="#000" fill="#fff" d="M299 342.4h19v8.8h-19z" transform="matrix(.3216 0 0 .286 235.3 157.6)"/><path stroke="#000" stroke-width="1.1" fill="#fff" d="M297.9 350.6h21.8v8.8h-21.8z" transform="matrix(.3216 0 0 .286 235.3 157.6)"/><path stroke="#000" stroke-width="1.2" fill="#fff" d="M296.7 358.9h24.1v8.8h-24z" transform="matrix(.3216 0 0 .286 235.3 157.6)"/><path stroke="#000" stroke-width="1.4" fill="#fff" d="M266.2 334.7H290v12.5h-23.8z" transform="matrix(.3216 0 0 .286 235.3 157.6)"/><path stroke="#000" stroke-width="1.5" fill="#fff" d="M264.7 346.4h27.5V359h-27.5z" transform="matrix(.3216 0 0 .286 235.3 157.6)"/><path stroke="#000" stroke-width="1.6" fill="#fff" d="M263.2 358.1h30.5v12.5h-30.5z" transform="matrix(.3216 0 0 .286 235.3 157.6)"/><path stroke="#000" stroke-width="1.3" fill="#fff" d="M260.2 368.3h36.5v15.3h-36.5z" transform="matrix(.3216 0 0 .286 235.3 157.6)"/><path stroke="#000" fill="#fff" d="M238.3 342.4H254v10.4h-15.8z" transform="matrix(.3216 0 0 .286 235.3 157.6)"/><path stroke="#000" stroke-width="1.1" fill="#fff" d="M237.3 352h18.2v10.5h-18.2z" transform="matrix(.3216 0 0 .286 235.3 157.6)"/><path stroke="#000" stroke-width="1.2" fill="#fff" d="M236.3 361.8h20.2v10.4h-20.2z" transform="matrix(.3216 0 0 .286 235.3 157.6)"/><path stroke="#000" fill="#fff" d="M234.3 370.3h24.1V383h-24zM220 377.5h9.9l10.6-33.4-20.5 33.4z" transform="matrix(.3216 0 0 .286 235.3 157.6)"/><path d="M314.3 253.6l.7.3-9.2 12.7-.7-.3z"/></g><path d="M231.4 591.4l8.8-7s1.8 8.8 7 8.8 8.9-7.7 8.9-7.7 0 7.7 5.9 7.7 10.6-7.7 10.6-7.1c0 .6.6 7 5.3 7s10.6-6.4 10.6-6.4.6 7.6 5.9 7c5.3-.5 7-8.2 7.6-7.6.6.6 4.1 7.7 8.2 7s10-6.4 10-6.4 1.2 7 6 7 6.4-6.4 6.4-6.4 2.4 5.3 6.5 5.3 7-7 7-7 1.2 6.4 4.2 6.4 6.5-6.5 6.5-6.5 1.1 8.3 4 7.7c3-.6 4.2-8.3 4.8-7.7.6.6 4.7 7 4.1 7" transform="matrix(.3847 0 0 .3835 208 47)" stroke="#0072ff" stroke-width="1pt" fill="none"/></g></svg>