<svg xmlns="http://www.w3.org/2000/svg" xmlns:xlink="http://www.w3.org/1999/xlink" viewBox="0 0 640 480"><style><![CDATA[.B{stroke:#000}.C{fill:#0000c4}.D{fill:#e10000}.E{stroke-width:.8}.F{stroke-width:1pt}.G{fill:#ffdf00}.H{fill-rule:evenodd}.I{fill:#005b00}.J{stroke-width:.737}.K{stroke-width:.471}.L{stroke-width:.738}.M{stroke-width:.545}.N{stroke-width:.859}.O{stroke-width:.853}]]></style><g class="H"><path fill="#ffe800" d="M0 0h640v480H0z"/><path fill="#00148e" d="M0 240h640v240H0z"/><path fill="#da0010" d="M0 360h640v120H0z"/><path d="M269.6 290.8L197 367.3l-1.2-1.6 72.4-76.5 1.2 1.6zm50.4 12.5l-94.8 100-1.6-1.6 94.7-100 1.7 1.6z"/><g fill="gray" stroke-width="4.1" class="B"><use xlink:href="#B" transform="matrix(-.07 -.07 -.1 .1 265 429.6)"/><use xlink:href="#B" transform="matrix(-.07 -.07 -.1 .1 240.6 390.5)"/></g><g class="B J"><path d="M207.94 114.792s-7.965 215.424 23.895 215.424 47.835-22.656 47.835-22.656l-.36-118.4-71.37-74.368z" class="G"/><path d="M227.425 134.888c0 11.328-3.555 172.672 12.375 172.672s39.87-11.328 39.87-11.328l-.36-107.072-51.885-54.272z" class="C"/><path d="M237.775 145.768c0 11.328 2.025 139.136 18 139.136h23.895l-.36-95.744-41.535-43.392z" class="D"/></g><path d="M206.2 116l72.4 76.5 1.3-1.6-72.4-76.5-1.3 1.6z"/><path d="M184.296 158.936s-20.532 208.692 41.064 208.692c51.33 0 51.33-32.922 61.596-32.922l-10.266-76.88-92.452-98.9z" class="B E G"/></g><g class="B"><path fill="none" stroke-width="2.3" d="M269.6 155.2c1.1 0 28.3-94 119-147.2" transform="matrix(.4 -.03 -.05 .35 135.1 147.4)"/><g class="F H"><use xlink:href="#C" transform="matrix(.14 -.22 .3 .14 175.9 257.4)" class="I"/><use xlink:href="#D" fill="red" transform="matrix(.18 -.1 .1 .17 177.6 256.7)"/><g class="I"><use xlink:href="#C" transform="matrix(.18 .12 -.13 .33 181 96.4)"/><use xlink:href="#C" transform="matrix(.17 -.03 -.03 .33 179.3 159.3)"/><use xlink:href="#C" transform="matrix(.06 .25 -.17 .2 228 45.5)"/><use xlink:href="#C" transform="matrix(.2 -.2 .2 .24 150.3 241)"/><use xlink:href="#C" transform="matrix(.22 -.22 .25 .2 135.6 282.1)"/><use xlink:href="#C" transform="matrix(.26 .1 -.2 .32 130.8 147.7)"/><use xlink:href="#C" transform="matrix(.15 .2 -.32 .22 178.5 103.3)"/><use xlink:href="#C" transform="matrix(.08 .1 -.14 .16 250.7 102.6)"/><use xlink:href="#C" transform="matrix(.1 0 -.08 .17 238 136.4)"/><use xlink:href="#C" transform="matrix(0 .14 -.14 .08 287.4 81.1)"/><use xlink:href="#C" transform="matrix(.07 .1 -.25 .15 220.7 115.6)"/><use xlink:href="#C" transform="matrix(.13 .22 -.33 .2 207 70.1)"/></g></g><path fill="none" stroke-width="2.4" d="M269.6 155.2c1.1 0 28.3-94 119-147.2" transform="matrix(.35 -.2 .14 .28 111.8 227.8)"/><g class="H"><g fill="red" class="F"><use xlink:href="#D" transform="matrix(.18 -.1 .1 .17 200.3 224.6)"/><use xlink:href="#D" transform="matrix(.18 -.1 .1 .17 211.1 218.3)"/><use xlink:href="#D" transform="matrix(.2 -.1 .07 .13 166.8 232.7)"/><use xlink:href="#D" transform="matrix(.2 -.1 .07 .13 170 231.3)"/><use xlink:href="#D" transform="matrix(.2 -.1 .07 .13 168.1 234.3)"/></g><g stroke-width=".3"><path fill="red" d="M252.7 167.3c.4.8 0 1.8-1 2.3s-2 .2-2.4-.7 0-1.8 1-2.3 2-.2 2.3.7z"/><path fill="red" d="M255 164.9c.3.8 0 1.8-1 2.3s-2 .2-2.5-.6 0-1.9 1-2.4 2-.1 2.4.7z"/><path fill="red" d="M255.5 166c.4.8 0 1.9-1 2.3s-2 .2-2.4-.6 0-1.8 1-2.3 2-.2 2.4.6z"/></g></g></g><g class="H"><g class="E B"><path d="M204.828 180.946c0 10.974-20.532 131.812 30.856 164.734 20.532 10.974 51.33-10.974 51.33 0l-10.266-87.854-71.92-76.88z" class="C"/><path d="M225.36 202.894c0 10.974-10.266 98.828 20.6 120.838 20.532 21.948 71.92 15.996 71.92 15.996l-41.122-81.902-51.388-54.932z" class="D"/></g><path d="M183.8 158l94.8 100 1.7-1.6-94.8-99.9-1.6 1.6z"/><g class="B"><g fill="#cececc" class="F"><use xlink:href="#E" transform="matrix(.14 -.14 .1 .1 86.3 192.2)"/><use xlink:href="#F" transform="matrix(.1 -.16 .14 .1 114 183.8)"/></g><path d="M212.8 110.9c0 .6-.8 1.1-1.72 1.1s-1.76-.5-1.76-1.1.8-1.14 1.76-1.14 1.72.5 1.72 1.14zm-2.48 2.37c0 10.74 8.36 56.34 9.04 57.45.04 1.35-1.92 1.92-2.84.27-2.64-5.22-8.32-48-8.52-58-.12-4.1 1.48-4.44 3.32-4.35 1.48.06 3.32 1.1 3.32 2.37 0 1.5-2.32 2.6-4.32 2.25z" class="D K"/><use xlink:href="#G" transform="matrix(.38 .1 -.15 .3 76 38.2)" class="C F"/><path stroke-width=".7" d="M186.7 151.5c0 1-1 2-2.2 2s-2.2-1-2.2-2 1-1.8 2.2-1.8 2.1.8 2.1 1.8zm-3.2 4c0 17.9 10.5 93.9 11.3 95.8 0 2.2-2.3 3.2-3.5.4-3.3-8.7-10.4-80-10.7-96.6-.1-6.9 1.9-7.4 4.2-7.3 1.9.1 4.1 1.9 4.1 4 0 2.4-2.9 4.3-5.4 3.7z" class="D"/><use xlink:href="#G" transform="matrix(.48 .15 -.2 .48 16.7 31.6)" class="C F"/></g><path d="M370.4 290.8l72.5 76.5 1.3-1.6-72.5-76.5-1.3 1.6zM320 303.3l94.8 100 1.6-1.6-94.7-100-1.7 1.6z"/><g fill="gray" stroke-width="4.1" class="B"><use xlink:href="#B" transform="matrix(.07 -.07 .1 .1 375 429.6)"/><use xlink:href="#B" transform="matrix(.07 -.07 .1 .1 399.4 390.5)"/></g><g class="B J"><path d="M432.06 114.792s7.965 215.424-23.895 215.424-47.835-22.656-47.835-22.656l.36-118.4 71.37-74.368z" class="G"/><path d="M412.575 134.888c0 11.328 3.555 172.672-12.375 172.672s-39.87-11.328-39.87-11.328l.36-107.072 51.885-54.272z" class="C"/><path d="M402.225 145.768c0 11.328-2.025 139.136-18 139.136H360.33l.36-95.744 41.535-43.392z" class="D"/></g><path d="M433.8 116l-72.4 76.5-1.3-1.6 72.4-76.5 1.3 1.6z"/><g class="B"><g class="F I"><use xlink:href="#H" transform="matrix(.16 -.07 .08 .35 309.5 211)"/><use xlink:href="#H" transform="matrix(.2 -.05 .07 .4 291.5 182.6)"/><use xlink:href="#H" transform="matrix(.23 .14 -.03 .4 296.5 69.4)"/><use xlink:href="#H" transform="matrix(.25 .03 .02 .44 274.4 115)"/><use xlink:href="#H" transform="matrix(.18 .17 -.04 .35 330 67)"/><use xlink:href="#H" transform="matrix(.23 0 .03 .4 280.6 141.9)"/><use xlink:href="#H" transform="matrix(.2 -.07 .07 .38 290.1 196.8)"/><use xlink:href="#H" transform="matrix(.2 -.03 .05 .4 292.7 166.8)"/><use xlink:href="#H" transform="matrix(.22 .15 -.05 .38 305 65.5)"/><use xlink:href="#H" transform="matrix(.24 .05 0 .44 278.9 97.7)"/><use xlink:href="#H" transform="matrix(.17 .17 -.06 .33 339 70)"/><use xlink:href="#H" transform="matrix(.24 .02 0 .4 276.4 128)"/></g><g class="E"><path d="M455.704 158.936s20.532 208.692-41.064 208.692c-51.33 0-51.33-32.922-61.596-32.922l10.266-76.88 92.452-98.9z" class="G"/><path d="M435.172 180.946c0 10.974 20.532 131.812-30.856 164.734-20.532 10.974-51.33-10.974-51.33 0l10.266-87.854 71.92-76.88z" class="C"/><path d="M414.64 202.894c0 10.974 10.266 98.828-20.6 120.838-20.532 21.948-71.92 15.996-71.92 15.996l41.122-81.902 51.388-54.932z" class="D"/></g></g><path d="M456.2 158l-94.8 100-1.7-1.6 94.8-99.9 1.7 1.6z"/><g class="B"><g fill="#cececc" class="F"><use xlink:href="#E" transform="matrix(-.14 -.14 -.1 .1 553.7 192.2)"/><use xlink:href="#F" transform="matrix(-.1 -.16 -.14 .1 526 183.8)"/></g><path d="M427.3 110.9c0 .6.8 1.1 1.72 1.1s1.76-.5 1.76-1.1-.8-1.14-1.76-1.14-1.72.5-1.72 1.14zm2.48 2.37c0 10.74-8.36 56.34-9.04 57.45-.04 1.35 1.92 1.92 2.84.27 2.64-5.22 8.32-48 8.52-58 .12-4.1-1.48-4.44-3.32-4.35-1.48.06-3.32 1.1-3.32 2.37 0 1.5 2.32 2.6 4.32 2.25z" class="D K"/><use xlink:href="#G" transform="matrix(-.38 .1 .15 .3 564 38.2)" class="C F"/><path stroke-width=".7" d="M453.4 151.5c0 1 1 2 2.1 2 1.2 0 2.2-1 2.2-2s-1-1.8-2.2-1.8-2.1.8-2.1 1.8zm3 4a1152 1152 0 0 1-11.2 95.8c0 2.2 2.3 3.2 3.5.4 3.3-8.7 10.4-80 10.7-96.6.1-6.9-1.9-7.4-4.2-7.3-1.9.1-4.1 1.9-4.1 4 0 2.4 2.9 4.3 5.4 3.7z" class="D"/><use xlink:href="#G" transform="matrix(-.48 .15 .2 .48 623.3 31.6)" class="C F"/><path d="M287.072 422.56c9.535 5.855 21.263 5.855 30.798 0v-87.854h-20.532c10.266 32.922 10.266 65.906-10.324 87.854z" class="D E"/><g class="C L"><path d="M303.33 336.65c0 61.95-14.875 75.74-14.875 88.2 6.195 0 10.325-5.8 14.875-13.8 6.195-12.46 6.8-75.4 6.195-74.4h-6.195z"/><path d="M290.94 336.65c-.315 36.2-15.68 69.72-12.775 77.14 3.3 6.65 12.775-15.2 25.165-2.8 6.195-12.4 6.8-75.32 6.195-74.4H290.94z"/></g><g class="G M"><path d="M292.33 331.37c0 40.7-14.245 43.424-14.245 54.28 6.195 0 14.2-5.934 14.245-5.382 6.195-8.188 6.8-49.542 6.195-48.898h-6.195z"/><path d="M279.94 331.37c-.315 23.782-15.33 44.022-12.425 48.898 3.325 4.324 12.425-8.188 24.815 0 6.195-8.188 6.8-49.542 6.195-48.898H279.94z"/></g><path d="M352.928 422.56c-9.535 5.855-21.263 5.855-30.798 0v-87.854h20.532c-10.266 32.922-10.266 65.906 10.324 87.854z" class="D E"/><g class="C L"><path d="M336.67 336.65c0 61.95 14.875 75.74 14.875 88.2-6.195 0-10.325-5.8-14.875-13.8-6.195-12.46-6.8-75.4-6.195-74.4h6.195z"/><path d="M349.06 336.65c.315 36.2 15.68 69.72 12.775 77.14-3.3 6.65-12.775-15.2-25.165-2.8-6.195-12.4-6.8-75.32-6.195-74.4h18.585z"/></g><g class="G M"><path d="M347.67 331.37c0 40.7 14.245 43.424 14.245 54.28-6.195 0-14.2-5.934-14.245-5.382-6.195-8.188-6.8-49.542-6.195-48.898h6.195z"/><path d="M360.06 331.37c.315 23.782 15.33 44.022 12.425 48.898-3.325 4.324-12.425-8.188-24.815 0-6.195-8.188-6.8-49.542-6.195-48.898h18.585z"/></g><path fill="#908f8a" d="M241.632 341.56l-10.764 7.788 10.764 7.788 5.376-3.894 2.688 3.894 2.688 7.788 2.7-7.788 2.688-3.894H402v-7.788H257.76l-2.688-3.916c0-3.894.564-7.788 2.7-7.788h10.752c0-3.894-5.376-11.682-16.14-11.682-10.752 0-16.14 7.788-16.14 11.682h10.764c2.124 0 2.688 3.894 2.688 7.8l-2.688 3.894-5.388-3.916z" stroke-width=".797"/><path fill="#b74d00" d="M273.204 360.44h94.276v4.78h-94.248zm0-4.806h94.276v4.806h-94.248zm0-4.78h94.276v4.806h-94.248zm0-4.78h94.276v4.78h-94.248zm0-4.78h94.276v4.78h-94.248zm0-4.806h94.276v4.806h-94.248zm0-4.752h94.276v4.752h-94.248z" stroke-width=".495"/><g fill="#908f8a"><g class="N"><path d="M277.7 331.454l34.45 33.48h4.925L282.65 331.48h-4.925z"/><path d="M277.7 365.946l34.45-33.48h4.925L282.65 365.92h-4.925z"/></g><use xlink:href="#I" class="O"/><g class="N"><path d="M322 331.454l34.45 33.48h4.925L326.95 331.48h-4.925z"/><path d="M322 365.946l34.45-33.48h4.925L326.95 365.92h-4.925z"/></g><g class="O"><use xlink:href="#I" x="78.8"/><use xlink:href="#I" x="44.4"/><use xlink:href="#I" x="34.4"/></g></g><g class="E G"><path d="M389.8 235.878c0 54.56-32.248 98.828-71.92 98.828s-71.92-44.268-71.92-98.828 32.2-98.9 71.92-98.9 71.92 44.268 71.92 98.828zm-10.266 0c0 48.484-27.608 87.854-61.654 87.854s-61.654-39.37-61.654-87.854c0-48.546 27.608-87.916 61.654-87.916s61.654 39.37 61.654 87.916z"/><path d="M345.884 144.8c-8.642-5.022-18.096-7.812-28.014-7.812s-19.372 2.8-28.014 7.75l4.06 10.168c14.844-9.146 33.122-9.146 47.966 0l4.002-10.168zm.2 179.5c-8.642 5.022-18.096 7.812-28.014 7.812s-19.372-2.8-28.014-7.75l4.06-10.168c14.844 9.146 33.122 9.146 47.966 0l4.002 10.168z"/></g></g><path fill="#a7cfff" d="M379.6 235.9c0 48.5-27.7 87.8-61.7 87.8s-61.6-39.3-61.6-87.8 27.6-88 61.6-88 61.7 39.4 61.7 88z"/><g class="B"><g class="E"><path fill="#afff7b" d="M379.524 235.878c.638 16.492-2.668 24.552-6.902 41.726-1.102 1.86-6.38-4.03-9.512-6.944s-4.524 2.604-8.468-1.86c-3.886-4.588-6.38 1.24-9.28-2.604s-29.754-4.34-29.754-4.712c2.668-1.364 16.356.124 14.152-6.882-2.494-7.316-17.98-.248-20.068-9.548-1.45-9.3-31.088-9.672-33.234-11.904.87 3.472 23.084 4.96 22.562 13.95-.522 3.72-21.866 4.774-23.954 7.874-1.74 3.906 16.82-1.054 17.458 3.72 0 1.984-2.726 0-12.354 3.1-4.872 1.55 8.932 6.386 3.712 9.052s-16.414 3.844-15.95 4.96c1.74 5.58 25.926 12.152 23.548 13.082-8.584 4.092-13.108 6.758-17.226 9.114-12.066-18.117-18.388-39.888-18.038-62.124 18.386-7.068 14.5-8.556 48.488-8.556s45.24 1.426 74.82 8.556z"/><path fill="#fff" d="M379.524 235.878c-4.64 0-9.512 2.108-14.5 2.108-5.046 0-10.15-2.17-15.37-2.17s-11.194 2.852-16.53 2.852c-5.394 0-10.092-2.8-15.486-2.8s-10.788 2.108-16.124 2.108-10.614-2.17-15.776-2.17-10.266 2.17-15.196 2.17-9.744-2.17-14.326-2.17c0-12.1 1.74-23.622 4.872-34.162 15.66 1.24 6.38-9.734 15.66-9.734 5.48-.317 10.824 1.895 14.674 6.076 1.392 0 8.352-7.068 16.182-6.076 7.772.992 4.93 16.926 15.312 17.732 5.22 4.216 8.294 6.882 15.486 8.618 10.266.992 39.672-1.55 39.846-.124a124.57 124.57 0 0 1 1.276 17.732z"/></g><g stroke-width=".49"><path d="M327.18 287.02c0-2.736 2.7-4.56 2.7-8.928s-2.4-4.464-2.48-8.544c-.04-1.68 2.06-3.36 2.98-3.552s1.7 3.552 1.7 4.368-.94-2.016-1.72-2.064-2.46.288-2.46 1.104c0 1.632 2.96 3.648 2.74 9.12-.22 5.376-2.54 7.008-2.54 8.64s1 6.144 1 6.144-1.94-3.6-1.94-6.336z"/><path d="M335.82 286.62c0-2.736-2.7-4.56-2.7-8.928s2.4-4.464 2.48-8.544c.2-1.92-2.36-3.168-3.28-3.312s-2 3.84-2 4.608 1.08-2.496 1.86-2.544 2.92.288 2.92 1.104c0 1.632-2.96 3.648-2.74 9.12.22 5.376 2.54 7.008 2.54 8.64s-1 6.144-1 6.144 1.94-3.6 1.94-6.336z"/></g></g><path d="M333 264.9c0 1.3-.7 2.4-1.5 2.4s-1.4-1.1-1.4-2.5.6-2.4 1.4-2.4 1.5 1.1 1.5 2.5zm17 9h.4v19.5h-.5zm4.1-1.6h.5V292h-.5z"/><path d="M352.6 281.2v-.5l4 .7v.5z"/><g class="E"><path fill="#b74d00" d="M295.434 286.86s15.08 7.068 18.386 11.284c3.248 4.216 1.972 4.216 1.972 4.216l33.466 1.426c0-2.108 5.916-2.108 7.25-7.068 1.334-4.898 1.334-6.324 1.334-6.324l-10.498 3.534.58-6.324h-9.164l-1.334 6.324-19.72-.682 1.334-16.926-3.944.682-.58 16.12c-.696 0-18.444-4.898-19.14-6.262z" class="B"/><path fill="#fede00" stroke="#fede00" d="M265.1 185.906s21.866-6.944 53.418-6.448 53.418 7.936 52.954 7.936-6.032-11.408-6.032-11.408-22.272-6.5-47.386-7.006c-25.056-.496-46.922 4.96-46.4 5.456l-6.554 11.47z"/></g><path fill="#38a9f9" d="M306 169.8l13.6-.2.2 7.9-13.6.3zm-31.2 4.3L270 182l16.2-2-1.3-7.7-10.1 2zm13.7-3l13.6-1.1.6 7.8-13.5 1.2zm48.9-.7l-13.5-1-.5 8 13.5.8zm29.2 5l4.9 9.6-14.6-3.6 1.6-7.7 8 1.6zm-11.8-3l-13.4-1.7-1 7.8 13.5 1.8z"/><g class="B G"><path d="M318.508 190.37l-1.45-8.37-4.408 7.13 1.624-8.37-6.554 4.774 4.408-7.006-7.772 1.736 6.67-4.712-7.83-1.55 7.83-1.612-6.67-4.712 7.772 1.736-4.466-7.006 6.612 4.774-1.624-8.37 4.408 7.13 1.45-8.37 1.508 8.37 4.35-7.13-1.566 8.37 6.554-4.774-4.466 7.006 7.83-1.736-6.67 4.712 7.83 1.612-7.83 1.55 6.67 4.712-7.83-1.736 4.466 7.006-6.554-4.774 1.624 8.37-4.408-7.13z" class="E"/><path d="M330.1 168.75c0 4.65-3.762 8.4-8.436 8.4s-8.436-3.75-8.436-8.4 3.762-8.45 8.436-8.45 8.436 3.8 8.436 8.5z" stroke-width=".715"/></g><path d="M320.7 170.6c0 .5-1.3 1-2.8 1s-2.8-.5-2.8-1 1.2-1 2.8-1 2.8.4 2.8 1zm6 0c0 .5-.9 1-2 1s-2.2-.5-2.2-1c0-.6 1-1 2.1-1s2.1.4 2.1 1z"/></g><g fill="none" class="B"><path d="M529.4 297.9l.8.8c-1.9-2-1-1.2 1.6 3.2 2.4-.5 3.1-1.4 4.8-2.4" transform="matrix(.56 -.18 .17 .6 -26.7 90.6)" class="F"/><path d="M314.824 178.466l.464.496c-1.102-1.24-.58-.62 1.856.992 2.32.3 4.698-.744 6.1-2.48" class="E"/></g><g class="H"><path fill="#b7e1ff" d="M281.4 194.8s1 8-5.1 18c-6 9.9-5.1 6.4-5.1 6.4s2.8 5.5 2.3 5.5-4.7-5-4.7-5l-5 5.5s4.6-8.5 4.1-8.5-1.4-3-1.4-3l3.7-1.5s5.6-10.4 5.6-9.9-16.7 11.4-16.7 11.4l22.3-18.8zm3.7 3c-.5 0 2.3 8 4.7 12 2.3 4 2.3 8.9 2.3 8.9l7.9 4-10.2-15.4 6.5 2.4-11.2-11.9zm0 20.9s5.6 6 6 8 .5 6.4.5 6.4l-2.3-5-3.3 4.5s2.4-7 1.9-7.5-3.7 2.5-3.7 2.5 1.4-4 1.4-4.4 0-3-.5-4.5zm-27.9 13.9c1.9-1.5 5.6-2.5 5.6-2.5s-2.3 4-2.8 4-1.8 0-2.8-1.5zm64.1-21.8s12.1 7.4 12.1 7.9-7.9-3.5-7.9-3.5l-4.2-4.4zm-21.8-15.5c1 .5 17.7 14.4 17.2 14.4s-7.4-4-7.4-3.4v3.4l-3.8-7.9-.9 3-5-9.5zm4.2 22.4l4.6 9.4 4.7-1s-8.8-8.4-9.3-8.4zm14.4-6l.5 9s2.7 2.5 2.7 2-2.7-10.5-3.2-11z"/><path fill="#984000" d="M182.6 89.5s21-11.6 44.9-20.2a303.8 303.8 0 0 1 54.2-14.4c7 0 19.2 17.8 21.2 17.8s10.1-5 20.3-5 16.1 8 18.2 8h18.2c2 0-6.1-19.8 0-18.8 3 .5 28.8 4.5 52.8 12.2 24 7.8 58 21.6 58 21.6S414.9 98 400 95.9c-2 1 0 13-3 7.7-4.6-1-21.7-3.7-24.7-3.7s-8.7 3.4-16.8 5.4c-8 2-18.2 5-18.2 5l13.2 20.7-16.2 8s-10.1-23.8-14.2-23.8-6 16.8-11.1 15.8c-5-1-7-15.8-11.1-19.8-4-3.9-25.4-5.4-33.5-7.3-8-2-21.1-3.5-28.2-5.5-7-2-14.2 5-17.2 5s4-6 1-7-5 3-7 3-23.3-4-25.3-5 5-4.9 3-4.9h-8.1z"/><g stroke="#772600"><path fill="gray" d="M333.46 79.6c0 5.512-4.532 9.984-10.098 9.984s-10.076-4.472-10.076-9.984 4.5-9.958 10.076-9.958 10.098 4.472 10.098 9.958z" stroke-width=".891"/><path fill="#984000" d="M282.27 81.5c1.81-2.112 4.05-5.312 9.91-5.312 1.35-.544 1.35-3.744 4.482-3.744 3.16 0 2.24 3.2 4.51 4.288 2.24 1.056 20.682-1.088 20.682-1.088s1.782 1.6 1.782 3.744-1.35 3.712-1.782 3.712-18.44-1.6-19.79-1.056-2.24 1.056-5.4 1.056c-3.132 0-4.05-3.712-6.29-3.712s-4.482-.544-8.1 2.144z" stroke-width="1.569"/></g></g><g fill="none"><path stroke="#772600" d="M337.133 80.388h7.182c2.592.032 3.483.96 5.86 1.056h6.29c2.295-.096 3.5-.736 5.832-1.056 3.915-.064 2.592-.416 1.81-3.2-.702-2.08-.8-3.072-1.81-4.256-.378-2.56-1.242-3.456-1.35-6.4-.405-2.24-1.16-3.744-.432-6.4 1.026 1.824 1.43 2.56 4.05 2.688 2.7 0 3.753-.096 5.4 1.056 1.242 1.568 2.916 1.056 5.4 1.056 2.052.448 2.403 1.696 4.023 2.656 1.917 1.28 3.16 1.6 5.832 1.6 2.16.48 4.05.832 5.4 1.6 1.16 1.632 2.97 2.048 5.4 2.144 1.35 0 2.43-.16 3.59-.544 2.08.128 4.185 0 6.75 0 1.674 2.304 2.052 3.168 4.94 3.2 1.998 1.664 3.672 1.92 5.4 2.656h6.75c2.43.224 3.186 1.408 5.4 2.144a49.4 49.4 0 0 0 5.832 2.656 24.72 24.72 0 0 0 5.859.544c1.647 1.024 3.672 1.088 4.94 2.112l5.832 1.6c2.376.384 3.294 1.28 5.4 1.6 1.81.64-.594 1.152-1.81 1.6-2.646-.096-2.835-1.28-5.4-1.6-1.35-.928-3.402-.8-5.4-1.6h-.432c1.782 1.28 3.5 2.08 2.7 4.288-2.295 0-4.158-.352-6.29-.544-2.268-.512-3.294-1.056-5.832-1.056 2.538-.736 3.186.064 4.94 1.056.648 2.56-.756 1.6-3.16 1.6-2.052-.864-3.294-1.92-5.832-2.144h-5.4c2.673.128 3.24 1.312 4.94 2.688.135.832-.027.768-1.35 1.056-1.404-1.44-3.213-1.92-5.4-2.656-2.133-.096-4.374-.32-6.29-1.088-1.323-.096-1.107-1.952 1.81 1.088 1.755 1.216 2.376 2.24 2.24 3.2-2.322-.704-3.456-1.792-4.94-2.688-2.02-.83-4.156-1.19-6.29-1.056-2.322-.736.243-1.152 1.782 1.6 3.348 2.816-.432 1.6-1.782 1.056l-5.86-2.112c-1.35-.48-2.538-.928-4.05-1.088 2.35.256 3.132 1.248 4.05 3.2 2.376 1.92-.108.992-2.24.544-1.35-1.408-3.105-2.144-4.05-3.744-2.24-1.312-2.322-2.88-.89.544.35 1.088.27 3.456.432 3.744-1.647-2.144-1.296-2.688-3.132-2.688-1.27-1.024-3.105-1.824-4.05-3.2-1.728-.192-1.836-.928-3.59-1.6l4.482 5.888c2.052 1.344 2.62 2.56 4.05 3.712.567 1.184 2.16 2.144.46.544-1.944-2.24-3.375-2.784-6.29-4.256l-4.05-3.744c-2.43-.928-1.485-1.44 0 1.6l4.482 5.344c1.165 1.65 2.53 3.083 4.05 4.256.405.704 1.62.832 0 1.056-1.35-1.472-3.348-2.4-4.94-3.744-2.24-.736-3.294-2.112-4.94-3.712-1.08-1.888-2.808-3.328-4.05-4.8-2.592-1.216.513 1.152 1.35 2.656l1.782 5.344c.756 1.76-2.268-.416-3.132-1.056-1.776-1.364-3.77-2.28-5.86-2.688l-5.4-1.056c-2.025-.64 1.107 1.536 2.268 3.744 2.268 2.528-2.24.448-3.59 0-2.23-.45-4.5-.63-6.75-.544-2.89.192-.8.64 0 2.112.89.832 1.512 2.56 1.35 3.2-1.9-.32-3.5-.96-5.86-1.056-1.9.736-4.13.544-6.29.544-.08 1.344.405.192 1.35 1.6 1.566.736 2.592 1.632 2.268 2.656h-13.04c-1.43.448.297.224 1.35 2.144-.594 1.728-1.35 1.056-3.16 1.056-1.215-.576-3.672-.832-4.94-1.6-1.27 0-1.16-.384-2.24-.544 3.78 3.2 1.9 2.4 4.05 4.8.35.16 1.215.544.432.544m-29.673 17.056c-.27 0-.864-1.728-1.782-3.2-.648-1.92-1.458-.832-2.268-3.744.108-3.008.19-3.52 0-6.4-1.836-1.536-2.62-1.984-4.05-4.8-2.268-2.24.35-6.08.783-8.896-1.998-.512-2.97 3.68-6.02 5.184-2.214 1.76-.27-3.648-1.35-6.784-.73-4.448-2.916 2.24-3.726 4.128-1.485 1.184-1.944 2.72-4.05.512 0-1.632 1.323-6.24.756-7.136-2.106 1.248-4.86 4.96-7.047 5.536-2.214-.544.46-4.736.46-7.84-.8-.32-3.97 8.256-5.265 8.32s-.73-8.32-1.35-8.128c-.945 1.6-2.862 4.928-4.185 6.08-2.565-.416.378-5.6.756-7.52.432-2.304-2.403 4.416-3.915 4.832-1.107 1.152-3.294 1.92-4.05 2.144.864-1.984 5.13-5.984 4.86-7.136-2.51.096-6.318 4-8.45 4.48-1.404 0-3.348.544-3.59.512.108-2.56 5.238-4.672 6.048-6.24-2.51.48-7.344 3.104-8.748 5.184-1.674.416-3.78.96-5.4 0 .243-2.4 4.023-7.04 4.86-8.576-2.295 1.184-3.43 2.112-5.86 2.656-.46.544-1.755 1.696-1.35.544.73-2.24 1.81-3.2 2.7-4.8-2.025.448-2.78 1.824-4.94 3.2-1.377.064-5.32 4.768-6.642 4.832-2.24 2.092-4.853 3.548-7.64 4.256-2.052.448-3.05.96-4.05 2.144 1.026-2.144 2.592-4.16 4.05-5.312.9-1.942 2.32-3.458 4.05-4.288.513-.736 1.917-.928.432-1.056-1.27 1.344-3.43 2.88-4.482 3.744-1.377 1.024-2.97 2.048-3.618 1.6.73-2.304 2.025-2.88 3.16-4.8 2.376-1.792 0-.64-1.81 0-1.16 1.216-3.24 2.144-4.94 3.2-1.9.576-3.16 1.92-5.4 2.656 0 .768.648-1.376.918-2.144 1.836-2.368 2.322-3.04 4.482-3.712.54-.928 1.188-.544-.432-.544-1.242 1.28-2.916 1.984-4.51 3.2-1.593.416-3.672.544-5.832.544-2.808.384-2.565.64 0-1.088 1.43-1.6 2.62-1.184 2.7-3.2-1.7 1.472-3.78 2.56-5.86 3.744-1.728.064-2.187.544-4.05.544.89-1.088 1.43-2.464 2.7-3.2 1.9-2.464-1.188-.48-1.81 0h-6.75c-1.188 1.792-.054 0 .918-1.088 1.16-.704 2.376-1.632 2.24-2.112-1.35 1.376-2.89 2.016-4.05 3.2-1.242.448-2.7.64-2.7 1.056 1-1.696 2.592-2.752 3.618-4.256 1.512-.384 2.808-.96 3.132-1.6h-1.81c2.295 0 4.24-.256 6.318-.544 3.564-.704-.324-1.056-2.268-1.056-.35-.832 1.134-1.28 2.7-1.6 1.35-.768 3.05-1.44 4.51-2.144 1.287-.465 2.5-1.178 3.59-2.112-1.35.064-1.35.448-2.7.512 2.025-.16 3.456-.512 5.86-.512 1.98-.773 3.925-1.66 5.832-2.656.8-1.152 1.134-1.088-.89-1.088 1.81-.672 4.374-1.024 5.832-1.6 1.86-.462 3.672-1.17 5.4-2.112 1.323-1.056 2.08-2.304 3.59-3.2 1.755 1.408 1.782 1.6 4.94 1.6 2.538-.032 4.104-.768 5.4-2.144 1.944-.64 2.295-1.728 4.51-2.112 2.08.387 4.185.56 6.29.512 2.16-.672 4.24-1.92 5.832-3.2 1.377-.8 3.024-1.952 4.51-2.656 1.62.992 2.916 1.792 4.94 2.144 2.08-.384 3.186-1.6 4.94-2.144 1.082-1.365 2.5-2.294 4.05-2.656 2.62-1.536 2.43.48 3.59 2.112 1.35 1.664 3.078.864 4.94 1.6 1.053 1.92 1.81 3.2 3.16 4.256 1.053 1.536 2.295 1.92 4.51 2.144.8 1.28.162 2.176 1.782 2.656.648.832 1.755 1.152 2.7 1.6" stroke-width="1.036"/><path stroke="#782600" d="M331.95 114.756v.256c0-.736 0-.32.46 1.088.162 1.152-.216 1.024-.675 1.856l-.216 3.456c-.162 1.152-.702 2.24-1.134 3.2-.432.992-2.295 1.568-2.24 2.944-1.08.352-1.107-.48-1.134-1.888-.648-.864-.864-2.048-1.35-3.2-.27-1.088-.918-1.92-1.35-3.2-.648-1.184-1.215-1.536-1.782-2.912-.243-.64-.19-1.472-.675-1.856-.73-1.12-1.215-1.28-2.484-1.344-.972.256-1.35.768-2.24 1.056-.702.288-2.052.192-2.916.544-.216.416.432.64.675 1.6-.594.576-.8 1.568-1.134 2.4-.54.8-.89 1.184-1.134 2.4.378.736.054 1.728-.432 2.4-.162 1.216-.675 1.888-.918 2.912-.702.608-.972 1.152-1.566 2.144-.513.864-.972.8-2.24.8-1-.32-1.134-.96-2.025-1.344-.08-.32-.162-.416-.46-.512" stroke-width=".918"/></g><path fill="#812e00" d="M307.6 125.5s-.4 5-3.6 8.3-9.8 7.1-9.8 7.1 8.9-4.2 9.8-3.3c1 1-5.7 8.3-5.7 8.3s8.7-7.7 9.8-7.7 3.6 7.5 4.6 7.3c.9-.2-2-9.5-1.6-11 .4-1.4 0-9.3 0-9.3l-3.4.3zm20.5-.6s-.4 5.3-3.6 8.8-9.8 7.6-9.8 7.6 8.9-4.5 9.8-3.5c1 1-5.7 8.8-5.7 8.8s8.7-8.2 9.8-8.2 3.6 8 4.6 7.8c.9-.2-2-10.2-1.6-11.7.4-1.6 0-10 0-10l-3.5.4zm-28.7-48c0 .9-1 1.7-2.1 1.7s-2.2-.8-2.2-1.8 1-1.8 2.2-1.8 2.1.8 2.1 1.8z" class="H"/><defs ><path id="B" d="M478.4 60.2v88.6l17.7 88.6 17.7-88.6V60.2h-35.4z"/><path id="C" d="M421.4-20.3c0 18.1-4.6 31.7-11.4 45.3-5.6-18.1-9-27.2-9-45.3s6.8-35.1 12.4-48.7c2.3 12.4 8 30.5 8 48.7z"/><path id="D" d="M454.2-169.3c0 4-3.8 7.4-8.5 7.4s-8.5-3.3-8.5-7.4 3.8-7.3 8.5-7.3 8.5 3.3 8.5 7.3z"/><path id="E" d="M460.6 184.3l17.7 35.4v17.7c-.8-1.3 0 17.7-17.7 17.7S443 219.7 443 219.7s-17.7 35.4-17.7 70.9 17.7 53.1 17.7 53.1-2.6-36.7 17.7-35.4c20.4 1.2 17.7 17.7 17.7 17.7v35.4h17.8V219.7l17.7-35.4-27.2-53.2-26 53.1z"/><path id="F" d="M557.8 95.7l-26.3 70.8 17.7 53.2-35.4-17.7 35.4 53.1v35.5H567V255l35.5-53.1-35.5 17.7 17.8-53.2-26.9-70.8z"/><path id="G" d="M422.5 137c0 2-2 3.7-4.3 3.7s-4.4-1.7-4.4-3.7 2-3.8 4.4-3.8 4.3 1.7 4.3 3.8zm-6.2 7.9c31.5 61.4 48.7 166.7 50.4 170.5.1 4.4-4.8 6.4-7.1.8-2.5-3.3-12.7-100.2-49.1-172.2-.3-13.7 3.7-14.8 8.3-14.5 3.7.2 8.3 3.7 8.3 7.9 0 5-5.8 8.7-10.8 7.5z"/><path id="H" d="M428.2-17s81.5 90.7 111 154.1c29.4 63.5 54.4 156.3 54.4 156.3s2.2-86-36.3-163C505.2 32.8 425.9-12.5 428.2-17z"/><path id="I" d="M278.656 331.454v33.48h4.956v-33.48h-4.956z"/></defs></svg>