<svg xmlns="http://www.w3.org/2000/svg" height="480" width="640"><path d="M0 0v480h640V0H0z" fill-rule="evenodd" fill="#67b1ff"/><g stroke-width="1pt"><path fill-rule="evenodd" fill="#0000b4" d="M0 0h431.4v277.2H0z"/><path d="M0 0v31l383.2 246.2h48.2v-31L48.2 0H0zm431.4 0v31L48.2 277.2H0v-31L383.2 0h48.2z" fill="#fff"/><path d="M179.8 0v277.2h71.9V0h-72zM0 92.4v92.4h431.4V92.4H0z" fill="#fff"/><path d="M0 110.9v55.4h431.4v-55.4H0zM194.1 0v277.2h43.2V0H194zM0 277.2l143.8-92.4H176L32.2 277.2H0zM0 0l143.8 92.4h-32.1L0 20.7V0zm255.5 92.4L399.3 0h32.1L287.6 92.4h-32.1zm176 184.8l-143.9-92.4h32.2l111.6 71.7v20.7z" fill="#c00"/></g><g fill-rule="evenodd"><path d="M391.4 137v159.3C412 407.8 448 423.7 494.1 455.6c46.2-31.9 82.1-47.8 102.7-159.3V137H391.4z" fill="#fff"/><path d="M480.4 137l.2 309.5 13.7 9 13.7-9.2-.2-309.2h-27.4z" fill="#da0000"/><path d="M391.4 298l10.3 43.4 185.3-.1 9.8-43.3H391.4zm0-161h205.4v111.5H391.4z" fill="#da0000"/><g transform="matrix(.28 0 0 .4 309.8 297.9)"><rect rx="23.2" ry="28" height="56" width="46.5" stroke="#000" y="-281.7" x="306.1" stroke-width=".8" fill="#f6efec"/><path d="M850.4-296.6s47.6-3.5 64.3-22.6c16.7-19-11.3-53.6 6.6-57.2 7.1-.6 17.2 1.8 25 11.3-1.2-7.1-6-11.3-7.8-15.4-6.5-6-13-5.4-22.6-5.4-6.5 1.2-7.7-1.2-18.5-13.7-5.3-6-5.3-20.8-1.1-31a23.1 23.1 0 0 0-9 25.6c3 13.1 6 16.7 6 22.7-3.6-1.8-10.1-17.3-44-19.7-34-2.4-119.8 23.8-158.5 23.8s-94.7-16-94.7-16 14.3-11.3-3-16.1c-17.2-4.8-55.3 16.7-66 4.8-7.8-11.4-4.8-9-6-14.3-3 1.7-4.8 8.9-.6 18.4 4.1 9.5 6.5 6.6 6 6.6-.7 0-13.8 0-15 4.7-1.1 3.6-3 7.8 3.6 20.9 2.4-13.1-6.5-15 13.1-16.1 19.7-1.2 33.4 7.7 50 10.7 16.7 3 16.7-7.1 17.3-6.5.6.6 51.2 14.3 97.7 11.3 46.4-3 121.5-28.6 156-23.2 34.5 5.3 57.2 30.3 57.8 53.6-.6 14.2-15.5 21.4-27.4 23.8-14.3 2.4-47.7 6-47.7 6l18.5 13z" transform="matrix(.88 0 0 .7 113.8 -89.6)" stroke="#000" stroke-width=".9" fill="#ff0"/><path d="M683-249c-.5 0-32.7.7-42.2 14.4a80 80 0 0 0-13.1 26.8c.6 0 21.4-11.3 21.4-11.3s-15.5 22.6-7.1 42.8c8.3 20.3-22 19-39.5 19.7-7.8-6-32.5-16-41.3-17.9-5.5-2-16.4-2.3-27.6 10.4-6.7 7.8 9.8-7.4 26.2-6.2 1.8 1.8 3 3.6 3.3 7.7-8.8-.6-17.9-10.7-28.6 10.2 10.7-7.2 12-7 17.5-7.5 7.3-.5 6.3 3.3 6 3.3-1.2 0-4.1.6-8.6 4.7-2.4 3-8.3 9.6-7.1 9.6s4.7-3.6 10.3-6.6c3.5-2.4 6.8-2.4 17.3.6 57.8 13.7 88.7 3.6 92.3-1.8 1.8-2.3-33.3-69.6 60.2-87.5-1.2-.6-39.3-10.7-39.3-11.3z" transform="matrix(.85 0 0 1 231.3 -38.1)" stroke="#000" stroke-width=".5" fill="#ff0"/><path d="M472.8-212.6c32.8 27.4 253.7-29.2 281.7-48.8 16.1-11.3 44-19.7 44 19 7.2-26.2 7.2-32.7 7.2-32.1.6.6 11.3 10 20.9 42.2 2.4-28.5-4.2-45.2-.6-42.8 2.4-2.4 2.4 14.3 21.4 37.5a390 390 0 0 1-5.3-26.8s35.7 34.5 56 39.3c20.2 4.8 49.4-9.5 58.3-1.2 9 8.3 24.4 23.2 23.8 35.1-.6 12-33.3 1.8-36.9 11.4-3.6 9.5 2.4 9.5 2.4 9.5l5.3 13c1.8-4-1.7-13 4.8-13.6 4.8.6 4.8 8.3 6 12.5 1.3-4.8-.2-14.3 4.1-14.3 4.8-1 5.4 7.5 9 13.1v-13.1c13.7-4.2 25.6-4.8 27.4-13.7 1.7-9-20.9-29.2-26.3-42.3-5.3-13 4.2-18.4-5.9-25.6-10.1-7.1-48.8 11.3-66.7 4.2-17.9-7.2-10.7-58.4-78-69.7-67.3-11.3-249.5 59.6-281.7 62.5-32.2 3-71.5-10-71.5-10l.6 54.7z" stroke="#000" stroke-width=".6" fill="#ff0"/><path d="M420.4-263.2s-28.6-37.5-51.8-41.1c-23.2-3-45.8 14.3-50.6 11.9-4.8-2.4-6.5.6-9.5 6-3 5.3.6 8.9.6 8.3 1.2 0 4.1-9 5.3-9.5 1.2-.6-6 10.7 1.2 11.9 2.4.6 3.6-8.4 6.6-12 .6.7-4.8 12.6-1.8 13.2 3 .6 6.5-12 11.9-15 7.7-5.3 19-7 33.3-7 14.3 4.1 43.5 38.6 46.5 38l8.3-4.7z" transform="matrix(.98 .23 .18 -1.25 64.2 -655.7)" stroke="#000" stroke-width=".5" fill="#ff0"/><path d="M420.4-263.2s-28.6-37.5-51.8-41.1c-23.2-3-45.8 14.3-50.6 11.9-4.8-2.4-6.5.6-9.5 6-3 5.3.6 8.9.6 8.3 1.2 0 4.1-9 5.3-9.5 1.2-.6-6 10.7 1.2 11.9 2.4.6 3.6-8.4 6.6-12 .6.7-4.8 12.6-1.8 13.2 3 .6 6.5-12 11.9-15 7.7-5.3 19-7 33.3-7 14.3 4.1 43.5 38.6 46.5 38l8.3-4.7z" transform="matrix(1 0 0 1.13 11.3 42.2)" stroke="#000" stroke-width=".5" fill="#ff0"/><path d="M417.5-268l-31.6 15.5 23.2 6-16.7 19 23.9-7.7-1.8 25.6 13.7-16.7 9 23.2 9.4-17.2 11.4 19 4.7-18.4 13.7 18.4 4.8-25 16.7 15.5-2.4-26.2 20.2 6.5-12.5-20.2 20.9-1.2c-1.1 0-16.7-13.1-30.4-16.7l-76.2.6z" stroke="#000" stroke-width=".5" fill="#ff0"/><path d="M417.5-268l-31.6 15.5 23.2 6-16.7 19 23.9-7.7-1.8 25.6 13.7-16.7 9 23.2 9.4-17.2 11.4 19 4.7-18.4 13.7 18.4 4.8-25 16.7 15.5-2.4-26.2 20.2 6.5-12.5-20.2 20.9-1.2c-1.1 0-16.7-13.1-30.4-16.7l-76.2.6z" transform="matrix(.55 0 0 .57 205.6 -123)" stroke="#000" stroke-width=".8" fill="#ff0"/><path d="M443-316.8s-8.9-7.2-12.4 0c-3.6 7.1 7.7 4.2 7.7 5.4s-7.7 9.5-7.7 19 6 25.6 6 28 2.3 9 10.6 11.3 11.3-7.7 13.1-9c1.8-1.1 13.1 1.9 17.3-8.3 4.2-10 4.2-28.5 4.2-28.5s7.1 5.3 7.1-5.4-7.7 0-7.7 0 1.2-11.3-17.3-16.7-20.2 5.4-20.8 4.2z" stroke="#000" stroke-width=".5" fill="#ff0"/><path d="M441.5-317.3c-2.4-4.8-9.2-23.3-9.2-23.3l16.2 7c-5.5-1.5-10.2-2.3-9.6-2.3.6 0 7.1 9 7.1 9 6.5-.4 13 1.7 20.9 3.5 0 0 6.5-7.3 6-7.3-.7 0-3.6-1.2-3.6-1.2l14.9-6.8-4.8 9.2h-3l-6 6.7a38 38 0 0 1 16.6 6.4 32 32 0 0 0 13.8-6.1c-5.2-1.5-7.6-2.6-7-2.6l22 1.1s-21 13-33.2 17.7c-11.3-3.3-40-9.2-41.1-11z" transform="matrix(.94 -.02 .03 1.42 35.5 137.7)" stroke="#000" stroke-width=".5" fill="#ff0"/><rect transform="matrix(.9 .43 -1 -.1 0 0)" rx="6.9" ry="3.1" height="6.2" width="13.7" y="-1416.1" x="-1065.8"/><rect transform="matrix(.9 .43 -1 -.1 0 0)" rx="6.9" ry="3.1" height="6.2" width="13.7" y="-1419.6" x="-1050"/><rect transform="matrix(.95 .32 -1 -.08 0 0)" rx="12.8" ry="6" height="11.9" width="25.5" y="-1636.5" x="-1253.9"/><rect transform="matrix(.94 .35 -1 -.1 0 0)" rx="5.8" ry="2.7" height="5.3" width="11.6" y="-1565.8" x="-1186.4"/><rect transform="matrix(.33 -.94 .14 1 0 0)" rx="4.9" ry="2" height="4.1" width="9.9" y="734.4" x="1061.7"/></g><g stroke="#000" transform="matrix(1.1 0 0 1.27 -361.4 -17.2)"><path d="M737 319.5c1.7 4.7.9 0-1 7.3 1.2-2.1 2.7-3.4 3.4-3.4 1 0 1.4 0 3.3 1.4-1.8-2.5-4.7-1.9-4.6-5.6-.1-.9-1 0-1 .3z" transform="matrix(1.05 0 0 1.4 -30.4 -121)" stroke-width=".4" fill="#ff7300"/><rect transform="matrix(.82 -.57 .2 .98 0 0)" rx=".7" ry=".5" height="18" width="1.4" y="717.6" x="708.8" stroke-width=".1" fill="#b2802e"/><path d="M734 312.2c.8-.5 6.6-11.1 34.1-9.6-15.6 5.3-25.3 16.6-27.6 17-1.8.5-5.5-5.7-6.4-7.4z" transform="matrix(.8 0 0 .98 152.8 3.9)" stroke-width=".4" fill="#fff"/><g stroke-width=".3" fill="#007500"><path d="M-3819.3-4447.1l-7.4-2.8 15.1 11.4-2.9-5.3-4.8-3.3z" transform="matrix(-.5 -1.05 .3 .95 159.9 514.9)"/><path d="M-3819.3-4447.1l-5.3.3 12.7 7.6-2.6-4.6-4.8-3.3z" transform="matrix(.07 -.68 -.3 .54 -293.6 91)"/><path d="M-3819.9-4447.6l4.6 7.4 4.5 1.3-3.6-5-5.5-3.7z" transform="matrix(-1.36 -.47 1.52 .64 2287.7 1355.7)"/><path d="M-3821.8-4448.7l17.5 22.4-6.6-12.5-3.5-5-7.4-4.9z" transform="matrix(-.55 .32 .76 -.15 2024.7 827.2)"/><path d="M-3822.2-4449.9l-12.5-6.5 24 18.6-3.8-6-7.7-6.1z" transform="matrix(.98 .07 -1.18 -.24 -766.8 -528.5)"/><path d="M-3823.5-4450.2l-5.2-1.2 17.8 13.3-3.6-5.8-9-6.3z" transform="matrix(1.5 .65 -1.64 -.82 -831.8 -851.1)"/><path d="M-3824.7-4451.7l-13.4-9.7 24.4 21-.8-3.4-10.2-7.9z" transform="matrix(1.75 1.24 -1.77 -1.34 -460.5 -945)"/><path d="M-3822.2-4449.3l10.6 14.4 1.7-2.6-4.5-6.3-7.8-5.5z" transform="matrix(1.37 1.4 -1.26 -1.4 359.8 -588.4)"/><path d="M-3820.2-4447l15.6 19.3-3.4-7.8-6.5-8.3-5.7-3.2z" transform="matrix(.92 1.25 -.75 -1.2 897 -233)"/><path d="M-3821-4448.7l12.2 17.1-.1-5.2-5.6-7-6.5-4.9z" transform="matrix(.2 .85 .02 -.73 1547.6 307.2)"/><path d="M-3818.9-4446.9l2 4.3 4.2 2-1.8-3.3-4.4-3z" transform="matrix(-1.14 -1.33 1 1.3 788.4 989.4)"/><path d="M-3819.3-4447.1v5.8l6.6 1.3-1.8-3.8-4.8-3.3z" transform="matrix(-.5 -.73 .34 .64 325.6 337.1)"/><path d="M-3819.3-4447.1v5.8l6.6 1.3-1.8-3.8-4.8-3.3z" transform="matrix(-.84 -.28 .9 .4 1501.2 974.3)"/><path d="M-3819.3-4447.1v5.8l6.6 1.3-1.8-3.8-4.8-3.3z" transform="matrix(.7 .14 -.82 -.25 -238 -272.2)"/><path d="M-3819.3-4447.1l15.7 19-10.2-13.8-.7-2-4.8-3.2z" transform="matrix(.25 .62 -.13 -.56 1093 160.1)"/><path d="M-3819.3-4447.1l11 13.2-4.4-6-1.8-4-4.8-3.2z" transform="matrix(1.64 1.38 -1.6 -1.44 -104.7 -827)"/><path d="M-3819.3-4447.1l-14.4-12.6 18.2 16.8 1-1-4.8-3.2z" transform="matrix(1.46 .6 -1.6 -.77 -839 -829.4)"/><path d="M-3819.3-4447.1v5.8l6.6 1.3-1.8-3.8-4.8-3.3z" transform="matrix(-.36 -.73 .22 .66 328.4 444.5)"/></g><path d="M759.4 305a36 36 0 0 1-6.5 1.8c.9.3 2.7.1 4.8.7-1.9 0-5.3 1.5-6.8 1.5 1 .6 4.6 0 5.2.2-1.9.1-5 1.6-6.9 1.6-.8.7 4.5-.5 6.6.8-2.2-.1-6.5 1.2-8.8.9 1.8 1 5-.2 7.6 1-.8 0-7 .7-9.1.4 1.3.7 5.2.6 6.2 1.1-1.6-.2-6 .7-7.4.4 1.3 1 5.4.4 6.1 1-2.6 1-6.7.2-8.5.4l3.3 1.7c1.7 1.2 6.7 4.3 9.6 5.3-3.3-.5-4.4-.5-6.6-.7l5 5.2c-2.1-1.1-5.7-3.2-8-4.3-5.3-2.5-9.1-2-12.8-4.3-5.1-5-8-10.9-8.2-12.4-.3-1.6-.5-4.4-5.2-3 4.6-.6 6.5-5.8 6.8-5.6.2.1.6 3.5 1.6 4.9.7 1 6.8 4.3 7.7 4.5 9-5.3 16.2-6 24.3-3z" transform="matrix(1.05 0 0 1.4 -29.6 -119.7)" stroke-width=".4" fill="#fff"/></g><g stroke="#000" stroke-width=".3" transform="matrix(1.1 0 0 1.27 -358.4 -17.2)"><rect transform="rotate(44.7)" rx="1.4" ry="5.6" height="11.1" width="2.8" y="-352.6" x="802.4" fill="#e4cc00"/><path d="M795 334.3c-.2-1.1-.3-1.7.3-3.3.8-1 1.3-2 2.9-3.1 1.7-.6 2.2 0 4.5-2.2.7-1.3 1.8-2.4 2.4-3.8l3.2-5a47 47 0 0 0 3.7-4.6c1-1.7 1.8-2.8 3.2-4.2.6-1.6 1.8-2.8 3.2-4.2 1.2-2 3.3-4.3 4.2-6 1.7-1.9 2.3-2.7 3.7-4.6 1.3-.8 3.4-2.7 5.1-3.3 2.4-1 3.7-2 5.2-.4 1 1 2.9 2.7 1.6 3.9-.7.7-1.8.8-3 .2-1.4-.8-2-3.3-3.8-1.3-1.2 1.4-1.9 2.6-3.7 4.1-.9 1.3-1.5 2.3-2.3 4.2-1 1.2-2 2.6-2.8 4.6-1.1 1-2 2.8-2.8 4.2a15 15 0 0 0-2.7 4.2c-1.8 1.7-2.4 3-3.8 4.2a19 19 0 0 1-3.2 4.6c-.8 1.3-1.6 2.7-2.3 4.2-1.5 1.5-1.6 1.8-3.7 4.1-1.8 2.4-1.2 2.1-4 4.8-1.6.5-3.2.7-5-1.3z" fill="#006000"/><rect transform="rotate(22.2)" rx="1.4" ry="5.6" height="11.1" width="2.8" y="-20.8" x="862.3" fill="#e4cc00"/><rect transform="rotate(24)" rx="1.4" ry="5.6" height="11.1" width="2.8" y="-48.5" x="863.4" fill="#e4cc00"/><rect transform="rotate(35.9)" rx="1.4" ry="5.6" height="11.1" width="2.8" y="-224.5" x="840.5" fill="#e4cc00"/><rect transform="rotate(49.5)" rx="1.4" ry="5.6" height="11.1" width="2.8" y="-420.3" x="773.6" fill="#e4cc00"/><rect transform="rotate(45.5)" rx="1.4" ry="5.6" height="11.1" width="2.8" y="-363.9" x="799.7" fill="#e4cc00"/><rect transform="rotate(35.9)" rx="1.4" ry="5.6" height="11.1" width="2.8" y="-224.2" x="844.2" fill="#e4cc00"/><rect transform="rotate(35.9)" rx="1.4" ry="5.6" height="11.1" width="2.8" y="-224.6" x="842.3" fill="#e4cc00"/><g transform="rotate(35.9 -1.4 -10.3)" fill="#e4cc00"><rect rx="1.4" ry="5.6" height="11.1" width="2.8" y="-244.6" x="838.8"/><rect rx="1.4" ry="5.6" height="11.1" width="2.8" y="-244.7" x="840.9"/><rect rx="1.4" ry="5.6" height="11.1" width="2.8" y="-244.7" x="843"/><rect rx="1.4" ry="5.6" height="11.1" width="2.8" y="-244.7" x="845.3"/><rect rx="1.4" ry="5.6" height="11.1" width="2.8" y="-244.5" x="847.1"/><rect rx="1.4" ry="5.6" height="11.1" width="2.8" y="-245.8" x="857.8"/><rect rx="1.4" ry="5.6" height="11.1" width="2.8" y="-245.3" x="856.4"/><rect rx="1.4" ry="5.6" height="11.1" width="2.8" y="-245.1" x="854.9"/><rect rx="1.4" ry="5.6" height="11.1" width="2.8" y="-245" x="852.8"/><rect rx="1.4" ry="5.6" height="11.1" width="2.8" y="-244.7" x="850.8"/><rect rx="1.4" ry="5.6" height="11.1" width="2.8" y="-244.6" x="849"/></g><rect transform="rotate(28.5 -.2 -.8)" rx="1.4" ry="5.6" height="11.1" width="2.8" y="-115" x="859.8" fill="#e4cc00"/><g transform="rotate(35.9 -14.9 -15.6)" fill="#e4cc00"><rect rx="1.4" ry="5.6" height="11.1" width="2.8" y="-244.6" x="838.8"/><rect rx="1.4" ry="5.6" height="11.1" width="2.8" y="-244.7" x="840.9"/><rect rx="1.4" ry="5.6" height="11.1" width="2.8" y="-244.7" x="843"/><rect rx="1.4" ry="5.6" height="11.1" width="2.8" y="-244.7" x="845.3"/><rect rx="1.4" ry="5.6" height="11.1" width="2.8" y="-244.5" x="847.1"/><rect rx="1.4" ry="5.6" height="11.1" width="2.8" y="-245.8" x="857.8"/><rect rx="1.4" ry="5.6" height="11.1" width="2.8" y="-245.3" x="856.4"/><rect rx="1.4" ry="5.6" height="11.1" width="2.8" y="-245.1" x="854.9"/><rect rx="1.4" ry="5.6" height="11.1" width="2.8" y="-245" x="852.8"/><rect rx="1.4" ry="5.6" height="11.1" width="2.8" y="-244.7" x="850.8"/><rect rx="1.4" ry="5.6" height="11.1" width="2.8" y="-244.6" x="849"/></g></g><g stroke="#000" transform="matrix(1.06 0 0 1.15 -335.9 12.3)"><rect transform="rotate(18.8)" rx="1.4" ry=".7" height="24.2" width="2.9" y="-28.1" x="774.9" stroke-width=".2" fill="#b2802e"/><rect rx="1.4" ry=".7" height="24.2" width="2.9" y="221.7" x="727.4" stroke-width=".2" fill="#b2802e"/><rect rx="1.4" ry=".7" height="24.2" width="2.9" y="221.3" x="708" stroke-width=".2" fill="#b2802e"/><g stroke-width=".3" fill="#004500"><path d="M692.7 226c.3-4.8 4.1-6.3 10.4-4.2.5.3 1-.6.8-.6-10-5.3-14.5-19.5 1.6-17 2.4.8-2.2 2.2-5.5 2.8-4.6.6-1.7 6.9 7.2 12.7l6.4 4.6s-1.6 2.7-1.8 2.7c-.1 0-12.2-4.3-15-.6-1.9 3 .6 3.5 0 8-1 4-1.5 3.5-1.8 0 .8-2.5-2.3-6.4-2.3-8.3z" transform="matrix(.42 .6 -.7 .23 583.2 -257.3)"/><path d="M692.7 226c.3-4.8 4.1-6.3 10.4-4.2.5.3 1-.6.8-.6-10-5.3-6.2-19.2 9.9-16.6 2.4.7 2 1.6-1.4 2.2-4.6.5-14.1 7-5.2 12.9l6.4 4.6s-1.6 2.7-1.8 2.7c-.1 0-12.2-4.3-15-.6-1.9 3 1 5.9.4 10.4-1 3.9-1.5 3.4-1.8-.1.1-.6-2.7-8.7-2.7-10.6z" transform="matrix(.38 .62 -.7 .2 612.9 -260.6)"/><path d="M692.7 226c.3-4.8 4.1-6.3 10.4-4.2.5.3 1-.6.8-.6-10-5.3-2.6-12 12-9.1 1.6.2-2.1 2.1-5.4 2.7-4.6.6-12.2-1-3.3 4.9l6.4 4.6s-1.6 2.7-1.8 2.7c-.1 0-12.2-4.3-15-.6-1.9 3 7 9.5 6.4 14-1 4-1.6 3.5-1.8 0 0-.7-8.7-12.4-8.7-14.3z" transform="matrix(.33 .65 -.7 .13 652.3 -262.8)"/></g><g stroke-width=".3" fill="#004500"><path d="M692.7 226c.3-4.8 4.1-6.3 10.4-4.2.5.3 1-.6.8-.6-10-5.3-10.2-16.4 5.9-13.9 2.4.8-2.1 2.2-5.5 2.8-4.5.6-6 3.8 3 9.6l6.3 4.6s-1.6 2.7-1.8 2.7c-.1 0-12.2-4.3-15-.6-1.9 3-1.8 3.2-2.4 7.7-1 4-1.6 3.5-1.8 0v-8z" transform="matrix(.43 .6 -.7 .24 560.2 -256.5)"/><path d="M692.7 226c.3-4.8 4.1-6.3 10.4-4.2.5.3 1-.6.8-.6-10-5.3-10.2-16.4 5.9-13.9 2.4.8-2.1 2.2-5.5 2.8-4.5.6-6 3.8 3 9.6l6.3 4.6s-1.6 2.7-1.8 2.7c-.1 0-12.2-4.3-15-.6-1.9 3-1.8 3.2-2.4 7.7-1 4-1.6 3.5-1.8 0v-8z" transform="matrix(.4 .62 -.7 .2 589.8 -260.1)"/><path d="M692.7 226c.3-4.8 4.1-6.3 10.4-4.2.5.3 1-.6.8-.6-10-5.3-10.2-16.4 5.9-13.9 2.4.8-2.1 2.2-5.5 2.8-4.5.6-6 3.8 3 9.6l6.3 4.6s-1.6 2.7-1.8 2.7c-.1 0-12.2-4.3-15-.6-1.9 3-1.8 3.2-2.4 7.7-1 4-1.6 3.5-1.8 0v-8z" transform="matrix(.34 .65 -.7 .14 629.2 -262.6)"/></g><g stroke-width=".3" fill="#004500"><path d="M692.7 226c.3-4.8 4.1-6.3 10.4-4.2.5.3 1-.6.8-.6-10-5.3-14.5-19.5 1.6-17 2.4.8-2.2 2.2-5.5 2.8-4.6.6-1.7 6.9 7.2 12.7l6.4 4.6s-1.6 2.7-1.8 2.7c-.1 0-12.2-4.3-15-.6-1.9 3 .6 3.5 0 8-1 4-1.5 3.5-1.8 0 .8-2.5-2.3-6.4-2.3-8.3z" transform="matrix(.2 .7 -.73 -.02 770.2 -279)"/><path d="M692.7 226c.3-4.8 4.1-6.3 10.4-4.2.5.3 1-.6.8-.6-10-5.3-6.2-19.2 9.9-16.6 2.4.7 2 1.6-1.4 2.2-4.6.5-14.1 7-5.2 12.9l6.4 4.6s-1.6 2.7-1.8 2.7c-.1 0-12.2-4.3-15-.6-1.9 3 1 5.9.4 10.4-1 3.9-1.5 3.4-1.8-.1.1-.6-2.7-8.7-2.7-10.6z" transform="matrix(.15 .72 -.72 -.06 799.3 -272.1)"/><path d="M692.7 226c.3-4.8 4.1-6.3 10.4-4.2.5.3 1-.6.8-.6-10-5.3-2.6-12 12-9.1 1.6.2-2.1 2.1-5.4 2.7-4.6.6-12.2-1-3.3 4.9l6.4 4.6s-1.6 2.7-1.8 2.7c-.1 0-12.2-4.3-15-.6-1.9 3 7 9.5 6.4 14-1 4-1.6 3.5-1.8 0 0-.7-8.7-12.4-8.7-14.3z" transform="matrix(.1 .73 -.72 -.12 837 -260.8)"/></g></g><g stroke="#000" transform="matrix(1.1 0 0 1.27 -361.4 -17.2)"><rect rx="1.4" ry=".7" height="24.2" width="2.9" y="222.5" x="826" stroke-width=".2" fill="#b2802e"/><g stroke-width=".3" fill="#007500"><path d="M-3819.3-4447.1l-7.4-2.8 15.1 11.4-2.9-5.3-4.8-3.3z" transform="matrix(2.83 -1.24 -3.05 .95 -1925.6 -304.3)"/><path d="M-3819.3-4447.1l-5.3.3 12.7 7.6-2.6-4.6-4.8-3.3z" transform="matrix(3.13 -.33 -3.22 -.02 -1573.4 -1098.1)"/><path d="M-3819.9-4447.6l4.6 7.4 4.5 1.3-3.6-5-5.5-3.7z" transform="matrix(-2.35 -1.9 2.13 2.18 1324 2719.9)"/><path d="M-3821.8-4448.7l17.5 22.4-6.6-12.5-3.5-5-7.4-4.9z" transform="matrix(-3.1 -.45 3.1 .8 2735.8 2087.1)"/><path d="M-3822.2-4449.9l-12.5-6.5 24 18.6-3.8-6-7.7-6.1z" transform="matrix(2.85 1.2 -2.74 -1.54 -448.4 -2034.5)"/><path d="M-3823.5-4450.2l-5.2-1.2 17.8 13.3-3.6-5.8-9-6.3z" transform="matrix(2.03 2.16 -1.77 -2.43 720.3 -2308)"/><path d="M-3824.7-4451.7l-13.4-9.7 24.4 21-.8-3.4-10.2-7.9z" transform="matrix(.34 2.82 .04 -2.9 2314.7 -1927)"/><path d="M-3822.2-4449.3l10.6 14.4 1.7-2.6-4.5-6.3-7.8-5.5z" transform="matrix(-1.55 2.47 1.92 -2.34 3429.1 -741.4)"/><path d="M-3820.2-4447l15.6 19.3-3.4-7.8-6.5-8.3-5.7-3.2z" transform="matrix(-2.4 1.85 2.68 -1.6 3638.7 109.4)"/><path d="M-3821-4448.7l12.2 17.1-.1-5.2-5.6-7-6.5-4.9z" transform="matrix(-3.04 .75 3.2 -.42 3422.6 1206.9)"/><path d="M-3818.9-4446.9l2 4.3 4.2 2-1.8-3.3-4.4-3z" transform="matrix(2.05 -2.16 -2.38 1.96 -1931.8 727)"/><path d="M-3819.3-4447.1v5.8l6.6 1.3-1.8-3.8-4.8-3.3z" transform="matrix(1.5 -1.04 -1.62 .8 -634 -217.2)"/><path d="M-3819.3-4447.1v5.8l6.6 1.3-1.8-3.8-4.8-3.3z" transform="matrix(-1.52 -1.17 1.2 1.3 424.4 1559)"/><path d="M-3819.3-4447.1v5.8l6.6 1.3-1.8-3.8-4.8-3.3z" transform="matrix(1.7 .92 -1.6 -1.12 156.6 -1254)"/><path d="M-3819.3-4447.1l15.7 19-10.2-13.8-.7-2-4.8-3.2z" transform="matrix(-1.85 .67 2 -.5 2589.5 580.6)"/><path d="M-3819.3-4447.1l11 13.2-4.4-6-1.8-4-4.8-3.2z" transform="matrix(-.6 2.78 1 -2.76 2955 -1435.1)"/><path d="M-3819.3-4447.1l-14.4-12.6 18.2 16.8 1-1-4.8-3.2z" transform="matrix(2.13 2.1 -1.88 -2.36 604 -2303.2)"/><path d="M-3819.3-4447.1v5.8l6.6 1.3-1.8-3.8-4.8-3.3z" transform="matrix(1.96 -.88 -2.12 .67 -1083.7 -148.4)"/></g></g></g></svg>