<svg xmlns="http://www.w3.org/2000/svg" height="480" width="640" xmlns:xlink="http://www.w3.org/1999/xlink" viewBox="0 0 213.33333 160"><defs><g id="c"><clipPath id="a"><path d="M-109 104a104 104 0 0 0 0-208h218a104 104 0 0 0 0 208z"/></clipPath><path id="b" clip-path="url(#a)" d="M-55 74a55 55 0 0 1 110 0V-74a55 55 0 0 1-110 0z"/><use xlink:href="#b" transform="rotate(90)" height="200" width="300"/></g></defs><path fill="#fff" d="M0 0h213.3v160H0z"/><path fill="#fff" d="M6.4 13.2h200.5v133.7H6.4z"/><path fill="red" d="M93.3 13.2v53.5h-87v26.7h87V147H120V93.4h87V66.7h-87V13.2H93.3z"/><use xlink:href="#c" transform="matrix(.67 0 0 .67 49.5 39.6)" height="200" width="300" fill="red"/><use xlink:href="#c" transform="matrix(.67 0 0 .67 163.9 120.5)" height="200" width="300" fill="red"/><use xlink:href="#c" transform="matrix(.67 0 0 .67 163.9 39.6)" height="200" width="300" fill="red"/><use xlink:href="#c" transform="matrix(.67 0 0 .67 49.5 120.5)" height="200" width="300" fill="red"/></svg>