<svg xmlns="http://www.w3.org/2000/svg" height="480" width="640"><defs><clipPath id="a"><path fill-opacity=".7" d="M-85.2 0h682.6v512H-85.2z"/></clipPath></defs><g clip-path="url(#a)" transform="translate(80) scale(.94)"><path fill-rule="evenodd" fill="#fff" d="M-254.6 0H767.3v510.9H-254.5z"/><path d="M405.2 175.1zm-72-62.8l-12.7 65 89-1-9.5-64" fill="#a11011"/><path fill-rule="evenodd" fill="#a11011" d="M276.1 77.6h27.4v6.8H276zm-32.7 0h26.4v6.8h-26.4zm-33.7-.5h26.4v6.4h-26.4z"/><path d="M301.8 99.6zM210 83.2v16.7h93.6V83.5l-93.6-.3m11.4 23.6L210.4 176l94.4.5-12.7-69.1m3 66.4z" fill="#a11011"/><path fill-rule="evenodd" fill="#d61517" d="M-256 384.5H768.2V512H-256z"/><path fill-rule="evenodd" fill="#a11011" d="M82.7 175.2h347.9v26.4h-348z"/><path d="M96 198.7l-7.5 131.6-37.8.4V352h413.5v-21.2l-37.8.5-7.4-132-323-.6z" fill="#a11011"/><path fill="#d61517" d="M204.6 234.3v21.8h5.3v-21.8h-5.3m8 0v21.8h42.7v-21.8h-42.7m45.3 0v21.8h40v-21.8h-40m42.8 0v21.8h8v-21.8h-8zM367 256zm-38.3-21.7v22.2h39v-21.8l-39-.4m-12 71.9v23.5H346v-23.5h-29.3m32 0v14.7h5.3v-14.7h-5.3m37.4 0v14.7h5.3v-14.7h-5.3m8 0v23.5h29.3v-23.5h-29.3zm-74.8-24v21.3h5.4v-21.3h-5.4m8 0v21.3H346v-21.3h-18.7zm66.8 0v21.3h19.1v-21.3h-19.1m21.8 0v21.3h5.5v-21.3H416zM318 202v5.8h103v-5.8h-103zm-216.3 80.8V304h18v-21.3h-18zm65.6-.5v22.2h18.7v-22.2h-18.7m21.3 0v22.2h5.4v-22.2h-5.4zm14.7-79.8v5.3h106.1v-5.3h-106zm-107.9.4v5.3h97v-5.3h-97z"/><path d="M313 200.5c-10.1.8 1.4 96 1.4 125.8 0 0 12.2-119.5-1.3-125.8z" fill="#fff"/><path fill="#d61517" d="M84.4 184.6v14.6h344.4v-14.6H84.4z"/><path d="M196.6 201c-10.2.7 1.3 97.8 1.3 128 0 0 12.2-121.7-1.3-128z" fill="#fff"/><path d="M90.9 282.7V304h8.2v-21.3H91zm-.2 23v24H120l-.2-24H90.7m28.8 23.5zM454.7 350zM51.6 331.7v18.5h410.3v-18.1l-410.3-.4m115.6-25.5v23.2h28.4v-23.2h-28.4m28 22.7zm6.6-23.2v23.6H231l-.1-23.5h-29.2m28.8 23zm49-22.6v23.5H312l-.1-23.5h-32.4m32 23zm-172.1-72.8zm-38.2-22.6V257h38.9v-22.6l-39-.5m-3.5 22.7zm-3.8-22.2v22.6h3.9v-22.1l-4-.5m89.7 22.6zM143 234.3v23h41.2v-22.5l-41.2-.5m48 22.6zm-4.7-22.2v22.7h4.8v-22.2l-4.8-.5m160 45zm-27.1-20.8v21.3h27.5v-20.9l-27.5-.4m101.7 20.4zm-27.5-20v20.4h28v-20l-28-.4m-3.3 20.4zm-39.9-20.4v20.9H391v-20.4l-40.7-.5" fill="#d61517"/><path d="M315.2 184zm-4.7-9.3v9.4h4.8V175l-4.8-.2" fill="#fff"/><path d="M325.2 255.6zm-5.1-21.3V256h5.2v-21.3l-5.2-.4m88.4 21.7zm-37-21.3v21.8H409v-21.3l-37.7-.5M420 256zm-7.4-21.3v21.8h7.5v-21.3l-7.5-.5M343 232zm-23.5-21.7v22.2h24v-21.8l-24-.4m69.6 21.7zm-41.9-21.3v21.8H390V211l-42.7-.5m70.4 21.3zm-25.3-21.7v22.2h25.8v-21.8l-25.8-.4m-190.7 71v21.7h12.1v-21.6l-12-.1m11.8 21.2zm2.7-20.8v21.8h15v-21.6l-15-.2M231 303zm48.6-20.8v21.7h19.3V282h-19.3m19 21.4zm12.4 0zm-9.6-21.3v21.7h9.8v-21.3l-9.8-.4M92.6 201.4v4.5h103v-4.5h-103zm105.6 0v4.5H312v-4.5H198.2zm116.4-.4v4.4h109V201h-109zM119.1 280zm-27-21.3v21.8h27.5v-21.3l-27.5-.5m100.3 21.3zm-24.8-21.3v21.8H193v-21.3l-25.3-.5m-44.7.5v21.8h42.2l.2-21.6-42.4-.2m41.5 21.3zm39.2-22.7v21.8h28l.1-21.6-28.1-.2m27.5 21.3zm45.7 0zM233.6 258v21.8h44l-.2-21.5-43.8-.3m46.4.5v21.8h28.5l.1-21.8H280m28 21.3zM232.4 231zM204 209.7v21.8h29v-21.3l-29-.5m73.8 21.7zM235 209.7v22.2h43.5v-21.7l-43.5-.5m71.7 21.7zm-25.3-21.7v22.2h25.7v-21.7l-25.7-.5" fill="#d61517"/><path d="M186.7 182.4zM113 119.6l-11 65 89-1-10-65.4" fill="#a11011"/><path fill="#d61517" d="M220.6 123.8l-2.7 10.7h38v-10.7h-35.3m38 0v10.7H294v-10.7h-35.3zM218 137.2v10.6h13.5v-10.7h-13.5m16.2 0v10.7h43.2v-10.7h-43.2m46 0v10.7h16.1v-10.7H280zm-56.8-26.6l-2.7 10.7h10.9v-10.7h-8.2m10.9 0v10.7h43.5v-10.7h-43.5m46.3 0v10.7h10.8v-10.7h-10.8zm-70.6-24V92h45.8v-5.3H210m48.5 0v5.3h43.2v-5.3h-43.2zm-48.5 8v5.3h21.4v-5.3h-21.4m24 0v5.3h42.7v-5.3H234m45.4 0v5.3h21.4v-5.3h-21.4zm-34.7-16v5.3h24v-5.3h-24zM84.4 177v5.3h21.4v-5.3H84.4zm323 0v5.3h21.4v-5.3h-21.4zm-280 5.6zm-20.3-4.4v4.5h20.7v-4.4l-20.7-.1m65.9 4.8zm-17.7-3.7v3.8h18v-3.7l-18-.1"/><path d="M203.3 184.3zm-5.2-10.6v10.9h5.2V174l-5.2-.3" fill="#fff"/><path d="M124.3 176zm-17.7-13v13.4h18v-13.1l-18-.3m28.3 13.1zm-9.2-12.6v12.9h9.4v-12.7l-9.4-.2m61.4 14zm-15.8-15v15.2h16.1V163l-16.1-.4m-3.1 13.7zm-12.4-13v13.3h12.6v-13l-12.6-.3" fill="#d61517"/><path d="M193 181.7zm-20-6.6v6.7h20.3v-6.5l-20.2-.2m122-1.4zm-74.2-66.4l-11.4-7.4H303l-10.4 8.3" fill="#a11011"/><path fill="#d61517" d="M211 78.6v5.3h24v-5.3h-24zm66 .4v5.4h25.3V79h-25.4z"/><g fill="#d61517"><path d="M288.2 108zm-66.9-1.6v1.7h68v-1.7h-68"/><path d="M291.7 107.2zm-74-1.7v1.7H293v-1.7h-75.3"/><path d="M294.8 105.8zm-77.6-1.7v1.7h79v-1.7h-79"/><path d="M294.8 105.8zm-77.6-1.7v1.7h79v-1.7h-79m79.9-.1zm-80.8-1.7v1.7h82.2v-1.7h-82.2"/></g><path d="M243.1 182.7zm-15.9-3.5v3.6h16.2v-3.5h-16.2m56 3.4zm-13.6-3.5v3.6h13.9v-3.5h-14m-152.1 52.6zm-21.7-22.2v22.7h22v-22.2l-22-.5m147.2-32.3zm-30.2-13.7v14h30.7V164l-30.7-.3m89.9 13.8zM277 163.6v14h26V164l-26-.3m-3.7 13.8zm-7.4-13.8v14h7.5V164l-7.5-.3" fill="#d61517"/><path d="M226.7 182.1zm-16.8-7v7.2H227v-7l-17-.2" fill="#a11011"/><path fill="#d61517" d="M175.2 177v5.9h21.4V177h-21.4m29.4 0v5.8h21.3V177h-21.3z"/><path d="M304 182.2zm-20.3-6.6v6.7h20.7v-6.6l-20.7-.1" fill="#a11011"/><path d="M165.2 231.9zm-44.5-21.7v22.2H166v-21.8l-45.3-.4m70.4 21.7zm-23-21.7v22.2h23.4v-21.8l-23.4-.4m86.9-48.6zm-40-12v12.2h40.7v-12l-40.7-.2m83.2 12.4zm-40-12v12.3h40.7v-12l-40.7-.2" fill="#d61517"/><path fill-rule="evenodd" fill="#a11011" d="M168.7 89h23.7v6.8h-23.7zm-34.5-.5h26.3v7.7h-26.3zM105 89h21v6.8h-21z"/><path d="M189.6 109.2zM113 120l-8.2-11.4 87.6.4-10.5 9.6" fill="#a11011"/><path fill="#d61517" d="M105.8 102.5v5.4h18.7v-5.4h-18.7m21.4 0v5.4h42.7v-5.4h-42.7m45.3 0v5.4h18.7v-5.4h-18.7zm-66.7-12.4v4.7h18.7v-4.7h-18.7m29.4 0v4.7h24v-4.7h-24zm34.7.5v4h21.3v-4H170z"/><path fill-rule="evenodd" fill="#a11011" d="M105 95.8h87.4v13.6H105z"/><path d="M142.3 160.2zm-33.9-10.4v10.6H143V150l-34.5-.2m76.5 10.4zM145 149.8v10.6h40.5V150l-40.5-.2m1.5-48.6zm-40.4-4v4h41.2v-3.8l-41.2-.1m18.6 49.7zm-14.5-11v11.3H125v-11l-14.8-.3m57 11zm-39.4-9.7v10h40v-9.8l-40-.2m55.7 10.2zm-12.8-11v11.2h13v-11l-13-.3m-25.8-1.6zm-33-9.8v10h33.6v-9.8l-33.5-.2m69.7 9.8zm-33.3-9.8v10h34v-9.8l-34-.2m23-2.4zm-49-4v4h49.9v-3.8l-49.8-.1m57.9 3.9zm-7-4v4h7v-3.8l-7-.1m-52.7 3.9zm-7.8-4v4h8v-3.8l-8-.1m77.8-17.5zm-40.6-4v4h41.3v-3.8l-41.3-.1m-23.7 12.5zm-19.9-5.6v5.7H127v-5.6h-20.3m60.2 4.9zm-35.3-5.2v5.3h35.9V104h-35.9m59.2 5zm-19.8-4.9v5h20.2v-4.9h-20.2" fill="#d61517"/><g fill="#d61517"><path d="M179 116.5zm-67-1.5v1.6h68.1V115h-68"/><path d="M182.5 115.7zm-74-1.5v1.6h75.3v-1.5h-75.4"/><path d="M185.6 114.5zM108 113v1.5h79V113h-79"/><path d="M185.6 114.5zM108 113v1.5h79V113h-79m79.8-.1zm-80.7-1.5v1.5h82.1v-1.5h-82.1"/></g><path d="M354.2 182.7zm-15-4v4h15.3v-3.9h-15.3m65.4 3.4zm-22.6-4v4.1h23v-4h-23m24.9-1.7zm-20.2-12.3v12.5h20.5v-12.3l-20.5-.2m-2.8 12.3zm-8.3-12.8v13h8.4v-12.7l-8.4-.3M340.5 177zm-16.8-13.7v14h17.1v-13.7l-17-.3m30.5 13.7zm-10.6-13.8v14h10.7v-13.7l-10.7-.3" fill="#d61517"/><path d="M338.7 183zm-17.7-7.9v8.1h18v-8l-18-.1" fill="#a11011"/><path fill="#d61517" d="M285.5 177v5.9h23.7V177h-23.7m31.5 0v5.8h21V177h-21zm-18.8-15zm-38-12v12.2h38.7v-12l-38.8-.2"/><path fill-rule="evenodd" fill="#a11011" d="M387.7 88.9h23.6v6.8h-23.6zm-34.6-.5h26.4v7.7H353zm-29.2.5h21v6.8h-21z"/><path d="M408.5 109.1zM331.9 120l-8.2-11.4 87.6.4-10.5 9.6" fill="#a11011"/><path fill="#d61517" d="M324.7 102.4v5.4h18.7v-5.4h-18.7m21.4 0v5.4h42.7v-5.4H346m45.4 0v5.4H410v-5.4h-18.7zM324.7 90v4h18.7v-4h-18.7m29.4 0v4h24v-4h-24zm34.7.5v3.4H410v-3.4h-21.3z"/><path fill-rule="evenodd" fill="#a11011" d="M324 95.7h87.3v13.6H324z"/><path d="M361.8 160.1zm-35.3-11v11.2h36v-11l-36-.2m77.3 11zm-38-11v11.2h38.7v-11l-38.7-.2m-2.8-48zm-38-4v4h38.7v-3.8l-38.6-.1m18.6 49.7zm-14.5-11V147H344v-11l-14.8-.2m57 11zm-38.7-11V147h39.3v-11l-39.3-.2m55 11.5zm-12.8-11.1v11.3h13v-11l-13-.3m-25.1-3zm-33.6-7.8v8h34.2v-7.8l-34.2-.2m69.8 7.9zm-32.7-8v8.2h33.2v-8l-33.2-.1m22.4-3zm-49-4v4h49.8v-3.9h-49.8m57.9 3.9zm-7-4v4h7.1v-3.9h-7m-52.7 3.9zm-7.9-4v4h8v-3.9h-8m77.8-17.5zm-41.8-4v4h42.5v-3.8l-42.5-.1m-23.7 11.2zm-18.6-6.2v6.3h19v-6.2l-19-.1m58.8 6.2zm-36.5-5.8v6H385v-5.8l-37.1-.2m61.7 5.8zm-21.7-5.6v5.7h22V103h-22" fill="#d61517"/><g fill="#d61517"><path d="M397.9 116.4zM331 115v1.6h68V115h-68"/><path d="M401.4 115.6zm-74-1.5v1.5h75.3v-1.5h-75.3"/><path d="M404.5 114.4zm-77.6-1.5v1.5h79V113h-79"/><path d="M404.5 114.4zm-77.6-1.5v1.5h79V113h-79m79.9-.1zm-80.8-1.5v1.5h82.2v-1.5H326"/></g><g fill="#d61517"><path d="M397.9 115.2zm-66.9-.4v.4h68v-.4h-68"/><path d="M401.4 115zm-74-.4v.4h75.3v-.4h-75.3"/><path d="M404.5 114.6zm-77.6-.3v.4h79v-.4h-79"/><path d="M404.5 114.6zm-77.6-.3v.4h79v-.4h-79m79.9 0zm-80.8-.4v.3h82.2v-.3H326"/></g><path fill-rule="evenodd" fill="gray" d="M232 462.6h20v29h-20z"/><path fill-rule="evenodd" fill="#ffc500" d="M234.6 464.5H252v25.1h-17.4z"/><path fill-rule="evenodd" fill="gray" d="M237.9 469.7h11.5V487H238z"/><path fill-rule="evenodd" fill="#d61517" d="M240.4 471.6h7.1v13.5h-7z"/><g fill-rule="evenodd" stroke-width="1pt"><path fill="gray" d="M231.4 474.2h7.8v9h-7.8z"/><path fill="#d61517" d="M231.4 476.1h8.4v5.2h-8.4z"/></g><g fill-rule="evenodd" stroke-width="1pt"><path fill="gray" d="M261.4 503h-9.7v-75.3h9.7z"/><path fill="#ffc500" d="M259.4 501h-5.7v-71.4h5.7z"/></g><path fill-rule="evenodd" fill="gray" d="M283.1 407.5l-4.7 4.4-25.2-23.8 4.7-4.5z"/><path fill-rule="evenodd" fill="gray" d="M261 432.1l-4.4-4.8 22-24 4.3 4.8z"/><path fill-rule="evenodd" fill="#ffc500" d="M254.3 388.4l3.9-3.7 23.8 22.9-3.8 3.7z"/><path fill-rule="evenodd" fill="#ffc500" d="M259.7 432.2l-3.6-4 22.1-24.4 3.6 4z"/><path fill-rule="evenodd" fill="gray" d="M230.9 410.6l4.4-4.4 22 21.5-4.5 4.4z"/><path fill-rule="evenodd" fill="gray" d="M254.9 383.8l4.8 4.7-25.8 25-4.8-4.7z"/><path fill-rule="evenodd" fill="#ffc500" d="M235.3 411.5l-3.7-3.7 23.2-23.3 3.8 3.7z"/><path fill-rule="evenodd" fill="gray" d="M254.1 336.2h5.2v62.2H254z"/><path fill-rule="evenodd" fill="#ffc500" d="M255 337h3.5v60.2H255zm-24.6 72l4-4 24.9 24.8-4 4z"/><g fill-rule="evenodd" transform="matrix(1.3 0 0 1.06 -279.6 -7.7)" stroke-width="1pt" fill="#a11011"><path d="M478 276h34.6v44.3H478z"/><rect ry="18.3" height="36.6" width="34.3" y="258.3" x="478.1"/></g><g fill-rule="evenodd" transform="matrix(1.24 0 0 1.02 -244.6 4)" stroke-width="1pt" fill="#d61517"><path d="M478 276h34.6v44.3H478z"/><rect ry="18.3" height="36.6" width="34.3" y="258.3" x="478.1"/></g><g fill-rule="evenodd" transform="matrix(.92 0 0 .96 -87.9 24)" stroke-width="1pt" fill="#a11011"><path d="M478 276h34.6v44.3H478z"/><rect ry="18.3" height="36.6" width="34.3" y="258.3" x="478.1"/></g><path fill-rule="evenodd" fill="#d61517" d="M356 289.2h28v40.5h-28z"/><rect fill-rule="evenodd" ry="16.7" height="33.4" width="27.8" y="273.1" x="356.1" fill="#d61517"/><g fill-rule="evenodd" transform="matrix(1.35 0 0 1.06 -413 -8.7)" stroke-width="1pt" fill="#a11011"><path d="M478 276h34.6v44.3H478z"/><rect ry="18.3" height="36.6" width="34.3" y="258.3" x="478.1"/></g><g fill-rule="evenodd" transform="matrix(1.28 0 0 1.02 -377 3)" stroke-width="1pt" fill="#d61517"><path d="M478 276h34.6v44.3H478z"/><rect ry="18.3" height="36.6" width="34.3" y="258.3" x="478.1"/></g><g fill-rule="evenodd" transform="matrix(.95 0 0 .96 -215.8 22.9)" stroke-width="1pt" fill="#a11011"><path d="M478 276h34.6v44.3H478z"/><rect ry="18.3" height="36.6" width="34.3" y="258.3" x="478.1"/></g><g fill-rule="evenodd" transform="matrix(.83 0 0 .9 -158 36.2)" stroke-width="1pt" fill="#d61517"><path d="M478 276h34.6v44.3H478z"/><rect ry="18.3" height="36.6" width="34.3" y="258.3" x="478.1"/></g><g fill-rule="evenodd" transform="matrix(1.33 0 0 1.06 -515.4 -8.6)" stroke-width="1pt" fill="#a11011"><path d="M478 276h34.6v44.3H478z"/><rect ry="18.3" height="36.6" width="34.3" y="258.3" x="478.1"/></g><g fill-rule="evenodd" transform="matrix(1.26 0 0 1.02 -480 3)" stroke-width="1pt" fill="#d61517"><path d="M478 276h34.6v44.3H478z"/><rect ry="18.3" height="36.6" width="34.3" y="258.3" x="478.1"/></g><g fill-rule="evenodd" transform="matrix(.94 0 0 .96 -321 23)" stroke-width="1pt" fill="#a11011"><path d="M478 276h34.6v44.3H478z"/><rect ry="18.3" height="36.6" width="34.3" y="258.3" x="478.1"/></g><g fill-rule="evenodd" transform="matrix(.82 0 0 .9 -264 36.4)" stroke-width="1pt" fill="#d61517"><path d="M478 276h34.6v44.3H478z"/><rect ry="18.3" height="36.6" width="34.3" y="258.3" x="478.1"/></g><path d="M233 322.3v2.3h6.3v-2.3H233zm-111.8-1.6v2.3h6.3v-2.3h-6.3zm0-17.3v2.4h6.3v-2.4h-6.3zm.1-16.2v2.3h6.3v-2.3h-6.3zm38.3 34.1v2.3h6.3v-2.3h-6.3zm-.1-17.4v2.3h6.3V304h-6.3zm-.5-16.4v2.3h6.3v-2.3H159zm83-9.5l1.7-1.6-4.4-4.5-1.7 1.7 4.5 4.4zm29.2 44.1v2.3h6.3v-2.3h-6.3zm-38-18.5v2.3h6.3v-2.3h-6.3zm-.5-16.6v2.3h6.3V287h-6.3zm38.5 17v2.2h6.3V304h-6.3zm.3-17.8v2.3h6.3v-2.3h-6.3zm76.7 36.7v2.3h6.3V323h-6.3zm0-19.3v2.3h6.3v-2.3h-6.3zm.2-18.3v2.3h6.3v-2.3h-6.3zm37.2 37.8v2.3h6.3V323h-6.3zm-.2-19.3v2.3h6.3v-2.3h-6.3zm.2-17.9v2.3h6.3V286h-6.3z" fill="#a11011"/><g fill-rule="evenodd" transform="matrix(.56 0 0 .46 88.2 34.4)" stroke-width="1pt" fill="#a11011"><path d="M478 276h34.6v44.3H478z"/><rect ry="18.3" height="36.6" width="34.3" y="258.3" x="478.1"/></g><g fill-rule="evenodd" transform="matrix(.53 0 0 .45 103.1 39.5)" stroke-width="1pt" fill="#d61517"><path d="M478 276h34.6v44.3H478z"/><rect ry="18.3" height="36.6" width="34.3" y="258.3" x="478.1"/></g><g fill-rule="evenodd" transform="matrix(.4 0 0 .42 170 48.3)" stroke-width="1pt" fill="#a11011"><path d="M478 276h34.6v44.3H478z"/><rect ry="18.3" height="36.6" width="34.3" y="258.3" x="478.1"/></g><g fill-rule="evenodd" transform="matrix(.35 0 0 .4 194 54)" stroke-width="1pt" fill="#d61517"><path d="M478 276h34.6v44.3H478z"/><rect ry="18.3" height="36.6" width="34.3" y="258.3" x="478.1"/></g><path d="M371.2 265.2H369v6.3h2.3v-6.3zm-97.9 8.9l-1.6-1.7-4.5 4.5 1.7 1.6 4.4-4.4zm113.2-.2l-1.7-1.6-4.4 4.4 1.6 1.6 4.5-4.4zm-28.2 4.3l1.6-1.6-4.4-4.5-1.7 1.6 4.5 4.5zm-229-7.5l-1.6 1.6 4.5 4.4 1.6-1.6-4.4-4.4zm127.2-6h-2.3v6.4h2.3v-6.3zM142.3 272h2.3v-6.3h-2.3v6.3zm12.5 4.2l1.6 1.7 4.5-4.5-1.7-1.6-4.4 4.4zM358.6 176v7h23v-7h-23z" fill="#a11011"/><path fill="#d61517" d="M359.4 177v5.4h21.3v-5.3h-21.3z"/><g fill-rule="evenodd" stroke-width="1pt"><g transform="matrix(.63 0 0 .48 -58.1 30.4)" fill="#a11011"><path d="M478 276h34.6v44.3H478z"/><rect ry="18.3" height="36.6" width="34.3" y="258.3" x="478.1"/></g><g transform="matrix(.6 0 0 .46 -41.3 35.6)" fill="#d61517"><path d="M478 276h34.6v44.3H478z"/><rect ry="18.3" height="36.6" width="34.3" y="258.3" x="478.1"/></g><g transform="matrix(.45 0 0 .43 34.3 44.6)" fill="#a11011"><path d="M478 276h34.6v44.3H478z"/><rect ry="18.3" height="36.6" width="34.3" y="258.3" x="478.1"/></g><g transform="matrix(.4 0 0 .4 61.4 50.6)" fill="#d61517"><path d="M478 276h34.6v44.3H478z"/><rect ry="18.3" height="36.6" width="34.3" y="258.3" x="478.1"/></g></g><path d="M244.3 176.1v7h25.4v-7h-25.4z" fill="#a11011"/><path fill="#d61517" d="M244.6 177.6v5.3h24v-5.4h-24z"/><g fill-rule="evenodd" stroke-width="1pt"><g transform="matrix(.63 0 0 .48 -170 30.4)" fill="#a11011"><path d="M478 276h34.6v44.3H478z"/><rect ry="18.3" height="36.6" width="34.3" y="258.3" x="478.1"/></g><g transform="matrix(.6 0 0 .46 -153 35.6)" fill="#d61517"><path d="M478 276h34.6v44.3H478z"/><rect ry="18.3" height="36.6" width="34.3" y="258.3" x="478.1"/></g><g transform="matrix(.45 0 0 .43 -77.5 44.6)" fill="#a11011"><path d="M478 276h34.6v44.3H478z"/><rect ry="18.3" height="36.6" width="34.3" y="258.3" x="478.1"/></g><g transform="matrix(.4 0 0 .4 -50.4 50.6)" fill="#d61517"><path d="M478 276h34.6v44.3H478z"/><rect ry="18.3" height="36.6" width="34.3" y="258.3" x="478.1"/></g></g><path d="M128.3 173.9v8.4h22.4V174h-22.4z" fill="#a11011"/><path d="M149.3 182.6zm-19.5-7.5v7.7h19.8v-7.5l-19.8-.2" fill="#d61517"/></g></svg>