<svg xmlns="http://www.w3.org/2000/svg" height="480" width="640"><defs><clipPath id="a"><path fill-opacity=".7" d="M0 64h512v384H0z"/></clipPath></defs><g clip-path="url(#a)" fill-rule="evenodd" transform="matrix(1.25 0 0 1.25 0 -80)"><path fill="#fff" d="M0 0h512v512H0z"/><path d="M0 341.3h512V512H0z"/><path fill="#f30000" d="M0 0h512v170.7H0z"/><path fill="#005623" d="M487.6 284l-21.1-15.2-21 15.4 8-24.8-21.3-15.2h26.1l8-24.9 8 24.8 26.1-.2-21 15.4zm-294.4-50.8c.3 24.3 0 40 0 45a184.7 184.7 0 0 0-7.1 8.9c-.9-.7-1.1-.7-1.1-2s-.2-33.2 0-45c3.9-2 6.5-7.4 8.2-7zm-8.9-.5c2-3.2 4.2-6.5 5.7-8 1.5.9 1.3 3.3 1.5 4-1.5 2-5.2 5.6-6.3 6.6-.4-.6 0-.4-.9-2.6zm10.9-27.8a490.6 490.6 0 0 0-33.7 23.7c-5.4 4.6-7.4 7.4-7.4 15.2 0 7.8.2 16.8-.4 20.9-.7 4.1-2.6 8.5-7.4 4.5-4.8-3.9-8.3-7.8-10.4-9.5-2.2-1.8-6.1-4.1-11.3.4-5.3 4.6-29.6 30.2-34.2 33-4.5 2.9-5.4 3.5-8.6 5.3 6.7.4 14.3.8 20.4-.5 8-5.8 17.4-19 20.4-22.4 3-3.2 6-10.2 12.8-2.6 6.8 7.6 6.6 7.9 9.8 10.3 3.3 2.3 7.4 2 10.2-2.9 2.9-4.8 3-7 4.2-14.7 1-7.9 1.7-17.7 3.4-22 1.8-4.3 5.2-8.7 11.1-12.2 5.9-3.4 7-3.7 8.3-4.3 2.6-5 8.9-16.7 11.5-19.6 1-1.3 1.3-2 1.3-2.6zM136.3 284c-3.3-2.1-4.3-3.9-6-3.7s-5.5 5.2-7.7 6.5c2.8 2.4 5.4 4.6 7.6 4.2 2.2-.5 3.7-5.2 6.1-7zm275.3-61c-4.5 1-6.9 7.1-10.8 11.3-.5 12.1-.5 50-.5 55a42 42 0 0 1 9.2-9c.6-20.2 3-48.4 2.1-57.3zm-21.5-.3c-5.4 3.5-6.7 7-11.3 11-.2 14.5.5 35.1-.6 38-1.1 2.8-3.5 8.6-9.4 8-5.8-.7-7.6-1.8-7.6-7.8s1.3-45 1.3-51.3c-4.5 2.1-8.4 8.9-11.7 11.7 0 15.2.7 34.6.2 38.7-.4 4.1-2.2 10.9-9.5 10.6-7.4-.2-11.3-3.9-11.3-8.2 0-4.4-.3-32.8.2-37.8-6.6 4.5-21.8 13.7-24.8 25.4s1.7 15.2 6 13c4.4-2.1 6.4-4.1 8.8-5.8.6 7.4.8 15.4 8.2 20.2 7.4 4.8 16.8 3 20.2.4 3.5-2.6 4.8-4.3 5.7-5.6 6.5 5 16 7.6 22.4 2.1 6.3-5.4 9.8-10.8 10.4-17 .7-6 3.7-37.3 2.8-45.6zM322 252.3c-6.5 3-9.4 7.6-7.6 10.4 1.7 2.9 5.2-.4 7.6-1.5-.4-4.3 0-6.7 0-8.9zm42-46c-1.6 5-2.7 4-4.6 4.3-2 .2-3.3-1.8-4.8-3.5-1.5.2-1.7.6-2.8 1 3.4 5 6 7.3 10.2 6.2 4.1-1.1 4.3-4.8 4.3-6.8-.6-.4-.8-.6-2.4-1.3zm-3.8-6.4c-2 .7-2.3 1.1-3 2.8 1 2.4 2.6 3.7 4.1 3 1.6-.6 1.8-3.2.9-3.8-.9-.7-.4-1.1-2-2zM62.5 284l-21.1-15.2-21 15.4 8-24.8-21.2-15.2h26l8-24.9 8 24.8 26.1-.2-21 15.4zm212.1 0l-21.1-15.2-21 15.4 8-24.8-21.2-15.2h26l8-24.9 8 24.8 26.1-.2-21 15.4z"/></g></svg>