<svg xmlns="http://www.w3.org/2000/svg" height="480" width="640" version="1"><defs><clipPath id="a"><path fill-opacity=".7" d="M-85.3 0h682.6v512H-85.3z"/></clipPath></defs><g fill-rule="evenodd" clip-path="url(#a)" transform="translate(80) scale(.9375)"><path fill="#1b0073" d="M-128 0h768v512h-768z"/><path fill="#e60006" d="M-128 128h768v256h-768z"/><g stroke="#e60000" fill="#fff"><path stroke-width="1.2" d="M93.3 248h325.4v52.7H93.3z"/><path d="M220 280l-5 15h320l-5-15H220z" transform="matrix(1.0514 0 0 .82556 -138.3 69.5)" stroke-width="1.3"/><path d="M245 280l-5 15h60l-5-15h-50z" transform="matrix(1.27557 0 0 .82556 37.6 69.5)" stroke-width="1.1"/><path d="M245 280l-5 15h60l-5-15h-50z" transform="matrix(.64243 0 0 .82556 211.2 69.5)" stroke-width="1.5"/><path d="M245 280l-5 15h60l-5-15h-50z" transform="matrix(.4152 0 0 .82556 272.6 69.5)" stroke-width="2"/><path d="M245 280l-5 15h60l-5-15h-50z" transform="matrix(1.3409 0 0 .82556 -106 69.5)" stroke-width="1.1"/><path stroke-width="1.3" d="M91.4 247.3h329.2v12.4H91.4z"/><path stroke-width="1.2" d="M349.6 248.2h64.6v52.4h-64.6z"/><path stroke-width=".8" d="M395.8 272.7h6.4v27.9h-6.4zm-28.4 0h6.5v27.9h-6.5z"/><path d="M245 280l-5 15h60l-5-15h-50z" transform="matrix(.67356 0 0 .82556 74 69.5)" stroke-width="1.6"/><path d="M245 280l-5 15h60l-5-15h-50z" transform="matrix(.42245 0 0 .82556 142 69.5)" stroke-width="2"/><path stroke-width="1.3" d="M221.7 248h68v52.7h-68z"/><path stroke-width="1.1" d="M275.8 272.7h6.5v27.9h-6.5zm-44.9 0h6.5v27.9h-6.5z"/><path d="M239.5 235.3h33v65.4h-33z"/><path stroke-width="1.1" d="M264.2 272.7h6.5v27.9h-6.5zm-21.6 0h6.4v27.9h-6.4z"/><path d="M358.2 217.1l13.5 23 14.2-23h-27.7z" transform="matrix(1.0321 0 0 .87371 -128 56.1)" stroke-width="1pt"/><path stroke-width="1.2" d="M375.2 248h18.3v65h-18.3z"/><path stroke-width="1.2" d="M378.3 248h12.2v65h-12.2z"/><path d="M245 280l-5 15h60l-5-15h-50z" transform="matrix(1.27568 0 0 .82556 -215.2 69.5)" stroke-width="1.1"/><path d="M245 280l-5 15h60l-5-15h-50z" transform="matrix(.59975 0 0 .82556 -34.2 69.5)" stroke-width="1.6"/><path d="M245 280l-5 15h60l-5-15h-50z" transform="matrix(.38267 0 0 .82556 24.3 69.5)" stroke-width="2"/><path stroke-width="1.2" d="M97 248h63.9v52.7h-64z"/><path stroke-width=".8" d="M109.4 272.7h6.4v27.9h-6.4zm29.7 0h6.4v27.9h-6.4z"/><path stroke-width="1.2" d="M118.8 248h18.3v65h-18.3z"/><path stroke-width="1.2" d="M121.9 248H134v65h-12.2z"/><path stroke-width="1.3" d="M87.8 235.7h336.4V248H87.8z"/><g><path stroke-width="1pt" d="M187.5 328.6h406.3V346H187.4z" transform="matrix(1.0802 0 0 .9098 -166 50.9)"/><path stroke-width="1.2" d="M226.3 284.8h327.4v17.5H226.3z" transform="matrix(1.0802 0 0 .9098 -166 50.9)"/><path stroke-width="1.2" d="M221.3 288.6h337.4V306H221.3z" transform="matrix(1.0802 0 0 .9098 -166 50.9)"/><path stroke-width="1pt" d="M187.5 328.6h406.3V346H187.4z" transform="matrix(1.0802 0 0 .9098 -166 50.9)"/><path stroke-width="1.2" d="M212.5 298.6h356.3V316H212.4z" transform="matrix(1.0802 0 0 .9098 -166 50.9)"/><path stroke-width="1.3" d="M200 311h381.3v17.6H200z" transform="matrix(1.0802 0 0 .9098 -166 50.9)"/><path stroke-width="1.4" d="M287.5 283.6h18.8V346h-18.8z" transform="matrix(.97521 0 0 .89163 -161.5 57.2)"/><path stroke-width="1.1" d="M290.6 283.6h12.5V346h-12.5z" transform="matrix(.97521 0 0 .89163 -161.5 57.2)"/><g><path stroke-width="1.4" d="M287.5 283.6h18.8V346h-18.8z" transform="matrix(.97521 0 0 .89163 94.5 57.2)"/><path stroke-width="1.1" d="M290.6 283.6h12.5V346h-12.5z" transform="matrix(.97521 0 0 .89163 94.5 57.2)"/></g></g><path stroke-width="1.2" d="M249.2 248H264v117.7h-14.7z"/><g><path d="M218 220.3l.1-37s3.4 7.3 29.5 9c24.8-1 28.9-5.5 30-9.4l-1 37.5-58.7-.1z" transform="matrix(.97394 0 0 .87371 141.6 56.1)" stroke-width="1pt"/><path d="M331 208.6L312.4 188c6.1-5.3 17.5 3.8 17.5 3.8s6.2-23.5 32.5-33.3c26.3 9.8 32.5 33.3 32.5 33.3s11.4-9 17.5-3.8l-18.4 20.5h-63.2z" transform="matrix(.428 0 0 .30959 228.7 146.3)" stroke-width="3.5"/><path d="M331 208.6L312.4 188c6.1-5.3 17.5 3.8 17.5 3.8s6.2-23.5 32.5-33.3c26.3 9.8 32.5 33.3 32.5 33.3s11.4-9 17.5-3.8l-18.4 20.5h-63.2z" transform="matrix(.55638 0 0 .43342 182.1 136.8)" stroke-width="2.6"/><path d="M0 280.5c.8 0 30.1 52.3 0 53.1-30.1.8 0-51.5 0-53z" transform="matrix(.40719 0 0 .40808 384 46.9)" stroke-width="3.4"/><path d="M331 208.6L312.4 188c6.1-5.3 17.5 3.8 17.5 3.8s6.2-23.5 32.5-33.3c26.3 9.8 32.5 33.3 32.5 33.3s11.4-9 17.5-3.8l-18.4 20.5h-63.2z" transform="matrix(.32914 0 0 .16252 264.7 154.6)" stroke-width="6"/><path d="M331 208.6l-1-16.7s6.2-23.5 32.5-33.3a53.2 53.2 0 0 1 32.5 33.3l-1 16.7h-63z" transform="matrix(.16902 0 0 .16252 322.7 157.3)" stroke-width="8.3"/><path d="M331 208.6l-1-16.7s6.2-23.5 32.5-33.3a53.2 53.2 0 0 1 32.5 33.3l-1 16.7h-63z" transform="matrix(.33803 0 0 .2167 261.5 154.1)" stroke-width="5.1"/><path d="M331 208.6l-1-16.7s6.2-23.5 32.5-33.3a53.2 53.2 0 0 1 32.5 33.3l-1 16.7h-63z" transform="matrix(.33803 0 0 .2167 261.5 159.5)" stroke-width="5.1"/><path d="M331 208.6L312.4 188c6.1-5.3 17.5 3.8 17.5 3.8s6.2-23.5 32.5-33.3c26.3 9.8 32.5 33.3 32.5 33.3s11.4-9 17.5-3.8l-18.4 20.5h-63.2z" transform="matrix(.3291 0 0 .4334 264.7 130.6)" stroke-width="3.7"/><path d="M331 208.6L312.4 188c6.1-5.3 17.5 3.8 17.5 3.8s6.2-23.5 32.5-33.3c26.3 9.8 32.5 33.3 32.5 33.3s11.4-9 17.5-3.8l-18.4 20.5h-63.2z" transform="matrix(.3291 0 0 .4334 264.7 141.4)" stroke-width="3.7"/><path d="M331 208.6l-1-16.7s6.2-23.5 32.5-33.3a53.2 53.2 0 0 1 32.5 33.3l-1 16.7h-63z" transform="matrix(.33803 0 0 .54176 261.5 135)" stroke-width="3.2"/><path d="M331 208.6L312.4 188c6.1-5.3 17.5 3.8 17.5 3.8s6.2-23.5 32.5-33.3c26.3 9.8 32.5 33.3 32.5 33.3s11.4-9 17.5-3.8l-18.4 20.5h-63.2z" transform="matrix(.32914 0 0 .32505 264.7 180.3)" stroke-width="4.2"/></g><g><path d="M331 208.6L312.4 188c6.1-5.3 17.5 3.8 17.5 3.8s6.2-23.5 32.5-33.3c26.3 9.8 32.5 33.3 32.5 33.3s11.4-9 17.5-3.8l-18.4 20.5h-63.2z" transform="matrix(.428 0 0 .30959 -27 144)" stroke-width="3.5"/><path d="M331 208.6L312.4 188c6.1-5.3 17.5 3.8 17.5 3.8s6.2-23.5 32.5-33.3c26.3 9.8 32.5 33.3 32.5 33.3s11.4-9 17.5-3.8l-18.4 20.5h-63.2z" transform="matrix(.55638 0 0 .43342 -73.5 134.5)" stroke-width="2.6"/><path d="M218 220.3l.1-37s3.4 7.3 29.5 9c24.8-1 28.9-5.5 30-9.4l-1 37.5-58.7-.1z" transform="matrix(.97394 0 0 .87371 -111.9 56.1)" stroke-width="1pt"/><path d="M0 280.5c.8 0 30.1 52.3 0 53.1-30.1.8 0-51.5 0-53z" transform="matrix(.40719 0 0 .40808 128 46.9)" stroke-width="3.4"/><path d="M331 208.6L312.4 188c6.1-5.3 17.5 3.8 17.5 3.8s6.2-23.5 32.5-33.3c26.3 9.8 32.5 33.3 32.5 33.3s11.4-9 17.5-3.8l-18.4 20.5h-63.2z" transform="matrix(.32914 0 0 .16252 8.7 154.6)" stroke-width="6"/><path d="M331 208.6l-1-16.7s6.2-23.5 32.5-33.3a53.2 53.2 0 0 1 32.5 33.3l-1 16.7h-63z" transform="matrix(.16902 0 0 .16252 66.7 157.3)" stroke-width="8.3"/><path d="M331 208.6l-1-16.7s6.2-23.5 32.5-33.3a53.2 53.2 0 0 1 32.5 33.3l-1 16.7h-63z" transform="matrix(.33803 0 0 .2167 5.5 154.1)" stroke-width="5.1"/><path d="M331 208.6l-1-16.7s6.2-23.5 32.5-33.3a53.2 53.2 0 0 1 32.5 33.3l-1 16.7h-63z" transform="matrix(.33803 0 0 .2167 5.5 159.5)" stroke-width="5.1"/><path d="M331 208.6L312.4 188c6.1-5.3 17.5 3.8 17.5 3.8s6.2-23.5 32.5-33.3c26.3 9.8 32.5 33.3 32.5 33.3s11.4-9 17.5-3.8l-18.4 20.5h-63.2z" transform="matrix(.3291 0 0 .4334 8.7 130.6)" stroke-width="3.7"/><path d="M331 208.6L312.4 188c6.1-5.3 17.5 3.8 17.5 3.8s6.2-23.5 32.5-33.3c26.3 9.8 32.5 33.3 32.5 33.3s11.4-9 17.5-3.8l-18.4 20.5h-63.2z" transform="matrix(.3291 0 0 .4334 8.7 141.4)" stroke-width="3.7"/><path d="M331 208.6l-1-16.7s6.2-23.5 32.5-33.3a53.2 53.2 0 0 1 32.5 33.3l-1 16.7h-63z" transform="matrix(.33803 0 0 .54176 5.5 135)" stroke-width="3.2"/><path d="M331 208.6L312.4 188c6.1-5.3 17.5 3.8 17.5 3.8s6.2-23.5 32.5-33.3c26.3 9.8 32.5 33.3 32.5 33.3s11.4-9 17.5-3.8l-18.4 20.5h-63.2z" transform="matrix(.32914 0 0 .32505 8.7 180.3)" stroke-width="4.2"/></g><g transform="translate(-128) scale(1.0321)"><rect ry="6.4" height="12.9" width="85" y="226.3" x="329.5" stroke-width="1.2"/><path d="M353.2-212.6l1.1-56.7s-3.2 14-13 14h-151c-9.9 0-13.1-14-13.1-14l1 56.7h175z" transform="matrix(.5 0 0 .75 239.2 393.3)" stroke-width="1.6"/><path d="M510.5 70.2l.4-25.6s23.6-3 20.3-9.3c-3.3-6.4-31.6 8-31.6 8H386.2s-28.3-14.4-31.6-8c-3.2 6.3 20.3 9.3 20.3 9.3l.4 25.6h135.2z" transform="matrix(.4 0 0 .57434 194.9 174.2)" stroke-width="2.4"/><path d="M510.5 70.2l.4-25.6s23.6-3 20.3-9.3c-3.3-6.4-31.6 8-31.6 8H386.2s-28.3-14.4-31.6-8c-3.2 6.3 20.3 9.3 20.3 9.3l.4 25.6h135.2z" transform="matrix(.48 0 0 .57434 159.4 186.2)" stroke-width="2.2"/><path d="M510.5 70.2l.4-25.6s23.6-3 20.3-9.3c-3.3-6.4-27.3-18.4-61.8-31.1-24.3-6 31.2-26.3-21-27.7-48.1.7-5.5 23.3-21.2 28.6C388.4 17 358 29 354.6 35.3c-3.2 6.3 20.3 9.3 20.3 9.3l.4 25.6h135.2z" transform="matrix(.12985 0 0 .26106 314.2 134)" stroke-width="6.2"/><path d="M510.5 70.2l.4-25.6s23.6-3 20.3-9.3c-3.3-6.4-31.6 8-31.6 8H386.2s-28.3-14.4-31.6-8c-3.2 6.3 20.3 9.3 20.3 9.3l.4 25.6h135.2z" transform="matrix(.28332 0 0 .46992 246.6 156.8)" stroke-width="3.2"/><path d="M510.5 70.2l.4-25.6s23.6-3 20.3-9.3c-3.3-6.4-31.6 8-31.6 8H386.2s-28.3-14.4-31.6-8c-3.2 6.3 20.3 9.3 20.3 9.3l.4 25.6h135.2z" transform="matrix(.34 0 0 .46992 221.5 166.6)" stroke-width="2.9"/><path d="M510.5 70.2l.4-25.6s23.6-3 20.3-9.3c-3.3-6.4-31.6 8-31.6 8H386.2s-28.3-14.4-31.6-8c-3.2 6.3 20.3 9.3 20.3 9.3l.4 25.6h135.2z" transform="matrix(.18333 0 0 .31908 290.9 149.5)" stroke-width="4.8"/><path d="M510.5 70.2l.4-25.6s23.6-3 20.3-9.3c-3.3-6.4-31.6 8-31.6 8H386.2s-28.3-14.4-31.6-8c-3.2 6.3 20.3 9.3 20.3 9.3l.4 25.6h135.2z" transform="matrix(.22 0 0 .31908 274.6 156.2)" stroke-width="4.3"/><path d="M510.5 70.2l.4-25.6s23.6-3 20.3-9.3c-3.3-6.4-31.6 8-31.6 8H386.2s-28.3-14.4-31.6-8c-3.2 6.3 20.3 9.3 20.3 9.3l.4 25.6h135.2z" transform="matrix(.12985 0 0 .26106 314.5 139.8)" stroke-width="6.2"/><path d="M510.5 70.2l.4-25.6s23.6-3 20.3-9.3c-3.3-6.4-31.6 8-31.6 8H386.2s-28.3-14.4-31.6-8c-3.2 6.3 20.3 9.3 20.3 9.3l.4 25.6h135.2z" transform="matrix(.15583 0 0 .26106 303 145.2)" stroke-width="5.7"/><path d="M331 208.6L312.4 188c6.1-5.3 17.5 3.8 17.5 3.8s6.2-23.5 32.5-33.3c26.3 9.8 32.5 33.3 32.5 33.3s11.4-9 17.5-3.8l-18.4 20.5h-63.2z" transform="matrix(.17717 0 0 .17997 307.8 126.3)" stroke-width="5.4"/><path d="M331 208.6L312.4 188c6.1-5.3 17.5 3.8 17.5 3.8s6.2-23.5 32.5-33.3c26.3 9.8 32.5 33.3 32.5 33.3s11.4-9 17.5-3.8l-18.4 20.5h-63.2z" transform="matrix(.24803 0 0 .17997 282.1 132.3)" stroke-width="5.4"/><path d="M331 208.6L312.4 188c6.1-5.3 17.5 3.8 17.5 3.8s6.2-23.5 32.5-33.3c26.3 9.8 32.5 33.3 32.5 33.3s11.4-9 17.5-3.8l-18.4 20.5h-63.2z" transform="matrix(.28346 0 0 .23996 269.3 130.3)" stroke-width="4.4"/><path d="M331 208.6L312.4 188c6.1-5.3 17.5 3.8 17.5 3.8s6.2-23.5 32.5-33.3c26.3 9.8 32.5 33.3 32.5 33.3s11.4-9 17.5-3.8l-18.4 20.5h-63.2z" transform="matrix(.35433 0 0 .29995 243.6 130.7)" stroke-width="3.5"/><path d="M358.2 217.1l13.5 23 14.2-23h-27.7z" transform="matrix(.92308 0 0 .67386 28.6 57.6)" stroke-width="1.5"/><path d="M331 208.6L312.4 188c6.1-5.3 17.5 3.8 17.5 3.8s6.2-23.5 32.5-33.3c26.3 9.8 32.5 33.3 32.5 33.3s11.4-9 17.5-3.8l-18.4 20.5h-63.2z" transform="matrix(.4252 0 0 .33427 218 135.9)" stroke-width="3.1"/><path d="M358.2 217.1l13.5 23 14.2-23h-27.7z" transform="matrix(1 0 0 .84654 0 37)" stroke-width="1.3"/><path d="M331 208.6L312.4 188c6.1-5.3 17.5 3.8 17.5 3.8s6.2-23.5 32.5-33.3c26.3 9.8 32.5 33.3 32.5 33.3s11.4-9 17.5-3.8l-18.4 20.5h-63.2z" transform="matrix(.46063 0 0 .41993 205 135.5)" stroke-width="2.6"/><path d="M331 208.6L312.4 188c6.1-5.3 17.5 3.8 17.5 3.8s6.2-23.5 32.5-33.3c26.3 9.8 32.5 33.3 32.5 33.3s11.4-9 17.5-3.8l-18.4 20.5h-63.2z" transform="matrix(.46063 0 0 .41993 205 152.8)" stroke-width="2.6"/></g><g><path d="M166.5 272.7h6.5v27.9h-6.5zm22 0h6.4v27.9h-6.5zm-10.4 0h6.5v27.9H178zm117.2 0h6.5v27.9h-6.5zm43.9 0h6.4v27.9h-6.4zm-22 0h6.5v27.9h-6.5zm-10.3 0h6.5v27.9h-6.5zm20.7 0h6.4v27.9h-6.4zm-117.2 0h6.4v27.9h-6.4zm-11.6 0h6.4v27.9h-6.4z" stroke-width="1.1"/></g></g></g></svg>