<svg xmlns="http://www.w3.org/2000/svg" version="1" width="640" height="480" viewBox="0 0 320 240"><defs><clipPath id="a"><path d="M25-60h400v300H25z"/></clipPath></defs><g transform="matrix(.8 0 0 .8 -20 48)" clip-path="url(#a)"><path fill="#fff" d="M0-60h450v300H0z"/><path fill="#009543" d="M0 150h450v90H0z"/><path fill="#00209f" d="M0-60h450v90H0z"/><path d="M224.8 35.6c-1.7 0-3.4 1.9-3.4 1.9l.1 20.2-6.4 6.7h5.2V76l-30.6 41.2-4.5-1.5-8 16.8s19.6 12.3 48 12c31.1-.4 48-12.5 48-12.5l-8.1-16.7-4 1.7-31-41V64.2h5.1l-7-6.6V37.4s-1.7-1.9-3.4-1.8z" stroke="#000"/><path d="M235.4 84h-21.1s-7.7-16.2-6.5-27.5c1.3-11.5 7.9-17 16.6-17 10.4-.2 15.8 5 17.4 16.6 1.7 11.4-6.4 28-6.4 28z" fill="none" stroke="#000" stroke-width="5"/><path d="M187.8 122.6c-.4.4-2.9 5.5-2.9 5.5l4.4-1-1.5-4.5zm2.5 6.5l-4.6 1.5 5.5 2.2-.9-3.7zm2.1-6.4l2.3 6.8 5.7-1.6-1.5-3.3-6.5-2zm3.6 9.2l.8 2.8 7.5 1.8-3-6.3-5.3 1.7zm8.3-5.8l2.6 6.4 5.7-2.2-1.9-2.8-6.4-1.4zm3.7 8.7l.9 2.4 8.7 1.3-3.6-5.8-6 2zm8.4-6.8l3.2 5.6 8.2-3-1-2.2-10.4-.4zm4.7 7.7l1.7 3 10.2-.3-3.8-5.7-8.1 3zm10.7-7.5l2.8 4.7 6.4-3-1.7-2.6-7.5 1zm10.6 3.6L236 135l1.7 2.8 8.6-1.4-3.9-4.6zm2.1-5l3.3 4.2 5.5-4.3-1.9-2-6.9 2.1zm10 2.2l-5.3 4 1.4 2.4 7.2-1.9-3.4-4.5zm7-8.2l1.3 1.9-3.5 5.3-3.7-4.7 6-2.5zm2.5 4.7l2.2 4.3-4.4 1.5-.4-2 2.6-3.8z" fill="#fff"/></g></svg>