<svg xmlns="http://www.w3.org/2000/svg" height="480" width="640" version="1"><defs><clipPath id="a"><path fill-opacity=".7" d="M0-48h640v480H0z"/></clipPath></defs><g fill-rule="evenodd" clip-path="url(#a)" transform="translate(0 48)" stroke-width="1pt"><path fill="#eb0013" d="M0-128h640v640H0z"/><path d="M371 263.7L204.3 380.3l43-131.6 22.2 16.2-16 48 108.8-78.3 8.7 29.1zm17.1-76.1l58.2 195.6L337 301.6l22.5-16 38.9 29.3-40.6-128.4 30.3 1zm-69-38.9l204.9.3-111.7 80.5-8.9-26 41.5-27.9-135.4 2 9.6-28.9zm-58 52.3l65-195.9 44.6 134.7-27.5.3-16.5-51.6-41.1 130.7-24.4-18.2zm33.3 70.4L129.1 150.1l139.6-1-8.2 26.2-51.8-.2 110.5 78.7-24.8 17.6z" fill="#0b5035"/></g></svg>