<svg xmlns="http://www.w3.org/2000/svg" height="480" width="640"><path fill="#c4272f" d="M0 0h640v480H0z"/><path fill="#015197" d="M213.3 0h213.4v480H213.3z"/><circle cx="106.7" cy="189.3" r="29.3" fill="#f9cf02"/><circle cx="106.7" cy="176" r="32" fill="#c4272f"/><circle cx="106.7" cy="181.3" r="21.3" fill="#f9cf02"/><path d="M93.3 141.3a13.3 13.3 0 0 0 26.7 0c0-5.3-3.3-6-3.3-8s2-4.6-2-8c2 3.4-1.4 4-1.4 7.4 0 3.3 1.4 3.3 1.4 6M48 224v128h26.7V224zm90.7 0v128h26.6V224zM80 245.3V256h53.3v-10.7zm0 74.7v10.7h53.3V320zm0-96h53.3l-26.6 16zm0 112h53.3l-26.6 16z" fill="#f9cf02"/><g transform="translate(0 80) scale(.13333)" fill="#f9cf02" stroke="#c4272f" stroke-width="24"><circle r="212" cy="1560" cx="800"/><path d="M800 1348a106 106 0 0 1 0 212 106 106 0 0 0 0 212" fill="none"/></g><g transform="translate(0 80) scale(.13333)" fill="#c4272f"><circle cx="800" cy="1454" r="40"/><circle cx="800" cy="1666" r="40"/></g></svg>