<svg xmlns="http://www.w3.org/2000/svg" height="480" width="640"><g fill-rule="evenodd" stroke-width="1pt"><path fill="#fff" d="M0 0h640v480H0z"/><path fill="#0b7226" d="M0 0h214.3v480H0z"/><path fill="#bc0000" d="M427 0h213v480H427z"/></g><path d="M213.1 258.7l3-5c1.7 1.1 4.5 0 2.4-2.7l1.7-3c1.1-2.1-1.3-3-2.3-1.6l-1.7 3c-3.1-1.5-3.3 2-1.8 2.5l-2.4 3.4 1.1 3.4zM212.7 257.4s-6-3.4-5.1-3c1.2-1.6 0-4.4-2.7-2.3l-3-1.6c-2.1-1.1-3 1.3-1.5 2.3 1.1.5 1.8 1.1 3 1.7-1.5 3 2 3.2 2.5 1.7l5.5 3.4c1.1-.4.2-1.8 1.3-2.2zm21.7 36.3c0-.2.1-7 .2-6 2 .3 4-2 .9-3.4V281c0-2.4-2.6-2-2.8-.3l-.1 3.4c-3.4.2-2 3.3-.4 3.1l-.5 4.1 2.7 2.5z" fill-rule="evenodd" fill="#9c4314"/><path d="M233.4 292.7c-.1 0-7 0-6-.2.3-2-2-3.9-3.4-.8h-3.4c-2.4.1-2 2.7-.3 2.8 1.3 0 2.2.2 3.4.1.3 3.4 3.3 2 3.1.3l5.8.6c.8-.9 0-2 .8-2.8z" fill-rule="evenodd" fill="#9c4314"/><path d="M304.1 316.1s2.4 3.2 3.4 3.3c3.3.2 29.3 0 29.3 0l1-.6c.8-1 .8-1.7 1.6-2.8 1.4-1.4 3.3-1.8 4.7-3.2 5.9-1.4 11.1-2.8 17-3.7-.5-3.5-4-2.7-5.9-4.1-.5-.6-.4-1.1 0-1.7l13-6V296c-9.3 1-17.8 2.8-27.7 3.2l-34 14-2.4 3z" fill-rule="evenodd" stroke="#000" fill="#42b2f3"/><path d="M210.4 253.9c.5 0 0 0 0-1.4" stroke="#000" stroke-width=".5" fill="none"/><path d="M211 255.4c-1.8-6.2-4.7-11.6-11.3-13.2-1.2-.3-2.1-3.9 0-3.7 1.1.5 0-.2 1.2.2 1.1.5 3-.5 2.2-2.4 0-.3-2.2-4.2-2.2-4.3-.4-.5.3-3 2.3-1.7 1 .7 1.9 2.1 3.2 2.4.5-.1.9-1.6.8-2.8l.1-4c-.5-2.5 1.6-3.7 3.3-1.9l.1 1.2c.4.8.9.9 1.4.1l2.3-2.2c1.3-.5 2.1-1 2.2 1.7 0 0-1.8 2.3-2.7 3.1-.5.7-1.4 1.6.3 2.1l2.4.3c1.6.7 1.7 2.4.6 2.6 0 0-1.3 1.4-3.4 2.6-.7.5-1.2 1.2-.7 2 1.3.4.9 0 3 0 1.8-.5 1.6 3.9-1.6 3.6-1 .2-2.2.1-2.8 1.7-.2 1.2-.3 3.5-.3 4-.2 2.9.3 6.8.3 6.9.2 2-.5 1.3-.7 1.7zm19.1 35.8c-.2-.3-6-6.7-12.9-6-1.2.1-3.2-3-1.2-3.5h1.5c1-.8-.9-3.1-1.7-2.3-.1-.2-2.4.5-3.3.3-3-.3-4.3-3.6-2.1-4.8 1.3.5 3.9.5 5.2.3 1.4-.4.8-1.6-.5-1.8-1.9-.3-9.4-2.1-8.8-3-1.2-2 0-3.7 2.2-2.6 1.8 1.1 2 .5 1.6-.3-.6-1.6-1-1.2-1.1-2.5-.2-1 .1-1.7 1.4-1.2.5-.4 1.4 2.8 4.8 1.6.6.5 1.1-3.5 3.4-2.9 1.8.5.6 2.4 1 5 .2 1.6 1.9 1.2 2.1.3-.3-3.8 3.4-3.9 3.9-2.6.3 1 .7 3.6.2 6-.2 1.3 0 3.7.7 4.2 1.4 0 .5-.2 1.4-1.6 1.6-1 4 2.6 1.2 4.4-3 .6 1.7 12 2 12.6-.4.4-.9-.1-1 .4z" fill-rule="evenodd" stroke="#286726" stroke-width="1.8" fill="#008d00"/><path d="M266.6 321.4c0-.1-1-6.9-.7-5.9 2 0 3.5-2.6.3-3.5l-.6-3.4c-.3-2.4-2.8-1.6-2.7.1l.4 3.4c-3.3.7-1.4 3.6.1 3.2l.1 4 3 2.1z" fill-rule="evenodd" fill="#9c4314"/><path d="M266.4 320.6s-6.8 1-5.8.7c0-2-2.7-3.5-3.6-.2l-3.3.6c-2.4.4-1.6 3 .1 2.8 1.3-.3 2.2-.2 3.4-.5.8 3.3 3.6 1.4 3.1-.2l5.8-.3c.7-1-.3-1.9.3-2.9z" fill-rule="evenodd" fill="#9c4314"/><path d="M264.1 283.6c16.6 9.7 20.8 8.3 20.1 4 .8 0 1 .7 3.4-1-.4 6.3 6.6 10 10.9 9.2 3.8.3 3.3 5.4 3.3 5.4.2 5.1-1.5 7.2-1.3 12.4l-.2-.6c-4.7-1.1-14-1.2-17.5-2 16-10.9-12.2-11.2-14.7-11.5-2-.3-.6-2.1.5-2.6 8.8-1.8-8.2-10-7.8-11-1-.7 0-1.2 0-1.2 1.3-.7 2.2-.4 3.3-1.1z" fill-rule="evenodd" stroke="#000" fill="#33b1e9"/><path d="M305.5 291.8a5.2 5.2 0 0 0-5.2 5.2c-.9 4-.8 9.5 0 14.9a5.2 5.2 0 0 0 5.2 5.2c11.4 1.2 23.7.8 34.3 0a5.2 5.2 0 0 0 5.2-5.2c1.4-4.7 1-9.7 0-14.9a5.2 5.2 0 0 0-5.2-5.2c-11.4-.5-23.1-1-34.3 0z" fill-rule="evenodd" stroke="#000" stroke-width="1.5" fill="#983d25"/><path stroke-linejoin="round" d="M266.8 150.6l-7.9 6.8c-3.2 1.4-6.7 3.2-4.2 10.7-1.5 9.8 6.4 11.3 13.3 9.3 1-2.5 1.5-4.3 2.6-6.8-3-.5-4.7.6-7.4.4-1.9-.3-2-1.7-1.3-2.6 3-1.5 5.6-3 8.6-4.4-.1-.4-.2-.1-.2-.5-2.5 1.2-4.2 1.6-6.8 2.7-2 .7-2.7-2-1.9-3.1l5.4-7.7c.4-1.6.1-4.3-.2-4.8z" fill-rule="evenodd" stroke="#000003" stroke-linecap="round" fill="#268728"/><path d="M288.7 284a4.1 4.1 0 1 1-8.2 0 4.1 4.1 0 0 1 8.2 0zM269.2 299.5a3.9 3.9 0 1 1-7.8 0 3.9 3.9 0 0 1 7.8 0zM365.5 308.2a3.9 3.9 0 1 1-7.8 0 3.9 3.9 0 0 1 7.8 0z" fill-rule="evenodd" stroke="#000" fill="#fff"/><path stroke-linejoin="round" d="M267.1 155.8l.2 6.1c-.1-2.2-.9-4-1.2-4.8l1-1.3z" fill-rule="evenodd" stroke="#000" stroke-width=".5" fill="#ba4600"/><path d="M305.1 313a3.9 3.9 0 1 1-7.7 0 3.9 3.9 0 0 1 7.7 0zm40.9 0a3.9 3.9 0 1 1-7.8 0 3.9 3.9 0 0 1 7.8 0zm0-18.9a3.9 3.9 0 1 1-7.8 0 3.9 3.9 0 0 1 7.8 0zm-40.6 0a3.9 3.9 0 1 1-7.8 0 3.9 3.9 0 0 1 7.8 0z" fill-rule="evenodd" stroke="#000" stroke-width="1.4" fill="#973100"/><path d="M267.1 323.5c-.2-.3-2-5.2-11.8-5.4-1.3-.1-2.2.3-5 0-1.6.2-1-1.7-.4-2.4 1.1-.8-3.8-.4-5.4-.2-1.7 0-2.9-.4-3.8-.6-3-.2-4.7-2.3-2.5-3.6.9-.9 4.5.2 6 0 1.3-.4 1-2.7-.2-3-2-.2-10-.8-9.4-1.7-1.2-2-.9-3.2 2.4-2.8 1.8 1.1 1.7-.3 1.3-1-.6-1.6-3.5-1.9-3.6-3.2-.5-3.2 1.6-3.7 3-3.1.5-.5-2.5-3 .9-4.2.8-.3 2.5-.1 3 3 1.8.5.6-2 3-3 2-1-.2 9 2.3 9 2 .8 1.6-5.5 3.4-4.3 3.7-1 2 12 3.6 11.3 2.7 2.3 3-2.2 3.8-1.7 1.3 0 2.2 0 1.4 3-.5 2.4.3 3 .7 3.9 2.6 5.6 6.4 5.5 7.7 8.1.4 3.9-.3 1.4-.4 2z" fill-rule="evenodd" stroke="#286726" stroke-width="1.8" fill="#008d00"/><path d="M314.2 332.1c-4.7 4-9.5 6.4-11.3 10.4 2.1-.3 3-.6 4.5-.4 1.8-3.9 7.2-6 10.4-9l-3.6-1zm12.6.5c4.3 3.9 9.5 6.1 11.4 10.3-2.2-.3-3-.6-4.3-.3-1.8-3.8-7.5-6.1-10.7-9.2l3.6-.8z" fill-rule="evenodd" stroke="#000" fill="#009400"/><path d="M323.6 333.4c5.2 3 7.2 5.3 10.4 9.2a13 13 0 0 0-4.5 1.3c-3.8-5-6.8-6.8-10-10l4.1-.5z" fill-rule="evenodd" stroke="#000" fill="#fff"/><path d="M275 166c-2.1.5-3 2.3-3.2 3.9-7.6 5.3-2 15.8 5 13.6-5.2-7.8 0-12.2 5.8-9.5 1.8 1.3 3 4 3.1 3.8 1.2-2.4 5.5-4.4 5.5-4.4s3.5.4 4.2-1.8c.4-1.5 3.6-7.5 3.6-7.5l-11.3-2.3-7.8-.2-4.1 1.8c-.6.9-.3 1.7-.8 2.5z" stroke-opacity=".8" fill-rule="evenodd" stroke="#000" fill="#ffba00"/><path d="M319.4 333.6c5.2 3.1 7.5 6 10.7 10-1.4.4-1.9 2.7-2.7 3.1-2.4-5-6.5-9.2-10.9-13.5 1.2-.3 1.7.7 2.9.4z" fill-rule="evenodd" stroke="#000" fill="#d40000"/><path d="M317.5 333c-5.2 3.1-7 5-10.2 9 1.6.1 3.4 1 4.2 1.5 3.9-5 6.8-6.7 10-9.9-1.2-.3-2.8-.3-4-.6z" fill-rule="evenodd" stroke="#000" fill="#fff"/><path d="M321.7 333.3c-5.2 3-7.4 6.1-10.5 10 2.5 2 1.9 2 2.4 3 2.5-5 8-9 12.3-13.3-1.2-.3-3 .5-4.2.3z" fill-rule="evenodd" stroke="#000" fill="#d40000"/><path d="M203.7 472.4c0 5-7.2 9.1-16.1 9.1s-16.2-4-16.2-9 7.3-9.1 16.2-9.1 16 4 16 9z" fill-rule="evenodd" transform="matrix(.41114 .13432 -.1235 .44716 238.5 46.8)" stroke="#000" stroke-width="2.2" fill="#973000"/><path d="M313.3 326.8l-12.7 8.9c-.8.6 2.6 1.3 3.8.7 4-2.7 6-4.5 10-7.1l2.2-1.3c-1.6-.1-1.7-1.1-3.3-1.2z" fill-rule="evenodd" stroke="#005e00" fill="#008d2b"/><path d="M203.7 472.4c0 5-7.2 9.1-16.1 9.1s-16.2-4-16.2-9 7.3-9.1 16.2-9.1 16 4 16 9z" fill-rule="evenodd" transform="matrix(.3491 -.13705 .16417 .36723 137.8 164)" stroke="#000" stroke-width="2.5" fill="#973000"/><path d="M351.2 285.6c.2-10.2 9.1-1.2 12.6-5.4 8.3-9.8 9-10.5 16.2-9.4 19.6 7.6-.8 25.4-20.8 17.3-2.2-1.2-5.8-1.3-8-2.5z" fill-rule="evenodd" stroke="#000" fill="#008d00"/><g fill-rule="evenodd" fill="#6d390b"><path d="M424.8 252c-.3 1.2-1.6 1.8-3 1.4s-2.3-1.6-2-2.8 1.6-1.7 3-1.3 2.3 1.6 2 2.8z"/><path d="M424.1 251.5l4.8 4.2-1.3 1.4-4.7-4.1z"/></g><path d="M395.3 266.6l1 1.5 3.6-3.1-1-1.5-3.6 3.1z" fill-rule="evenodd" fill="#6d390b"/><path d="M305.5 291.7c6 1.9 10.5 23.9 16.4 25.8m-10.6-26c6 2 10.4 24 16.3 26M317 291.2c6 1.9 10.5 24 16.4 26" stroke="#000" stroke-linecap="round" stroke-width="1.5" fill="none"/><path d="M203.7 472.4c0 5-7.2 9.1-16.1 9.1s-16.2-4-16.2-9 7.3-9.1 16.2-9.1 16 4 16 9z" fill-rule="evenodd" transform="matrix(.3491 -.13705 .16417 .36723 226.4 148.8)" stroke="#000" stroke-width="2.2" fill="#973000"/><path d="M398.2 271.7c.3 1.2-.3 2.7-2.3 3.2-2 .5-4-.3-4.3-1.4-.3-1.2.9-2.9 3-3.4 2-.6 3.3.4 3.6 1.6z" fill-rule="evenodd" stroke="#000" stroke-width=".9" fill="#dc0000"/><path d="M307.2 328c-3 .6-10 2.1-13.1 8.3-.6 1.1-5.2 2-4.6 0 .8-1 1-1.1 1.7-2.2 0-1.3-3-.9-2.8.3a4 4 0 0 0-2.3 1c-1.9 2.2-5 2.1-4.9-.3a6.8 6.8 0 0 0 2.3-3c.4-1.3-2.2-1.8-3.1-.8-1.8 1-3 2.3-5.1 3.4-2.5.8-4.8-.7-2.7-2 2-.9.3-3-.6-3.1-1.6-.4-8.1.7-9.3 0-.9 0-2.6-2.5-.6-3 1.8-.5 4.7.7 5.5-2.8.8-5.8 10.1 3 8.6.6-3.4-5 2.4-6.2 4.1-2.8.8 1.6 4.3 3.9 5.3 3.4 2 .2-3.6-4.9.8-5.7 1 .2 2.8.3 4 2 1 .9 1.2 4.5 4.6 4.8.7-1.1 0-.5-.7-2 0-1.9 3-1.7 4.4 1.4 1.3 2.3 8 .7 14.3.9 2-.4 5.1 1.4-5.8 1.6z" fill-rule="evenodd" stroke="#286026" stroke-width="1.8" fill="#008d00"/><path d="M391.3 271.4c1 1.7 1 4.4-1.9 6.3s-6.4 1.7-7.5 0c-1-1.7-.1-5 2.8-6.9 3-1.9 5.5-1 6.6.7z" fill-rule="evenodd" stroke="#000" fill="#dc0000"/><path d="M393.4 264.5c1 .6 1.7 2.1.5 4-1.1 1.7-3 2.5-4.1 1.8-1-.7-1.3-2.7-.2-4.5 1.2-1.8 2.8-2 3.8-1.3z" fill-rule="evenodd" stroke="#000" stroke-width=".9" fill="#dc0000"/><path d="M396.5 267.6c.7 1 .7 2.6-1.1 3.7s-4 1-4.6 0c-.6-1 0-3 1.8-4.1 1.7-1.2 3.3-.7 4 .4z" fill-rule="evenodd" stroke="#000" stroke-width=".9" fill="#dc0000"/><path d="M403.2 261.5c.5.8.5 2-.9 2.9-1.3.9-3 .7-3.4 0-.5-.8 0-2.3 1.3-3.2 1.3-.8 2.5-.4 3 .3z" fill-rule="evenodd" stroke="#000" stroke-width=".7" fill="#d90000"/><path d="M318 323.3c-2.5.3-4 .5-4.6 2.4-.2 1.3 0 3 .2 4.4 0 1.7 2.1 2.8 4.6 3.3h4.2c1.8 0 5-1.7 5-3.4.3-1 .3-2.5.3-3.5 0-2.8-2-3-4.5-3.2h-5.1z" fill-rule="evenodd" stroke="#000" fill="#fff"/><path d="M411.7 290.2c-.3-9.7-2.8-23.9 9.1-28.7 1.6-.4 2.1.5 1.6 1.8l-10.7 26.9z" fill-rule="evenodd" stroke="#286326" stroke-width="1.6" fill="#008f00"/><path d="M427.2 270.4c2.1-4 7.4-5 9.2-5-3.7 3.8-7.3 13-9.4 16-3 5.2-11.6 8.8-16.8 11.8 5.8-8 11.2-15 17-22.8z" fill-rule="evenodd" stroke="#286326" stroke-width="1.6" fill="#008c00"/><path d="M318.3 323.3l-2.7.4-2 1.3-.4 2.6.4 2.9 1.3 1.7 3.2 1.1.2-10z" fill-rule="evenodd" stroke="#000" stroke-width=".5" fill="#009400"/><path d="M410.2 293.2c.3-.4 6.8-31 17.6-34.6 1.8 2.3 1 7.2.2 9.8a52.3 52.3 0 0 1-17.8 24.8z" fill-rule="evenodd" stroke="#286326" stroke-width="1.6" fill="#008d00"/><g fill-rule="evenodd" fill="#6d390b"><path d="M434 255.5c-.4 1 .3 2.4 1.6 2.9s2.9 0 3.3-1-.2-2.4-1.6-3-2.8 0-3.2 1.1z"/><path d="M434.9 255.5l-6.3.5.2 1.9 6.2-.5z"/></g><g fill-rule="evenodd" fill="#6d390b"><path d="M407.6 286.8c-.6 1.1-2.2 1.3-3.4.3s-1.7-2.5-1-3.6 2.2-1.2 3.4-.3 1.7 2.6 1 3.6z"/><path d="M407.2 286l3.3 6-1.8 1.1-3.3-6z"/></g><g fill-rule="evenodd" fill="#6d390b"><path d="M415.4 295.3c-.6-1.2.1-2.6 1.5-3.2s3.1-.1 3.7 1-.1 2.6-1.5 3.1-3.1.2-3.7-1z"/><path d="M416.3 295.3l-6.8-.3v-2l6.9.2z"/></g><path d="M405.5 302.3c6.6-3.6 2.4 1.4 2 4.2-2 6.8-3.8 6.9-6 8-3.5 3.2-14.6 1.7-19.7 3 6.4-4.7 17.2-10.5 23.7-15.2zm-10-1.6c2.8-2.2 3.2-7 3-8.8-2.5 3.6-9 7.6-11 9.7-3.5 3-5.7 11.1-7.6 16 5.4-5.7 10.2-11 15.6-16.9z" fill-rule="evenodd" stroke="#286326" stroke-width="1.3" fill="#008c00"/><path d="M361 328.6c4.3-1.2 11.7 2 12.9 3.4-5.3 0-13.8 3.6-17.3 4.3-5.8 1.4-21.7-7.5-27.4-8.8 9.5-.5 22 2.5 31.7 1.1z" fill-rule="evenodd" stroke="#286326" stroke-width="1.6" fill="#008c00"/><path d="M327.8 327.7l12.7 9c.8.6-2.6 1.3-3.8.7-4-2.7-6-4.5-9.9-7.2l-2.2-1.2c1.6-.1 1.6-1.2 3.2-1.3z" fill-rule="evenodd" stroke="#004500" fill="#00602b"/><path d="M379.4 317.5c.4-.2 18.1-24.1 29.1-23.1.7 2.6-2 6.5-3.6 8.5a51 51 0 0 1-25.5 14.6z" fill-rule="evenodd" stroke="#286326" stroke-width="1.6" fill="#008c00"/><g fill-rule="evenodd" fill="#6d390b"><path d="M377.2 314c-1.1.6-2.5 0-3.2-1.4s-.3-3 .8-3.7 2.5 0 3.2 1.4.3 3-.8 3.7z"/><path d="M377.1 313l.1 7h-2l-.1-6.9z"/></g><g fill-rule="evenodd" fill="#6d390b"><path d="M381.8 323.8c.1-1.3 1.4-2.2 3-2s2.7 1.5 2.6 2.7-1.4 2.2-3 2-2.7-1.5-2.6-2.7z"/><path d="M382.6 324.2l-5.8-3.7 1.1-1.8 5.8 3.8z"/></g><path d="M231.6 237c.5-.8 1.7-1.3 3.2-.5 1.5.8 2.1 2.3 1.6 3-.5.8-2.2 1-3.7.2s-1.6-2-1-2.8z" fill-rule="evenodd" stroke="#000" stroke-width=".7" fill="#dc0000"/><path d="M357.9 325.5c7.3-2 6.9-5.5 10.3-8.6a28 28 0 0 0-17.6 3.5c-5.3 3.5-6.7 7.2-11.4 9.8 8-1 11.5-2.2 18.7-4.7z" fill-rule="evenodd" stroke="#286326" stroke-width="1.3" fill="#008c00"/><path d="M334 327.6c21 1.6 17.6-7 40.5-6.7-.3 2.7-4.7 6-7 7.3-10 5.3-26.4 7.8-33.5-.6z" fill-rule="evenodd" stroke="#286326" stroke-width="1.6" fill="#008c00"/><path d="M323.4 323.2v9.9l2.8-1 1-2 .6-2.4-.3-2.8-2-1.4-2-.3z" fill-rule="evenodd" stroke="#000" stroke-width=".5" fill="#d40000"/><path fill-rule="evenodd" fill="#6d390b" d="M236.3 231.8L233 228l1.1-1 3.4 3.7z"/><path d="M232.1 234c.6-1 2-1.6 3.5-.5 1.7 1 2.4 2.9 1.8 3.9-.6 1-2.4 1.3-4 .2-1.7-1-1.8-2.6-1.3-3.6z" fill-rule="evenodd" stroke="#000" stroke-width=".9" fill="#dc0000"/><path d="M241.4 230c1 0 2 .8 1.9 2.7 0 2-1.1 3.4-2 3.4s-2-1.5-2-3.5c0-1.9 1.1-2.7 2-2.7z" fill-rule="evenodd" stroke="#000" stroke-width=".8" fill="#dc0000"/><path d="M236.7 230.7c1-.3 2.4.2 3 2 .5 2-.3 3.8-1.3 4-1.1.3-2.7-.8-3.2-2.7-.5-1.9.4-3 1.5-3.3z" fill-rule="evenodd" stroke="#000" stroke-width=".9" fill="#dc0000"/><path stroke-linejoin="round" d="M263.6 261.2c-3.3-8.3-12.2-22-21.2-15.4-10 8.6 4.6 22.3 17 21.5l4.2-6.1z" fill-rule="evenodd" stroke="#000" stroke-linecap="round" fill="#008d00"/><path d="M237.7 236.9c1.8-1.2 4.6-1.2 6.6 1.8 2.1 3 2 6.7.2 7.8-1.8 1.2-5.2.3-7.3-2.8-2-3-1.2-5.7.5-6.8z" fill-rule="evenodd" stroke="#000" fill="#dc0000"/><path d="M231.3 223c.8-.5 2-.5 3 .9s.9 3 0 3.5c-.7.6-2.3.1-3.3-1.3-1-1.3-.5-2.5.3-3z" fill-rule="evenodd" stroke="#000" stroke-width=".7" fill="#dc0000"/><path d="M291.3 271c-4.1-7.3-15.3-16.4-26.7-10.5-13.4 9.4 5.5 23.6 24.8 16.6 1.7-1.8.2-4.3 1.9-6z" fill-rule="evenodd" stroke="#000" fill="#008d00"/><path d="M329.3 275.4c-4.1-7.3-26-15.6-35.7-8.6-12 13.4 5.6 22.7 29.3 16.1 1.7-1.8 4.6-5.8 6.4-7.6z" fill-rule="evenodd" stroke="#000" fill="#008d00"/><path stroke-linejoin="round" d="M244 248.1l2.4 3V247m1.7 6.9l2.4 2.4m6.3-4l.2 2.7h1.5m-1.7 6.6c-.6-.3-2.6-2-2.6-2m-3.2 2.2l-3.3-1" stroke="#000" stroke-linecap="round" fill="none"/><path d="M244.8 255.6l-3.2-1" stroke="#000" fill="none"/><path stroke-linejoin="round" d="M238.8 253.8h-2.7" stroke="#000" stroke-linecap="round" fill="none"/><path stroke-linejoin="round" d="M251.5 244.8v-3.5" stroke="#000" stroke-linecap="round" stroke-width=".5" fill="none"/><path stroke-linejoin="round" d="M246.8 263.8l-5-.2M255 267l-3.5 1.2m8.8-13.7c0-.2 2.9-1.6 2.9-1.6m-10.9-2.4l-1-3.9" stroke="#000" stroke-linecap="round" fill="none"/><path d="M318 323.3c-2.6.3-4.1.4-4.6 2.3-.3 1.3 0 3 .2 4.5.4 2.4 2 2.8 4.5 3.2h4.2c1.8 0 4.7-1.1 5.2-3.3.3-1.1.1-2.5.1-3.6-.2-2.5-2-3-4.4-3.2H318zm.3 0v9.8m5.2-9.8l-.1 9.8" stroke="#000" fill="none"/><path d="M429.3 239.6c1.5-5-3.9-6.3-5-9.1-2.5 4.8-1.6 9.6-1.2 12.2 1 4.1 4.7 7 5.3 10.5 1-5.2 1-8.4.9-13.6z" fill-rule="evenodd" stroke="#286326" stroke-width=".9" fill="#008c00"/><path d="M436.3 234.9c.1-2.8 3.8-4.8 5.2-5.2-.9 5.4.8 8 .3 10.1-.3 3.7-7 9.2-9.8 12.3 1.5-6 3-11.3 4.3-17.2z" fill-rule="evenodd" stroke="#286326" stroke-width="1.2" fill="#008c00"/><path d="M428.7 256.6c.2-.4-2.8-25.9 4.6-31.2 2 1.2 2.6 4.8 2.7 6.8.4 8.8.7 13.3-7.3 24.4z" fill-rule="evenodd" stroke="#286326" stroke-width="1.3" fill="#008c00"/><path d="M281 256c2.1.6 4 3 2.8 6.7-1.1 3.7-2.9 6.1-5.6 5.3-3.6-.9-4.3-4.2-3.1-8 1-3.7 3.8-4.7 6-4z" fill-rule="evenodd" stroke="#000" stroke-width="1.1" fill="#dc0000"/><path d="M284.6 252.2c.6.4 1 1.4.2 2.5s-2.1 1.5-2.8 1c-.7-.4-.8-1.8 0-2.9.8-1 1.9-1.1 2.6-.6zM279 251c.8-.2 1.8.2 2 1.6.3 1.3-.3 2.6-1 2.8-.9.1-2-.7-2.2-2-.3-1.4.4-2.2 1.2-2.4z" fill-rule="evenodd" stroke="#000" stroke-width="1.3" fill="#dc0000"/><path d="M281.4 254c.7.2 1.4 1 1 2.3-.4 1.4-1.6 2.1-2.3 1.9-.8-.2-1.4-1.5-1-2.8.5-1.3 1.5-1.7 2.3-1.4z" fill-rule="evenodd" stroke="#000" stroke-width="1.3" fill="#dc0000"/><path d="M282.5 249.3c.7.1 1.2.8.9 1.8s-1.3 1.5-2 1.4c-.6-.2-1.1-1.1-.7-2.1.3-1 1.1-1.3 1.8-1.1z" fill-rule="evenodd" stroke="#000" fill="#dc0000"/><path d="M286 255.3c.6.5 1 1.4.1 2.3-1 1-2.4 1.2-3.1.7-.7-.5-.8-1.7.1-2.7 1-1 2.1-.8 2.8-.3z" fill-rule="evenodd" stroke="#000" stroke-width="1.3" fill="#dc0000"/><path d="M277 253.2c.7 0 1.5.4 1.6 1.6.2 1.3-.5 2.4-1.2 2.5-.8 0-1.7-.8-1.8-2-.1-1.3.6-2 1.3-2z" fill-rule="evenodd" stroke="#000" stroke-width="1.1" fill="#dc0000"/><path d="M266 319z" stroke="#000" stroke-width=".5" fill="none"/><path d="M360.6 270c4 2.2 2.7 7.3-.3 8.7-.1-3.4-2.3-4.4-5.5-5.2 1.7-.9 3.5-4 5.8-3.5z" fill-rule="evenodd" stroke="#000" fill="#fff"/><path d="M321.4 290.5c1.5-22.3 18.4-25 29.6-21.1 16.4 12-.2 21.8-24.8 22.4-2.2-1.2-2.6-.1-4.8-1.3z" fill-rule="evenodd" stroke="#000" fill="#008d00"/><path d="M326.3 265.5c-5.2-.2-6.8 5-4.8 7.6 2.1-2.8 4.8-2.6 8.4-1.6-1.1-1.7-1.1-5.2-3.6-6z" fill-rule="evenodd" stroke="#000" stroke-width="1.1" fill="#fff"/><path d="M329 272.2c-4 2.1-3.2 7.3-.3 8.6.2-3.3 2.4-4.3 5.6-5.1-1.7-1-3-4-5.3-3.5z" fill-rule="evenodd" stroke="#000" fill="#fff"/><path stroke-linejoin="round" d="M361.1 270.4c0-1.8-1.4-3.4-3-3.6-2.1-.3-4 1.1-6.1-.4-.3-.1-5-4.2-6.4-6.1-1.3-.8-4.2-2.2-4.2-2.2-1.7 2.2-2.8 4.7-5.3 6.2-1.2.5-1.6 1-3.8.9-2.3-1.1-4.8-1.7-6.1-.5 1 2.2.8 5 .3 7 .8.5 1.7 0 2.7.2 3 0 2.3 3.4 3.4 4.8 3.2.8 4.9-.7 5.3-3.3.9-1.3 3.5-1.5 5.3-2 2-.4 4.5-1 6.3 0 1.5.8 2.5 1.8 3.3 3.4 0 0 2.4.2 4.8-.2 0-1.5-.2-4.1 3.5-4.2z" fill-rule="evenodd" stroke="#000" stroke-linecap="round" fill="#f6aa00"/><path d="M339.9 260.4l.1 5.3c.6 2 4.9 1.7 5.4.5l-.1-6" stroke="#000" fill="none"/><path d="M341.3 271.7c1-.3 1.3-2.9 1.3-2.9m2.4 2.2l.3-2.1m3.6 2l-.3-2.1m-9.9.5c-.1.1-2-2.2-1.4-2m-2 5.4c.3 0-3-3.4-2.5-3.1m-.5-3.2c-.1-.2-.3-1.5.3-1.3m7 .5c-5 4.4-9.7 2.5-10.4 6.2M352 268c.2-.2.8-1.4.2-1.4" stroke="#000" stroke-linecap="round" fill="none"/><path stroke-linejoin="round" d="M271.6 270.2l3.8-.4-3.5-2.2m22.5 6.3l3.8-.4-3-3.4m8.4 4.5c-.2-.6 4 0 3.8-.4l-2.6-2.9m-6.1-9.9l2.4 3v-4.1m68.2 20.7v4.2l2.6-3m-32.7-2.2l-.4 3.8 4-2.2m-74-20.7l2.5 2.5m-7 1.6l2.5 2.5m14.3 3.9l3.5-.3m-9 3.7l3.5-.2m21.7-7.7l2.4 2.5m7.8-1.2l2.5 2.5m-21.6-7l2.5 2.5M266 255.9l2.5 2.5m25 27.5l2.3-2.6m9.3 4.8l2.3-2.7m-46.6-10.8l3.4-.3" stroke="#000" stroke-linecap="round" fill="none"/><path stroke-linejoin="round" d="M267.3 272.1c-.5 0 1.8-.1 2.4.1l-3.4-2.4" stroke="#000" stroke-linecap="round" stroke-width="1.1" fill="none"/><path stroke-linejoin="round" d="M271.7 279.5l3.4-.3m37.7-3l3.5-.3m-9.4 5l3.5-.2m.7-17.6l2.5 3-.2-4.2m31.5 11.7l-2.5 2.5m10.6.2l-2.5 2.5m-1.1 4.4l-2.5 2.5m31.4-1.8l-2.4 2.4m-12.8-4.2l-2.5 2.4m17.5-17.2l-2.5 2.5m14.1 14.2l-3.4-.4m-25.7 8l.2-3.4m10.8-12.3l1.8-3m3.7 6.4l1.8-3m2.8 12.5H378l2.7 2m-51-3l-.4 3.8 4-2.2m-34.5-8.4c.5-.4 2.8-1 2.7-1.6l-2.5-.9" stroke="#000" stroke-linecap="round" fill="none"/><path stroke-linejoin="round" d="M403.3 257.5c1.6 1.3 4.3-13 4-17.6 0-.3-.6-9.8 1.4-16.6a62.3 62.3 0 0 0-.6-24c1.5-.1 3.4-.6 3.6-2.5-7 2.6-8.6-14.7-15.3-24.6-6.6-10-14.7-15.8-23.1-21.8.7-1.7 1.6-3.3 3-4.9-10.4 5.2-26.6-13.5-50.4-12.1-5.3.5-7.8.8-9.2 4-4.4.5-9 1.5-9 7.3 0 1.4 1.3 4 4.1 4 4 1.1 7.1.2 9.7 5.7l.7 5.6s-3.5-4.4-5.4-5.2c.5-.7-.3-1.2 1.2-2.3-1.8-1-5-.2-5-.2s-6.9-3.3-12.5-2.4c0-.6-1-4.5-1-4.5-1 2.7-3.2 2.6-3.5 5.2l-2-6c-2 2.6-1.4 5.5-2 8.3-.8.6-2.4.6-2.8-1.2-.2-2.1-.4-2.4-.4-5-1.4 2.5-3.1 3.7-3.7 8l-1.5-4.7c0 5.5-4.7 8.8-9.2 12.7-1.3 2.3.2 2.3.3 3.5l2.4 1.2 4.2-.3c.7 1 .2 1 2 1.5 5 1.4 11.2-4.5 16 4.8-2.2 1.9-4.5 6.3-3.8 7 1 0-1.7 1.4 1.9.2a32 32 0 0 0-6.4 8.8c-.4 1 1.6-.1 1.2 1.7.5-1.4.9 0 .9 0-8.7 9.3-.3 19.3-1.3 24.7 1.5 2.3 1.6 0 3.4-.3 1.6 6.6 6 10.6 8.6 15.9-1.4-.5-4.1-.6-5.6 0 .1 2.5 2.3 4.9 4.1 7l-3.7 1.2a21 21 0 0 0-6.4 5c-1.2 3 6 3.7 9.5 4.2-.3 1.1-.8 2.5-.1 3.7 5.4.5 11.7-1.1 11.7-1.4 0-.3 1.4-1 1.4-1 .7 1.4 2.4 1.8 3 1.6 1.1 0 2.7-4 2-7.2 2 2.3 3.8 6.1 5.8 8.5.6.6 1.4.2 1.9-.3 1.7 2.7 4 5.4 5.7 8 .9 1 .7.7 1.9.8 1-.4 2-.5 2.6-2.7 0 0 .4.4.9 1.6 1.3.9 2.2-1.4 3-2.1.4-1 2 .2 2-.4.6.4 1 2.1 1.6 2.5 1-.3 1.8-2.3 1.9-4.4 1 1.8 1.2 1.7 1.9 2.2.6-.5.8-2.5 1.4-3-.2-1 7 7 7.4 7 .7.6 4.8 1.8 5.7.4 2 1.3 7.5 2.2 8.4 0 4.6 2 9.9-.3 9.7-2.4 4.1 1.6 10.6.5 10.6.2.7 0 2.7-2 .8-3.5-13.8-9.6-34.2-25.5-42.1-29.3a41 41 0 0 0-4.5-15.9c-.4-1.5.5-3.3 1.9-3.1 5.4 5 7.3 4.5 10.1 5.3 3.1 2.4 4.2 6.1 7.3 9.5 1.4.4 3.1 2 2.7.5-2-4.8-4.2-9.5-10-15.7 3 1.4 7.9 5.4 11.2 8.2 2.1 3.6 2.8 6.5 4.7 11 1.5 1 3 4.3 2.7 1.6-.3-5.3-4-13.6-4-14.2 5.9 4.7 5.8 11.9 7.6 16.3 1.5 2.2 2.3 5.2 3 4.5.6-1-1.8-13.6-1.8-13.6l-1-5c4.3 2.5 5.8 12 7.9 23.5 0 1.8.7 3.8.6 5 1 1.2 2 4.3 2 2.4 0 0 0-18.5-1.3-22.8-.3-2.3.6-6 .6-6l4.8 23.8v5.6l2.4 2.4 1.5-14-1.8-16.6v-4.7c0-1.7 1.5-1.4 2.5.5l.4 11.3c.7 4.7 1.2 8 1.6 14 .2 4.9.4 16.3 1.4 16.1z" stroke-opacity=".8" fill-rule="evenodd" stroke="#000" fill="#9c4314"/><path stroke-linejoin="round" d="M326.3 284.4c-.2-.5-.4-3-.9-3l-1.4 2.3m45.8-12.5l-.3 2.4M348 289.3c-.5 0-2.9-.5-3 0l1.7 2" stroke="#000" stroke-linecap="round" fill="none"/><path d="M311.8 234.3v.3-.3.3-.3 4.5l.1 2 .5 1.8c0 .8.3 1.3.6 2 0 .6.2 1.2.5 1.7 0 .7.2 1 .4 1.6.1.6.4 1 .6 1.4l.4.4" stroke="#000" stroke-width=".5" fill="none"/><path d="M301.8 250c0-.2 0-.8.3-1.2.4-.7.8-1 1.4-1.7.7-.4 1.2-1 1.8-1.5l1.5-1.2 1.2-.8c.4-.2.7-.5 1.4-.6.4-.2 1.2-.1 1.8-.1l1.4-.1" stroke="#000" stroke-width=".5" fill="none"/><path d="M395 205.5c2 1.5 4.1 4.6 5 10.2m-16.2-8.2c2.9 2.5 4.5 5.3 6.7 11.7" stroke-opacity=".8" stroke="#000" stroke-linecap="round" fill="none"/><path d="M376.9 210.5c1.7 2 2.8 4.1 3.8 6.6m-15.7-13c2.3 2.5 6 6.5 7.8 10.6" stroke-opacity=".8" fill-rule="evenodd" stroke="#000" stroke-linecap="round" fill="#00c600"/><path d="M316.6 137c.2 11.4 16.9 8.6 18.3 19.3 3.2 11.7 1.9 19.3-2.8 23-2.7 2.8-.6 7 .2 9.2 4.3 11 10.9 12.8 13.7 22.3" stroke-opacity=".8" stroke="#000" fill="none"/><path d="M310.4 144.8c0-.3.4-.6.7-.8 1.7-.6 2.7-.6 4.4-.7 1.5 0 2.9 0 4.3.3" stroke-opacity=".8" stroke="#000" stroke-linecap="round" fill="none"/><path d="M332 249.6l5.8 9.4m12.7-23.5l31.1 23.8m-32-17.3l22.8 20M307 217.3c3 6 11.5 13.8 16.6 15a24 24 0 0 0-.7-7.9" stroke-opacity=".8" stroke="#000" fill="none"/><path d="M316.6 214c3 5.9 5.7 12.2 13.6 15.8.8-5.8-1-13.6-5.3-21.6" stroke-opacity=".8" stroke="#000" fill="none"/><path d="M318 206c2.7 1.6 5.2 2.3 7 2.5.8-5.7 1.5-11.8-3.2-20.1" stroke-opacity=".8" stroke="#000" fill="none"/><path d="M307.4 209.3c4 4.4 7.3 4.6 9.1 4.9 1.4-4 2-12.4.3-21.4m-19.8 20c4 5.3 13.3 15.1 18.2 18.7.2-.8.5-1.2.4-3.8m50-72c4.3 5 21 21.7 24.2 29.5 5.7 12.8 16.1 15.2 18.7 13.8m-71.4 25.8c1.5 6.1 4.3 17.2 8.2 19 .6-.7 1.2-1.9 1.1-4.5" stroke-opacity=".8" stroke="#000" fill="none"/><path d="M314.6 190.2c1.7 1.7 2.1 3.4 4 3.6 2.2-1.8 6-12 4.7-19.4M305.4 189.9c.8 4 1.6 7.4 4.4 7.4 4.7-4 6.1-12.8 4.7-20.3m-11 34.2l-2.1-4.7m48.1 42.5l14.3 13m-21-18.2l4.3 12.4m-23.8-23.7c3 6 9.4 14.5 14.5 15.8V244m-22.2-12.8a58 58 0 0 0 16.9 18.5c.1-.9.9-1 .8-3.7m4.2 2l6.4 10.5m-14-37a23 23 0 0 0 7.4 3.2c.3-6.4-2-16.8-6.5-24.7" stroke-opacity=".8" stroke="#000" fill="none"/><path d="M298.3 187.9c-.8 3-.7 6.3 2.1 6.4 8-3.4 3.2-6.8 10-18.4m-1.7-9c3 6 3.9 10 8.5 11.6 1-.4 3.3-11-4.6-19.5" stroke-opacity=".8" stroke="#000" fill="none"/><path d="M318.3 172a6.7 6.7 0 0 0 5.6 2c1.8-3.5-2-13.6-7-18.9m45.5 8.6c3.8 5.3 20.3 23.7 27.3 29.6 1.6-.2 4 1.8 1.8-4.9" stroke-opacity=".8" stroke="#000" fill="none"/><path d="M360.5 175.4c3.8 5.3 10.7 14.2 17.8 20.1 1.7.7 3.4.5 4 0 .6-.6 0-4.8.2-9" stroke-opacity=".8" stroke="#000" fill="none"/><path d="M356 182c4.4 4.8 10 10.2 17 16.6 1.8.6 3.3.7 3.5 0 .2-.7.5-.6.1-4.8M350 190.5c4.4 4.8 8.3 8.3 12.2 9.2 1.9.2 2.9.2 3-.5.3-.7.1-4 0-7.8" stroke-opacity=".8" stroke="#000" fill="none"/><path d="M344 196.9c4.3 4.7 4.3 6.7 8.2 7.6 1.8.2 3.2 0 3.6-.7.6-1.4.8-2.8.7-6.7" stroke-opacity=".8" stroke="#000" fill="none"/><path d="M342.2 165.9c4.3.8 4.7-3 4.4-5.7-.5-3.3-2.9-4.8-5.7-4.1m-1.1 24.6c2 .8 4.6.8 5.5-1.6.8-1.8.5-6.1-2.3-5.4" stroke-opacity=".8" stroke="#000" stroke-linecap="round" fill="none"/><path d="M342.9 173.6c3.9.3 4.2-1.5 4-3.8 0-2.6-1.8-4.6-4.7-3.9" stroke-opacity=".8" stroke="#000" stroke-linecap="round" fill="none"/><path d="M346.7 163.4c5.6-3.4 22 10.4 9.6 14.7m-10.9-5c5.7-3.4 18.3 7.9 5.6 12.2m-7.7-4.4c6.4.2 13.7 10.4 1.2 11.7" stroke-opacity=".8" stroke="#000" fill="none"/><path d="M335.8 186.4c2 .7 3.2 1.3 5-.3.8-.7 1.7-3.7-1-5.4" stroke-opacity=".8" stroke="#000" stroke-linecap="round" fill="none"/><path d="M282.6 174c2.2-2.7 7.4-4.5 9.2-.8m47.9 13.7c3.7 1.2 9.6 11.5-.3 12.5" stroke-opacity=".8" stroke="#000" fill="none"/><path d="M335 140.3c4.2.8 6.4 7.7 9.8 8.2 6.2 1-.8-7.2-2.2-8.1" stroke-opacity=".8" stroke="#000" stroke-linecap="round" fill="none"/><path d="M272 169.8c1.9 0 3.7-.3 4.9-2.6m14 22.3c1.1 2 3.9 1.2 6.1-.2 3.1-1.7.5-8 7.9-13.2m-10 39.6c4 5.2 11.6 13 16.4 17.1.1-.8 1-1.2.8-3.9m-1 3.6l9.1 12.7m10-15.8c1.5 6.1 7.4 15.8 11.3 17.5.7-.6 1.1-3.2 1-5.9M328 247l-.5 5.7m14.2-34c1.5 6 3.8 21 7.2 23.7.7-.7 2-13 2-15.7m-13.8-8.4c2 .2 3.2.2 4.8.2.3-6.5-2.5-14-7.1-22" stroke-opacity=".8" stroke="#000" fill="none"/><path d="M348.4 202.3l-.3 6.5" stroke-opacity=".8" fill-rule="evenodd" stroke="#000" stroke-linecap="round" fill="#00c600"/><path d="M325.5 199.5c2.1.8 3.7 1.1 5.4 1 1.7-8.7-2.7-8.7-8.2-14.9" stroke-opacity=".8" stroke="#000" fill="none"/><path d="M350.2 141.7c4.2.8 1.5 7.2 7.3 9.1 5 1.7 2.2-5 .8-6" stroke-opacity=".8" stroke="#000" stroke-linecap="round" fill="none"/><path d="M343.8 156c3.1-2.2 14.1.9 17.9 4 1 1 2.7 5-2.4 8.6m-73.8-7.3c8.8-8.7 13-7.7 23-1.3 1.5.3 3 0 4-.5.5-1.3 0-2.5-.6-3.5-4.6-3.2-8-4.2-12.2-3.6m-1.5 40.9a17 17 0 0 0-.3 16.4c.2.8 1 1.6.2 2.2-1.7.8-2.4 2.2-3.4 3.6m55 23.1c0-10.7-1.5-19.3-5.8-27m-12.7-14.9c1.4-.1 3.2.3 4-.1.5-1.6-.8-3.5-1.2-5 .8-.1 1.8-.1 2.4-.3.4-1.4 0-3.3 0-4.9" stroke-opacity=".8" stroke="#000" fill="none"/><path d="M278 166.1c.4-2.4 2.5-5 5-6.4 1-.6 1.8.2 2.4.4.6 1 .2 3 0 3.7-.7 1.3-2 2.3-4.3 3.2-1.2-.5-1.9-.3-3-.9z" stroke-opacity=".8" fill-rule="evenodd" stroke="#000" fill="#fff"/><path d="M298.6 211.8c.5.2 5.6 5.9 5.6 5.9h3l.3-8.6" stroke-opacity=".8" stroke="#000" fill="none"/><path stroke-linejoin="round" d="M306.9 195.2c-1 3.4-.7 6.8 0 10.2" stroke-opacity=".8" stroke="#000" stroke-linecap="round" fill="none"/><path d="M300.2 211.2l1.2-4.7m1-13a17 17 0 0 0-1.2 10.7m43 8h-2.8" stroke-opacity=".8" stroke="#000" fill="none"/><path d="M240.4 201.3c.4 1.2-1 .6-1.3 1-1.4.4-3.7-1.3-5.1-5.6.7-1.2 4.8-3.8 6.1-3.2 0 0 2.6 1 3 2-.5 1.6-2.8 6-2.7 5.8z" fill-rule="evenodd" stroke="#000" fill="#9f3000"/><path d="M344.3 212.2v-5.7m4.7 35.7l.8 13.9" stroke-opacity=".8" stroke="#000" fill="none"/><path d="M240.3 201.8c2.8 2.6 7.2.8 8 7.3.2 3.6-4.9 10.8 0 17.4a25 25 0 0 0 6 5.2c2.4 2.5 3 7.1 4.6 10.7 3.1 4.8 7.5 5.8 11 4.6l11.4-5.2-5.8-7.7-6.6 5.5c-.7-.1-4.5.3-6-4.5 0-6.2-3-9.6-8-12-2.4-2-4.4-5-2.3-9 1.3-3.9 2.5-10.3-1.9-14.6-2.8-2-4.8-3.4-7.8-4-4 1.6-4 1.1-2.6 6.3z" fill-rule="evenodd" stroke="#000" fill="#238700"/><path d="M296.9 148c-1.6 2.9-1.4 4.6-1.2 7.4m-6.6 6.5h3.5c1 0 1.4-.4 2.1-.9.5-.2 1-.6 1.4-1l1.3-.8c.7 0 1.3 0 2 .3l1.5.9c.4.2.9.2 1.6.2.8 0 1.6 0 2.3.2.7 0 1.5.2 2 .3.6.4 1 .9 1.4 1.3l.2 1.8-.1 1.8c0 .8-.1 1.3-.3 1.8-.4.4-.6.8-1.3.9-.5.4-1.2.4-2 .4h-2l-1.6-1.3c-.3-.7-.5-1-1.1-1.1a12.8 12.8 0 0 0-2-.2c-.6 0-1.1 0-1.5-.2a3 3 0 0 0-1.4-.7l-2-.1h-1" stroke-opacity=".8" stroke="#000" fill="none"/><path d="M292.4 163l.1.2c-.3-.3-.2-.2.5.1.9.2 1.8.4 2.7.4l2.6.1h1.8" stroke-opacity=".8" stroke="#000" fill="none"/><path d="M300.6 161h-.1c.4 0 .1 0-.4.7 0 .7-.2 1 .1 1.7a4 4 0 0 1 1.4.8c.4.3.4.6.4 1.3l-.8 1.3-.5 1.4-.2 1.8v1.3M347 146c.1.3 2.6 5.2 5.6 2 .5-.5.7-.9.7-1.8l-.2-1.4" stroke-opacity=".8" stroke="#000" fill="none"/><path d="M273 244.8c1.5 2 4.2 1 4.7-.7-1.8.1-2.5-1-3.2-2.6-.3 1-1.9 2-1.5 3.2z" fill-rule="evenodd" stroke="#000" stroke-width=".5" fill="#fff"/><path d="M360 150.7s2.6 2.5 6.5 2.5c1 0 5.5-1.2 6.9-3.2" stroke-opacity=".8" stroke="#000" fill="none"/><path d="M365.4 153l.2 2.7c0 1 .2 1.8-.2 2.6-.4 1-.8 1.5-1.8 1.9-.8.3-1 0-1.9 0m-18-12.2s2.8 6.7 3.7 7.3" stroke-opacity=".8" stroke="#000" fill="none"/><path d="M274.8 243.6c1.5 2 4.2 1 4.7-.7-1.8.1-2.5-1-3.1-2.6-.4 1-2 2-1.6 3.2z" fill-rule="evenodd" stroke="#000" stroke-width=".5" fill="#fff"/><path d="M277.6 242.3c1.5 2.1 4.2 1 4.7-.6-1.8.1-2.5-1-3.1-2.6-.4 1-2 2-1.6 3.2z" fill-rule="evenodd" stroke="#000" stroke-width=".5" fill="#fff"/><path d="M327.9 144.6h.9c2.9-.4 12.6 1.3 14.2 3.1m-13.3 43.7v1c.4.4 0-1-.2-1.7-.3-.7-.3-1.2-.3-2.2v-.7M311.6 234v.2-.2.2-1 5.2l.1 2c.1.6.3 1.3.6 1.9 0 .7.2 1.2.5 1.9 0 .7.2 1.2.5 1.8 0 .7.3 1 .4 1.5l.6 1.4c.2.2.3 1 .5 1.1" stroke-opacity=".8" stroke="#000" fill="none"/><path d="M303.8 226.5v3.5l.4 2.5c0 .8.2 1.4.4 2 0 .8.8 3.2 1.1 3.8l1 1.5c.6.2 1 .4 1.6.4h1.8c.7-.1 1-.2 1.3-.8.1-.3.1-.5.3-.7m-10 11.1c0-.2-.1-.8.2-1.3l1.4-1.6c.7-.5 2.4-2.9 7.7-4.3h1.4m-10.2-4.4s3 1.5 4.4 1.6" stroke-opacity=".8" stroke="#000" fill="none"/><path d="M310.3 243.2h-.1.1z" stroke="#000" stroke-width=".5" fill="none"/><path d="M309 243c-.4-.3-14-4.2-13.7-4.2.3 0-5 3.6-5 3.6l13 4.4 5.2-3.8h.5z" fill-rule="evenodd" stroke="#000" fill="#ffbc00"/><path d="M296 238.7c1-2.2.7-5-2.1-6.8-6.4-4-17.2-3.6-19.2 1-2.2-.3-3.4 1.4-3.7 3.2-5.7 1.6-.4 8.2 1 8.4 2 .7 2.5.2 2.8-.4 1 .3 2.5-.9 2.9-1.7 1.3.3 2.4.3 2.4-1.1 3.9 3.6 9.2 6.2 9.8 1.5l6.2-4.1z" fill-rule="evenodd" stroke="#000" fill="#f7b200"/><path d="M271 236c-.3 2.6 1.4 5.3 4 8m-.4-11.1a12 12 0 0 0 3 9.5m1-12.3c-2.5 2.1-1.1 8.6 1.6 11.2" stroke="#000" fill="none"/><path stroke-linejoin="round" d="M285.2 177.3c5.8 7.6-2.2 16-9.2 20.9-8.3 6.5-12.8 19.1 1.8 19.9 5.3-.1 11-.6 14.2 3.6 3.2 4 3.3 11.7-4.8 16.6-.8-.7-2-2.8-2.8-3.5-1-.6-1.5.2-2.3-.5-.3-2.6 4-6.5 0-7.4-5.3.9-23.6 1-23.3-16.5a27 27 0 0 1 5.8-12.7c3.3-4.5 12.5-10 13.4-12.4 1.4-2-1.2-6.1-3.3-6.7-1.6-4.5 5.8-9.3 10.5-1.3z" fill-rule="evenodd" stroke="#000100" fill="#288800"/><path d="M272.5 190.8l.2 10.2m-5.5-6.2l10.8 1.6m-2.8-8l9.2 2" stroke="#000" fill="none"/><path d="M265.5 196.6l7.6 4.6m-13 5l5.9 6.4m-.4-15.6l1 15m-5.2-8.7l9.9.2" stroke-opacity=".6" stroke="#000" fill="none"/><path d="M251.1 228.8c1.5-1.5 3.1-3.6 4.1-5.6m-1 8.1c2-1.2 4.7-2.2 7.3-2.8m-3.5 11.6c1.8-1.5 3.7-3 5-5.1m-5 5.4c3.2 0 6.4-.4 9.5-1m-3.8 7.2c2.3-.9 4.4-2.2 6.2-3.6m-22.5-17.4c1.8-1.5 3.6-3.1 5.1-4.9m-6.4.2c2-.5 3.9-1.5 5.5-2.5m-4.8-2.4c1.6-.6 3.4-.8 5.1-1m-3.7-3.5c2-.2 3.3 0 5.2.6m-4.8-3.4a8.7 8.7 0 0 1 5.2-1.2m-6-1l5.5-3.7m-6.5 2.2l4.7-4.7m-6 4l3.4-5.9m10.4-29v8.4m8.5-7c-1.2 2.3-3 5.2-5.2 7.4m-1-9.1c-2.6-.2-5 1.1-6.8 2.7" stroke="#000" fill="none"/><path stroke-linejoin="round" d="M274.7 175.5c4.1 1.5 9.6 3.6 9 15.7 3.4-3.7 5-8.9.7-15.4-3-3.1-7.2-3.8-9.7-.3z" fill-rule="evenodd" stroke="#000" stroke-linecap="round" stroke-width=".5" fill="#9d4600"/><path d="M276.6 179.5c.1-2.3 3.4-5.2 5.1-5.8m-3.9 8c.9-3 4.6-5.4 6.3-6m-6.2 10.2a20 20 0 0 0 9-5.3m-8.5 3c2-1.3 5.6-4.3 7.3-5m-2 7.5c1.5-.8 2-.6 3.5-2.2m-12.5-8.3c4.1 1.3 9.2 4.4 8.9 15.6" stroke="#000" fill="none"/><path d="M261 218.9l5.6-6.8m-5 8.2h5m-7.8-6.8l7 4" stroke-opacity=".6" stroke="#000" fill="none"/><path d="M268.3 212.8c-1.3-.1-2.1-.4-3.3-.8.6 9 1.5 9.5 2.9 13 4.3 2.7 11.7 2 14.8 1.3.4.5 2.2 2.8 1.1 3.5-1.2.8-1.7 2.3-1.8 4.7.8.8 1.5 0 2.2.6s1.7 2.4 2.3 4c0 0 9.2-6.3 7.7-12.2-1-5.5-4.7-7.4-4.7-7.4-5.3-2.6-12.8-.9-15.5-1.9-3.4-.7-5.5-3.7-5.7-4.8z" fill-rule="evenodd" stroke="#000" stroke-width=".5" fill="#9d4600"/><path d="M283.3 228.8c4.6-2 9.4-2.3 10.7-2m-28.5-10.1c1-.6 2.4-1.8 4-1.8m4.4 11.8a16 16 0 0 1 3.9-8.9m-1.2 9.3c.8-4.8 3-8.3 4.1-9m-1 8.6c.8-4.8 2.8-7.9 3.9-8.7m-1.6 8.4c.8-4.8 3.5-7.2 4.5-8m-3 9.3c.8-4.8 4.9-7.4 6-8.3m-5.9 9c2.8-4 7.4-5.9 8.7-6.2m-21.3 3.9c.8-4.8 3-7.5 4-8.3m-6.8 7.4c.9-4.8 3.3-7.3 4.4-8m9.9 17.9c2.2-1.7 3.6 3.7 3.7 4.4.1.7.5 1.3 1.6 2m-21.2-19.6a16 16 0 0 1 3.8-6" stroke="#000" fill="none"/><path d="M278.4 230.3c-2.8 4.5.4 8.4 4 6.8-.4-3-1.2-5 1.6-8-2 .2-3.7-.5-5.6 1.2z" fill-rule="evenodd" stroke="#000" stroke-width="1.1" fill="#fff"/><path d="M267.8 197.7l1.4 6.5m0-.5l-2.4 8m16.4 17.5c5-1 9.7 0 11 .5" stroke="#000" fill="none"/><path d="M282.6 230c5 0 9.5 2 10.6 2.8M282.7 231c4.9 1 7 3.5 7.9 4.6m-8.2-3.5c4.3 2.4 5.3 4.4 5.8 5.6" stroke="#000" stroke-width="1.1" fill="none"/><path fill-rule="evenodd" fill="#296526" d="M210.2 255.4l2.4-.5 2.5 10.8-2.3.6zm19.5 36.6l5 5.6 1.7-1.5-4.6-5.8-2.1 1.7zm150 24l-6 4.2 1.3 2 6.3-4-1.5-2.3zM412 289l-5.4 5.1 1.6 1.8 5.6-4.8-1.8-2zm17.2-36l-2 5 1.1 1.4 2.1-4.7-1.2-1.6z"/><path d="M268.2 225.4c-2.7-4.3-3-8.8-3.1-13.3 1.4.7 2.5 1 3.3.8m-9.4-43.8c-2.2-5.4.3-8.4 3-11" stroke="#000" fill="none"/><path d="M262.5 156.6c.5.6.2 1.7-.6 2.4s-1.8.8-2.3.2c-.4-.5-.2-1.6.6-2.3.8-.7 1.9-.8 2.3-.3z" fill-rule="evenodd"/><path d="M248.5 198l-8.4-1m5 6.8c0-.3-5.1-6.7-5.1-6.7" stroke="#000" stroke-width="1.3" fill="none"/></svg>