<svg xmlns="http://www.w3.org/2000/svg" height="480" width="640" version="1"><defs><clipPath id="a"><path fill-opacity=".7" d="M0 0h640v480H0z"/></clipPath></defs><g clip-path="url(#a)"><g fill-rule="evenodd" transform="translate(40)"><path fill="#f50013" d="M-40 0h720v480H-40z"/><path fill="#00189a" d="M-40 0h720v240H-40z"/><path d="M-40 0l413.2 239.7L-40 479V0z" fill="#feffff"/><path d="M-20.4 437.1l4.2-18.5-16.6-9.2 19.3-2.4 4.4-18.4 7.7 17 19.3-2.3-14.5 13 7.5 17-16.7-9-14.6 12.8zm87.9-238.6L52.6 173l-8.5-1L64.4 201l3-2.4zm-11.6 11.7l-31.1-24-1.1-14 12.6-.4L62 203.3l-6 6.9zm-4.7 5.5l-25.6-14.5-1.1-8.5 29 19.9-2.3 3zm53-22.4l7.7-28.5-5.3-6.7-6.3 34.7 3.8.5zm-16.4 0l-4.8-39 9.1-10.7 9.2 8.7-4.4 40.5-9.1.5zm-7.3.4l-7.7-28.4 5.4-6.8 6.2 34.7-3.9.5zm53.4 22.5l25.8-14.2 1.2-8.5-29.4 19.6 2.4 3zm-11.4-11.8l24.8-30.6 14-.7v12.6l-32 25-6.8-6.3zm-5.3-4.9l15.1-25.3 8.5-.8-20.6 28.5-3-2.4zm21.3 52.3l28.4 7.8 6.7-5.3L139 248l-.5 3.8zm0-16.4l39-4.7 10.6 9.1-8.7 9.2-40.4-4.4-.5-9.2zm-.5-7.2l28.5-7.7 6.7 5.3-34.7 6.3-.5-4zm-21.2 52.6l15 25.4 8.5.9-20.4-28.7-3 2.4zm11.5-11.7l31.3 23.8 1.1 14-12.6.5-25.9-31.4 6-7zm4.7-5.5l25.7 14.3 1.1 8.5-29.2-19.7 2.4-3.1zm-52.7 22.6l-7.6 28.5 5.4 6.7 6-34.7-3.8-.5zm16.4-.1l5 39-9 10.7-9.3-8.7 4.1-40.5 9.2-.5zm7.2-.5l7.9 28.4-5.3 6.7-6.5-34.6 3.9-.5zm-53.3-21.7L25 278.4l-1 8.6 29-20-2.4-3.1zm11.6 11.6l-24.3 31-14 .9-.3-12.6 31.8-25.5 6.8 6.2zm5.4 4.8l-14.7 25.5-8.6 1 20.2-29 3 2.5zm-22-52.4L17 220.3l-6.8 5.4 34.8 6 .4-3.8zm0 16.4l-39 5-10.6-9 8.6-9.3 40.5 4.1.5 9.2zm.6 7.2l-28.4 7.9L11 254l34.7-6.4.5 3.8zm255.5 13.3l-11-15.5-17.9 6.3 11-16L273 224l17.9 5.6 11.2-16v19.5l17.7 5.8-17.9 6.4-.2 19.5zM-9.9 92l-3.4-18.6-18.8-2 16.8-9.7-3.3-18.7 13.8 12.6L12.1 46 3.8 63.6l13.7 12.7-19-1.7-8.4 17.5z" fill="#eca300"/><ellipse cx="190.7" rx="73" cy="353.9" transform="translate(-37.1) scale(.67733)" ry="73" fill="#eca300"/></g></g></svg>