<svg xmlns="http://www.w3.org/2000/svg" height="480" width="640" version="1"><defs><clipPath id="a"><path fill-opacity=".7" d="M-26.3 0h682.6v512H-26.3z"/></clipPath></defs><g fill-rule="evenodd" clip-path="url(#a)" transform="translate(24.7) scale(.9375)" stroke-width="1pt"><path fill="#fff" d="M-69 0h768v512H-69z"/><path fill="#01017e" d="M-69 170.7h768V512H-69z"/><path fill="#fe0101" d="M-69 341.3h768V512H-69z"/><path d="M64.7 116.2v143.6c9.9 56 36 113 124 142 87.5-29 115.5-83.5 125.8-143V116.2H64.7z" fill="#fff"/><path d="M74.6 127.5V253c8.8 45.7 26 108.2 114 137.2 87.6-29 107.7-91.5 115.6-137.2V127.5H74.6z" fill="#fe0101"/><path d="M202.4 203.2v20.2h40.3c5.4 0 10.5-2.6 15.8-4v38c-5.4-1.2-10.7-3.5-16.3-3.5H203V300l-27-1V254h-38.4c-5.8 0-11.1 3-16.7 4.4V218c5.2 1.6 10.2 4.9 15.7 4.9H176v-20.2h-29c-5.1 0-9.6 3.6-14.3 5.4v-38.3c5.4 2.3 10.3 6.9 16.2 6.9h27.6v-17.2c0-8-4.6-15.4-7-23.1h39c-2 7.8-6 15.5-6 23.6v16.7h26c6.9 0 13.2-3.6 19.7-5.4V209c-5.9-2-11.4-5.9-17.7-5.9h-28z" fill="#fff"/><path d="M152.8 305.5c-23.2-11.6-45.2-5.1-55.8 13.4 16.4 31.3 47.6 56.7 91.6 71.2 43.8-14.5 75.6-39.9 93-69.7-13.5-26-39.4-22.5-56-14.4-11.9-29-60-27.5-72.8-.5z" fill="#01017e"/></g></svg>