<svg xmlns="http://www.w3.org/2000/svg" height="480" width="640"><defs><clipPath id="a"><path fill-opacity=".7" d="M0 0h682.7v512H0z"/></clipPath></defs><g clip-path="url(#a)" fill-rule="evenodd" transform="scale(.9375)"><path fill="#ff0" d="M0 0h1024v504.3H0z"/><path fill="#009d00" d="M0 0h1024v146.3H0zm0 365.7h1024V512H0z"/><path d="M.7 0C2.1 0 256 253 256 253L0 512 .7 0z" fill="#f10600"/><path d="M412 268.7l-32-24 39.5.1 12.2-38.7 12.1 38.7h39.5l-32 23.9 12.3 38.7-32-24-31.9 24zm-197 0l-32-24 39.6.1 12.2-38.7 12.1 38.7h39.5l-32 23.9 12.3 38.7-32-24-31.9 24z" stroke-width="1pt"/></g></svg>