<svg xmlns="http://www.w3.org/2000/svg" height="480" width="640" version="1"><g fill-rule="evenodd"><rect rx="0" ry="0" height="480" width="640" fill="#fff"/><rect rx="0" ry="0" height="159.3" width="480" y="320.7" fill="#fff"/><path fill="#fff" d="M0 0h480v159.3H0zm201.9 281l-28.8-20.9-28.7 21.1 10.7-34.2-28.7-21.2 35.5-.3 11-34.1 11.2 34h35.4L191 246.9l10.9 34.2zm307.6 0l-28.8-20.9-28.7 21.1 10.7-34.2-28.6-21.2 35.4-.3 11-34.1 11.2 34h35.4l-28.5 21.4 11 34.2z"/><rect rx="0" ry="0" height="159.3" width="640" y="320.7"/><path fill="red" d="M0 0h640v159.3H0z"/><path d="M201.9 281l-28.8-20.9-28.7 21.1 10.7-34.2-28.7-21.2 35.5-.3 11-34.1 11.2 34h35.4L191 246.9l10.9 34.2zm307.6 0l-28.8-20.9-28.7 21.1 10.7-34.2-28.6-21.2 35.4-.3 11-34.1 11.2 34h35.4l-28.5 21.4 11 34.2z" fill="#090"/></g></svg>