<svg xmlns="http://www.w3.org/2000/svg" height="480" width="640" version="1" xmlns:xlink="http://www.w3.org/1999/xlink"><defs><linearGradient id="a"><stop stop-color="#faff00" offset="0"/><stop stop-color="#f5c402" offset="1"/></linearGradient><linearGradient id="c" y2="459.3" xlink:href="#a" gradientUnits="userSpaceOnUse" x2="123.8" gradientTransform="matrix(.7507 -.02422 -.04587 1.4224 26.4 -26.6)" y1="360.5" x1="123.8"/><linearGradient id="d" y2="459.3" xlink:href="#a" gradientUnits="userSpaceOnUse" x2="123.8" gradientTransform="matrix(.72666 .00063 .00119 1.4679 -.6 -48.2)" y1="360.5" x1="123.8"/><linearGradient id="e" y2="459.3" xlink:href="#a" gradientUnits="userSpaceOnUse" x2="123.8" gradientTransform="matrix(.7514 .02422 .04586 1.4211 -30.2 -29.5)" y1="360.5" x1="123.8"/><linearGradient id="f" y2="459.3" xlink:href="#a" gradientUnits="userSpaceOnUse" x2="123.8" gradientTransform="matrix(.7751 -.00035 -.00066 1.3762 -23.2 .2)" y1="360.5" x1="123.8"/><linearGradient id="g" y2="459.3" xlink:href="#a" gradientUnits="userSpaceOnUse" x2="123.8" gradientTransform="matrix(.75059 -.02422 -.04587 1.4226 -1.6 1.6)" y1="360.5" x1="123.8"/><linearGradient id="h" y2="459.3" xlink:href="#a" gradientUnits="userSpaceOnUse" x2="123.8" gradientTransform="matrix(.75113 .02422 .04587 1.4216 -1.8 -1.8)" y1="360.5" x1="123.8"/><linearGradient id="i" y2="459.3" xlink:href="#a" gradientUnits="userSpaceOnUse" x2="123.8" gradientTransform="matrix(.7751 -.0002 -.0004 1.3762 16.4 0)" y1="360.5" x1="123.8"/><linearGradient id="j" y2="459.3" xlink:href="#a" gradientUnits="userSpaceOnUse" x2="123.8" gradientTransform="matrix(.72665 0 0 1.4679 0 -8.5)" y1="360.5" x1="123.8"/><clipPath id="b"><path fill-opacity=".7" d="M0 0h640v512H0z"/></clipPath></defs><g clip-path="url(#b)" transform="scale(1 .9375)"><g fill-rule="evenodd" transform="translate(116.3 -61.4) scale(.48345)"><path fill="#fff" d="M-240.7 127h1587v1059h-1587z"/><path d="M101.7 488.8c9.6 18.1 21.8 33 30.4 58.7 1.8 34.3-2 40.9 4.6 57 2.7 6 6.6 8.4 7.3 22.2-1.1 19.7-9.6 20.9-18 20.3-1.5-6 0-9.9-10.7-20.3a72.1 72.1 0 0 1-16.2-29.5c-1.1-12-1.7-27.8-7.8-40.9-8.6-14.2-10-21-18.2-28.5-8.5-9.9-8-13.3-12.6-24 11.4-18.5 22.2-20.4 41.2-15z" fill-opacity=".6" transform="rotate(135.2 53.5 425)" stroke="#cbaa19" stroke-width="3.2" fill="url(#c)"/><path d="M101.7 488.8c9.6 18.1 21.8 33 30.4 58.7 1.8 34.3-2 40.9 4.6 57 2.7 6 6.6 8.4 7.3 22.2-1.1 19.7-9.6 20.9-18 20.3-1.5-6 0-9.9-10.7-20.3a72.1 72.1 0 0 1-16.2-29.5c-1.1-12-1.7-27.8-7.8-40.9-8.6-14.2-10-21-18.2-28.5-8.5-9.9-8-13.3-12.6-24 11.4-18.5 22.2-20.4 41.2-15z" fill-opacity=".6" transform="rotate(-179.3 53.5 424.9)" stroke="#cbaa19" stroke-width="3.2" fill="url(#d)"/><path d="M101.7 488.8c9.6 18.1 21.8 33 30.4 58.7 1.8 34.3-2 40.9 4.6 57 2.7 6 6.6 8.4 7.3 22.2-1.1 19.7-9.6 20.9-18 20.3-1.5-6 0-9.9-10.7-20.3a72.1 72.1 0 0 1-16.2-29.5c-1.1-12-1.7-27.8-7.8-40.9-8.6-14.2-10-21-18.2-28.5-8.5-9.9-8-13.3-12.6-24 11.4-18.5 22.2-20.4 41.2-15z" fill-opacity=".6" transform="rotate(-134.4 53.5 425)" stroke="#cbaa19" stroke-width="3.2" fill="url(#e)"/><path d="M101.7 488.8c9.6 18.1 21.8 33 30.4 58.7 1.8 34.3-2 40.9 4.6 57 2.7 6 6.6 8.4 7.3 22.2-1.1 19.7-9.6 20.9-18 20.3-1.5-6 0-9.9-10.7-20.3a72.1 72.1 0 0 1-16.2-29.5c-1.1-12-1.7-27.8-7.8-40.9-8.6-14.2-10-21-18.2-28.5-8.5-9.9-8-13.3-12.6-24 11.4-18.5 22.2-20.4 41.2-15z" fill-opacity=".6" transform="rotate(-89.6 53.5 425)" stroke="#cbaa19" stroke-width="3.2" fill="url(#f)"/><path d="M101.7 488.8c9.6 18.1 21.8 33 30.4 58.7 1.8 34.3-2 40.9 4.6 57 2.7 6 6.6 8.4 7.3 22.2-1.1 19.7-9.6 20.9-18 20.3-1.5-6 0-9.9-10.7-20.3a72.1 72.1 0 0 1-16.2-29.5c-1.1-12-1.7-27.8-7.8-40.9-8.6-14.2-10-21-18.2-28.5-8.5-9.9-8-13.3-12.6-24 11.4-18.5 22.2-20.4 41.2-15z" fill-opacity=".6" transform="rotate(-44.7 53.5 425)" stroke="#cbaa19" stroke-width="3.2" fill="url(#g)"/><path d="M101.7 488.8c9.6 18.1 21.8 33 30.4 58.7 1.8 34.3-2 40.9 4.6 57 2.7 6 6.6 8.4 7.3 22.2-1.1 19.7-9.6 20.9-18 20.3-1.5-6 0-9.9-10.7-20.3a72.1 72.1 0 0 1-16.2-29.5c-1.1-12-1.7-27.8-7.8-40.9-8.6-14.2-10-21-18.2-28.5-8.5-9.9-8-13.3-12.6-24 11.4-18.5 22.2-20.4 41.2-15z" fill-opacity=".6" transform="rotate(45.3 53.5 425)" stroke="#cbaa19" stroke-width="3.2" fill="url(#h)"/><path d="M101.7 488.8c9.6 18.1 21.8 33 30.4 58.7 1.8 34.3-2 40.9 4.6 57 2.7 6 6.6 8.4 7.3 22.2-1.1 19.7-9.6 20.9-18 20.3-1.5-6 0-9.9-10.7-20.3a72.1 72.1 0 0 1-16.2-29.5c-1.1-12-1.7-27.8-7.8-40.9-8.6-14.2-10-21-18.2-28.5-8.5-9.9-8-13.3-12.6-24 11.4-18.5 22.2-20.4 41.2-15z" fill-opacity=".6" transform="rotate(90.2 53.5 425)" stroke="#cbaa19" stroke-width="3.2" fill="url(#i)"/><path fill="#002993" d="M345.1 248h1001.2v120.5H345.1zm0 234.6h1001.2v120.5H345.1z"/><path d="M101.7 488.8c9.6 18.1 21.8 33 30.4 58.7 1.8 34.3-2 40.9 4.6 57 2.7 6 6.6 8.4 7.3 22.2-1.1 19.7-9.6 20.9-18 20.3-1.5-6 0-9.9-10.7-20.3a72.1 72.1 0 0 1-16.2-29.5c-1.1-12-1.7-27.8-7.8-40.9-8.6-14.2-10-21-18.2-28.5-8.5-9.9-8-13.3-12.6-24 11.4-18.5 22.2-20.4 41.2-15z" fill-opacity=".6" stroke="#cbaa19" stroke-width="3.2" fill="url(#j)"/><path fill="#002993" d="M-240.7 714.5h1587v120.6h-1587zm0 233.3h1587v120.5h-1587z"/><path d="M82.7 496.9L53.5 656.2V497h29.2z" stroke="#cbaa19" stroke-linecap="round" stroke-width="3.2" fill="#faff00"/><path d="M24.4 496.9l29.1 159.3V497h-29z" stroke="#cbaa19" stroke-width="3.2" fill="#f5c402"/><path d="M125 455.1l92.3 133.1-112.9-112.5 20.6-20.6z" stroke="#cbaa19" stroke-linecap="round" stroke-width="3.2" fill="#faff00"/><path d="M83.9 496.4l133.4 91.8-112.9-112.5L84 496.4z" stroke="#cbaa19" stroke-width="3.2" fill="#f5c402"/><path d="M125.3 395.8l159.5 28.8-159.4.3v-29.1z" stroke="#cbaa19" stroke-linecap="round" stroke-width="3.2" fill="#faff00"/><path d="M125.5 454l159.3-29.4-159.4.3v29z" stroke="#cbaa19" stroke-width="3.2" fill="#f5c402"/><path d="M84 353.7l133.4-91.8-113 112.4L84 353.7z" stroke="#cbaa19" stroke-linecap="round" stroke-width="3.2" fill="#faff00"/><path d="M125 395l92.4-133.1-113 112.4L125 395z" stroke="#cbaa19" stroke-width="3.2" fill="#f5c402"/><path d="M24.3 353.2L53 193.8l.3 159.4H24.3z" stroke="#cbaa19" stroke-linecap="round" stroke-width="3.2" fill="#faff00"/><path d="M82.5 353.1L53.1 193.8l.3 159.4 29.1-.1z" stroke="#cbaa19" stroke-width="3.2" fill="#f5c402"/><path d="M-18 395l-92.3-133.2 113 112.5-20.6 20.6z" stroke="#cbaa19" stroke-linecap="round" stroke-width="3.2" fill="#faff00"/><path d="M23.2 353.7l-133.5-91.9 113 112.5 20.5-20.6z" stroke="#cbaa19" stroke-width="3.2" fill="#f5c402"/><path d="M-18 455l-159.7-27.4 159.4-1.8.3 29.1z" stroke="#cbaa19" stroke-linecap="round" stroke-width="3.2" fill="#faff00"/><path d="M-18.6 396.7l-159 30.9 159.3-1.8-.3-29.1z" stroke="#cbaa19" stroke-width="3.2" fill="#f5c402"/><path d="M23.9 496.6l-132.6 93.1L3 476.2l20.7 20.4z" stroke="#cbaa19" stroke-linecap="round" stroke-width="3.2" fill="#faff00"/><path d="M-17.6 455.8l-91.1 134L3 476.1l-20.7-20.4z" stroke="#cbaa19" stroke-width="3.2" fill="#f5c402"/><ellipse fill="#faff00" transform="translate(1 2.9)" cx="52.6" rx="82.2" cy="422.3" ry="81.3" stroke="#cbaa19" stroke-width="3.2"/></g></g></svg>