<svg xmlns="http://www.w3.org/2000/svg" xmlns:xlink="http://www.w3.org/1999/xlink" width="500" height="500" viewBox="0 0 2500 2500"><title>Flag of Vatican City</title><path fill="#fff" d="M0 0h2500v2500h-2500z"/><path fill="#ffe000" d="M0 0h1250v2500h-1250z"/><g stroke="#000" stroke-width="3.205" stroke-linejoin="round"><g fill="#ce9d09"><g id="a"><path fill="#fff" d="M1781.07 990.292l16.106 3.841 25.663 4.169 11.76 1.293-2.077 49.916s-2.808 33.178-7.688 48.962c-3.618 11.701-15.781 33.181-15.781 33.181l-7.688 11.735-45.32-39.25s7.726-10.947 10.521-16.995c3.507-7.589 7.688-23.874 7.688-23.874l4.451-25.897 2.428-32.776zm-56.991 151.477l41.273 36.013s-8.345 7.428-13.353 9.711c-9.824 4.479-20.767 7.517-31.562 7.284-7.728-.167-15.319-2.973-22.351-6.186-15.722-7.184-33.031-14.731-43.168-28.732-3.587-4.954-5.003-11.57-4.889-17.686.128-6.933 6.281-19.831 6.281-19.831s2.391 8.636 5.133 12.022c4.513 5.572 11.118 9.302 17.597 12.375 4.848 2.299 10.144 4.022 15.5 4.336 6.951.408 14.163-.674 20.637-3.237 3.339-1.322 8.902-6.07 8.902-6.07zm-65.429-264.099s3.294 6.6 4.297 10.128c1.715 6.033 2.908 12.326 2.861 18.598-.047 6.287-1.468 12.539-3.147 18.598-2.516 9.08-6.32 17.783-10.3 26.323-2.524 5.416-6.054 10.324-8.584 15.737-4.079 8.729-6.994 17.956-10.587 26.896-2.999 7.461-6.864 14.61-9.156 22.318-3.044 10.238-4.562 20.891-6.009 31.474-1.245 9.103-2.229 18.28-2.289 27.468-.071 10.899.257 21.91 2.289 32.618 2.013 10.61 4.977 21.204 9.728 30.901 3.83 7.816 8.931 15.104 14.878 21.459 4.915 5.253 10.706 9.757 16.881 13.448 5.611 3.354 11.951 5.311 18.026 7.725 8.392 3.336 25.433 9.335 25.433 9.335s-23.527-11.593-31.727-21.353c-6.784-8.074-10.521-18.619-12.876-28.899-2.727-11.906-2.383-24.473-1.145-36.624 1.333-13.072 5.179-25.817 9.156-38.341 4.197-13.217 10.096-25.835 15.451-38.627 3.859-9.219 8.276-18.201 12.017-27.468 4.417-10.941 8.764-21.934 12.303-33.191 2.158-6.865 4.849-13.721 5.43-20.894.631-7.793-.383-15.742-2.17-23.354-2.503-10.663-5.598-21.649-11.836-30.652-3.754-5.418-8.899-10.153-14.769-13.151-5.733-2.927-12.543-5.401-18.858-4.154-2.109.417-5.298 3.678-5.298 3.678zm52.94 67.924s4.454-17.991 5.208-27.187c.645-7.867.224-15.822-.607-23.672-.925-8.734-1.469-17.794-4.856-25.897-3.514-8.406-9.024-16.13-15.579-22.458-6.46-6.237-14.294-11.305-22.66-14.567-8.801-3.432-18.491-4.279-27.92-4.856-8.088-.495-16.24.192-24.279 1.214-4.645.591-9.323 1.331-13.758 2.833-4.114 1.393-11.735 5.665-11.735 5.665l29.943 48.962s9.373-5.518 14.567-6.879c5.494-1.439 11.325-1.546 16.995-1.214 5.757.337 11.726.894 16.995 3.237 6.707 2.983 12.49 7.984 17.547 13.304 6.102 6.42 11.549 13.787 14.959 21.961 3.167 7.59 3.582 16.072 4.721 24.217.247 1.768.457 5.336.457 5.336z"/><path d="M1717.05 906.676s-5.334-16.559-10.37-23.474c-5.849-8.031-13.365-15.391-22.255-19.828-9.428-4.705-30.994-6.217-30.994-6.217l11.414 21.128-19.966-.487-10.427-17.434-19.232 8.706-9.568-15.645 20.431-9.473-9.414-15.185 20.423-1.943 8.892 14.7s15.874.048 23.588 1.668c5.238 1.1 10.385 2.91 15.12 5.405 4.532 2.388 8.698 5.522 12.446 9.013 4.508 4.199 8.732 8.864 11.874 14.163 3.054 5.15 6.542 16.727 6.542 16.727zm-135.4-61.584l31.899 46.592m-17.97-54.736l-15.031 8.789-14.306 10.873 30.901 47.211 13.734-10.587 14.12-8.184zm58.211 198.922l17.883-36.91 19.139 7.614 7.755-19.059-19.026-8.869 9.871-21.316-14.02-6.295-10.587 20.458-19.193-8.024-8.428 19.963 18.608 7.804-17.168 36.624zm143.13-11.04l18.209-.405v21.041l17.533.832-2.983 21.358-16.357-1.029s-2.698 12.575-5.122 18.495c-2.513 6.14-9.662 17.399-9.662 17.399l-19.423-4.856s7.027-11.048 9.711-16.995c2.405-5.326 5.665-16.59 5.665-16.59l-19.939-2.517 3.47-20.192 18.087 1.262z"/></g><use xlink:href="#a" transform="matrix(-1 0 0 1 3717.75 0)"/><path fill="#fff" d="M1756.66 735.602l-27.42 29.446 16.881 50.93 9.665 35.795-27.723 25.826 50.729 71.05-17.365 19.818c-1.818 2.329-2.456 5.662-2.144 8.6.286 2.693 1.581 5.464 3.577 7.296 4.56 4.187 11.328 5.133 17.311 6.724 21.065 5.602 42.928 8.102 64.664 9.728 4.668.349 14.043 0 14.043 0s9.357.35 14.043 0c21.737-1.626 43.599-4.127 64.664-9.728 5.982-1.591 12.751-2.537 17.311-6.724 1.995-1.832 3.291-4.603 3.577-7.296.312-2.938-.326-6.271-2.144-8.6l-16.302-35.876 51.819-55.521-19.776-17.834-.435-43.258 16.881-50.93-25.412-25.724-22.943-61.258s-4.801-17.081-8.87-24.893c-2.433-4.671-5.832-8.791-9.156-12.876-3.983-4.894-8.001-9.87-12.876-13.877-4.416-3.631-9.536-6.346-14.592-9.013-5.433-2.866-10.892-5.956-16.844-7.472-6.139-1.563-18.944-1.541-18.944-1.541s-12.787-.026-18.944 1.541c-5.953 1.515-11.412 4.606-16.844 7.472-5.057 2.667-10.176 5.382-14.592 9.013-4.875 4.007-8.893 8.983-12.876 13.877-3.324 4.085-6.723 8.205-9.156 12.876-4.069 7.812-8.87 24.893-8.87 24.893z"/><path d="M1963.27 933.128s-3.177-2.845-4.96-4c-3.747-2.426-7.769-4.473-11.937-6.07-5.606-2.148-11.553-3.288-17.4-4.653-6.697-1.564-13.415-3.139-20.232-4.046-7.973-1.061-16.033-1.538-24.076-1.619-8.607-.086-25.793 1.214-25.793 1.214s-17.169-1.301-25.793-1.214c-8.043.081-16.103.558-24.076 1.619-6.817.907-13.535 2.483-20.232 4.046-5.846 1.365-11.793 2.506-17.4 4.653-4.168 1.597-8.19 3.644-11.937 6.07-1.783 1.154-4.96 4-4.96 4m218.711-42.693s-5.183-5.269-8.602-5.919c-2.21-.42-4.742.215-6.575 1.517-2.372 1.685-3.955 4.56-4.653 7.385-.625 2.528-.353 5.368.607 7.789.813 2.051 2.1 4.338 4.148 5.159 4.8 1.925 15.384-2.024 15.384-2.024zm5.156-3.592c5.801.171 7.914 3.108 9.454 6.474m-243.23-2.882l-.307 13.907s10.583 3.95 15.384 2.024c2.048-.821 3.334-3.108 4.148-5.159.96-2.421 1.232-5.261.607-7.789-.698-2.825-2.281-5.7-4.653-7.385-1.834-1.303-4.368-1.951-6.575-1.517-3.445.676-8.602 5.919-8.602 5.919zm-5.156-3.592c-5.801.171-7.914 3.108-9.454 6.474m198.167 1.346l-8.447-.946m-130.044.946l8.447-.946m75.992.815c-2.865-.423-7.601-4.209-7.601-4.209m-22.786 4.209c2.865-.423 7.601-4.209 7.601-4.209m140.936-19.347s-4.216 3.347-7.285 3.857l-1.211.644s-1.947 5.728-3.662 8.174c-1.719 2.451-6.465 6.25-6.465 6.25s-4.787-4.144-7.744-4.951c-1.94-.529-4.163-.543-6.025.215-1.976.805-3.548 2.535-4.736 4.307-1.404 2.092-2.706 4.583-2.588 7.1.141 3.014 3.877 8.184 3.877 8.184l-2.578 4.512-3.662 2.373c-6.314-1.913-12.631-3.935-18.945-7.539-1.732-1.888-3.358-4.302-4.521-9.033 0 0 4.544-2.693 5.596-4.951 1.182-2.537 1.668-6.006.215-8.398-1.616-2.66-5.276-4.042-8.389-4.092-2.28-.036-4.689 1.141-6.25 2.803-1.679 1.788-2.975 4.465-2.578 6.885.404 2.466 4.736 5.811 4.736 5.811s-1.8 4.558-3.838 5.43c-6.011 2.572-9.978 4.04-15.244 4.854-5.21.804-11.072 1.465-16.299-.019-3.376-.959-6.845-2.73-8.965-5.527-.631-.833-.859-3.008-.859-3.008s6.466-1.679 9.043-3.662c2.559-1.969 5.282-4.568 5.811-7.754.531-3.201-1.171-6.59-3.018-9.258-1.83-2.645-4.582-4.738-7.529-6.025-1.33-.581-4.307-.645-4.307-.645l-.938.859c-1.244 1.598-2.954 2.863-4.766 3.809l-.107.068-.176.068c-.379.189-.749.41-1.133.566-.2.082-.51.093-.742.156-1.269.429-2.471.781-2.471.781s3.864 1.196 4.951 2.734c.672.95.963 2.109 1.084 3.311.148.713.234 1.434.205 2.129-.047 1.109-.322 2.233-.703 3.33-.349 1.278-.839 2.507-1.67 3.496-.451.537-1.004.985-1.592 1.387l-.078.078-.117.059c-1.038.671-2.209 1.168-3.379 1.494-1.371.382-4.186.079-4.287.068.103 0 5.51-.01 7.666-1.563l.195-.137c1.51-1.205 2.6-2.976 3.262-4.883.209-.767.415-1.543.488-2.314.096-1.014.116-2.094.01-3.144-.33-1.585-1.061-3.123-2.217-4.15-2.417-2.148-9.324-2.409-9.414-2.412-.107.004-6.99.267-9.404 2.412-1.156 1.027-1.887 2.566-2.217 4.15-.106 1.051-.087 2.131.01 3.144.073.771.279 1.548.488 2.314.662 1.907 1.752 3.678 3.262 4.883l.195.137c2.156 1.553 7.562 1.563 7.666 1.563-.101.011-2.916.314-4.287-.068-1.17-.326-2.341-.823-3.379-1.494l-.117-.059-.078-.078c-.588-.402-1.141-.85-1.592-1.387-.831-.989-1.321-2.218-1.67-3.496-.381-1.097-.656-2.221-.703-3.33-.029-.695.057-1.416.205-2.129.121-1.201.422-2.36 1.094-3.311 1.088-1.539 4.941-2.734 4.941-2.734s-1.201-.352-2.471-.781c-.23-.063-.534-.075-.732-.156-.389-.159-.768-.384-1.152-.576l-.156-.059-.088-.059c-1.821-.947-3.546-2.213-4.795-3.818-.308-.288-.938-.859-.938-.859s-2.967.064-4.297.645c-2.947 1.287-5.709 3.381-7.539 6.025-1.847 2.668-3.549 6.057-3.018 9.258.528 3.185 3.261 5.785 5.82 7.754 2.576 1.983 9.033 3.662 9.033 3.662s-.228 2.175-.859 3.008c-2.12 2.797-5.589 4.569-8.965 5.527-5.226 1.484-11.088.824-16.299.019-5.266-.813-9.233-2.281-15.244-4.854-2.038-.872-3.838-5.43-3.838-5.43s4.332-3.344 4.736-5.811c.397-2.42-.899-5.097-2.578-6.885-1.561-1.662-3.96-2.839-6.24-2.803-3.112.05-6.782 1.431-8.398 4.092-1.454 2.393-.968 5.861.215 8.398 1.052 2.258 5.596 4.951 5.596 4.951-1.163 4.731-2.789 7.145-4.521 9.033-6.314 3.604-12.631 5.626-18.945 7.539l-3.652-2.373-2.588-4.512s3.736-5.17 3.877-8.184c.118-2.517-1.184-5.007-2.588-7.1-1.188-1.772-2.76-3.502-4.736-4.307-1.862-.758-4.086-.744-6.025-.215-2.957.807-7.744 4.951-7.744 4.951s-4.746-3.799-6.465-6.25c-1.715-2.446-3.652-8.174-3.652-8.174l-1.211-.644c-3.07-.505-7.295-3.857-7.295-3.857l-4.443.938s-4.101 2.195-4.15 4.15c-.067 2.7 3.726 3.918 5.439 6.006 1.471 1.791 2.841 3.667 4.141 5.586 1.225 1.808 2.843 3.475 3.438 5.576.649 2.294-.974 4.972 0 7.148 1.228 2.744 3.773 5.416 6.719 6.016 2.615.533 7.588-2.578 7.588-2.578l-.146 19.883 10.303 9.307 9.727 20.313-3.857 5.146 1.143 10c7.481-9.584 20.502-13.791 32.188-17.148 15.732-4.52 44.57-4.842 58.008-4.717 4.479.042 7.256.137 7.256.137s44.295-1.442 65.254 4.58c11.686 3.358 24.706 7.564 32.188 17.148l1.143-10-3.857-5.146 9.726-20.313 10.303-9.307-.146-19.883s4.972 3.111 7.588 2.578c2.945-.6 5.491-3.272 6.719-6.016.974-2.176-.649-4.854 0-7.148.595-2.101 2.212-3.768 3.438-5.576 1.3-1.919 2.68-3.795 4.15-5.586 1.714-2.088 5.497-3.306 5.43-6.006-.049-1.955-4.15-4.15-4.15-4.15l-4.443-.938zm-148.33-2.607c1.049.982 3.103 2.847 4.795 3.818l.244.117c.505.264 1.202.502 1.885.732 2.913.792 7.935.267 8.047.254h.03c.111.013 5.133.536 8.047-.254.677-.229 1.371-.461 1.875-.723l.283-.137c1.692-.977 3.72-2.83 4.766-3.809.522-.671.966-1.391 1.299-2.158 1.155-2.661 1.102-6.112-.205-8.701-1.538-3.047-5.176-4.497-8.086-6.279-2.506-1.535-7.912-3.725-7.998-3.76-.1.041-5.476 2.227-7.979 3.76-2.91 1.783-6.558 3.232-8.096 6.279-1.307 2.59-1.36 6.04-.205 8.701.333.767.776 1.487 1.299 2.158zm136.88-38.58s-10.886-5.061-16.59-6.879c-10.413-3.319-21.235-5.216-31.967-7.284-12.467-2.402-25.26-3.051-37.622-5.943-3.892-.91-7.53-2.769-11.445-3.577-5.4-1.114-11.061-2.874-16.452-1.717-2.968.637-7.819 4.578-7.819 4.578s-4.867-3.94-7.819-4.578c-5.389-1.165-11.052.603-16.452 1.717-3.914.807-7.553 2.666-11.445 3.577-12.363 2.892-25.155 3.541-37.622 5.943-10.731 2.068-21.554 3.965-31.967 7.284-5.704 1.818-16.59 6.879-16.59 6.879m197.457-45.121s5.35-2.824 7.285-5.059c1.283-1.482 2.507-3.298 2.637-5.254.151-2.277-.621-4.853-2.227-6.475-1.561-1.576-4.061-2.219-6.279-2.227-1.856-.006-3.842.612-5.254 1.816-1.63 1.39-2.781 3.537-3.037 5.664-.219 1.814.51 3.699 1.367 5.313 1.3 2.447 5.508 6.221 5.508 6.221zm-151.123 0s4.208-3.774 5.508-6.221c.858-1.614 1.586-3.498 1.367-5.313-.256-2.127-1.407-4.274-3.037-5.664-1.412-1.204-3.398-1.822-5.254-1.816-2.218.008-4.709.65-6.27 2.227-1.606 1.622-2.378 4.198-2.227 6.475.13 1.956 1.343 3.772 2.627 5.254 1.935 2.234 7.285 5.059 7.285 5.059zm-41.074 18.008l-11.934 15.576s-.084 4.109.81 5.869c1.231 2.424 5.859 5.664 5.859 5.664l.85 21.387-11.309 19.6-.986.205 7.295 3.857c.342.056.681.112.986.088 4.378-.342 7.069-5.258 10.879-7.441 4.849-2.779 10.011-4.988 15.166-7.148 7.124-2.986 14.359-5.734 21.738-8.018 9.303-2.88 18.691-5.76 28.33-7.148 7.298-1.051 14.712-1.545 22.1-1.445 2.462.033 4.921.127 7.373.293 6.569.445 19.37 3.404 19.473 3.428.086-.02 12.909-2.983 19.482-3.428 9.809-.664 19.742-.249 29.473 1.152 9.639 1.389 19.027 4.269 28.33 7.148 7.379 2.284 14.614 5.032 21.738 8.018 5.155 2.16 10.317 4.369 15.166 7.148 3.81 2.184 6.501 7.099 10.879 7.441.308.024.65-.03.996-.088l7.285-3.857-.986-.205-11.309-19.6.85-21.387s4.638-3.24 5.869-5.664c.894-1.76.801-5.869.801-5.869l-11.934-15.576s-6.016 6.008-9.912 7.285c-2.051.672-4.414.64-6.475 0-2.501-.777-4.434-2.811-6.475-4.453-4.609-3.71-9.226-7.541-12.949-12.139-2.133-2.634-5.264-8.701-5.264-8.701s-12.908 10.142-20.635 12.139c-7.577 1.958-15.96 1.606-23.467-.606-1.884-.555-5.029-3.066-5.029-3.066-8.826-5.621-17.652-8.697-26.426-7.852-8.774-.846-17.599 2.23-26.426 7.852 0 0-3.155 2.511-5.039 3.066-7.507 2.211-15.89 2.564-23.467.606-7.727-1.997-20.635-12.139-20.635-12.139s-3.131 6.068-5.264 8.701c-3.724 4.598-8.34 8.429-12.949 12.139-2.04 1.642-3.974 3.676-6.475 4.453-2.061.64-4.424.672-6.475 0-3.897-1.278-9.912-7.285-9.912-7.285zm243.65-6.312s.448-5.703-.162-8.455c-.558-2.52-1.694-4.94-3.136-7.081-1.513-2.246-5.647-5.842-5.647-5.842m-1.434 27.69s3.394.123 4.854-.606c2.603-1.3 6.074-6.269 6.074-6.269s6.661 4.607 10.313 4.043c1.801-.278 3.295-1.885 4.248-3.438 1.011-1.646 1.651-3.782 1.221-5.664-.343-1.499-1.658-2.65-2.832-3.643-2.281-1.929-6.396-1.662-7.891-4.248-1.182-2.044-.457-4.811.195-7.08 1.361-4.736 4.751-8.648 7.49-12.744 1.74-2.601 5.293-4.383 5.664-7.49.201-1.679-2.022-4.658-2.022-4.658s-5.222-.118-7.686.615c-4.077 1.214-8.307 2.995-11.201 6.113-2.406 2.592-3.121 6.366-4.385 9.668-.961 2.51-2.422 7.686-2.422 7.686s-6.041-.013-8.701 1.211c-3.516 1.617-7.111 4.157-8.701 7.686-1.247 2.767-1.073 6.273 0 9.111 1.081 2.86 3.493 5.236 6.074 6.875 2.846 1.808 9.707 2.832 9.707 2.832zm-234.71-27.69s-4.134 3.595-5.647 5.842c-1.442 2.141-2.578 4.561-3.136 7.081-.61 2.752-.162 8.455-.162 8.455m-16.936-45.485s-2.222 2.979-2.022 4.658c.371 3.107 3.925 4.889 5.664 7.49 2.739 4.096 6.13 8.008 7.49 12.744.652 2.27 1.377 5.036.195 7.08-1.495 2.586-5.609 2.319-7.891 4.248-1.174.993-2.489 2.143-2.832 3.643-.431 1.883.21 4.018 1.221 5.664.953 1.553 2.447 3.159 4.248 3.438 3.651.565 10.313-4.043 10.313-4.043s3.471 4.97 6.074 6.269c1.459.729 4.854.606 4.854.606s6.87-1.024 9.717-2.832c2.581-1.639 4.983-4.015 6.064-6.875 1.073-2.839 1.247-6.345 0-9.111-1.591-3.528-5.185-6.068-8.701-7.686-2.66-1.224-8.701-1.211-8.701-1.211s-1.461-5.176-2.422-7.686c-1.264-3.302-1.979-7.076-4.385-9.668-2.894-3.118-7.124-4.899-11.201-6.113-2.464-.733-7.686-.615-7.686-.615zm135.626 14.317l8.325-2.438 8.325 2.438m-14.493 20.082s-6.481-5.91-7.688-9.914c-.527-1.748-.45-3.849.405-5.463 1.168-2.206 5.867-4.653 5.867-4.653s-7.085-3.443-8.902-6.677c-1.029-1.831-1.158-4.245-.607-6.272.874-3.215 3.299-5.97 5.867-8.093 3.185-2.633 11.226-5.26 11.226-5.26s8.027 2.62 11.226 5.26c2.57 2.121 4.993 4.878 5.867 8.093.551 2.027.422 4.441-.607 6.272-1.817 3.234-8.902 6.677-8.902 6.677s4.699 2.448 5.867 4.653c.855 1.614.932 3.715.405 5.463-1.207 4.004-7.688 9.914-7.688 9.914l-6.168.405zm22.672-26.887s13.437 5.727 17.989 11.106c1.27 1.501 2.352 3.501 2.225 5.463-.449 6.962-10.318 18.209-10.318 18.209l-19.928-8.282h-12.944l-19.928 8.282s-9.87-11.247-10.318-18.209c-.126-1.962.955-3.962 2.225-5.463 4.552-5.38 17.989-11.106 17.989-11.106"/><path d="M1844.36 669.248l8.056-6.201 6.506.14-6.656-.143s-3.591-2.448-4.578-4.292c-.958-1.79-1.415-4.021-1.002-6.009.552-2.655 2.085-5.459 4.428-6.825 2.237-1.305 7.755-.471 7.755-.471s5.503-.842 7.755.471c2.343 1.366 3.875 4.17 4.428 6.825.414 1.988-.043 4.218-1.002 6.009-.987 1.844-4.578 4.292-4.578 4.292l-6.656.143 6.506-.14 8.056 6.201m52.584 5.068l-2.68 4.655m32.633-20.005l-7.515.982m8.513 8.804l-11.517.604m-1.498-13.748c1.468.937 4.154 2.86 4.595 4.635.776 3.129-.674 7.07-3.139 9.149-2.389 2.014-9.252 1.501-9.252 1.501m-181.69 33.587s11.295-2.82 16.955-4.178c8.081-1.938 16.099-4.196 24.279-5.665 9.262-1.664 18.62-2.884 28.007-3.554 11.71-.836 35.216-.572 35.216-.572s23.488-.264 35.216.572c9.387.67 18.744 1.89 28.007 3.554 8.179 1.469 16.198 3.727 24.279 5.665 5.66 1.358 16.955 4.178 16.955 4.178m-171.551-30.165l2.68 4.655m-32.633-20.005l7.515.982m-8.513 8.804l11.517.604m-6.475 16.076s12.543-3.188 18.875-4.506c6.923-1.442 13.873-2.819 20.887-3.72 8.068-1.036 16.2-1.555 24.325-1.929 9.63-.442 28.917-.367 28.917-.367s19.27-.076 28.917.367c8.125.373 16.257.893 24.325 1.929 7.014.9 13.964 2.278 20.887 3.72 6.333 1.319 18.875 4.506 18.875 4.506m-170.239-14.539s-6.864.513-9.252-1.501c-2.465-2.078-3.915-6.02-3.139-9.149.611-2.463 5.55-5.213 5.55-5.213m63.138 74.002c-11.977.723-24.01 1.474-35.811 3.642-12.293 2.258-24.485 5.397-36.215 9.711-11.113 4.087-22.869 22.643-32.096 15.222-1.983-1.595.752-5.084 1.717-7.439 1.865-4.557 4.429-8.932 7.725-12.589 2.414-2.678 7.976-3.027 8.584-6.581.442-2.581-3.474-4.093-4.292-6.581-1.044-3.176-1.539-6.814-.572-10.014 1.24-4.109 6.525-6.18 7.725-10.3 1.043-3.582-2.547-7.833-.858-11.159 2.133-4.201 11.337-2.777 12.017-7.439.332-2.273-3.825-2.98-4.578-5.15-.532-1.534.309-3.24.286-4.864-.031-2.202.392-4.601-.572-6.581-.857-1.759-3.702-2.14-4.292-4.006-.558-1.766-.172-4.134 1.145-5.436 1.037-1.026 3.632.443 4.292-.858 1.332-2.626-2.539-5.314-3.72-8.012-1.406-3.213-3.207-6.314-4.006-9.728-.631-2.7-2.958-6.886-.572-8.298 2.732-1.616 5.477 3.239 8.011 5.15 3.345 2.523 7.109 4.817 9.442 8.298 1.683 2.511.743 6.509 2.948 8.577 2.647 2.481 7.758.491 10.5 2.868 2.356 2.043 4.441 5.55 3.72 8.584-.69 2.899-7.531 2.818-6.867 5.723.789 3.45 6.813 3.179 10.3 2.575 2.033-.352 3.462-2.247 5.15-3.434 1.311-.922 2.389-2.232 3.863-2.861 1.691-.722 5.436-.93 5.436-.93l-2.146-.501s-3.172-2.528-3.505-4.363c-.314-1.729.437-3.732 1.645-5.007 1.355-1.43 3.538-2.16 5.508-2.146 1.647.012 3.446.663 4.578 1.86 1.161 1.227 1.824 3.113 1.645 4.793-.157 1.468-1.127 2.88-2.289 3.791-1.258.987-4.578 1.431-4.578 1.431l2.289.644 6.152 8.441 26.539-1.454s3.273-3.339 2.63-5.159c-.689-1.95-2.503-2.668-5.665-2.529-8.581.377-10.339-6.828-10.015-12.038.27-4.334 5.484-7.274 9.509-8.902 3.877-1.568 10.787 3.593 12.544-.202 1.54-3.327-5.818-5.021-6.98-8.497-.503-1.504-.508-3.336.202-4.755 1.813-3.622 5.713-6.03 9.408-7.688 1.557-.699 5.055-.809 5.055-.809s3.482.105 5.055.809c3.696 1.656 7.595 4.067 9.408 7.688.71 1.419.705 3.25.202 4.755-1.162 3.477-8.52 5.171-6.98 8.497 1.757 3.795 8.667-1.365 12.544.202 4.025 1.628 9.239 4.569 9.509 8.902.325 5.21-1.434 12.415-10.015 12.038-3.162-.139-4.976.579-5.665 2.529-.643 1.82 2.63 5.159 2.63 5.159l26.539 1.454 6.152-8.441 2.289-.644s-3.32-.444-4.578-1.431c-1.161-.911-2.132-2.323-2.289-3.791-.179-1.68.484-3.566 1.645-4.793 1.132-1.196 2.931-1.848 4.578-1.86 1.97-.014 4.153.716 5.508 2.146 1.208 1.275 1.959 3.279 1.645 5.007-.333 1.836-3.505 4.363-3.505 4.363l-2.146.501s3.745.208 5.436.93c1.474.629 2.552 1.94 3.863 2.861 1.688 1.187 3.117 3.081 5.15 3.434 3.487.604 9.511.875 10.3-2.575.664-2.905-6.177-2.824-6.867-5.723-.722-3.034 1.363-6.541 3.72-8.584 2.741-2.377 7.853-.387 10.5-2.868 2.205-2.068 1.265-6.066 2.948-8.577 2.333-3.481 6.097-5.775 9.442-8.298 2.535-1.912 5.279-6.767 8.011-5.15 2.386 1.411.059 5.598-.572 8.298-.798 3.415-2.599 6.516-4.006 9.728-1.181 2.697-5.051 5.386-3.72 8.012.66 1.301 3.255-.168 4.292.858 1.316 1.303 1.703 3.671 1.145 5.436-.59 1.866-3.435 2.246-4.292 4.006-.964 1.98-.541 4.379-.572 6.581-.023 1.624.819 3.33.286 4.864-.753 2.17-4.91 2.877-4.578 5.15.68 4.662 9.884 3.239 12.017 7.439 1.689 3.326-1.901 7.577-.858 11.159 1.2 4.121 6.485 6.192 7.725 10.3.966 3.201.472 6.838-.572 10.014-.818 2.488-4.733 3.999-4.292 6.581.608 3.554 6.17 3.903 8.584 6.581 3.296 3.657 5.86 8.033 7.725 12.589.964 2.355 3.7 5.844 1.717 7.439-9.227 7.421-20.983-11.135-32.096-15.222-11.73-4.314-23.923-7.453-36.215-9.711-11.801-2.168-23.834-2.918-35.811-3.642-6.968-.421-20.938-.405-20.938-.405s-13.952-.017-20.938.405zm31.128-133.63l-10.184.117-10.184-.117m16.931-33.88c2.642-5.601-1.975-9.75-6.748-13.857-4.772 4.107-9.39 8.256-6.747 13.857m14.066 46.73c3.894.287 8.632 4.268 11.588 1.717 1.336-1.153.675-3.663 0-5.293-1.574-3.801-8.413-4.625-8.727-8.727-.271-3.538 5.191-5.212 6.295-8.584.549-1.677.681-3.666 0-5.293-2.752-6.578-14.493-6.951-16.527-13.681-.901-2.981 5.932-6.493 6.8-6.869 4.339-1.879 9.704 2.659 13.988.799 2.899-1.258 6.125-4.124 6.07-7.284-.06-3.438-3.726-6.316-6.879-7.688-6.108-2.657-16.221 5.904-19.978.405-3.459-5.062 8.643-11.081 7.03-16.995-.766-2.81-6.977-5.26-6.977-5.26s-6.202 2.438-6.977 5.26c-1.624 5.912 10.488 11.933 7.03 16.995-3.758 5.5-13.87-3.062-19.978-.405-3.153 1.372-6.818 4.25-6.879 7.688-.056 3.16 3.171 6.025 6.07 7.284 4.284 1.859 9.648-2.678 13.988-.799.867.376 7.701 3.887 6.8 6.869-2.034 6.729-13.776 7.103-16.527 13.681-.681 1.628-.549 3.616 0 5.293 1.104 3.372 6.565 5.046 6.295 8.584-.314 4.102-7.152 4.926-8.727 8.727-.675 1.63-1.336 4.141 0 5.293 2.957 2.551 7.694-1.43 11.588-1.717 2.433-.179 7.319 0 7.319 0s4.868-.181 7.319 0z"/><path d="M1953.74 953.499s-7.154-3.019-10.804-4.34c-6.598-2.388-13.259-4.632-20.03-6.474-6.599-1.796-13.233-3.689-20.03-4.451-14.576-1.634-44.002-.202-44.002-.202s-29.409-1.434-44.002.202c-6.797.762-13.43 2.655-20.03 4.451-6.771 1.842-13.432 4.086-20.03 6.474-3.649 1.321-10.804 4.34-10.804 4.34m201.899-222.5s-11.952-4.756-18.026-6.867c-5.1-1.773-10.206-3.582-15.451-4.864-6.397-1.564-12.932-2.538-19.456-3.434-9.393-1.289-18.843-2.208-28.307-2.784-8.584-.522-25.793-.607-25.793-.607s-17.192.084-25.793.607c-9.464.576-18.914 1.496-28.307 2.784-6.524.895-13.059 1.869-19.456 3.434-5.245 1.283-10.351 3.092-15.451 4.864-6.074 2.111-18.026 6.867-18.026 6.867m-14.157 120.41s17.56-5.918 26.405-8.671c9.129-2.841 18.173-6.063 27.516-8.093 11.184-2.43 22.611-3.629 33.99-4.856 11.059-1.192 33.279-2.428 33.279-2.428s22.203 1.235 33.279 2.428c11.379 1.226 22.806 2.425 33.99 4.856 9.342 2.03 18.387 5.252 27.516 8.093 8.846 2.753 26.405 8.671 26.405 8.671" fill="none"/></g><g fill="#ccc"><g id="b"><path d="M1533.28 904.042l101.171 86.713s-5.133 11.214-7.279 16.989c-1.979 5.327-3.817 10.727-5.146 16.252-1.958 8.145-4.135 24.789-4.135 24.789l-117.942-108.035c1.673-24.689 15.566-33.488 33.331-36.708zm-14.29 54.155l-24.283 27.167 15.165 14.592-23.462 22.89-15.165-15.165-25.515 27.202-.237 33.743 58.084 45.494 20.029-14.879-1.145-32.332 15.451 8.584 15.451-9.442.858 29.185-12.589-9.156-13.734 18.026-1.431 32.046 43.777 38.913 53.049-47.079-4.008-14.112-2.305-12.678-1.246-25.129 1.98-27.439zm-24.28 27.167l-.621 29.993 15.643-15.261z"/><path d="M1571.935 1140.425l-1.821 34.262m-18.61-139.675l.644 31.785m-14.811-17.34l.83 25.885m-14.425-36.34l.542 28.925m-21.435 15.225l.311 30.648m24.737-9.675l44.064 36.897 45.055-39.54m-171.018-66.875l57.579 49.193 18.884-16.881-14.879-12.589 16.595-15.737 12.876 11.159 14.592-14.879 18.884 18.312-17.151 13.447 16.006 14.593-15.165 14.02" fill="none"/><path d="M1901.35 1229.35l48.602 44.579 10.763 31.429-62.642-6.673-35.664-35.276-37.969-35.175-164.039-142.138s3.478-13.101 5.635-19.522c3.124-9.3 6.866-18.385 10.565-27.472.928-2.28 2.916-6.785 2.916-6.785l183.014 162.24zm41.32 6.69c27.095 37.868 72.691 73.638 86.537 90.842 13.845 17.203 22.765 33.541 2.583 55.538-20.181 21.998-43.064 9.515-61.135-2.583-18.071-12.098-49.603-51.303-94.716-81.37zm-15.97 63.71l-35.169-15.874m40.928-38.288c2.423 7.965.574 16.774 3.624 24.416 3.015 7.555 14.023 19.974 14.023 19.974s-6.998.978-10.262 2.245c-4.731 1.837-11.956 2.71-13.172 7.637-1.063 4.309 4.061 8.026 7.09 11.271 2.905 3.112 6.645 5.372 10.316 7.526 6.136 3.6 12.391 7.654 19.393 8.916 8.765 1.581 25.129-10.755 26.647-1.979.631 3.65-7.389 1.313-10.713 2.946-7.758 3.812-11.649 12.117-4.821 17.894 4.385 3.71 11.275 2.346 16.999 2.821 5.489.455 11.757-2.745 16.523.016 5.611 3.251 12.668 11.106 9.691 16.867-3.063 5.928-14.484 5.769-19.927 1.909-4.024-2.854-2.947-9.473-3.542-14.371-.177-1.458 0-2.937 0-4.405"/><circle cx="2154.665" cy="1480.147" r="129.687"/><path fill="#fff" d="M2106.13 1485.65c-22.355 0-40.478 18.123-40.478 40.478s18.123 40.478 40.478 40.478 40.478-18.123 40.478-40.478l14.026-.609c0 22.355 18.123 40.478 40.478 40.478s40.478-18.123 40.478-40.478-18.123-40.478-40.478-40.478l.609-7.938c22.355 0 40.478-18.123 40.478-40.478s-18.123-40.478-40.478-40.478-40.478 18.123-40.478 40.478l-14.026-1.218c0-22.355-18.123-40.478-40.478-40.478s-40.478 18.123-40.478 40.478 18.123 40.478 40.478 40.478z"/><circle cx="2154.667" cy="1446.052" r="14.613"/><circle cx="2189.367" cy="1480.148" r="14.613"/><circle cx="2155.277" cy="1511.2" r="14.613"/><circle cx="2119.347" cy="1480.148" r="14.613"/><path fill="#fff" d="M2152.23 1558.42c-5.338 10.957-12.62 15.941-21.919 21.919 13.247 5.754 29.401 4.697 43.838 0-9.299-4.65-16.041-11.996-21.919-21.919zm-76.579-80.232c-10.957-5.338-15.941-12.62-21.919-21.919-5.754 13.247-4.697 29.401 0 43.838 4.65-9.299 11.996-16.041 21.919-21.919zm159.246 3.653c10.957-5.338 15.941-12.62 21.919-21.919 5.754 13.247 4.697 29.401 0 43.838-4.65-9.299-11.996-16.041-21.919-21.919zm-78.405-80.841c-5.338-10.957-12.62-15.941-21.919-21.919 13.247-5.754 29.401-4.697 43.838 0-9.299 4.65-16.041 11.996-21.919 21.919z"/></g><g id="c" fill="#ce9d09"><path d="M1533.48 903.819s.703-5.061 0-7.439c-1.144-3.869-3.574-7.468-6.581-10.158-2.543-2.275-5.807-3.924-9.156-4.578-3.615-.706-7.464-.115-11.016.858-2.42.663-6.753 3.323-6.753 3.323l-14.849 6.12-5.511 17.667s-3.174 5.579-3.931 8.656c-.81 3.293-1.409 6.871-.572 10.157.983 3.86 3.232 7.611 6.295 10.157 2.833 2.355 6.627 3.729 10.3 4.006 2.826.213 8.298-1.86 8.298-1.86 1.58-18.611 9.856-32.813 33.477-36.91zm-33.21-18.174l-38.753-17.02-3.147 3.004 21.119 38.202s5.924-8.738 9.354-12.736c3.511-4.093 11.428-11.45 11.428-11.45z"/><circle cy="865.263" cx="1457.292" r="15.951"/><path d="M1566.19 932.256c3.39 27.952 7.322 55.904 16.025 83.856l31.069 28.459c-6.625-29.232-18.442-58.463-18.368-87.695zm46.86 40.159l-85.487-6.369 27.201 24.916 78.067 3.38 1.147-3.99zm105.31 94.505c-22.445 8.46-31.418 22.309-37.857 37.171-6.353.559-12.306.618-14.41-4.134 5.348-34.7 30.21-45.551 35.753-47.747 14.95-2.825 12.179 8.85 16.514 14.709zm27.52 25.9c-22.445 8.46-31.418 22.309-37.857 37.171-6.353.559-12.306.618-14.41-4.134 5.348-34.7 30.21-45.551 35.753-47.747 14.95-2.825 12.179 8.85 16.514 14.71zm312.78 261.87c-7.337-.202-15.078 1.504-15.078 1.504.303 8.021-2.946 16.583-11.797 26.23-7.639 8.327-15.666 11.703-23.672 12.041l-.01.01s-2.84 17.652 2.588 23.252c6.356 6.558 27.119 3.877 27.119 3.877l1.768-1.133a129.688 129.688 0 0 1 31.914-39.795l.332-1.26s3.039-16.523-2.148-21.5c-2.35-2.27-6.614-3.073-11.016 0z"/><circle cy="1375.424" cx="2254.517" r="17.657"/><circle cy="1580.001" cx="2260.607" r="17.657"/><circle cy="1591.57" cx="2062.117" r="17.657"/></g></g><g fill="#ce9d09" transform="matrix(-1 0 0 1 3718.256 0)"><use xlink:href="#b"/><use xlink:href="#c" fill="#ccc"/></g><g fill="#fa0204"><path id="d" d="M1869.19 1175.78c0 5.38-4.5 7.458-13.243 7.458s-12.786-2.535-12.786-7.915 4.043-6.697 12.786-6.697 13.243 1.774 13.243 7.154z"/><use xlink:href="#d" x="6.391" y="14.309"/><path d="M1877.34 1208.69c-1.772 5.08-6.705 5.56-14.96 2.681-8.255-2.88-11.238-6.605-9.466-11.685 1.772-5.08 6.023-4.992 14.278-2.113s11.92 6.036 10.148 11.116z"/><path id="e" d="M1877.51 1222.51c-1.065 5.274-5.887 6.42-14.457 4.689s-12.031-5.016-10.966-10.29c1.065-5.274 5.289-5.764 13.859-4.034 8.57 1.731 12.63 4.36 11.565 9.634z"/><use xlink:href="#e" x="3.96" y="16.142"/><path d="M1921.73 1216.2c-2.59-.691-2.303-5.303-1.583-7.886 1.107-3.969 8.354-9.11 8.354-9.11s1.767 5.563.95 8.185c-1.161 3.728-3.948 9.817-7.721 8.811zm-9.44 8.22c-2.822-.622-3.182-5.523-2.444-8.316 1.142-4.324 9.645-9.325 9.645-9.325s1.476 6.042.52 8.831c-1.267 3.694-3.908 9.651-7.721 8.81zm-10.77 15.59c-4.292-1.138-3.805-8.762-2.659-13.052.946-3.543 3.716-9.12 7.277-8.249 4.167 1.018 4.114 8.321 3.103 12.491-.921 3.795-3.946 9.812-7.721 8.81zm-12.79 12.18c-4.214-.926-6.007-7.638-5.164-11.87.885-4.442 5.36-10.41 9.782-9.431 4.462.988 6.005 8.353 4.929 12.795-1.003 4.143-5.385 9.421-9.547 8.506zm-2.22 7.39c-1.077 5.087-7.504 6.86-11.461 5.569-4.154-1.355-9.579-7.186-8.442-12.524 1.147-5.386 8.179-6.814 12.324-5.226 3.866 1.481 8.643 7.155 7.579 12.18zm-85.04-49.29s5.138 2.531 7.349 4.792c2.321 2.373 5.111 3.322 3.709 6.923-1.415 3.634-5.843 2.388-8.127-.156-2.13-2.372-2.931-11.559-2.931-11.559zm25.37 8.77c5.212 1.047 5.108 7.121 2.443 10.847-2.797 3.911-10.884 8.992-16.349 7.887-5.516-1.115-4.844-7.757-1.795-11.658 2.843-3.638 10.553-8.11 15.701-7.076z"/><path id="f" d="M1844.26 1230.55c4.853 2.169 3.415 8.071 0 11.118-3.59 3.199-12.597 6.375-17.685 4.093-5.135-2.302-3.017-8.633.816-11.767 3.574-2.922 12.08-5.587 16.874-3.444z"/><use xlink:href="#f" x="13.998" y="10.661"/><path d="M1862.97 1250.68c4.787.754 6.069 7.415 4.585 11.696-1.559 4.494-7.473 10.669-12.496 9.87-5.068-.806-5.982-8.132-4.201-12.634 1.661-4.199 7.384-9.677 12.113-8.932zm12.13 14.65c3.965 2.308 3.033 9.59.41 13.533-2.754 4.139-9.845 8.622-14.002 6.193-4.195-2.451-2.735-10.302.216-14.379 2.752-3.802 9.46-7.627 13.377-5.348zm-86.08-39.89c4.244-.376 7.182 5.965 7.127 10.585-.059 4.85-3.317 12.403-7.771 12.79-4.495.391-7.309-6.701-7.065-11.611.227-4.579 3.518-11.393 7.71-11.764zm13.89 12.21c4.157.932 5.027 7.867 3.569 12.251-1.532 4.602-6.933 10.806-11.293 9.82-4.4-.995-4.924-8.607-3.199-13.21 1.609-4.293 6.817-9.783 10.923-8.861zm12.88 8.59c4.921 1.158 5.952 9.771 4.226 15.215-1.813 5.715-8.208 13.421-13.37 12.196-5.21-1.236-5.83-10.689-3.787-16.406 1.905-5.332 8.071-12.149 12.932-11.005zm10.43 10.56c5.014-.644 9.005 7.057 9.301 12.761.31 5.988-2.971 15.448-8.234 16.115-5.312.673-9.213-7.96-9.308-14.03-.089-5.661 3.289-14.21 8.242-14.847z"/><path id="g" d="M1838.59 1265.66c4.556-.534 8.182 5.85 8.451 10.578.281 4.964-2.699 12.805-7.482 13.358-4.827.558-8.371-6.598-8.458-11.63-.081-4.693 2.989-11.779 7.489-12.307z"/><use xlink:href="#g" x="12.788" y="10.35"/><path id="h" d="M1929.28 1250.88c-3.243 2.846-9.712.313-12.621-2.874-3.054-3.345-5.21-10.486-1.8-13.468 3.44-3.009 10.287.112 13.228 3.611 2.742 3.263 4.398 9.92 1.194 12.731z"/><use xlink:href="#h" x="-6.999" y="12.792"/><use xlink:href="#h" x="-19.479" y="23.452"/><path d="M1905.19 1281.18c-1.138 4.162-7.933 5.613-12.116 4.557-4.391-1.109-10.126-5.88-8.924-10.247 1.213-4.407 8.646-5.575 13.028-4.276 4.087 1.212 9.137 5.854 8.012 9.966zm-18.01-2.99c3.641 2.539 2.786 10.551.377 14.889-2.53 4.554-9.042 9.486-12.86 6.814-3.853-2.696-2.512-11.334.198-15.819 2.528-4.183 8.689-8.391 12.286-5.883zm-17.56 9.36c3.965 2.308 3.033 9.59.41 13.533-2.754 4.139-9.845 8.622-14.002 6.193-4.195-2.451-2.735-10.302.216-14.379 2.752-3.802 9.46-7.627 13.377-5.348z"/><path id="i" d="M1831.34 1312.91c-3.392 3.235-.755 11.272 2.773 15.282 3.705 4.209 11.794 8.104 15.348 4.703 3.586-3.433.293-12.024-3.593-16.131-3.624-3.83-11.179-7.048-14.529-3.853z"/><use xlink:href="#i" x="-7.319" y="13.781"/><path id="j" d="M1820.83 1339.55c-4.348 1.749-4.876 10.191-3.083 15.222 1.883 5.282 7.955 11.896 12.516 10.052 4.603-1.861 4.725-11.061 2.636-16.315-1.948-4.9-7.774-10.687-12.069-8.96z"/><use xlink:href="#j" x="-10.548" y="14.852"/><path id="k" d="M1802.66 1371.04c-4.571 1.037-6.43 9.289-5.458 14.541 1.022 5.514 5.967 13.007 10.763 11.91 4.84-1.107 6.419-10.172 5.19-15.691-1.146-5.147-5.981-11.785-10.496-10.761z"/><use xlink:href="#k" x="-10.121" y="15.932"/><path id="l" d="M1784.06 1403.3c-4.684.171-8.042 7.935-8.06 13.276-.019 5.608 3.451 13.888 8.367 13.699 4.961-.191 8.194-8.805 8.01-14.456-.172-5.27-3.692-12.69-8.318-12.52z"/><use xlink:href="#l" x="-10.33" y="19.16"/><use xlink:href="#l" x="-22.39" y="37.02"/><use xlink:href="#l" x="-34.87" y="52.31"/><use xlink:href="#l" x="-47.79" y="66.51"/><use xlink:href="#l" x="-61.99" y="78.14"/><use xlink:href="#l" x="-75.56" y="90.62"/><path d="M1692.79 1500.17l-5.262 20.595s2.935 7.335 6 7.026c5.481-.552 6.965-9.047 8.01-14.456.948-8.424-8.748-13.166-8.748-13.166zm324.42 13.08c1.61 6.124 15.26 11.314 15.26 11.314l-6.651-27.758c-5.717.154-9.495 12.436-8.609 16.444zm-1.2-22.3c-4.359-1.722-10.549 4.043-12.709 8.928-2.266 5.129-2.409 14.106 2.17 15.905 4.621 1.815 11.038-4.779 13.136-10.029 1.956-4.897 1.708-13.105-2.597-14.806z"/><path id="m" d="M2000.82 1478.67c-4.68-.243-8.711 7.193-9.202 12.512-.514 5.584 2.211 14.139 7.124 14.385 4.958.249 8.94-8.046 9.256-13.691.294-5.265-2.556-12.966-7.179-13.207z"/><use xlink:href="#m" x="-13.4" y="-13.7"/><use xlink:href="#m" x="-25.88" y="-29.23"/><use xlink:href="#m" x="-38.66" y="-42.32"/><use xlink:href="#m" x="-49.01" y="-60.28"/><use xlink:href="#m" x="-60.28" y="-76.41"/><use xlink:href="#m" x="-70.63" y="-93.46"/><use xlink:href="#m" x="-79.76" y="-113.25"/><use xlink:href="#m" x="-89.81" y="-131.21"/><use xlink:href="#m" x="-98.03" y="-152.52"/><path d="M1883.85 1304.56s-1.647 26.676 8.037 28.389c6.039 1.068 10.778-14.909 10.778-14.909z"/><path id="n" d="M1862.02 1610.75c-2.878 3.699.914 11.26 4.995 14.706 4.285 3.617 12.86 6.278 15.874 2.389 3.041-3.924-1.482-11.936-5.931-15.425-4.149-3.254-12.096-5.324-14.938-1.67z"/><use xlink:href="#n" x="18.3" y="-2.15"/><use xlink:href="#n" x="36.81" y="-5.81"/><path id="o" d="M1916.18 1603.8c-2.29 4.089 2.594 10.995 7.147 13.79 4.78 2.933 13.657 4.276 16.052-.021 2.418-4.336-3.258-11.578-8.18-14.36-4.591-2.594-12.758-3.447-15.02.592z"/><use xlink:href="#o" x="20.02" y="-3.22"/><path id="p" d="M1953.48 1595.43c-1.903 4.283 3.598 10.709 8.389 13.071 5.03 2.479 13.993 2.997 15.982-1.503 2.007-4.541-4.313-11.228-9.471-13.544-4.811-2.159-13.022-2.255-14.901 1.976z"/><use xlink:href="#p" x="18.94" y="-5.59"/><path id="q" d="M1991.26 1583.89c-1.646 4.388 4.225 10.477 9.147 12.553 5.168 2.177 14.146 2.165 15.865-2.445 1.735-4.651-4.968-10.953-10.255-12.96-4.93-1.871-13.132-1.482-14.758 2.853z"/><use xlink:href="#q" x="19.16" y="-6.24"/><use xlink:href="#q" x="37.67" y="-13.99"/><use xlink:href="#q" x="57.48" y="-22.17"/><use xlink:href="#q" x="77.5" y="-28.63"/><use xlink:href="#q" x="79.87" y="-44.34"/><path d="M2066.71 1534.88s13.55 1.992 14.789-2.875c1.646-6.463-15.421-12.745-15.421-12.745z"/><path id="r" d="M1701.62 1575.59c-3.986 2.465-3.066 10.873-.441 15.525 2.757 4.883 9.867 10.365 14.047 7.77 4.218-2.619 2.768-11.705-.186-16.526-2.756-4.496-9.483-9.204-13.421-6.769z"/><use xlink:href="#r" x="18.94" y="7.75"/><use xlink:href="#r" x="37.03" y="10.55"/><use xlink:href="#r" x="56.83" y="15.5"/><use xlink:href="#r" x="74.7" y="18.08"/><use xlink:href="#r" x="92.35" y="21.74"/><use xlink:href="#r" x="110.43" y="26.69"/><use xlink:href="#r" x="128.3" y="29.92"/><use xlink:href="#r" x="146.6" y="32.72"/><path d="M1648.16 1517.51c-4.167-2.145-10.898 2.977-13.531 7.625-2.764 4.879-3.796 13.798.582 16.042 4.418 2.264 11.457-3.661 14.065-8.677 2.432-4.678 2.999-12.871-1.117-14.99zm-6.15 16.89c-4.415-1.572-10.405 4.401-12.396 9.357-2.09 5.204-1.926 14.18 2.712 15.822 4.68 1.657 10.868-5.153 12.786-10.472 1.788-4.96 1.26-13.155-3.102-14.708zm5.73 15.54c-4.54-1.165-9.963 5.326-11.496 10.443-1.609 5.372-.632 14.296 4.136 15.511 4.811 1.225 10.356-6.117 11.783-11.588 1.331-5.102.061-13.215-4.423-14.366zm14.63 6.37c-4.499-1.313-10.132 4.998-11.832 10.062-1.784 5.316-1.099 14.268 3.626 15.638 4.768 1.382 10.55-5.775 12.156-11.197 1.497-5.056.493-13.206-3.951-14.503z"/><path id="s" d="M1671.91 1558.81c-4.547 1.134-6.232 9.423-5.148 14.653 1.139 5.491 6.242 12.877 11.013 11.679 4.815-1.21 6.202-10.306 4.856-15.797-1.255-5.121-6.23-11.655-10.722-10.535z"/><use xlink:href="#s" x="16.79" y="6.24"/><use xlink:href="#i" x="8.611" y="-11.189"/><use xlink:href="#i" x="4.66" y="6.47"/><use xlink:href="#i" x="4.911" y="26.679"/><use xlink:href="#i" x="4.66" y="47.87"/><use xlink:href="#i" x="5.57" y="68.57"/><use xlink:href="#i" x="2.22" y="87.75"/><use xlink:href="#i" x="4.66" y="109.06"/><use xlink:href="#i" x="2.22" y="126.41"/><use xlink:href="#i" x="4.66" y="143.46"/><use xlink:href="#i" x="4.66" y="163.86"/><use xlink:href="#i" x="3.44" y="183.95"/><use xlink:href="#i" x="3.74" y="203.13"/><use xlink:href="#i" x="4.35" y="223.52"/><use xlink:href="#i" x="4.35" y="243.31"/><use xlink:href="#i" x="3.74" y="263.1"/><use xlink:href="#i" x="2.52" y="283.19"/><use xlink:href="#i" x="2.52" y="305.11"/><use xlink:href="#i" x="1.92" y="327.94"/><use xlink:href="#i" x="1.92" y="349.25"/><use xlink:href="#i" x="1.92" y="369.04"/><use xlink:href="#i" x="1.31" y="391.27"/><path id="t" d="M1882.24 1303.18c2.442 3.707-1.32 10.832-5.164 13.97-4.036 3.293-11.912 5.463-14.469 1.567-2.58-3.932 1.864-11.458 6.042-14.621 3.897-2.949 11.178-4.577 13.591-.915z"/><use xlink:href="#t" x="2.74" y="16.13"/><use xlink:href="#t" x="2.43" y="34.1"/><use xlink:href="#t" x="2.13" y="52.36"/><use xlink:href="#t" x="1.82" y="69.11"/><use xlink:href="#t" x="2.74" y="87.07"/><use xlink:href="#t" x="1.52" y="104.42"/><path d="M1883.25 1426.06c2.696 3.834-1.456 11.203-5.699 14.448-4.455 3.406-13.148 5.65-15.971 1.62-2.848-4.066 2.057-11.85 6.669-15.121 4.301-3.05 12.339-4.734 15.002-.947z"/><path id="u" d="M1882.09 1443.58c3.392 3.235.755 11.272-2.773 15.282-3.705 4.209-11.794 8.104-15.348 4.703-3.586-3.433-.293-12.024 3.593-16.131 3.624-3.83 11.179-7.048 14.529-3.853z"/><use xlink:href="#u" x=".61" y="20.4"/><use xlink:href="#u" x=".92" y="40.49"/><use xlink:href="#u" x=".31" y="62.11"/><use xlink:href="#u" x=".92" y="82.2"/><use xlink:href="#u" x=".31" y="102.6"/><use xlink:href="#u" x=".61" y="122.99"/><use xlink:href="#u" x=".61" y="143.69"/><use xlink:href="#u" x="-.3" y="164.4"/><use xlink:href="#u" x=".92" y="183.27"/><use xlink:href="#u" x=".92" y="203.06"/><use xlink:href="#u" x=".31" y="224.37"/><use xlink:href="#u" x=".31" y="245.37"/></g><path fill="#fa0204" d="M1849.64 1848.26c19.902 5.524 31.759 5.236 48.219.43l-17.436-27.984"/><path fill="#ce9d09" d="M1888.31 1776.16l-31.708-8.141s.367-35.183 20.389-32.115c16.619 2.546 11.985 40.341 11.319 40.257z"/><circle fill="#ce9d09" cx="1872.886" cy="1722.971" r="12.916"/><path fill="#fa0204" d="M1885.37 1791.86c7.048 17.864 11.37 33.241 4.736 53.386m7.597 3.413c-10.226-8.255-36.582-5.832-47.981-.347-4.453 0-16.445-83.24 25.722-81.183 38.721 1.889 24.949 81.915 22.259 81.53zm-82.503 17.681c19.292 12.239 37.25 11.14 54.247.43l-40.255-41.977"/><circle fill="#ce9d09" cx="1843.396" cy="1738.255" r="12.916"/><path fill="#ce9d09" d="M1859.33 1780.02l-32.72-.646s-4.245-26.613 16.145-27.769c16.924-.96 17.252 28.363 16.575 28.415z"/><path fill="#fa0204" d="M1843.61 1860.74c-6.261-13.91-6.911-31.026-5.166-49.511m-9.472 50.372c-7.682-13.183-9.107-30.015-3.014-51.233m43.404 56.636c-4.926-6.191-40.227-8.829-54.096-.392-5.02 0-18.541-93.848 29-91.528 43.656 2.13 28.129 92.354 25.096 91.92z"/></g></svg>